<?xml version="1.0" encoding="UTF-8"?>
<!DOCTYPE svg PUBLIC "-//W3C//DTD SVG 1.1//EN" "http://www.w3.org/Graphics/SVG/1.1/DTD/svg11.dtd">
<!-- Creator: CorelDRAW 2019 (64-Bit) -->
<svg xmlns="http://www.w3.org/2000/svg" xml:space="preserve" width="254mm" height="238.653mm" version="1.1" style="shape-rendering:geometricPrecision; text-rendering:geometricPrecision; image-rendering:optimizeQuality; fill-rule:evenodd; clip-rule:evenodd"
viewBox="0 0 18011.71 16923.42"
 xmlns:xlink="http://www.w3.org/1999/xlink">
 <defs>
  <style type="text/css">
   <![CDATA[
    .fil0 {fill:none}
    .fil3 {fill:#FEFEFE}
    .fil4 {fill:#332C2B}
    .fil1 {fill:#757475}
    .fil2 {fill:#373435;fill-rule:nonzero}
    .fil5 {fill:#A43234;fill-rule:nonzero}
   ]]>
  </style>
 </defs>
 <g id="Layer_x0020_1">
  <metadata id="CorelCorpID_0Corel-Layer"/>
  <g id="_2362911054592">
   <polygon class="fil0" points="-0,0 18011.71,0 18011.71,16923.42 -0,16923.42 "/>
   <g>
    <polygon class="fil1" points="14886.4,13527.15 14062.27,15750.83 13805.74,16539.54 12242.84,16539.54 12713.78,14874.28 12600.56,14598.81 12522.4,14514.04 12192.19,14273.89 2091.45,10792.1 2046.42,8889.13 5550.32,10134.94 12379.78,12491.48 "/>
    <path class="fil2" d="M7902.89 4940.45c-9.18,-5.35 -15.52,-11.81 -19.08,-19.3 -3.5,-7.53 -4.45,-15.93 -2.78,-25.22 2.52,-14.03 9.66,-24.88 21.42,-32.63 11.8,-7.74 26.02,-10.13 42.75,-7.13 16.77,3.01 29.43,10.33 37.9,21.95 8.47,11.61 11.45,24.41 8.92,38.44 -1.6,8.93 -5.33,16.31 -11.18,22.06 -5.85,5.8 -13.86,9.64 -24.05,11.51 11.1,5.98 18.91,13.76 23.51,23.48 4.6,9.67 5.86,20.45 3.72,32.38 -2.96,16.46 -11.26,29.22 -24.89,38.34 -13.67,9.13 -29.97,11.98 -48.94,8.57 -18.97,-3.4 -33.25,-11.76 -42.89,-25.11 -9.59,-13.34 -12.91,-28.41 -9.89,-45.23 2.25,-12.51 7.32,-22.43 15.2,-29.72 7.89,-7.33 17.98,-11.45 30.27,-12.38zm2.51 -41.02c-1.65,9.15 -0.07,17.11 4.67,23.94 4.79,6.84 11.89,11.11 21.35,12.81 9.2,1.65 17.15,0.11 23.97,-4.58 6.81,-4.71 10.95,-11.23 12.45,-19.56 1.57,-8.71 -0.08,-16.54 -4.99,-23.54 -4.86,-6.98 -11.81,-11.28 -20.83,-12.91 -9.1,-1.63 -17.11,-0.06 -24.07,4.66 -6.91,4.73 -11.11,11.1 -12.56,19.17zm-23.8 87.65c-1.22,6.77 -0.82,13.55 1.18,20.44 2.01,6.84 5.89,12.57 11.64,17.17 5.7,4.59 12.2,7.56 19.42,8.86 11.39,2.04 21.37,0.09 29.98,-5.86 8.61,-5.96 13.91,-14.54 15.92,-25.74 2.04,-11.4 -0.04,-21.49 -6.18,-30.28 -6.2,-8.79 -15.03,-14.22 -26.46,-16.27 -11.21,-2.01 -21.06,0.01 -29.65,6.06 -8.59,6.05 -13.87,14.59 -15.85,25.62zm128.36 80.4l4.83 -26.9 26.9 4.83 -4.83 26.9c-1.78,9.91 -4.97,17.63 -9.61,23.09 -4.59,5.47 -11.05,9.21 -19.31,11.16l-4.63 -11.39c5.42,-1.3 9.68,-3.86 12.77,-7.66 3.13,-3.84 5.58,-9.69 7.28,-17.62l-13.4 -2.41zm71.28 -39.97l24.25 1.03c0.33,13.94 3.16,24.45 8.59,31.54 5.44,7.08 12.89,11.47 22.35,13.18 11.21,2.01 21.37,-0.15 30.37,-6.49 9.01,-6.35 14.54,-15.21 16.59,-26.6 1.94,-10.85 0.01,-20.46 -5.84,-28.82 -5.82,-8.31 -14.2,-13.47 -25.19,-15.45 -4.48,-0.8 -10.2,-0.91 -17.2,-0.35l6.37 -20.24c1.54,0.46 2.82,0.78 3.76,0.94 10.14,1.82 19.67,0.81 28.73,-2.98 9.01,-3.8 14.49,-11.14 16.44,-22.04 1.56,-8.65 -0.11,-16.36 -4.96,-23.11 -4.86,-6.75 -11.93,-10.93 -21.21,-12.61 -9.23,-1.65 -17.43,-0.11 -24.62,4.61 -7.19,4.72 -12.7,12.76 -16.54,24.1l-22.9 -8.56c5.77,-15.35 14.52,-26.51 26.37,-33.4 11.79,-6.91 25.35,-8.96 40.6,-6.23 10.49,1.89 19.77,5.86 27.79,11.98 8.07,6.08 13.74,13.43 17.01,22.03 3.3,8.65 4.16,17.32 2.58,26.06 -1.49,8.3 -5.08,15.42 -10.74,21.44 -5.71,6.01 -13.32,10.25 -22.79,12.71 10.93,4.65 18.78,11.7 23.61,21.13 4.8,9.38 6.07,20.35 3.84,32.77 -3.02,16.81 -11.74,30.02 -26.09,39.53 -14.38,9.49 -30.95,12.54 -49.69,9.17 -16.91,-3.04 -30.03,-10.62 -39.38,-22.72 -9.4,-12.1 -13.42,-26.29 -12.1,-42.63zm149.54 27.41l25.09 2.56c-0.33,12.4 2.3,22.22 7.85,29.51 5.55,7.24 13.12,11.75 22.66,13.47 11.52,2.06 21.94,-0.51 31.33,-7.66 9.34,-7.21 15.29,-17.9 17.83,-32.07 2.43,-13.5 0.61,-24.8 -5.47,-33.94 -6.09,-9.15 -15.3,-14.83 -27.63,-17.04 -7.67,-1.38 -14.84,-0.87 -21.56,1.54 -6.69,2.41 -12.25,6.08 -16.75,11.01l-21.75 -7.23 36.34 -95.68 95.51 17.16 -4.06 22.6 -76.63 -13.76 -19.6 50.12c12.98,-6.04 25.81,-7.91 38.46,-5.63 16.77,3.01 29.89,11.38 39.32,25.12 9.43,13.72 12.52,29.74 9.24,48.04 -3.13,17.44 -10.91,31.6 -23.32,42.47 -15.13,13.39 -33.39,18.16 -54.74,14.33 -17.49,-3.14 -30.86,-10.64 -40.16,-22.44 -9.31,-11.81 -13.3,-25.95 -11.96,-42.47z"/>
    <path class="fil2" d="M9921.6 5278.06l4.06 -22.6 124.56 22.37 -3.28 18.3c-14.59,10.85 -29.9,26.01 -45.8,45.51 -15.96,19.49 -29.24,40.11 -39.95,61.84 -7.59,15.26 -13.82,32.42 -18.57,51.38l-24.22 -4.35c2.99,-15.1 9.25,-32.91 18.8,-53.37 9.57,-20.5 21.4,-39.76 35.61,-57.8 14.22,-18.05 28.54,-32.83 42.97,-44.36l-94.16 -16.91zm130.83 196.52l4.83 -26.9 26.9 4.83 -4.83 26.9c-1.78,9.91 -4.97,17.63 -9.61,23.09 -4.59,5.47 -11.05,9.21 -19.31,11.16l-4.63 -11.39c5.42,-1.3 9.68,-3.86 12.77,-7.66 3.13,-3.84 5.58,-9.69 7.28,-17.62l-13.4 -2.41zm79.17 -83.9c4.08,-22.73 9.71,-40.7 16.88,-53.77 7.22,-13.1 16.09,-22.56 26.67,-28.39 10.54,-5.84 22.82,-7.47 36.8,-4.96 10.32,1.86 19.01,5.54 26.1,11.13 7.06,5.57 12.43,12.74 16.05,21.48 3.62,8.71 5.85,18.97 6.7,30.74 0.89,11.78 -0.4,27.24 -3.83,46.29 -4.06,22.6 -9.67,40.48 -16.79,53.55 -7.13,13.12 -15.99,22.59 -26.59,28.46 -10.54,5.88 -22.88,7.55 -36.96,5.02 -18.52,-3.33 -31.9,-12.54 -40.11,-27.66 -9.79,-18.42 -11.42,-45.7 -4.92,-81.88zm24.2 4.44c-5.69,31.7 -5.8,53.44 -0.27,65.17 5.52,11.77 13.74,18.61 24.59,20.56 10.85,1.95 20.94,-1.65 30.22,-10.76 9.29,-9.17 16.74,-29.54 22.42,-61.15 5.69,-31.7 5.8,-53.44 0.27,-65.17 -5.48,-11.77 -13.78,-18.63 -24.85,-20.62 -10.86,-1.95 -20.38,1.11 -28.54,9.13 -10.22,10.25 -18.15,31.23 -23.83,62.84zm125.44 22.44c4.08,-22.73 9.71,-40.7 16.87,-53.77 7.22,-13.1 16.1,-22.56 26.67,-28.39 10.54,-5.84 22.82,-7.47 36.81,-4.96 10.32,1.86 19,5.54 26.1,11.13 7.05,5.57 12.43,12.74 16.05,21.48 3.62,8.71 5.85,18.97 6.69,30.74 0.89,11.78 -0.4,27.24 -3.82,46.29 -4.06,22.6 -9.68,40.48 -16.8,53.55 -7.12,13.12 -15.99,22.59 -26.59,28.46 -10.54,5.88 -22.88,7.55 -36.97,5.02 -18.52,-3.33 -31.9,-12.54 -40.11,-27.66 -9.79,-18.42 -11.42,-45.7 -4.91,-81.88zm24.2 4.44c-5.69,31.7 -5.81,53.44 -0.28,65.17 5.52,11.77 13.74,18.61 24.59,20.56 10.86,1.95 20.95,-1.65 30.22,-10.76 9.28,-9.17 16.74,-29.54 22.42,-61.15 5.69,-31.7 5.8,-53.44 0.27,-65.17 -5.48,-11.77 -13.78,-18.63 -24.85,-20.62 -10.86,-1.95 -20.38,1.11 -28.54,9.13 -10.22,10.25 -18.15,31.23 -23.83,62.84z"/>
    <path class="fil2" d="M11782.24 5618.75l4.06 -22.6 124.56 22.37 -3.28 18.3c-14.59,10.85 -29.9,26.01 -45.8,45.51 -15.96,19.49 -29.24,40.11 -39.95,61.84 -7.59,15.26 -13.82,32.42 -18.57,51.38l-24.22 -4.35c2.99,-15.1 9.25,-32.91 18.8,-53.37 9.57,-20.5 21.4,-39.76 35.61,-57.8 14.22,-18.05 28.54,-32.83 42.97,-44.36l-94.16 -16.91zm130.83 196.52l4.83 -26.9 26.9 4.83 -4.83 26.9c-1.78,9.91 -4.97,17.63 -9.61,23.09 -4.59,5.47 -11.05,9.21 -19.31,11.16l-4.63 -11.39c5.42,-1.3 9.68,-3.86 12.77,-7.66 3.13,-3.84 5.58,-9.69 7.28,-17.62l-13.4 -2.41zm79.17 -83.9c4.08,-22.73 9.71,-40.7 16.88,-53.77 7.22,-13.1 16.09,-22.56 26.67,-28.39 10.54,-5.84 22.82,-7.47 36.8,-4.96 10.32,1.86 19.01,5.54 26.1,11.13 7.06,5.57 12.43,12.74 16.05,21.48 3.62,8.71 5.85,18.97 6.7,30.74 0.89,11.78 -0.4,27.24 -3.83,46.29 -4.06,22.6 -9.67,40.48 -16.79,53.55 -7.13,13.12 -15.99,22.59 -26.59,28.46 -10.54,5.88 -22.88,7.55 -36.96,5.02 -18.52,-3.33 -31.9,-12.54 -40.11,-27.66 -9.79,-18.42 -11.42,-45.7 -4.92,-81.88zm24.2 4.44c-5.69,31.7 -5.8,53.44 -0.27,65.17 5.52,11.77 13.74,18.61 24.59,20.56 10.85,1.95 20.94,-1.65 30.22,-10.76 9.29,-9.17 16.74,-29.54 22.42,-61.15 5.69,-31.7 5.8,-53.44 0.27,-65.17 -5.48,-11.77 -13.78,-18.63 -24.85,-20.62 -10.86,-1.95 -20.38,1.11 -28.54,9.13 -10.22,10.25 -18.15,31.23 -23.83,62.84zm125.44 22.44c4.08,-22.73 9.71,-40.7 16.87,-53.77 7.22,-13.1 16.1,-22.56 26.67,-28.39 10.54,-5.84 22.82,-7.47 36.81,-4.96 10.32,1.86 19,5.54 26.1,11.13 7.05,5.57 12.43,12.74 16.05,21.48 3.62,8.71 5.85,18.97 6.69,30.74 0.89,11.78 -0.4,27.24 -3.82,46.29 -4.06,22.6 -9.68,40.48 -16.8,53.55 -7.12,13.12 -15.99,22.59 -26.59,28.46 -10.54,5.88 -22.88,7.55 -36.97,5.02 -18.52,-3.33 -31.9,-12.54 -40.11,-27.66 -9.79,-18.42 -11.42,-45.7 -4.91,-81.88zm24.2 4.44c-5.69,31.7 -5.81,53.44 -0.28,65.17 5.52,11.77 13.74,18.61 24.59,20.56 10.86,1.95 20.95,-1.65 30.22,-10.76 9.28,-9.17 16.74,-29.54 22.42,-61.15 5.69,-31.7 5.8,-53.44 0.27,-65.17 -5.48,-11.77 -13.78,-18.63 -24.85,-20.62 -10.86,-1.95 -20.38,1.11 -28.54,9.13 -10.22,10.25 -18.15,31.23 -23.83,62.84z"/>
    <path class="fil2" d="M13643.45 5986.49l4.06 -22.6 124.56 22.37 -3.28 18.3c-14.59,10.85 -29.9,26.01 -45.8,45.51 -15.96,19.49 -29.24,40.11 -39.95,61.84 -7.59,15.26 -13.82,32.42 -18.57,51.38l-24.22 -4.35c2.99,-15.1 9.25,-32.91 18.8,-53.37 9.57,-20.5 21.4,-39.76 35.61,-57.8 14.22,-18.05 28.54,-32.83 42.97,-44.36l-94.16 -16.91zm130.83 196.52l4.83 -26.9 26.9 4.83 -4.83 26.9c-1.78,9.91 -4.97,17.63 -9.61,23.09 -4.59,5.47 -11.05,9.21 -19.31,11.16l-4.63 -11.39c5.42,-1.3 9.68,-3.86 12.77,-7.66 3.13,-3.84 5.58,-9.69 7.28,-17.62l-13.4 -2.41zm79.17 -83.9c4.08,-22.73 9.71,-40.7 16.88,-53.77 7.22,-13.1 16.09,-22.56 26.67,-28.39 10.54,-5.84 22.82,-7.47 36.8,-4.96 10.32,1.86 19.01,5.54 26.1,11.13 7.06,5.57 12.43,12.74 16.05,21.48 3.62,8.71 5.85,18.97 6.7,30.74 0.89,11.78 -0.4,27.24 -3.83,46.29 -4.06,22.6 -9.67,40.48 -16.79,53.55 -7.13,13.12 -15.99,22.59 -26.59,28.46 -10.54,5.88 -22.88,7.55 -36.96,5.02 -18.52,-3.33 -31.9,-12.54 -40.11,-27.66 -9.79,-18.42 -11.42,-45.7 -4.92,-81.88zm24.2 4.44c-5.69,31.7 -5.8,53.44 -0.27,65.17 5.52,11.77 13.74,18.61 24.59,20.56 10.85,1.95 20.94,-1.65 30.22,-10.76 9.29,-9.17 16.74,-29.54 22.42,-61.15 5.69,-31.7 5.8,-53.44 0.27,-65.17 -5.48,-11.77 -13.78,-18.63 -24.85,-20.62 -10.86,-1.95 -20.38,1.11 -28.54,9.13 -10.22,10.25 -18.15,31.23 -23.83,62.84zm125.44 22.44c4.08,-22.73 9.71,-40.7 16.87,-53.77 7.22,-13.1 16.1,-22.56 26.67,-28.39 10.54,-5.84 22.82,-7.47 36.81,-4.96 10.32,1.86 19,5.54 26.1,11.13 7.05,5.57 12.43,12.74 16.05,21.48 3.62,8.71 5.85,18.97 6.69,30.74 0.89,11.78 -0.4,27.24 -3.82,46.29 -4.06,22.6 -9.68,40.48 -16.8,53.55 -7.12,13.12 -15.99,22.59 -26.59,28.46 -10.54,5.88 -22.88,7.55 -36.97,5.02 -18.52,-3.33 -31.9,-12.54 -40.11,-27.66 -9.79,-18.42 -11.42,-45.7 -4.91,-81.88zm24.2 4.44c-5.69,31.7 -5.81,53.44 -0.28,65.17 5.52,11.77 13.74,18.61 24.59,20.56 10.86,1.95 20.95,-1.65 30.22,-10.76 9.28,-9.17 16.74,-29.54 22.42,-61.15 5.69,-31.7 5.8,-53.44 0.27,-65.17 -5.48,-11.77 -13.78,-18.63 -24.85,-20.62 -10.86,-1.95 -20.38,1.11 -28.54,9.13 -10.22,10.25 -18.15,31.23 -23.83,62.84z"/>
    <path class="fil2" d="M5921.1 10508.78l24.46 6.5c-2.4,12.19 -1.43,22.36 2.9,30.49 4.28,8.1 10.98,13.79 20.03,17.03 10.86,3.91 21.57,3.11 32.05,-2.38 10.47,-5.49 18.14,-15.01 23.02,-28.55 4.64,-12.91 4.71,-24.39 0.13,-34.44 -4.58,-10.06 -12.68,-17.17 -24.41,-21.4 -7.32,-2.6 -14.47,-3.33 -21.49,-2.14 -7.07,1.23 -13.24,3.83 -18.46,7.89l-20.25 -10.38 51.84 -88.13 91.53 32.91 -7.75 21.64 -73.44 -26.46 -27.73 45.93c13.82,-3.74 26.8,-3.43 38.95,0.94 16.08,5.8 27.63,16.21 34.68,31.34 7.05,15.13 7.4,31.4 1.13,48.89 -5.99,16.69 -16.05,29.32 -30.1,37.98 -17.2,10.64 -35.99,12.3 -56.38,4.96 -16.78,-6.03 -28.74,-15.64 -35.95,-28.8 -7.24,-13.17 -8.79,-27.8 -4.76,-43.82z"/>
    <path id="1" class="fil2" d="M6059.37 10611.82l9.24 -25.73 25.76 9.24 -9.28 25.77c-3.38,9.45 -7.81,16.49 -13.26,21.09 -5.45,4.62 -12.35,7.21 -20.78,7.75l-2.79 -11.91c5.52,-0.38 10.13,-2.21 13.84,-5.47 3.72,-3.21 7.07,-8.61 10.08,-16.15l-12.81 -4.6z"/>
    <path id="2" class="fil2" d="M6177.84 10473.23l7.85 -21.72 119.17 42.84 -6.36 17.59c-16.18,8.23 -33.76,20.64 -52.73,37.19 -18.93,16.55 -35.45,34.57 -49.61,54.21 -10.06,13.74 -19.01,29.58 -26.87,47.48l-23.23 -8.36c5.47,-14.4 14.6,-30.88 27.44,-49.43 12.79,-18.55 27.71,-35.53 44.75,-50.91 17,-15.37 33.62,-27.53 49.77,-36.48l-90.18 -32.4z"/>
    <path id="3" class="fil2" d="M6279.83 10634.52l23.71 5.13c-2,13.74 -0.94,24.55 3.29,32.46 4.18,7.91 10.76,13.47 19.71,16.66 10.63,3.86 20.93,3.38 30.94,-1.35 9.96,-4.76 16.89,-12.54 20.84,-23.41 3.72,-10.41 3.42,-20.16 -0.94,-29.35 -4.36,-9.18 -11.79,-15.66 -22.24,-19.42 -4.28,-1.53 -9.92,-2.62 -16.84,-3.21l9.6 -18.93c1.45,0.69 2.64,1.2 3.59,1.52 9.59,3.47 19.2,4.09 28.69,1.83 9.5,-2.26 16.14,-8.59 19.9,-19.09 2.98,-8.28 2.66,-16.16 -0.97,-23.61 -3.69,-7.45 -9.94,-12.77 -18.81,-15.98 -8.82,-3.16 -17.11,-3.03 -24.97,0.38 -7.86,3.46 -14.61,10.39 -20.23,20.83l-21.15 -12.17c8.2,-14.15 18.7,-23.61 31.49,-28.45 12.79,-4.79 26.46,-4.56 41.04,0.64 10.04,3.62 18.52,9.11 25.4,16.48 6.92,7.34 11.24,15.57 13.05,24.6 1.81,9.08 1.21,17.78 -1.82,26.18 -2.83,7.91 -7.57,14.4 -14.2,19.41 -6.59,4.96 -14.81,7.91 -24.57,8.72 9.98,6.45 16.58,14.69 19.74,24.78 3.22,10.09 2.65,21.06 -1.62,32.92 -5.81,16.09 -16.54,27.59 -32.26,34.55 -15.77,6.96 -32.58,7.25 -50.48,0.8 -16.18,-5.8 -27.88,-15.44 -35.07,-28.93 -7.2,-13.44 -8.79,-28.12 -4.81,-44z"/>
    <path class="fil2" d="M7606.95 10970.45l6.86 -21.91 120.78 37.8 -5.55 17.74c-15.83,8.93 -32.92,22.06 -51.14,39.41 -18.27,17.35 -34.03,36.14 -47.38,56.35 -9.45,14.19 -17.78,30.44 -24.86,48.65l-23.49 -7.35c4.86,-14.61 13.3,-31.5 25.34,-50.59 12.06,-19.15 26.21,-36.77 42.57,-52.89 16.36,-16.13 32.42,-29 48.18,-38.63l-91.3 -28.57zm105.18 211.36l8.16 -26.09 26.08 8.16 -8.16 26.09c-3.01,9.61 -7.13,16.86 -12.42,21.7 -5.24,4.85 -12.12,7.76 -20.56,8.65l-3.16 -11.88c5.54,-0.6 10.08,-2.62 13.62,-5.99 3.6,-3.42 6.75,-8.91 9.44,-16.58l-13 -4.06zm89.06 -73.33c6.9,-22.04 14.74,-39.16 23.48,-51.23 8.8,-12.09 18.79,-20.37 30.02,-24.83 11.18,-4.47 23.58,-4.55 37.14,-0.3 10.01,3.13 18.16,7.87 24.5,14.3 6.3,6.4 10.74,14.19 13.23,23.32 2.5,9.09 3.43,19.55 2.79,31.33 -0.59,11.8 -3.81,26.98 -9.59,45.45 -6.86,21.91 -14.66,38.95 -23.37,51.02 -8.71,12.12 -18.7,20.4 -29.95,24.9 -11.2,4.52 -23.64,4.63 -37.3,0.35 -17.95,-5.62 -30.08,-16.43 -36.33,-32.47 -7.4,-19.5 -5.6,-46.77 5.38,-81.85zm23.45 7.43c-9.62,30.74 -12.45,52.3 -8.43,64.62 4.01,12.37 11.3,20.2 21.81,23.49 10.52,3.3 20.99,0.99 31.34,-6.9 10.35,-7.93 20.3,-27.2 29.9,-57.86 9.62,-30.73 12.45,-52.29 8.43,-64.62 -3.96,-12.36 -11.34,-20.2 -22.08,-23.56 -10.52,-3.3 -20.35,-1.46 -29.45,5.48 -11.42,8.89 -21.92,28.71 -31.51,59.35zm121.64 37.97c6.9,-22.04 14.74,-39.16 23.47,-51.23 8.8,-12.09 18.79,-20.37 30.02,-24.83 11.19,-4.47 23.58,-4.56 37.14,-0.31 10,3.13 18.16,7.87 24.5,14.3 6.3,6.4 10.74,14.19 13.23,23.32 2.5,9.09 3.43,19.55 2.79,31.34 -0.6,11.8 -3.82,26.98 -9.59,45.45 -6.86,21.91 -14.67,38.95 -23.37,51.02 -8.71,12.12 -18.69,20.4 -29.94,24.9 -11.2,4.52 -23.64,4.63 -37.3,0.36 -17.95,-5.62 -30.09,-16.44 -36.33,-32.48 -7.41,-19.5 -5.61,-46.77 5.38,-81.85zm23.45 7.44c-9.62,30.73 -12.45,52.29 -8.43,64.62 4,12.38 11.3,20.2 21.81,23.49 10.52,3.3 20.98,0.99 31.33,-6.89 10.36,-7.94 20.31,-27.21 29.9,-57.86 9.62,-30.73 12.45,-52.29 8.43,-64.62 -3.96,-12.37 -11.34,-20.21 -22.07,-23.57 -10.52,-3.29 -20.36,-1.46 -29.46,5.48 -11.42,8.89 -21.92,28.71 -31.51,59.36z"/>
    <path class="fil2" d="M9415.64 11593.35l6.86 -21.91 120.78 37.8 -5.55 17.74c-15.83,8.93 -32.92,22.06 -51.14,39.41 -18.27,17.35 -34.03,36.14 -47.38,56.35 -9.45,14.19 -17.78,30.44 -24.86,48.65l-23.49 -7.35c4.86,-14.61 13.3,-31.5 25.34,-50.59 12.06,-19.15 26.21,-36.77 42.57,-52.89 16.36,-16.13 32.42,-29 48.18,-38.63l-91.3 -28.57zm105.18 211.36l8.16 -26.09 26.08 8.16 -8.16 26.09c-3.01,9.61 -7.13,16.86 -12.42,21.7 -5.24,4.85 -12.12,7.76 -20.56,8.65l-3.16 -11.88c5.54,-0.6 10.08,-2.62 13.62,-5.99 3.6,-3.42 6.75,-8.91 9.44,-16.58l-13 -4.06zm89.06 -73.33c6.9,-22.04 14.74,-39.16 23.48,-51.23 8.8,-12.09 18.79,-20.37 30.02,-24.83 11.18,-4.47 23.58,-4.55 37.14,-0.3 10.01,3.13 18.16,7.87 24.5,14.3 6.3,6.4 10.74,14.19 13.23,23.32 2.5,9.09 3.43,19.55 2.79,31.33 -0.59,11.8 -3.81,26.98 -9.59,45.45 -6.86,21.91 -14.66,38.95 -23.37,51.02 -8.71,12.12 -18.7,20.4 -29.95,24.9 -11.2,4.52 -23.64,4.63 -37.3,0.35 -17.95,-5.62 -30.08,-16.43 -36.33,-32.47 -7.4,-19.5 -5.6,-46.77 5.38,-81.85zm23.45 7.43c-9.62,30.74 -12.45,52.3 -8.43,64.62 4.01,12.37 11.3,20.2 21.81,23.49 10.52,3.3 20.99,0.99 31.34,-6.9 10.35,-7.93 20.3,-27.2 29.9,-57.86 9.62,-30.73 12.45,-52.29 8.43,-64.62 -3.96,-12.36 -11.34,-20.2 -22.08,-23.56 -10.52,-3.3 -20.35,-1.46 -29.45,5.48 -11.42,8.89 -21.92,28.71 -31.51,59.35zm121.64 37.97c6.9,-22.04 14.74,-39.16 23.47,-51.23 8.8,-12.09 18.79,-20.37 30.02,-24.83 11.19,-4.47 23.58,-4.56 37.14,-0.31 10,3.13 18.16,7.87 24.5,14.3 6.3,6.4 10.74,14.19 13.23,23.32 2.5,9.09 3.43,19.55 2.79,31.34 -0.6,11.8 -3.82,26.98 -9.59,45.45 -6.86,21.91 -14.67,38.95 -23.37,51.02 -8.71,12.12 -18.69,20.4 -29.94,24.9 -11.2,4.52 -23.64,4.63 -37.3,0.36 -17.95,-5.62 -30.09,-16.44 -36.33,-32.48 -7.41,-19.5 -5.61,-46.77 5.38,-81.85zm23.45 7.44c-9.62,30.73 -12.45,52.29 -8.43,64.62 4,12.38 11.3,20.2 21.81,23.49 10.52,3.3 20.98,0.99 31.33,-6.89 10.36,-7.94 20.31,-27.21 29.9,-57.86 9.62,-30.73 12.45,-52.29 8.43,-64.62 -3.96,-12.37 -11.34,-20.21 -22.07,-23.57 -10.52,-3.29 -20.36,-1.46 -29.46,5.48 -11.42,8.89 -21.92,28.71 -31.51,59.36z"/>
    <path class="fil2" d="M11194.28 12238.8l6.86 -21.91 120.78 37.8 -5.55 17.74c-15.83,8.93 -32.92,22.06 -51.14,39.41 -18.27,17.35 -34.03,36.14 -47.38,56.35 -9.45,14.19 -17.78,30.44 -24.86,48.65l-23.49 -7.35c4.86,-14.61 13.3,-31.5 25.34,-50.59 12.06,-19.15 26.21,-36.77 42.57,-52.89 16.36,-16.13 32.42,-29 48.18,-38.63l-91.3 -28.57zm105.18 211.36l8.16 -26.09 26.08 8.16 -8.16 26.09c-3.01,9.61 -7.13,16.86 -12.42,21.7 -5.24,4.85 -12.12,7.76 -20.56,8.65l-3.16 -11.88c5.54,-0.6 10.08,-2.62 13.62,-5.99 3.6,-3.42 6.75,-8.91 9.44,-16.58l-13 -4.06zm89.06 -73.33c6.9,-22.04 14.74,-39.16 23.48,-51.23 8.8,-12.09 18.79,-20.37 30.02,-24.83 11.18,-4.47 23.58,-4.55 37.14,-0.3 10.01,3.13 18.16,7.87 24.5,14.3 6.3,6.4 10.74,14.19 13.23,23.32 2.5,9.09 3.43,19.55 2.79,31.33 -0.59,11.8 -3.81,26.98 -9.59,45.45 -6.86,21.91 -14.66,38.95 -23.37,51.02 -8.71,12.12 -18.7,20.4 -29.95,24.9 -11.2,4.52 -23.64,4.63 -37.3,0.35 -17.95,-5.62 -30.08,-16.43 -36.33,-32.47 -7.4,-19.5 -5.6,-46.77 5.38,-81.85zm23.45 7.43c-9.62,30.74 -12.45,52.3 -8.43,64.62 4.01,12.37 11.3,20.2 21.81,23.49 10.52,3.3 20.99,0.99 31.34,-6.9 10.35,-7.93 20.3,-27.2 29.9,-57.86 9.62,-30.73 12.45,-52.29 8.43,-64.62 -3.96,-12.36 -11.34,-20.2 -22.08,-23.56 -10.52,-3.3 -20.35,-1.46 -29.45,5.48 -11.42,8.89 -21.92,28.71 -31.51,59.35zm121.64 37.97c6.9,-22.04 14.74,-39.16 23.47,-51.23 8.8,-12.09 18.79,-20.37 30.02,-24.83 11.19,-4.47 23.58,-4.56 37.14,-0.31 10,3.13 18.16,7.87 24.5,14.3 6.3,6.4 10.74,14.19 13.23,23.32 2.5,9.09 3.43,19.55 2.79,31.34 -0.6,11.8 -3.82,26.98 -9.59,45.45 -6.86,21.91 -14.67,38.95 -23.37,51.02 -8.71,12.12 -18.69,20.4 -29.94,24.9 -11.2,4.52 -23.64,4.63 -37.3,0.36 -17.95,-5.62 -30.09,-16.44 -36.33,-32.48 -7.41,-19.5 -5.61,-46.77 5.38,-81.85zm23.45 7.44c-9.62,30.73 -12.45,52.29 -8.43,64.62 4,12.38 11.3,20.2 21.81,23.49 10.52,3.3 20.98,0.99 31.33,-6.89 10.36,-7.94 20.31,-27.21 29.9,-57.86 9.62,-30.73 12.45,-52.29 8.43,-64.62 -3.96,-12.37 -11.34,-20.21 -22.07,-23.57 -10.52,-3.29 -20.36,-1.46 -29.46,5.48 -11.42,8.89 -21.92,28.71 -31.51,59.36z"/>
    <path class="fil2" d="M8121.33 11896.37l40.52 8.3c-7.72,25.3 -9.09,43.98 -4.08,56.13 5.03,12.08 14.93,20.76 29.55,25.9 10.76,3.79 20.96,4.57 30.51,2.39 9.57,-2.26 17.39,-7.08 23.33,-14.54 5.94,-7.45 12.18,-20.58 18.74,-39.22l78.94 -224.38 43.19 15.2 -78.03 221.81c-9.57,27.2 -20.24,47.13 -32.12,59.81 -11.84,12.6 -26.22,20.32 -43.32,23.17 -16.99,2.79 -35.12,0.84 -54.3,-5.9 -28.57,-10.06 -47.52,-25.92 -56.89,-47.7 -9.37,-21.77 -8.06,-48.73 3.96,-80.96zm376.18 203.02c-19.3,7.43 -36.74,11.25 -52.3,11.66 -15.56,0.41 -31.17,-2.18 -46.92,-7.73 -25.93,-9.12 -43.64,-22.42 -53.13,-39.98 -9.52,-17.49 -10.81,-36.08 -3.91,-55.71 4.05,-11.52 10.4,-21.12 19,-28.83 8.66,-7.68 18.22,-12.84 28.73,-15.61 10.59,-2.74 21.68,-3.79 33.41,-2.98 8.6,0.72 21.19,2.94 37.72,6.54 33.62,7.57 59.11,11.35 76.21,11.4 2.07,-5.41 3.38,-8.86 3.88,-10.3 5.71,-16.22 5.94,-29 0.71,-38.33 -7.06,-12.62 -20.71,-22.45 -40.87,-29.54 -18.86,-6.64 -33.99,-8.2 -45.25,-4.77 -11.33,3.43 -22.03,12.77 -32.27,28.08l-37.19 -19.21c9.45,-15.49 20.06,-27.01 31.87,-34.43 11.81,-7.43 26.4,-11.15 43.83,-11.32 17.33,-0.12 36.29,3.39 56.6,10.53 20.15,7.09 35.78,15.23 46.75,24.46 10.89,9.2 18.14,18.39 21.51,27.67 3.38,9.28 4.35,19.83 2.91,31.68 -1.11,7.28 -4.74,19.79 -10.96,37.44l-18.66 53.05c-13.03,37.06 -20.44,60.76 -22.26,71.28 -1.91,10.5 -1.91,21.14 -0.26,31.93l-41.82 -14.71c-1.06,-9.82 -0.18,-20.58 2.66,-32.27zm28.01 -89.78c-16.63,0.79 -40.21,-1.89 -70.75,-8.03 -17.35,-3.46 -29.95,-4.92 -37.81,-4.36 -7.86,0.55 -14.61,3.04 -20.3,7.34 -5.72,4.38 -9.82,10 -12.27,16.97 -3.71,10.54 -2.8,20.81 2.82,30.72 5.63,9.89 16.2,17.61 31.73,23.08 15.38,5.41 30.27,6.9 44.7,4.4 14.32,-2.46 26.41,-8.51 36.1,-18.13 7.49,-7.5 14.27,-20.02 20.43,-37.51l5.35 -14.47zm59.42 153.75l114.53 -325.55 40.02 14.08 -114.53 325.55 -40.02 -14.08zm266.46 60.52c-19.3,7.43 -36.74,11.26 -52.3,11.67 -15.56,0.4 -31.17,-2.19 -46.92,-7.74 -25.93,-9.12 -43.64,-22.42 -53.13,-39.98 -9.52,-17.49 -10.81,-36.08 -3.91,-55.71 4.05,-11.52 10.4,-21.12 19,-28.83 8.66,-7.68 18.22,-12.84 28.74,-15.61 10.59,-2.74 21.68,-3.78 33.41,-2.98 8.6,0.72 21.19,2.94 37.72,6.54 33.62,7.57 59.11,11.35 76.21,11.4 2.07,-5.4 3.38,-8.86 3.88,-10.3 5.71,-16.22 5.94,-29 0.71,-38.33 -7.06,-12.62 -20.71,-22.45 -40.87,-29.54 -18.86,-6.64 -33.98,-8.2 -45.25,-4.76 -11.33,3.42 -22.03,12.77 -32.27,28.07l-37.19 -19.21c9.45,-15.49 20.06,-27.01 31.87,-34.43 11.81,-7.42 26.4,-11.15 43.83,-11.32 17.34,-0.12 36.29,3.39 56.6,10.54 20.15,7.08 35.78,15.23 46.75,24.45 10.9,9.2 18.14,18.39 21.51,27.67 3.38,9.28 4.35,19.83 2.91,31.68 -1.11,7.28 -4.74,19.79 -10.96,37.45l-18.66 53.04c-13.03,37.06 -20.44,60.76 -22.26,71.28 -1.9,10.5 -1.91,21.14 -0.26,31.93l-41.82 -14.71c-1.06,-9.82 -0.17,-20.58 2.66,-32.27zm28.01 -89.78c-16.63,0.79 -40.21,-1.88 -70.75,-8.03 -17.35,-3.46 -29.95,-4.92 -37.81,-4.36 -7.86,0.55 -14.61,3.04 -20.3,7.34 -5.72,4.38 -9.82,10 -12.27,16.97 -3.71,10.54 -2.8,20.81 2.82,30.72 5.63,9.89 16.2,17.61 31.73,23.08 15.38,5.41 30.27,6.9 44.7,4.4 14.32,-2.46 26.41,-8.51 36.1,-18.13 7.49,-7.5 14.27,-20.02 20.43,-37.51l5.35 -14.47zm60.34 154.07l83.01 -235.98 35.92 12.64 -11.78 33.5c26.31,-19.61 55.82,-23.63 88.48,-12.13 14.25,5.01 26.37,12.18 36.49,21.44 10.1,9.26 16.68,19.15 19.68,29.49 3.01,10.34 3.71,21.66 2.06,33.85 -1.17,7.94 -4.97,21.16 -11.47,39.65l-50.97 144.89 -40.02 -14.08 50.44 -143.38c5.73,-16.29 8.51,-29.02 8.23,-38.15 -0.28,-9.13 -3.55,-17.52 -9.71,-25.14 -6.2,-7.54 -14.68,-13.25 -25.29,-16.98 -16.97,-5.97 -33.49,-5.74 -49.65,0.75 -16.14,6.42 -29.5,24.8 -40.11,54.96l-45.29 128.75 -40.02 -14.08z"/>
    <path class="fil2" d="M2750.3 6896.94c-1.02,-37.17 1.96,-67.35 8.96,-90.29 7.07,-23.02 17.95,-40.85 32.72,-53.51 14.69,-12.66 33.51,-19.27 56.39,-19.9 16.86,-0.47 31.78,2.5 44.79,8.96 12.95,6.47 23.78,16.01 32.34,28.61 8.56,12.53 15.45,27.97 20.65,46.24 5.27,18.27 8.3,43.07 9.16,74.23 1.02,36.95 -1.97,66.98 -8.89,89.91 -6.93,23.01 -17.81,40.85 -32.58,53.58 -14.69,12.74 -33.58,19.42 -56.61,20.05 -30.28,0.84 -54.4,-9.29 -72.31,-30.44 -21.47,-25.83 -32.99,-68.29 -34.62,-127.46zm39.59 -0.94c1.43,51.84 8.4,86.13 20.96,102.81 12.57,16.75 27.76,24.84 45.5,24.35 17.75,-0.49 32.47,-9.47 44.09,-26.9 11.63,-17.49 16.69,-52.04 15.27,-103.73 -1.43,-51.84 -8.39,-86.14 -20.96,-102.82 -12.49,-16.75 -27.83,-24.84 -45.94,-24.34 -17.74,0.49 -31.76,8.44 -41.98,23.76 -12.74,19.51 -18.36,55.17 -16.94,106.87zm205.09 -5.81c-1.03,-37.17 1.96,-67.34 8.96,-90.28 7.06,-23.02 17.95,-40.85 32.72,-53.51 14.69,-12.66 33.51,-19.27 56.39,-19.9 16.86,-0.47 31.77,2.5 44.79,8.96 12.95,6.47 23.78,16 32.34,28.61 8.56,12.53 15.45,27.97 20.65,46.24 5.27,18.27 8.3,43.07 9.16,74.22 1.02,36.95 -1.97,66.98 -8.89,89.92 -6.93,23.01 -17.81,40.85 -32.58,53.58 -14.69,12.74 -33.58,19.42 -56.61,20.05 -30.28,0.84 -54.4,-9.29 -72.31,-30.44 -21.47,-25.83 -32.99,-68.29 -34.62,-127.46zm39.59 -0.94c1.43,51.84 8.4,86.13 20.96,102.82 12.57,16.75 27.76,24.84 45.5,24.35 17.75,-0.49 32.47,-9.48 44.09,-26.9 11.63,-17.49 16.69,-52.04 15.27,-103.74 -1.43,-51.84 -8.4,-86.14 -20.96,-102.82 -12.49,-16.75 -27.83,-24.84 -45.94,-24.34 -17.74,0.48 -31.76,8.43 -41.98,23.76 -12.74,19.5 -18.37,55.17 -16.94,106.86zm411.16 107.1l1.01 36.95 -208.53 5.75c-0.55,-9.3 0.74,-18.3 3.81,-27.03 4.96,-14.3 13.15,-28.54 24.58,-42.58 11.42,-14.03 27.85,-30.34 49.28,-48.9 33.32,-29.02 55.88,-51.88 67.52,-68.64 11.71,-16.76 17.38,-32.47 16.98,-47.14 -0.43,-15.32 -6.28,-28.07 -17.56,-38.33 -11.29,-10.18 -25.8,-15.07 -43.48,-14.58 -18.7,0.51 -33.51,6.5 -44.42,17.95 -10.91,11.38 -16.13,26.93 -15.73,46.66l-39.71 -2.86c1.9,-29.7 11.54,-52.57 28.85,-68.6 17.39,-16.03 41,-24.46 71,-25.29 30.21,-0.83 54.41,6.86 72.48,23.17 18.13,16.3 27.51,36.88 28.19,61.66 0.35,12.62 -1.88,25.07 -6.75,37.4 -4.79,12.38 -13.02,25.45 -24.6,39.26 -11.66,13.75 -31.02,32.85 -58.08,57.08 -22.71,20.15 -37.3,33.76 -43.71,40.9 -6.4,7.15 -11.64,14.27 -15.76,21.43l154.64 -4.27zm166.49 32.39l-2.07 -75.23 -136.82 3.77 -0.98 -35.63 138.22 -208.09 31.68 -0.88 5.62 204.13 42.67 -1.17 0.99 35.63 -42.67 1.18 2.07 75.23 -38.72 1.06zm-3.06 -110.86l-3.91 -141.73 -94.85 144.46 98.76 -2.72zm119.83 -47.92c-1.03,-37.17 1.96,-67.34 8.95,-90.29 7.07,-23.02 17.95,-40.85 32.73,-53.51 14.69,-12.66 33.51,-19.27 56.39,-19.9 16.86,-0.47 31.77,2.5 44.79,8.96 12.95,6.47 23.77,16.01 32.34,28.61 8.56,12.54 15.44,27.97 20.65,46.24 5.27,18.27 8.3,43.07 9.16,74.23 1.01,36.95 -1.97,66.98 -8.89,89.91 -6.93,23.01 -17.81,40.85 -32.58,53.59 -14.69,12.73 -33.58,19.42 -56.61,20.05 -30.28,0.83 -54.4,-9.29 -72.31,-30.44 -21.48,-25.83 -32.99,-68.28 -34.62,-127.46zm39.59 -0.94c1.43,51.84 8.4,86.13 20.96,102.81 12.57,16.75 27.76,24.84 45.5,24.35 17.75,-0.49 32.47,-9.47 44.09,-26.89 11.62,-17.5 16.69,-52.05 15.26,-103.74 -1.43,-51.84 -8.39,-86.14 -20.95,-102.82 -12.49,-16.76 -27.83,-24.85 -45.94,-24.34 -17.74,0.49 -31.76,8.44 -41.98,23.76 -12.74,19.51 -18.37,55.18 -16.94,106.87z"/>
    <path class="fil2" d="M14709.24 8644.96c-1.02,-37.17 1.96,-67.35 8.96,-90.29 7.07,-23.02 17.95,-40.85 32.72,-53.51 14.69,-12.66 33.51,-19.27 56.39,-19.9 16.86,-0.47 31.78,2.5 44.79,8.96 12.95,6.47 23.78,16.01 32.34,28.61 8.56,12.53 15.45,27.97 20.65,46.24 5.27,18.27 8.3,43.07 9.16,74.23 1.02,36.95 -1.97,66.98 -8.89,89.91 -6.93,23.01 -17.81,40.85 -32.58,53.58 -14.69,12.74 -33.58,19.42 -56.61,20.05 -30.28,0.84 -54.4,-9.29 -72.31,-30.44 -21.47,-25.83 -32.99,-68.29 -34.62,-127.46zm39.59 -0.94c1.43,51.84 8.4,86.13 20.96,102.81 12.57,16.75 27.76,24.84 45.5,24.35 17.75,-0.49 32.47,-9.47 44.09,-26.9 11.63,-17.49 16.69,-52.04 15.27,-103.73 -1.43,-51.84 -8.39,-86.14 -20.96,-102.82 -12.49,-16.75 -27.83,-24.84 -45.94,-24.34 -17.74,0.49 -31.76,8.44 -41.98,23.76 -12.74,19.51 -18.36,55.17 -16.94,106.87zm354.54 145.64l-38.7 1.06 -6.8 -246.51c-9.07,9.2 -21.06,18.42 -35.92,27.7 -14.86,9.3 -28.32,16.34 -40.21,21.08l-1.04 -37.4c21.35,-10.71 39.93,-23.56 55.74,-38.52 15.81,-14.89 26.93,-29.21 33.3,-43.03l24.93 -0.69 8.72 316.31zm97.2 -86.34l38.57 -6.35c5.08,21.88 12.99,37.51 23.89,46.89 10.9,9.38 24.08,13.86 39.55,13.44 18.33,-0.5 33.63,-7.23 45.75,-20.2 12.12,-12.96 17.92,-28.74 17.4,-47.36 -0.49,-17.74 -6.68,-32.25 -18.66,-43.52 -11.91,-11.19 -26.8,-16.58 -44.77,-16.08 -7.33,0.21 -16.38,1.92 -27.22,5.08l3.39 -34c2.57,0.22 4.7,0.31 6.24,0.27 16.57,-0.46 31.26,-5.19 44.29,-14.14 12.96,-8.94 19.2,-22.32 18.71,-40.14 -0.39,-14.15 -5.55,-25.76 -15.41,-34.8 -9.86,-9.05 -22.39,-13.33 -37.56,-12.91 -15.1,0.42 -27.51,5.54 -37.29,15.34 -9.79,9.81 -15.85,24.29 -18.17,43.43l-38.92 -5.97c4.06,-26.08 14.2,-46.55 30.6,-61.3 16.32,-14.76 37.02,-22.44 61.96,-23.13 17.15,-0.48 33.1,2.75 47.75,9.76 14.71,6.93 26.07,16.66 34.04,29.14 8.05,12.54 12.23,25.93 12.63,40.23 0.37,13.56 -2.95,25.98 -9.91,37.33 -7.03,11.35 -17.64,20.51 -31.75,27.51 18.75,3.74 33.44,12.28 44.15,25.56 10.64,13.21 16.24,30.08 16.8,50.39 0.76,27.49 -8.64,51.16 -28.13,70.85 -19.56,19.69 -44.67,29.92 -75.32,30.77 -27.63,0.77 -50.82,-6.89 -69.53,-22.88 -18.78,-16 -29.78,-37.04 -33.07,-63.23zm441.46 -166.7l-38.19 4.13c-3.86,-15.08 -9.08,-26.02 -15.65,-32.73 -10.79,-10.78 -23.92,-15.92 -39.31,-15.5 -12.4,0.35 -23.3,4.09 -32.56,11.25 -11.93,9.2 -21.11,22.37 -27.76,39.58 -6.57,17.27 -9.57,41.65 -8.98,73.1 8.92,-14.4 20.06,-25.28 33.36,-32.47 13.31,-7.26 27.29,-11.1 42.1,-11.5 25.8,-0.72 48.06,8.2 66.78,26.7 18.64,18.49 28.4,42.73 29.23,72.87 0.55,19.79 -3.21,38.24 -11.24,55.49 -8.11,17.25 -19.42,30.55 -34.12,39.97 -14.63,9.43 -31.44,14.44 -50.36,14.97 -32.19,0.89 -58.84,-10.27 -79.88,-33.39 -20.96,-23.12 -32.24,-61.93 -33.73,-116.33 -1.68,-60.86 8.39,-105.46 30.14,-133.72 18.98,-24.59 45.12,-37.34 78.49,-38.26 24.78,-0.68 45.36,5.72 61.58,19.14 16.22,13.42 26.28,32.29 30.1,56.7zm-154.62 140.3c0.37,13.35 3.57,26.03 9.56,38.04 5.98,12.02 14.15,21.03 24.37,27.14 10.3,6.1 21.09,9.03 32.46,8.72 16.5,-0.45 30.39,-7.44 41.68,-20.96 11.3,-13.52 16.68,-31.56 16.05,-54.23 -0.6,-21.78 -6.87,-38.77 -18.74,-50.99 -11.86,-12.23 -26.68,-18.12 -44.51,-17.63 -17.45,0.48 -32.16,7.19 -43.99,20.07 -11.82,12.88 -17.45,29.46 -16.89,49.84zm199.45 -177.64l-1.01 -36.96 203.69 -5.62 0.82 29.92c-19.43,21.89 -38.59,50.82 -57.26,86.77 -18.75,35.96 -32.92,72.82 -42.67,110.59 -6.98,26.54 -11.16,55.63 -12.42,87.07l-39.6 1.09c-0.24,-24.8 3.77,-54.92 12.12,-90.3 8.34,-35.45 20.68,-69.69 37.16,-102.79 16.48,-33.11 34.19,-61.11 53.16,-84.02l-153.98 4.25z"/>
    <path class="fil2" d="M6964.71 4986l-394 -101.39 8.72 -34.21 394 101.39 -8.72 34.21zm7764.91 1446.99l564.98 -1400.68c-1083.55,260.01 -2194.37,386.72 -3296.78,574.36 -1625.2,-233.41 -3068.34,-415.19 -4656.95,-754.84l7.35 -34.62 1134.13 242.48 170.83 31.26 165.91 28.78 3178.25 451.14 3313.08 -558.43 644.61 -194.89 10.25 33.94c-216.68,65.51 -434.78,123.88 -654,176.78l19.86 7.96 -566.67 1403.41 -34.86 -6.65z"/>
    <polygon class="fil3" points="12880.7,11157.46 12379.78,12491.48 5550.32,10134.94 6973.77,4953.02 14764.48,6439.64 "/>
    <polygon class="fil4" points="6973.77,4953.02 9203.34,5378.47 6978.68,10627.81 5550.32,10134.94 "/>
    <polygon class="fil4" points="9203.34,5378.47 11042.87,5729.48 8777.48,11248.49 6978.68,10627.81 "/>
    <polygon class="fil4" points="11042.87,5729.48 10533.43,6970.57 8777.48,11248.49 10563.48,11864.76 10963.11,10921.98 12885.82,6081.16 "/>
    <polygon class="fil4" points="12885.82,6081.16 14764.48,6439.64 12379.78,12491.48 10563.48,11864.76 "/>
   </g>
   <path class="fil5" d="M5473.91 2364.41l95.57 -9.49c5.77,31.97 17.29,55.35 34.8,70.38 17.51,15.02 41.11,22.48 70.83,22.48 31.41,0 55.13,-6.67 71.05,-20 15.93,-13.33 23.95,-28.92 23.95,-46.77 0,-11.52 -3.39,-21.24 -10.06,-29.37 -6.66,-8.02 -18.41,-15.03 -35.13,-20.9 -11.41,-4.06 -37.39,-11.07 -78.06,-21.24 -52.3,-13.1 -89.02,-29.14 -110.13,-48.23 -29.71,-26.77 -44.51,-59.42 -44.51,-97.94 0,-24.74 7.01,-48.01 20.9,-69.59 14.01,-21.58 34.12,-37.96 60.44,-49.26 26.32,-11.3 57.95,-16.95 95.23,-16.95 60.66,0 106.41,13.44 137.02,40.44 30.73,27 46.77,62.93 48.35,108l-98.28 3.39c-4.18,-25.08 -13.1,-43.04 -26.77,-54 -13.67,-10.96 -34.23,-16.49 -61.57,-16.49 -28.24,0 -50.38,5.88 -66.31,17.62 -10.28,7.57 -15.48,17.62 -15.48,30.28 0,11.52 4.86,21.34 14.57,29.48 12.32,10.51 42.25,21.35 89.81,32.65 47.55,11.18 82.69,22.93 105.4,34.91 22.81,12.08 40.66,28.46 53.54,49.36 12.88,20.9 19.32,46.65 19.32,77.27 0,27.79 -7.68,53.89 -23.15,78.17 -15.48,24.29 -37.28,42.36 -65.52,54.11 -28.24,11.86 -63.48,17.74 -105.62,17.74 -61.34,0 -108.45,-14.13 -141.32,-42.48 -32.87,-28.24 -52.42,-69.47 -58.86,-123.59z"/>
   <polygon id="1" class="fil5" points="5948.37,2521.65 5948.37,2036.36 6046.65,2036.36 6046.65,2521.65 "/>
   <polygon id="2" class="fil5" points="6249.19,2521.65 6249.19,2118.37 6105.5,2118.37 6105.5,2036.36 6490.49,2036.36 6490.49,2118.37 6347.47,2118.37 6347.47,2521.65 "/>
   <polygon id="3" class="fil5" points="6554.08,2521.65 6554.08,2036.36 6913.31,2036.36 6913.31,2118.37 6652.36,2118.37 6652.36,2226.14 6895.01,2226.14 6895.01,2308.15 6652.36,2308.15 6652.36,2439.64 6922.79,2439.64 6922.79,2521.65 "/>
   <polygon id="4" class="fil5" points="7004.81,2521.65 7004.81,2036.36 7152,2036.36 7238.99,2367.34 7324.95,2036.36 7472.49,2036.36 7472.49,2521.65 7381.66,2521.65 7381.32,2139.61 7285.65,2521.65 7191.2,2521.65 7095.98,2139.61 7095.64,2521.65 "/>
   <path id="5" class="fil5" d="M8007.94 2521.65l-105.84 0 -41.91 -110.48 -194.64 0 -40.33 110.48 -103.93 0 188.43 -485.3 103.81 0 194.41 485.3zm-179.61 -192.49l-67.44 -179.61 -65.52 179.61 132.96 0z"/>
   <path id="6" class="fil5" d="M8060.23 2521.65l0 -485.3 157.13 0c59.53,0 98.28,2.38 116.35,7.23 27.79,7.34 51.06,23.15 69.81,47.55 18.76,24.4 28.13,55.92 28.13,94.55 0,29.82 -5.42,54.79 -16.15,75.12 -10.85,20.34 -24.51,36.26 -41.12,47.9 -16.61,11.52 -33.55,19.2 -50.72,22.93 -23.39,4.64 -57.16,7.01 -101.45,7.01l-63.71 0 0 183 -98.28 0zm98.28 -403.29l0 138.27 53.43 0c38.52,0 64.16,-2.6 77.15,-7.68 12.99,-5.08 23.16,-12.99 30.5,-23.95 7.35,-10.84 11.07,-23.38 11.07,-37.84 0,-17.74 -5.2,-32.31 -15.47,-43.83 -10.4,-11.52 -23.39,-18.76 -39.31,-21.69 -11.64,-2.14 -35.02,-3.28 -70.26,-3.28l-47.11 0z"/>
   <polygon id="7" class="fil5" points="8689.79,2521.65 8689.79,2036.36 8788.07,2036.36 8788.07,2251.33 8986.09,2036.36 9117.81,2036.36 8934.7,2225.35 9127.3,2521.65 9000.55,2521.65 8867.03,2293.81 8788.07,2374.92 8788.07,2521.65 "/>
   <polygon id="8" class="fil5" points="9244.55,2521.65 9130.46,2036.36 9231.45,2036.36 9303.64,2369.72 9392.2,2036.36 9509.01,2036.36 9593.73,2375.36 9667.61,2036.36 9766.23,2036.36 9649.31,2521.65 9544.36,2521.65 9448.68,2158.81 9352.33,2521.65 "/>
   <path id="9" class="fil5" d="M10217.41 2521.65l-105.84 0 -41.91 -110.48 -194.64 0 -40.33 110.48 -103.93 0 188.43 -485.3 103.81 0 194.41 485.3zm-179.61 -192.49l-67.44 -179.61 -65.52 179.61 132.96 0z"/>
   <polygon id="10" class="fil5" points="10272.42,2521.65 10272.42,2040.42 10370.7,2040.42 10370.7,2439.64 10614.03,2439.64 10614.03,2521.65 "/>
   <path id="11" class="fil5" d="M10683.72 2036.36l98.28 0 0 262.98c0,41.8 1.24,68.8 3.61,81.11 4.18,19.88 14.01,35.92 29.6,47.9 15.7,12.08 37.05,18.08 64.16,18.08 27.45,0 48.24,-5.65 62.25,-17.06 14.01,-11.41 22.37,-25.3 25.19,-41.91 2.83,-16.61 4.3,-44.06 4.3,-82.46l0 -268.63 98.28 0 0 255.18c0,58.29 -2.6,99.53 -7.91,123.59 -5.31,24.06 -15.03,44.39 -29.26,61 -14.12,16.61 -33.1,29.71 -56.82,39.54 -23.83,9.83 -54.79,14.8 -93.08,14.8 -46.21,0 -81.22,-5.31 -105.06,-16.05 -23.84,-10.73 -42.7,-24.62 -56.6,-41.8 -13.9,-17.17 -22.93,-35.02 -27.34,-53.88 -6.44,-27.79 -9.6,-68.91 -9.6,-123.25l0 -259.14z"/>
   <polygon id="12" class="fil5" points="11173.19,2521.65 11173.19,2036.36 11271.47,2036.36 11271.47,2227.5 11462.61,2227.5 11462.61,2036.36 11560.89,2036.36 11560.89,2521.65 11462.61,2521.65 11462.61,2309.51 11271.47,2309.51 11271.47,2521.65 "/>
   <path id="13" class="fil5" d="M12099.84 2521.65l-105.84 0 -41.91 -110.48 -194.64 0 -40.33 110.48 -103.93 0 188.43 -485.3 103.81 0 194.41 485.3zm-179.61 -192.49l-67.44 -179.61 -65.52 179.61 132.96 0z"/>
   <polygon id="14" class="fil5" points="12152.13,2521.65 12152.13,2036.36 12247.26,2036.36 12446.97,2361.58 12446.97,2036.36 12537.8,2036.36 12537.8,2521.65 12439.63,2521.65 12242.96,2202.64 12242.96,2521.65 "/>
   <path id="15" class="fil5" d="M7594.98 3121.61l95.57 -9.49c5.77,31.97 17.29,55.35 34.8,70.38 17.51,15.02 41.11,22.48 70.83,22.48 31.41,0 55.13,-6.67 71.05,-20 15.93,-13.33 23.95,-28.92 23.95,-46.77 0,-11.52 -3.39,-21.24 -10.06,-29.37 -6.66,-8.02 -18.41,-15.03 -35.13,-20.9 -11.41,-4.06 -37.39,-11.07 -78.06,-21.24 -52.3,-13.1 -89.02,-29.14 -110.13,-48.23 -29.71,-26.77 -44.51,-59.42 -44.51,-97.94 0,-24.74 7.01,-48.01 20.9,-69.59 14.01,-21.58 34.12,-37.96 60.44,-49.26 26.32,-11.3 57.95,-16.95 95.23,-16.95 60.66,0 106.41,13.44 137.02,40.44 30.73,27 46.77,62.93 48.35,108l-98.28 3.39c-4.18,-25.08 -13.1,-43.04 -26.77,-54 -13.67,-10.96 -34.23,-16.49 -61.57,-16.49 -28.24,0 -50.38,5.88 -66.31,17.62 -10.28,7.57 -15.48,17.62 -15.48,30.28 0,11.52 4.86,21.34 14.57,29.48 12.32,10.51 42.25,21.35 89.81,32.65 47.55,11.18 82.69,22.93 105.4,34.91 22.81,12.08 40.66,28.46 53.54,49.36 12.88,20.9 19.32,46.65 19.32,77.27 0,27.79 -7.68,53.89 -23.15,78.17 -15.48,24.29 -37.28,42.36 -65.52,54.11 -28.24,11.86 -63.48,17.74 -105.62,17.74 -61.34,0 -108.45,-14.13 -141.32,-42.48 -32.87,-28.24 -52.42,-69.47 -58.86,-123.59z"/>
   <polygon id="16" class="fil5" points="8072.82,3278.86 8072.82,2793.56 8432.05,2793.56 8432.05,2875.57 8171.11,2875.57 8171.11,2983.34 8413.75,2983.34 8413.75,3065.35 8171.11,3065.35 8171.11,3196.85 8441.54,3196.85 8441.54,3278.86 "/>
   <path id="17" class="fil5" d="M8835.34 3099.92l94.89 29.14c-14.57,53.43 -38.86,93.08 -72.75,119.06 -33.89,25.87 -76.82,38.86 -128.89,38.86 -64.51,0 -117.49,-22.03 -159.06,-66.08 -41.46,-44.06 -62.25,-104.27 -62.25,-180.74 0,-80.78 20.9,-143.58 62.59,-188.31 41.68,-44.73 96.58,-67.1 164.59,-67.1 59.42,0 107.65,17.63 144.7,52.76 22.15,20.78 38.64,50.61 49.71,89.58l-96.92 23.05c-5.77,-25.07 -17.74,-44.96 -35.92,-59.53 -18.3,-14.57 -40.44,-21.81 -66.42,-21.81 -36.04,0 -65.3,12.88 -87.66,38.75 -22.48,25.76 -33.66,67.55 -33.66,125.39 0,61.23 11.07,104.94 33.09,130.93 22.15,26.1 50.84,39.09 86.19,39.09 26.1,0 48.57,-8.25 67.33,-24.85 18.75,-16.6 32.31,-42.58 40.44,-78.17z"/>
   <path id="18" class="fil5" d="M9451.55 3278.86l-105.84 0 -41.91 -110.48 -194.64 0 -40.33 110.48 -103.93 0 188.43 -485.3 103.81 0 194.41 485.3zm-179.61 -192.49l-67.44 -179.61 -65.52 179.61 132.96 0z"/>
   <polygon id="19" class="fil5" points="9503.85,3278.86 9503.85,2793.56 9598.97,2793.56 9798.69,3118.78 9798.69,2793.56 9889.52,2793.56 9889.52,3278.86 9791.35,3278.86 9594.68,2959.84 9594.68,3278.86 "/>
   <path id="20" class="fil5" d="M10219.03 3100.6l0 -82.01 210.79 0 0 193.62c-20.45,20 -50.16,37.51 -89.13,52.76 -38.86,15.13 -78.29,22.71 -118.27,22.71 -50.72,0 -94.89,-10.62 -132.62,-31.97 -37.62,-21.34 -65.97,-51.96 -84.95,-91.61 -18.98,-39.65 -28.46,-82.92 -28.46,-129.57 0,-50.61 10.62,-95.57 31.74,-135 21.24,-39.31 52.19,-69.58 92.97,-90.59 31.18,-16.16 69.81,-24.18 116.13,-24.18 60.21,0 107.32,12.66 141.21,37.96 33.78,25.41 55.57,60.33 65.29,105.06l-97.6 18.3c-6.78,-23.84 -19.66,-42.7 -38.53,-56.6 -18.75,-13.79 -42.24,-20.68 -70.49,-20.68 -42.7,0 -76.71,13.56 -101.89,40.78 -25.19,27.22 -37.85,67.56 -37.85,120.98 0,57.73 12.77,100.99 38.3,129.8 25.64,28.8 59.08,43.27 100.54,43.27 20.44,0 41,-4.07 61.57,-12.09 20.67,-8.02 38.29,-17.85 53.09,-29.37l0 -61.57 -111.84 0z"/>
  </g>
 </g>
</svg>
