<?xml version="1.0" encoding="UTF-8"?>
<!DOCTYPE svg PUBLIC "-//W3C//DTD SVG 1.1//EN" "http://www.w3.org/Graphics/SVG/1.1/DTD/svg11.dtd">
<!-- Creator: CorelDRAW 2019 (64-Bit) -->
<svg xmlns="http://www.w3.org/2000/svg" xml:space="preserve" width="169.333mm" height="262.806mm" version="1.1" style="shape-rendering:geometricPrecision; text-rendering:geometricPrecision; image-rendering:optimizeQuality; fill-rule:evenodd; clip-rule:evenodd"
viewBox="0 0 10365.55 16087.35"
 xmlns:xlink="http://www.w3.org/1999/xlink">
 <defs>
  <style type="text/css">
   <![CDATA[
    .fil0 {fill:none}
    .fil5 {fill:#FEFEFE}
    .fil1 {fill:#757475}
    .fil2 {fill:#FEFEFE;fill-rule:nonzero}
    .fil3 {fill:#373435;fill-rule:nonzero}
    .fil4 {fill:#373435;fill-rule:nonzero}
    .fil6 {fill:#A43234;fill-rule:nonzero}
   ]]>
  </style>
 </defs>
 <g id="Layer_x0020_1">
  <metadata id="CorelCorpID_0Corel-Layer"/>
  <rect class="fil0" x="-0" y="-0" width="10365.55" height="16087.35"/>
  <polygon class="fil1" points="2013.25,5141.77 7505.96,5141.77 7505.96,3122.09 8352.31,3122.09 8352.31,14217.61 7505.96,14217.61 7505.96,5967.98 2013.25,5967.98 "/>
  <path class="fil2" d="M3434.09 5581.72l21.24 -2.92c0.58,13.7 3.13,23.07 7.66,28.15 4.54,5.04 10.87,7.58 18.9,7.58 5.92,0 11.04,-1.38 15.33,-4.08 4.28,-2.75 7.28,-6.45 8.91,-11.12 1.62,-4.66 2.41,-12.16 2.41,-22.4l0 -123.32 23.74 0 0 121.9c0,14.95 -1.79,26.53 -5.42,34.78 -3.62,8.2 -9.32,14.45 -17.19,18.78 -7.84,4.29 -17.04,6.46 -27.57,6.46 -15.7,0 -27.7,-4.5 -36.02,-13.53 -8.33,-9.04 -12.33,-22.45 -11.99,-40.27zm218.89 34.56c-8.16,6.96 -16.03,11.83 -23.57,14.7 -7.54,2.88 -15.62,4.29 -24.28,4.29 -14.24,0 -25.2,-3.46 -32.86,-10.41 -7.66,-6.92 -11.49,-15.79 -11.49,-26.57 0,-6.33 1.46,-12.11 4.33,-17.37 2.92,-5.25 6.71,-9.41 11.37,-12.57 4.71,-3.16 9.95,-5.58 15.83,-7.2 4.33,-1.13 10.87,-2.21 19.57,-3.29 17.74,-2.08 30.86,-4.62 39.23,-7.54 0.09,-3 0.12,-4.92 0.12,-5.71 0,-8.91 -2.08,-15.2 -6.24,-18.87 -5.62,-4.96 -13.99,-7.41 -25.07,-7.41 -10.37,0 -18.04,1.83 -22.96,5.45 -4.95,3.62 -8.58,10.04 -10.95,19.28l-21.49 -3c1.95,-9.2 5.17,-16.66 9.66,-22.32 4.5,-5.67 11,-10 19.49,-13.08 8.45,-3.04 18.33,-4.58 29.49,-4.58 11.08,0 20.11,1.29 27.07,3.91 6.91,2.63 12.03,5.88 15.29,9.83 3.24,3.96 5.54,8.96 6.87,15 0.71,3.75 1.08,10.49 1.08,20.19l0 29.15c0,20.37 0.45,33.23 1.37,38.69 0.88,5.46 2.71,10.66 5.37,15.66l-22.99 0c-2.21,-4.63 -3.62,-10.04 -4.25,-16.25zm-1.75 -48.72c-7.99,3.24 -19.99,5.99 -35.98,8.25 -9.08,1.29 -15.49,2.75 -19.24,4.37 -3.75,1.62 -6.62,4 -8.66,7.08 -2.04,3.12 -3.09,6.57 -3.09,10.41 0,5.79 2.21,10.66 6.67,14.54 4.46,3.87 10.95,5.83 19.49,5.83 8.46,0 16,-1.83 22.61,-5.54 6.58,-3.66 11.45,-8.7 14.54,-15.07 2.37,-4.96 3.54,-12.24 3.54,-21.87l0.12 -7.99zm55.52 64.97l0 -178.91 21.99 0 0 178.91 -21.99 0zm140.72 -16.25c-8.16,6.96 -16.03,11.83 -23.57,14.7 -7.54,2.88 -15.62,4.29 -24.28,4.29 -14.24,0 -25.19,-3.46 -32.85,-10.41 -7.66,-6.92 -11.5,-15.79 -11.5,-26.57 0,-6.33 1.46,-12.11 4.33,-17.37 2.91,-5.25 6.7,-9.41 11.37,-12.57 4.71,-3.16 9.95,-5.58 15.83,-7.2 4.33,-1.13 10.87,-2.21 19.57,-3.29 17.74,-2.08 30.86,-4.62 39.23,-7.54 0.09,-3 0.13,-4.92 0.13,-5.71 0,-8.91 -2.08,-15.2 -6.25,-18.87 -5.62,-4.96 -13.99,-7.41 -25.07,-7.41 -10.37,0 -18.03,1.83 -22.95,5.45 -4.96,3.62 -8.58,10.04 -10.95,19.28l-21.49 -3c1.96,-9.2 5.17,-16.66 9.66,-22.32 4.5,-5.67 11,-10 19.5,-13.08 8.45,-3.04 18.32,-4.58 29.49,-4.58 11.07,0 20.11,1.29 27.07,3.91 6.91,2.63 12.03,5.88 15.28,9.83 3.25,3.96 5.54,8.96 6.87,15 0.71,3.75 1.08,10.49 1.08,20.19l0 29.15c0,20.37 0.46,33.23 1.37,38.69 0.88,5.46 2.71,10.66 5.38,15.66l-22.99 0c-2.21,-4.63 -3.62,-10.04 -4.25,-16.25zm-1.75 -48.72c-7.99,3.24 -19.99,5.99 -35.98,8.25 -9.08,1.29 -15.49,2.75 -19.24,4.37 -3.75,1.62 -6.62,4 -8.66,7.08 -2.04,3.12 -3.09,6.57 -3.09,10.41 0,5.79 2.21,10.66 6.67,14.54 4.46,3.87 10.95,5.83 19.49,5.83 8.45,0 15.99,-1.83 22.61,-5.54 6.58,-3.66 11.45,-8.7 14.54,-15.07 2.37,-4.96 3.53,-12.24 3.53,-21.87l0.13 -7.99zm56.02 64.97l0 -129.69 19.74 0 0 18.41c9.49,-14.12 23.24,-21.16 41.18,-21.16 7.84,0 15,1.41 21.54,4.21 6.54,2.79 11.45,6.49 14.7,11.04 3.25,4.54 5.54,9.95 6.83,16.2 0.8,4.08 1.21,11.2 1.21,21.36l0 79.63 -21.99 0 0 -78.79c0,-8.96 -0.84,-15.66 -2.55,-20.07 -1.71,-4.42 -4.74,-7.96 -9.08,-10.62 -4.33,-2.63 -9.45,-3.96 -15.29,-3.96 -9.33,0 -17.37,2.96 -24.16,8.91 -6.79,5.91 -10.16,17.2 -10.16,33.78l0 70.76 -21.99 0zm252.13 0l0 -157.93 -58.97 0 0 -20.98 141.68 0 0 20.98 -58.97 0 0 157.93 -23.74 0zm165.17 -41.98l22.74 3c-3.54,13.2 -10.17,23.49 -19.83,30.78 -9.66,7.28 -21.99,10.95 -37.02,10.95 -18.91,0 -33.9,-5.83 -44.98,-17.49 -11.08,-11.62 -16.61,-27.99 -16.61,-49.02 0,-21.74 5.58,-38.65 16.78,-50.64 11.2,-12.03 25.73,-18.03 43.6,-18.03 17.28,0 31.4,5.87 42.35,17.66 10.96,11.78 16.45,28.35 16.45,49.72 0,1.29 -0.04,3.25 -0.12,5.83l-96.58 0c0.83,14.2 4.83,25.12 12.08,32.65 7.2,7.54 16.24,11.33 27.03,11.33 8.04,0 14.91,-2.13 20.57,-6.37 5.71,-4.25 10.2,-11.04 13.53,-20.37zm-71.97 -35.23l72.22 0c-0.96,-10.92 -3.75,-19.08 -8.29,-24.53 -6.95,-8.45 -16.03,-12.7 -27.15,-12.7 -10.08,0 -18.54,3.37 -25.4,10.12 -6.83,6.75 -10.62,15.79 -11.37,27.12zm122.49 77.21l0 -129.69 19.74 0 0 18.32c4.05,-6.33 9.46,-11.45 16.2,-15.28 6.75,-3.87 14.41,-5.79 23.03,-5.79 9.58,0 17.45,2 23.57,5.96 6.13,4 10.46,9.54 12.95,16.7 10.33,-15.12 23.7,-22.66 40.19,-22.66 12.9,0 22.86,3.54 29.77,10.66 6.95,7.13 10.46,18.08 10.46,32.87l0 88.91 -21.99 0 0 -81.63c0,-8.75 -0.75,-15.08 -2.17,-18.95 -1.42,-3.87 -4,-6.95 -7.79,-9.33 -3.75,-2.38 -8.17,-3.54 -13.2,-3.54 -9.16,0 -16.74,3.04 -22.78,9.08 -6.04,6.08 -9.04,15.78 -9.04,29.11l0 75.26 -21.99 0 0 -84.17c0,-9.75 -1.79,-17.07 -5.37,-21.95 -3.58,-4.87 -9.45,-7.33 -17.57,-7.33 -6.16,0 -11.87,1.62 -17.12,4.87 -5.24,3.25 -9.03,8 -11.4,14.29 -2.34,6.24 -3.5,15.29 -3.5,27.07l0 67.22 -21.99 0zm228.39 0l-20.49 0 0 -178.91 21.99 0 0 63.84c9.29,-11.58 21.11,-17.37 35.52,-17.37 7.95,0 15.53,1.59 22.66,4.79 7.12,3.21 12.95,7.75 17.57,13.53 4.58,5.83 8.2,12.83 10.79,21.03 2.63,8.17 3.91,16.95 3.91,26.28 0,22.16 -5.5,39.32 -16.45,51.4 -10.99,12.11 -24.16,18.16 -39.53,18.16 -15.28,0 -27.27,-6.37 -35.98,-19.07l0 16.33zm-0.25 -65.8c0,15.49 2.12,26.7 6.33,33.61 6.91,11.29 16.24,16.95 28.03,16.95 9.62,0 17.91,-4.17 24.86,-12.49 7,-8.33 10.5,-20.74 10.5,-37.23 0,-16.91 -3.34,-29.36 -10.04,-37.4 -6.71,-8.04 -14.83,-12.08 -24.32,-12.08 -9.62,0 -17.91,4.16 -24.87,12.49 -7,8.33 -10.49,20.37 -10.49,36.15zm203.7 65.8l0 -19.28c-10.08,14.7 -23.74,22.03 -41.03,22.03 -7.62,0 -14.74,-1.46 -21.36,-4.37 -6.62,-2.96 -11.53,-6.62 -14.75,-11.04 -3.2,-4.46 -5.45,-9.87 -6.74,-16.29 -0.88,-4.33 -1.33,-11.16 -1.33,-20.49l0 -80.25 21.99 0 0 71.75c0,11.45 0.45,19.2 1.33,23.16 1.37,5.78 4.28,10.28 8.78,13.58 4.46,3.29 9.95,4.95 16.53,4.95 6.58,0 12.74,-1.67 18.49,-5.04 5.75,-3.37 9.83,-7.99 12.24,-13.79 2.38,-5.78 3.58,-14.24 3.58,-25.28l0 -69.34 21.99 0 0 129.69 -19.74 0zm45.52 -38.73l21.74 -3.5c1.2,8.7 4.62,15.37 10.2,20.03 5.58,4.63 13.41,6.96 23.41,6.96 10.12,0 17.62,-2.04 22.53,-6.16 4.87,-4.08 7.33,-8.91 7.33,-14.45 0,-4.95 -2.21,-8.87 -6.58,-11.7 -3.09,-1.95 -10.58,-4.41 -22.49,-7.45 -16.07,-4.04 -27.19,-7.54 -33.44,-10.5 -6.21,-3 -10.91,-7.08 -14.12,-12.33 -3.21,-5.2 -4.83,-10.99 -4.83,-17.32 0,-5.78 1.33,-11.12 3.96,-16.03 2.66,-4.92 6.24,-9 10.79,-12.25 3.41,-2.5 8.08,-4.62 13.95,-6.37 5.91,-1.75 12.2,-2.63 18.95,-2.63 10.17,0 19.08,1.46 26.74,4.41 7.71,2.91 13.37,6.91 17.04,11.91 3.62,5.04 6.16,11.75 7.54,20.16l-21.49 2.99c-0.96,-6.75 -3.79,-12.03 -8.46,-15.82 -4.66,-3.79 -11.24,-5.66 -19.78,-5.66 -10.04,0 -17.24,1.67 -21.54,5 -4.28,3.34 -6.45,7.25 -6.45,11.7 0,2.83 0.88,5.42 2.66,7.71 1.79,2.33 4.58,4.28 8.42,5.83 2.21,0.83 8.62,2.71 19.37,5.63 15.49,4.13 26.32,7.54 32.48,10.16 6.16,2.62 10.99,6.49 14.5,11.5 3.54,5.04 5.28,11.29 5.28,18.78 0,7.29 -2.12,14.16 -6.41,20.62 -4.28,6.45 -10.46,11.45 -18.49,14.99 -8.08,3.54 -17.2,5.29 -27.36,5.29 -16.83,0 -29.7,-3.5 -38.53,-10.46 -8.83,-6.99 -14.45,-17.32 -16.91,-31.02zm246.84 38.73l0 -157.93 -58.97 0 0 -20.98 141.68 0 0 20.98 -58.97 0 0 157.93 -23.74 0zm165.17 -41.98l22.74 3c-3.54,13.2 -10.16,23.49 -19.82,30.78 -9.67,7.28 -21.99,10.95 -37.02,10.95 -18.91,0 -33.91,-5.83 -44.98,-17.49 -11.08,-11.62 -16.62,-27.99 -16.62,-49.02 0,-21.74 5.58,-38.65 16.78,-50.64 11.21,-12.03 25.73,-18.03 43.6,-18.03 17.29,0 31.4,5.87 42.35,17.66 10.96,11.78 16.45,28.35 16.45,49.72 0,1.29 -0.04,3.25 -0.13,5.83l-96.58 0c0.83,14.2 4.83,25.12 12.08,32.65 7.2,7.54 16.24,11.33 27.03,11.33 8.03,0 14.91,-2.13 20.57,-6.37 5.7,-4.25 10.2,-11.04 13.53,-20.37zm-71.96 -35.23l72.22 0c-0.96,-10.92 -3.75,-19.08 -8.29,-24.53 -6.96,-8.45 -16.04,-12.7 -27.15,-12.7 -10.08,0 -18.54,3.37 -25.4,10.12 -6.83,6.75 -10.62,15.79 -11.37,27.12zm122.48 77.21l0 -129.69 19.74 0 0 18.32c4.04,-6.33 9.45,-11.45 16.2,-15.28 6.75,-3.87 14.41,-5.79 23.03,-5.79 9.58,0 17.45,2 23.57,5.96 6.12,4 10.46,9.54 12.95,16.7 10.33,-15.12 23.7,-22.66 40.19,-22.66 12.91,0 22.86,3.54 29.78,10.66 6.95,7.13 10.45,18.08 10.45,32.87l0 88.91 -21.99 0 0 -81.63c0,-8.75 -0.75,-15.08 -2.17,-18.95 -1.41,-3.87 -4,-6.95 -7.79,-9.33 -3.75,-2.38 -8.16,-3.54 -13.2,-3.54 -9.17,0 -16.75,3.04 -22.78,9.08 -6.04,6.08 -9.04,15.78 -9.04,29.11l0 75.26 -21.99 0 0 -84.17c0,-9.75 -1.79,-17.07 -5.37,-21.95 -3.59,-4.87 -9.46,-7.33 -17.58,-7.33 -6.16,0 -11.86,1.62 -17.12,4.87 -5.25,3.25 -9.04,8 -11.41,14.29 -2.33,6.24 -3.5,15.29 -3.5,27.07l0 67.22 -21.99 0zm292.86 -16.25c-8.16,6.96 -16.03,11.83 -23.57,14.7 -7.54,2.88 -15.62,4.29 -24.28,4.29 -14.24,0 -25.19,-3.46 -32.85,-10.41 -7.66,-6.92 -11.5,-15.79 -11.5,-26.57 0,-6.33 1.46,-12.11 4.33,-17.37 2.91,-5.25 6.7,-9.41 11.37,-12.57 4.71,-3.16 9.95,-5.58 15.82,-7.2 4.33,-1.13 10.87,-2.21 19.58,-3.29 17.74,-2.08 30.86,-4.62 39.23,-7.54 0.09,-3 0.13,-4.92 0.13,-5.71 0,-8.91 -2.08,-15.2 -6.25,-18.87 -5.62,-4.96 -13.99,-7.41 -25.07,-7.41 -10.37,0 -18.03,1.83 -22.95,5.45 -4.96,3.62 -8.58,10.04 -10.95,19.28l-21.49 -3c1.96,-9.2 5.17,-16.66 9.66,-22.32 4.5,-5.67 11,-10 19.5,-13.08 8.45,-3.04 18.32,-4.58 29.49,-4.58 11.07,0 20.11,1.29 27.07,3.91 6.91,2.63 12.03,5.88 15.28,9.83 3.25,3.96 5.54,8.96 6.87,15 0.71,3.75 1.08,10.49 1.08,20.19l0 29.15c0,20.37 0.46,33.23 1.37,38.69 0.88,5.46 2.71,10.66 5.37,15.66l-22.99 0c-2.21,-4.63 -3.62,-10.04 -4.25,-16.25zm-1.75 -48.72c-7.99,3.24 -19.99,5.99 -35.98,8.25 -9.08,1.29 -15.49,2.75 -19.24,4.37 -3.75,1.62 -6.62,4 -8.66,7.08 -2.04,3.12 -3.09,6.57 -3.09,10.41 0,5.79 2.21,10.66 6.67,14.54 4.46,3.87 10.95,5.83 19.49,5.83 8.45,0 15.99,-1.83 22.61,-5.54 6.58,-3.66 11.45,-8.7 14.54,-15.07 2.37,-4.96 3.53,-12.24 3.53,-21.87l0.13 -7.99zm56.02 64.97l0 -129.69 19.74 0 0 18.41c9.5,-14.12 23.24,-21.16 41.19,-21.16 7.84,0 15,1.41 21.54,4.21 6.54,2.79 11.45,6.49 14.7,11.04 3.25,4.54 5.54,9.95 6.83,16.2 0.8,4.08 1.21,11.2 1.21,21.36l0 79.63 -21.99 0 0 -78.79c0,-8.96 -0.83,-15.66 -2.54,-20.07 -1.71,-4.42 -4.74,-7.96 -9.08,-10.62 -4.33,-2.63 -9.45,-3.96 -15.29,-3.96 -9.33,0 -17.37,2.96 -24.16,8.91 -6.79,5.91 -10.16,17.2 -10.16,33.78l0 70.76 -21.99 0zm134.93 10.74l21.24 3c0.88,6.58 3.37,11.37 7.46,14.41 5.45,4.04 12.91,6.08 22.36,6.08 10.17,0 18.03,-2.04 23.57,-6.08 5.54,-4.04 9.29,-9.75 11.24,-17.04 1.13,-4.46 1.67,-13.82 1.58,-28.11 -9.62,11.32 -21.57,16.99 -35.9,16.99 -17.83,0 -31.65,-6.42 -41.4,-19.28 -9.78,-12.83 -14.65,-28.24 -14.65,-46.19 0,-12.37 2.25,-23.78 6.7,-34.24 4.46,-10.45 10.95,-18.49 19.45,-24.19 8.5,-5.71 18.49,-8.54 29.99,-8.54 15.28,0 27.9,6.24 37.81,18.74l0 -16 20.24 0 0 111.98c0,20.2 -2.04,34.49 -6.16,42.9 -4.08,8.41 -10.63,15.08 -19.5,19.95 -8.91,4.87 -19.86,7.33 -32.85,7.33 -15.45,0 -27.91,-3.46 -37.4,-10.41 -9.54,-6.91 -14.12,-17.37 -13.79,-31.32zm17.99 -77.8c0,16.96 3.38,29.32 10.12,37.11 6.78,7.79 15.24,11.7 25.4,11.7 10.12,0 18.57,-3.87 25.45,-11.62 6.83,-7.75 10.24,-19.91 10.24,-36.48 0,-15.82 -3.54,-27.78 -10.58,-35.82 -7.04,-8.04 -15.54,-12.03 -25.45,-12.03 -9.78,0 -18.07,3.95 -24.94,11.87 -6.83,7.91 -10.25,19.66 -10.25,35.27zm120.98 77.8l21.24 3c0.88,6.58 3.38,11.37 7.46,14.41 5.45,4.04 12.9,6.08 22.36,6.08 10.16,0 18.03,-2.04 23.57,-6.08 5.54,-4.04 9.29,-9.75 11.24,-17.04 1.13,-4.46 1.67,-13.82 1.59,-28.11 -9.62,11.32 -21.58,16.99 -35.9,16.99 -17.83,0 -31.65,-6.42 -41.39,-19.28 -9.79,-12.83 -14.66,-28.24 -14.66,-46.19 0,-12.37 2.25,-23.78 6.7,-34.24 4.46,-10.45 10.96,-18.49 19.45,-24.19 8.5,-5.71 18.49,-8.54 29.99,-8.54 15.28,0 27.91,6.24 37.82,18.74l0 -16 20.24 0 0 111.98c0,20.2 -2.04,34.49 -6.16,42.9 -4.08,8.41 -10.62,15.08 -19.49,19.95 -8.91,4.87 -19.87,7.33 -32.86,7.33 -15.45,0 -27.9,-3.46 -37.4,-10.41 -9.54,-6.91 -14.12,-17.37 -13.79,-31.32zm18 -77.8c0,16.96 3.37,29.32 10.12,37.11 6.79,7.79 15.24,11.7 25.4,11.7 10.12,0 18.57,-3.87 25.45,-11.62 6.83,-7.75 10.25,-19.91 10.25,-36.48 0,-15.82 -3.54,-27.78 -10.58,-35.82 -7.03,-8.04 -15.53,-12.03 -25.45,-12.03 -9.78,0 -18.07,3.95 -24.94,11.87 -6.83,7.91 -10.24,19.66 -10.24,35.27zm209.73 67.05l0 -19.28c-10.08,14.7 -23.74,22.03 -41.02,22.03 -7.62,0 -14.75,-1.46 -21.36,-4.37 -6.62,-2.96 -11.54,-6.62 -14.75,-11.04 -3.21,-4.46 -5.45,-9.87 -6.75,-16.29 -0.88,-4.33 -1.33,-11.16 -1.33,-20.49l0 -80.25 21.99 0 0 71.75c0,11.45 0.46,19.2 1.33,23.16 1.37,5.78 4.29,10.28 8.79,13.58 4.46,3.29 9.95,4.95 16.53,4.95 6.58,0 12.74,-1.67 18.49,-5.04 5.74,-3.37 9.82,-7.99 12.24,-13.79 2.38,-5.78 3.59,-14.24 3.59,-25.28l0 -69.34 21.99 0 0 129.69 -19.74 0zm54.27 0l0 -129.69 19.74 0 0 18.41c9.49,-14.12 23.24,-21.16 41.19,-21.16 7.83,0 14.99,1.41 21.53,4.21 6.54,2.79 11.45,6.49 14.7,11.04 3.26,4.54 5.54,9.95 6.83,16.2 0.8,4.08 1.21,11.2 1.21,21.36l0 79.63 -21.99 0 0 -78.79c0,-8.96 -0.84,-15.66 -2.55,-20.07 -1.71,-4.42 -4.74,-7.96 -9.07,-10.62 -4.33,-2.63 -9.46,-3.96 -15.29,-3.96 -9.33,0 -17.36,2.96 -24.15,8.91 -6.79,5.91 -10.17,17.2 -10.17,33.78l0 70.76 -21.99 0zm134.93 10.74l21.24 3c0.88,6.58 3.38,11.37 7.46,14.41 5.45,4.04 12.9,6.08 22.36,6.08 10.16,0 18.03,-2.04 23.57,-6.08 5.54,-4.04 9.29,-9.75 11.24,-17.04 1.13,-4.46 1.67,-13.82 1.59,-28.11 -9.62,11.32 -21.58,16.99 -35.9,16.99 -17.83,0 -31.65,-6.42 -41.39,-19.28 -9.79,-12.83 -14.66,-28.24 -14.66,-46.19 0,-12.37 2.25,-23.78 6.7,-34.24 4.46,-10.45 10.96,-18.49 19.45,-24.19 8.5,-5.71 18.49,-8.54 29.99,-8.54 15.28,0 27.91,6.24 37.82,18.74l0 -16 20.24 0 0 111.98c0,20.2 -2.04,34.49 -6.16,42.9 -4.08,8.41 -10.62,15.08 -19.49,19.95 -8.91,4.87 -19.87,7.33 -32.86,7.33 -15.45,0 -27.9,-3.46 -37.4,-10.41 -9.54,-6.91 -14.12,-17.37 -13.79,-31.32zm18 -77.8c0,16.96 3.37,29.32 10.12,37.11 6.79,7.79 15.24,11.7 25.4,11.7 10.12,0 18.57,-3.87 25.45,-11.62 6.83,-7.75 10.25,-19.91 10.25,-36.48 0,-15.82 -3.54,-27.78 -10.58,-35.82 -7.03,-8.04 -15.53,-12.03 -25.45,-12.03 -9.78,0 -18.07,3.95 -24.94,11.87 -6.83,7.91 -10.24,19.66 -10.24,35.27z"/>
  <path class="fil2" d="M7990.12 11193.31l-2.92 -21.24c13.7,-0.59 23.07,-3.13 28.15,-7.67 5.04,-4.54 7.58,-10.87 7.58,-18.9 0,-5.91 -1.38,-11.04 -4.08,-15.33 -2.75,-4.29 -6.45,-7.29 -11.12,-8.91 -4.66,-1.62 -12.16,-2.41 -22.4,-2.41l-123.32 0 0 -23.74 121.9 0c14.95,0 26.52,1.79 34.77,5.41 8.21,3.62 14.45,9.33 18.79,17.2 4.28,7.83 6.46,17.04 6.46,27.57 0,15.7 -4.5,27.69 -13.54,36.02 -9.04,8.33 -22.44,12.33 -40.27,11.99zm34.56 -218.89c6.96,8.17 11.83,16.04 14.7,23.57 2.88,7.54 4.29,15.62 4.29,24.28 0,14.24 -3.46,25.2 -10.41,32.85 -6.92,7.66 -15.79,11.5 -26.57,11.5 -6.33,0 -12.11,-1.46 -17.37,-4.33 -5.25,-2.91 -9.41,-6.7 -12.57,-11.37 -3.16,-4.71 -5.58,-9.95 -7.2,-15.82 -1.13,-4.33 -2.21,-10.87 -3.29,-19.57 -2.08,-17.75 -4.62,-30.86 -7.54,-39.23 -3,-0.09 -4.92,-0.13 -5.71,-0.13 -8.91,0 -15.2,2.08 -18.87,6.25 -4.96,5.62 -7.41,13.99 -7.41,25.07 0,10.37 1.83,18.03 5.45,22.95 3.62,4.96 10.04,8.58 19.28,10.95l-3 21.49c-9.2,-1.96 -16.66,-5.17 -22.32,-9.66 -5.67,-4.5 -10,-11 -13.08,-19.49 -3.04,-8.46 -4.58,-18.33 -4.58,-29.49 0,-11.07 1.29,-20.11 3.91,-27.07 2.63,-6.91 5.88,-12.03 9.83,-15.28 3.96,-3.25 8.96,-5.54 14.99,-6.87 3.75,-0.71 10.5,-1.08 20.2,-1.08l29.15 0c20.37,0 33.23,-0.46 38.69,-1.37 5.46,-0.88 10.66,-2.71 15.66,-5.37l0 22.99c-4.63,2.2 -10.04,3.62 -16.25,4.24zm-48.72 1.75c3.24,7.99 5.99,19.99 8.25,35.98 1.29,9.08 2.75,15.49 4.37,19.24 1.62,3.75 4,6.62 7.08,8.66 3.12,2.04 6.58,3.09 10.41,3.09 5.79,0 10.66,-2.2 14.54,-6.66 3.87,-4.46 5.83,-10.96 5.83,-19.5 0,-8.45 -1.83,-15.99 -5.54,-22.61 -3.66,-6.58 -8.7,-11.45 -15.07,-14.53 -4.96,-2.38 -12.25,-3.54 -21.87,-3.54l-7.99 -0.13zm64.97 -55.51l-178.92 0 0 -21.99 178.92 0 0 21.99zm-16.25 -140.72c6.96,8.16 11.83,16.03 14.7,23.57 2.88,7.54 4.29,15.62 4.29,24.28 0,14.24 -3.46,25.2 -10.41,32.86 -6.92,7.66 -15.79,11.49 -26.57,11.49 -6.33,0 -12.11,-1.46 -17.37,-4.33 -5.25,-2.92 -9.41,-6.71 -12.57,-11.37 -3.16,-4.71 -5.58,-9.95 -7.2,-15.83 -1.13,-4.33 -2.21,-10.87 -3.29,-19.57 -2.08,-17.74 -4.62,-30.86 -7.54,-39.23 -3,-0.09 -4.92,-0.13 -5.71,-0.13 -8.91,0 -15.2,2.08 -18.87,6.25 -4.96,5.62 -7.41,13.99 -7.41,25.07 0,10.37 1.83,18.04 5.45,22.95 3.62,4.96 10.04,8.58 19.28,10.96l-3 21.49c-9.2,-1.95 -16.66,-5.17 -22.32,-9.66 -5.67,-4.5 -10,-11 -13.08,-19.49 -3.04,-8.45 -4.58,-18.33 -4.58,-29.49 0,-11.08 1.29,-20.11 3.91,-27.07 2.63,-6.91 5.88,-12.03 9.83,-15.29 3.96,-3.25 8.96,-5.54 14.99,-6.87 3.75,-0.71 10.5,-1.08 20.2,-1.08l29.15 0c20.37,0 33.23,-0.45 38.69,-1.37 5.46,-0.88 10.66,-2.71 15.66,-5.37l0 22.99c-4.63,2.2 -10.04,3.62 -16.25,4.25zm-48.72 1.74c3.24,7.99 5.99,19.99 8.25,35.99 1.29,9.07 2.75,15.49 4.37,19.24 1.62,3.75 4,6.62 7.08,8.66 3.12,2.04 6.58,3.08 10.41,3.08 5.79,0 10.66,-2.2 14.54,-6.66 3.87,-4.46 5.83,-10.95 5.83,-19.49 0,-8.46 -1.83,-16 -5.54,-22.61 -3.66,-6.58 -8.7,-11.45 -15.07,-14.54 -4.96,-2.37 -12.25,-3.54 -21.87,-3.54l-7.99 -0.13zm64.97 -56.01l-129.69 0 0 -19.74 18.41 0c-14.12,-9.49 -21.16,-23.24 -21.16,-41.19 0,-7.83 1.41,-14.99 4.21,-21.53 2.79,-6.54 6.49,-11.45 11.04,-14.7 4.54,-3.25 9.95,-5.54 16.2,-6.83 4.08,-0.79 11.2,-1.21 21.36,-1.21l79.63 0 0 21.99 -78.79 0c-8.96,0 -15.66,0.83 -20.08,2.54 -4.41,1.71 -7.95,4.75 -10.62,9.08 -2.62,4.33 -3.95,9.46 -3.95,15.29 0,9.33 2.96,17.37 8.91,24.16 5.91,6.79 17.2,10.17 33.78,10.17l70.76 0 0 21.99zm0 -211.65l-178.92 0 0 -79.3c0,-15.95 1.63,-28.07 4.83,-36.36 3.21,-8.29 8.88,-14.91 16.99,-19.86 8.12,-4.95 17.12,-7.41 26.95,-7.41 12.7,0 23.4,4.13 32.11,12.33 8.71,8.2 14.21,20.86 16.58,38.02 3,-6.29 6,-11.04 8.91,-14.28 6.33,-6.91 14.28,-13.45 23.82,-19.58l48.73 -30.94 0 29.57 -37.24 23.65c-10.79,6.87 -18.99,12.57 -24.69,17.03 -5.71,4.5 -9.67,8.5 -11.95,12.04 -2.25,3.5 -3.83,7.12 -4.75,10.79 -0.54,2.66 -0.83,7.03 -0.83,13.16l0 27.41 79.46 0 0 23.74zm-99.95 -23.74l0 -50.81c0,-10.83 -1.13,-19.25 -3.38,-25.32 -2.2,-6.08 -5.79,-10.7 -10.74,-13.83 -4.92,-3.16 -10.24,-4.75 -16.03,-4.75 -8.45,0 -15.45,3.04 -20.91,9.16 -5.45,6.12 -8.16,15.79 -8.16,28.98l0 56.56 59.22 0zm83.7 -238.18c6.96,8.17 11.83,16.04 14.7,23.57 2.88,7.54 4.29,15.62 4.29,24.28 0,14.24 -3.46,25.2 -10.41,32.85 -6.92,7.66 -15.79,11.5 -26.57,11.5 -6.33,0 -12.11,-1.46 -17.37,-4.33 -5.25,-2.91 -9.41,-6.7 -12.57,-11.37 -3.16,-4.71 -5.58,-9.95 -7.2,-15.82 -1.13,-4.33 -2.21,-10.87 -3.29,-19.57 -2.08,-17.75 -4.62,-30.86 -7.54,-39.23 -3,-0.09 -4.92,-0.13 -5.71,-0.13 -8.91,0 -15.2,2.08 -18.87,6.25 -4.96,5.62 -7.41,13.99 -7.41,25.07 0,10.37 1.83,18.03 5.45,22.95 3.62,4.96 10.04,8.58 19.28,10.95l-3 21.49c-9.2,-1.96 -16.66,-5.17 -22.32,-9.66 -5.67,-4.5 -10,-11 -13.08,-19.49 -3.04,-8.46 -4.58,-18.33 -4.58,-29.49 0,-11.07 1.29,-20.11 3.91,-27.07 2.63,-6.91 5.88,-12.03 9.83,-15.28 3.96,-3.25 8.96,-5.54 14.99,-6.87 3.75,-0.71 10.5,-1.08 20.2,-1.08l29.15 0c20.37,0 33.23,-0.46 38.69,-1.37 5.46,-0.88 10.66,-2.71 15.66,-5.37l0 22.99c-4.63,2.2 -10.04,3.62 -16.25,4.24zm-48.72 1.75c3.24,7.99 5.99,19.99 8.25,35.98 1.29,9.08 2.75,15.49 4.37,19.24 1.62,3.75 4,6.62 7.08,8.66 3.12,2.04 6.58,3.09 10.41,3.09 5.79,0 10.66,-2.2 14.54,-6.66 3.87,-4.46 5.83,-10.96 5.83,-19.5 0,-8.45 -1.83,-15.99 -5.54,-22.61 -3.66,-6.58 -8.7,-11.45 -15.07,-14.53 -4.96,-2.38 -12.25,-3.54 -21.87,-3.54l-7.99 -0.13zm114.82 -55.02l-20.32 2.5c1.29,-4.84 1.95,-9 1.95,-12.58 0,-4.92 -0.83,-8.83 -2.46,-11.75 -1.62,-2.96 -3.91,-5.37 -6.83,-7.24 -2.21,-1.38 -7.66,-3.62 -16.41,-6.71 -1.21,-0.42 -3,-1.04 -5.37,-1.96l-130.1 49.23 0 -23.49 74.88 -27.07c9.46,-3.54 19.45,-6.67 29.95,-9.45 -9.87,-2.55 -19.62,-5.54 -29.19,-9.04l-75.63 -27.66 0 -21.95 131.93 49.02c14.2,5.29 23.95,9.41 29.32,12.37 7.2,3.91 12.49,8.41 15.87,13.45 3.37,5.08 5.04,11.12 5.04,18.12 0,4.24 -0.88,8.99 -2.62,14.2zm-66.1 -210.64c6.96,8.16 11.83,16.03 14.7,23.57 2.88,7.54 4.29,15.62 4.29,24.28 0,14.24 -3.46,25.2 -10.41,32.86 -6.92,7.66 -15.79,11.49 -26.57,11.49 -6.33,0 -12.11,-1.46 -17.37,-4.33 -5.25,-2.92 -9.41,-6.71 -12.57,-11.37 -3.16,-4.71 -5.58,-9.95 -7.2,-15.83 -1.13,-4.33 -2.21,-10.87 -3.29,-19.57 -2.08,-17.75 -4.62,-30.86 -7.54,-39.23 -3,-0.09 -4.92,-0.13 -5.71,-0.13 -8.91,0 -15.2,2.08 -18.87,6.25 -4.96,5.62 -7.41,13.99 -7.41,25.07 0,10.37 1.83,18.04 5.45,22.95 3.62,4.96 10.04,8.58 19.28,10.96l-3 21.49c-9.2,-1.95 -16.66,-5.17 -22.32,-9.66 -5.67,-4.5 -10,-11 -13.08,-19.49 -3.04,-8.45 -4.58,-18.33 -4.58,-29.49 0,-11.08 1.29,-20.11 3.91,-27.07 2.63,-6.91 5.88,-12.03 9.83,-15.29 3.96,-3.25 8.96,-5.54 14.99,-6.87 3.75,-0.71 10.5,-1.08 20.2,-1.08l29.15 0c20.37,0 33.23,-0.45 38.69,-1.37 5.46,-0.88 10.66,-2.71 15.66,-5.37l0 22.99c-4.63,2.2 -10.04,3.62 -16.25,4.25zm-48.72 1.74c3.24,7.99 5.99,19.99 8.25,35.99 1.29,9.07 2.75,15.49 4.37,19.24 1.62,3.75 4,6.62 7.08,8.66 3.12,2.04 6.58,3.08 10.41,3.08 5.79,0 10.66,-2.2 14.54,-6.66 3.87,-4.46 5.83,-10.95 5.83,-19.49 0,-8.46 -1.83,-16 -5.54,-22.62 -3.66,-6.57 -8.7,-11.45 -15.07,-14.53 -4.96,-2.37 -12.25,-3.54 -21.87,-3.54l-7.99 -0.13zm7.49 -120.44l-2 -22.24c8.99,-1.04 16.36,-3.5 22.15,-7.38 5.75,-3.87 10.42,-9.87 14,-17.98 3.54,-8.12 5.33,-17.29 5.33,-27.45 0,-9.04 -1.33,-16.99 -4.04,-23.9 -2.71,-6.92 -6.42,-12.03 -11.12,-15.41 -4.71,-3.37 -9.82,-5.08 -15.32,-5.08 -5.58,0 -10.46,1.62 -14.66,4.87 -4.16,3.24 -7.66,8.62 -10.54,16.12 -1.83,4.79 -4.74,15.41 -8.7,31.86 -3.96,16.45 -7.66,27.94 -11.17,34.52 -4.5,8.54 -10.08,14.87 -16.7,19.03 -6.62,4.21 -14.07,6.29 -22.28,6.29 -9.08,0 -17.53,-2.58 -25.36,-7.71 -7.87,-5.12 -13.83,-12.57 -17.91,-22.45 -4.08,-9.83 -6.12,-20.78 -6.12,-32.82 0,-13.25 2.12,-24.94 6.42,-35.07 4.25,-10.12 10.53,-17.91 18.87,-23.36 8.29,-5.46 17.7,-8.37 28.2,-8.79l1.75 22.74c-11.29,1.21 -19.83,5.33 -25.58,12.37 -5.78,7.04 -8.66,17.45 -8.66,31.2 0,14.32 2.63,24.77 7.87,31.31 5.25,6.54 11.58,9.83 18.99,9.83 6.42,0 11.7,-2.33 15.87,-6.95 4.12,-4.58 8.41,-16.45 12.74,-35.69 4.37,-19.24 8.16,-32.44 11.4,-39.61 4.79,-10.37 10.83,-18.07 18.21,-23.03 7.33,-4.95 15.78,-7.41 25.36,-7.41 9.54,0 18.45,2.71 26.86,8.16 8.41,5.45 14.95,13.25 19.61,23.45 4.67,10.2 7,21.66 7,34.45 0,16.15 -2.38,29.69 -7.08,40.6 -4.71,10.96 -11.78,19.5 -21.28,25.7 -9.46,6.24 -20.16,9.49 -32.11,9.82zm15.49 -260.13l3 -22.73c13.2,3.54 23.49,10.16 30.78,19.82 7.28,9.67 10.95,21.99 10.95,37.02 0,18.91 -5.83,33.9 -17.49,44.98 -11.62,11.08 -27.99,16.62 -49.03,16.62 -21.73,0 -38.64,-5.58 -50.64,-16.78 -12.03,-11.21 -18.03,-25.74 -18.03,-43.6 0,-17.29 5.87,-31.4 17.66,-42.35 11.78,-10.96 28.35,-16.45 49.72,-16.45 1.29,0 3.25,0.04 5.83,0.12l0 96.58c14.2,-0.83 25.12,-4.83 32.65,-12.08 7.54,-7.2 11.33,-16.23 11.33,-27.03 0,-8.04 -2.13,-14.91 -6.37,-20.57 -4.25,-5.71 -11.04,-10.2 -20.37,-13.53zm-35.23 71.97l0 -72.22c-10.91,0.96 -19.07,3.75 -24.53,8.29 -8.45,6.96 -12.7,16.03 -12.7,27.15 0,10.08 3.37,18.54 10.12,25.4 6.75,6.83 15.78,10.62 27.11,11.37zm29.74 -207.2l2.99 -21.49c14.79,2.38 26.33,8.37 34.7,18.07 8.37,9.71 12.54,21.66 12.54,35.78 0,17.7 -5.79,31.94 -17.37,42.68 -11.58,10.79 -28.15,16.16 -49.72,16.16 -13.99,0 -26.19,-2.34 -36.69,-6.95 -10.46,-4.63 -18.33,-11.66 -23.54,-21.16 -5.24,-9.45 -7.87,-19.74 -7.87,-30.9 0,-14.04 3.54,-25.57 10.66,-34.48 7.13,-8.96 17.24,-14.7 30.32,-17.2l3.25 21.24c-8.7,2.04 -15.24,5.63 -19.66,10.83 -4.38,5.16 -6.58,11.41 -6.58,18.74 0,11.08 3.95,20.07 11.87,27.03 7.95,6.91 20.45,10.37 37.61,10.37 17.4,0 30.02,-3.33 37.9,-10 7.87,-6.7 11.83,-15.41 11.83,-26.11 0,-8.66 -2.63,-15.87 -7.91,-21.61 -5.25,-5.78 -13.37,-9.45 -24.32,-10.99zm31.23 -124.94c6.96,8.16 11.83,16.03 14.7,23.57 2.88,7.54 4.29,15.62 4.29,24.28 0,14.24 -3.46,25.2 -10.41,32.86 -6.92,7.66 -15.79,11.49 -26.57,11.49 -6.33,0 -12.11,-1.45 -17.37,-4.33 -5.25,-2.91 -9.41,-6.7 -12.57,-11.37 -3.16,-4.71 -5.58,-9.95 -7.2,-15.83 -1.13,-4.33 -2.21,-10.87 -3.29,-19.57 -2.08,-17.74 -4.62,-30.86 -7.54,-39.23 -3,-0.08 -4.92,-0.12 -5.71,-0.12 -8.91,0 -15.2,2.08 -18.87,6.24 -4.96,5.62 -7.41,13.99 -7.41,25.07 0,10.36 1.83,18.03 5.45,22.95 3.62,4.95 10.04,8.58 19.28,10.95l-3 21.49c-9.2,-1.95 -16.66,-5.17 -22.32,-9.66 -5.67,-4.5 -10,-11 -13.08,-19.49 -3.04,-8.45 -4.58,-18.33 -4.58,-29.49 0,-11.08 1.29,-20.11 3.91,-27.07 2.63,-6.91 5.88,-12.03 9.83,-15.29 3.96,-3.24 8.96,-5.54 14.99,-6.87 3.75,-0.71 10.5,-1.08 20.2,-1.08l29.15 0c20.37,0 33.23,-0.45 38.69,-1.37 5.46,-0.88 10.66,-2.71 15.66,-5.37l0 22.99c-4.63,2.21 -10.04,3.62 -16.25,4.25zm-48.72 1.75c3.24,7.99 5.99,19.99 8.25,35.98 1.29,9.08 2.75,15.49 4.37,19.24 1.62,3.75 4,6.62 7.08,8.66 3.12,2.04 6.58,3.09 10.41,3.09 5.79,0 10.66,-2.21 14.54,-6.67 3.87,-4.46 5.83,-10.95 5.83,-19.49 0,-8.45 -1.83,-16 -5.54,-22.61 -3.66,-6.58 -8.7,-11.45 -15.07,-14.54 -4.96,-2.37 -12.25,-3.54 -21.87,-3.54l-7.99 -0.12zm64.97 -56.02l-129.69 0 0 -19.74 18.41 0c-14.12,-9.49 -21.16,-23.24 -21.16,-41.19 0,-7.83 1.41,-14.99 4.21,-21.53 2.79,-6.54 6.49,-11.45 11.04,-14.7 4.54,-3.26 9.95,-5.54 16.2,-6.83 4.08,-0.8 11.2,-1.21 21.36,-1.21l79.63 0 0 21.99 -78.79 0c-8.96,0 -15.66,0.84 -20.08,2.55 -4.41,1.71 -7.95,4.74 -10.62,9.07 -2.62,4.33 -3.95,9.46 -3.95,15.29 0,9.33 2.96,17.36 8.91,24.15 5.91,6.79 17.2,10.17 33.78,10.17l70.76 0 0 21.99zm10.74 -134.93l3 -21.25c6.58,-0.87 11.37,-3.37 14.41,-7.46 4.04,-5.45 6.08,-12.9 6.08,-22.36 0,-10.16 -2.04,-18.03 -6.08,-23.57 -4.04,-5.54 -9.75,-9.29 -17.04,-11.24 -4.46,-1.13 -13.82,-1.67 -28.11,-1.59 11.32,9.62 16.99,21.57 16.99,35.9 0,17.83 -6.42,31.65 -19.28,41.39 -12.83,9.79 -28.24,14.66 -46.19,14.66 -12.37,0 -23.78,-2.25 -34.23,-6.7 -10.46,-4.46 -18.49,-10.96 -24.2,-19.45 -5.71,-8.5 -8.53,-18.49 -8.53,-29.99 0,-15.29 6.24,-27.91 18.74,-37.82l-16 0 0 -20.24 111.98 0c20.2,0 34.49,2.04 42.89,6.16 8.42,4.08 15.08,10.62 19.95,19.49 4.88,8.91 7.33,19.86 7.33,32.86 0,15.45 -3.46,27.9 -10.41,37.4 -6.92,9.54 -17.37,14.12 -31.32,13.79zm-77.8 -18c16.95,0 29.32,-3.37 37.11,-10.12 7.79,-6.79 11.7,-15.24 11.7,-25.4 0,-10.12 -3.87,-18.57 -11.62,-25.45 -7.75,-6.83 -19.91,-10.25 -36.48,-10.25 -15.82,0 -27.78,3.54 -35.82,10.58 -8.04,7.03 -12.03,15.53 -12.03,25.44 0,9.79 3.95,18.08 11.87,24.95 7.91,6.83 19.66,10.24 35.27,10.24zm13.33 -185.7l-21.99 0 0 -67.97 21.99 0 0 67.97zm53.73 -163.62l-178.92 0 0 -35.49 126.65 -42.31c11.78,-3.92 20.61,-6.75 26.49,-8.54 -6.5,-2.04 -16.08,-5.25 -28.7,-9.58l-124.44 -43.06 0 -31.69 178.92 0 0 22.73 -149.68 0 149.68 52.23 0 21.32 -152.43 51.65 152.43 0 0 22.74zm-16.25 -290.61c6.96,8.16 11.83,16.03 14.7,23.57 2.88,7.54 4.29,15.62 4.29,24.28 0,14.24 -3.46,25.2 -10.41,32.86 -6.92,7.66 -15.79,11.49 -26.57,11.49 -6.33,0 -12.11,-1.46 -17.37,-4.33 -5.25,-2.92 -9.41,-6.71 -12.57,-11.37 -3.16,-4.71 -5.58,-9.95 -7.2,-15.83 -1.13,-4.33 -2.21,-10.87 -3.29,-19.57 -2.08,-17.75 -4.62,-30.86 -7.54,-39.23 -3,-0.09 -4.92,-0.13 -5.71,-0.13 -8.91,0 -15.2,2.08 -18.87,6.25 -4.96,5.62 -7.41,13.99 -7.41,25.07 0,10.37 1.83,18.04 5.45,22.95 3.62,4.96 10.04,8.58 19.28,10.96l-3 21.49c-9.2,-1.95 -16.66,-5.17 -22.32,-9.66 -5.67,-4.5 -10,-11 -13.08,-19.49 -3.04,-8.45 -4.58,-18.33 -4.58,-29.49 0,-11.08 1.29,-20.11 3.91,-27.07 2.63,-6.91 5.88,-12.03 9.83,-15.29 3.96,-3.25 8.96,-5.54 14.99,-6.87 3.75,-0.71 10.5,-1.08 20.2,-1.08l29.15 0c20.37,0 33.23,-0.46 38.69,-1.37 5.46,-0.88 10.66,-2.71 15.66,-5.37l0 22.99c-4.63,2.2 -10.04,3.62 -16.25,4.25zm-48.72 1.74c3.24,7.99 5.99,19.99 8.25,35.99 1.29,9.07 2.75,15.49 4.37,19.24 1.62,3.75 4,6.62 7.08,8.66 3.12,2.04 6.58,3.08 10.41,3.08 5.79,0 10.66,-2.2 14.54,-6.66 3.87,-4.46 5.83,-10.95 5.83,-19.49 0,-8.46 -1.83,-16 -5.54,-22.62 -3.66,-6.57 -8.7,-11.45 -15.07,-14.53 -4.96,-2.37 -12.25,-3.54 -21.87,-3.54l-7.99 -0.13zm75.71 -51.97l3 -21.24c6.58,-0.88 11.37,-3.38 14.41,-7.46 4.04,-5.45 6.08,-12.9 6.08,-22.36 0,-10.16 -2.04,-18.03 -6.08,-23.57 -4.04,-5.54 -9.75,-9.29 -17.04,-11.24 -4.46,-1.13 -13.82,-1.67 -28.11,-1.59 11.32,9.62 16.99,21.58 16.99,35.9 0,17.83 -6.42,31.65 -19.28,41.39 -12.83,9.79 -28.24,14.66 -46.19,14.66 -12.37,0 -23.78,-2.25 -34.23,-6.7 -10.46,-4.46 -18.49,-10.96 -24.2,-19.45 -5.71,-8.5 -8.53,-18.49 -8.53,-29.99 0,-15.28 6.24,-27.91 18.74,-37.82l-16 0 0 -20.24 111.98 0c20.2,0 34.49,2.04 42.89,6.16 8.42,4.08 15.08,10.62 19.95,19.49 4.88,8.91 7.33,19.87 7.33,32.86 0,15.45 -3.46,27.9 -10.41,37.4 -6.92,9.54 -17.37,14.12 -31.32,13.79zm-77.8 -18c16.95,0 29.32,-3.37 37.11,-10.12 7.79,-6.79 11.7,-15.24 11.7,-25.4 0,-10.12 -3.87,-18.57 -11.62,-25.45 -7.75,-6.83 -19.91,-10.25 -36.48,-10.25 -15.82,0 -27.78,3.54 -35.82,10.58 -8.04,7.03 -12.03,15.53 -12.03,25.45 0,9.78 3.95,18.07 11.87,24.94 7.91,6.83 19.66,10.24 35.27,10.24zm25.07 -213.48l3 -22.74c13.2,3.54 23.49,10.16 30.78,19.82 7.28,9.67 10.95,21.99 10.95,37.02 0,18.91 -5.83,33.91 -17.49,44.98 -11.62,11.08 -27.99,16.62 -49.03,16.62 -21.73,0 -38.64,-5.58 -50.64,-16.78 -12.03,-11.2 -18.03,-25.73 -18.03,-43.6 0,-17.29 5.87,-31.4 17.66,-42.35 11.78,-10.96 28.35,-16.45 49.72,-16.45 1.29,0 3.25,0.04 5.83,0.13l0 96.58c14.2,-0.83 25.12,-4.83 32.65,-12.08 7.54,-7.2 11.33,-16.24 11.33,-27.03 0,-8.03 -2.13,-14.91 -6.37,-20.57 -4.25,-5.7 -11.04,-10.2 -20.37,-13.53zm-35.23 71.96l0 -72.22c-10.91,0.97 -19.07,3.75 -24.53,8.29 -8.45,6.96 -12.7,16.04 -12.7,27.15 0,10.08 3.37,18.54 10.12,25.4 6.75,6.83 15.78,10.62 27.11,11.37zm77.22 -121.99l-178.92 0 0 -21.99 178.92 0 0 21.99zm-16.25 -140.72c6.96,8.16 11.83,16.03 14.7,23.57 2.88,7.54 4.29,15.62 4.29,24.28 0,14.24 -3.46,25.19 -10.41,32.85 -6.92,7.66 -15.79,11.5 -26.57,11.5 -6.33,0 -12.11,-1.46 -17.37,-4.33 -5.25,-2.91 -9.41,-6.7 -12.57,-11.37 -3.16,-4.71 -5.58,-9.95 -7.2,-15.82 -1.13,-4.33 -2.21,-10.87 -3.29,-19.58 -2.08,-17.74 -4.62,-30.86 -7.54,-39.23 -3,-0.09 -4.92,-0.13 -5.71,-0.13 -8.91,0 -15.2,2.08 -18.87,6.25 -4.96,5.62 -7.41,13.99 -7.41,25.07 0,10.37 1.83,18.03 5.45,22.95 3.62,4.96 10.04,8.58 19.28,10.95l-3 21.49c-9.2,-1.96 -16.66,-5.17 -22.32,-9.66 -5.67,-4.5 -10,-11 -13.08,-19.5 -3.04,-8.45 -4.58,-18.32 -4.58,-29.49 0,-11.07 1.29,-20.11 3.91,-27.07 2.63,-6.91 5.88,-12.03 9.83,-15.28 3.96,-3.25 8.96,-5.54 14.99,-6.87 3.75,-0.71 10.5,-1.08 20.2,-1.08l29.15 0c20.37,0 33.23,-0.46 38.69,-1.37 5.46,-0.88 10.66,-2.71 15.66,-5.38l0 22.99c-4.63,2.21 -10.04,3.62 -16.25,4.25zm-48.72 1.75c3.24,7.99 5.99,19.99 8.25,35.98 1.29,9.08 2.75,15.49 4.37,19.24 1.62,3.75 4,6.62 7.08,8.66 3.12,2.04 6.58,3.09 10.41,3.09 5.79,0 10.66,-2.21 14.54,-6.67 3.87,-4.46 5.83,-10.95 5.83,-19.49 0,-8.45 -1.83,-15.99 -5.54,-22.61 -3.66,-6.58 -8.7,-11.45 -15.07,-14.54 -4.96,-2.37 -12.25,-3.53 -21.87,-3.53l-7.99 -0.13zm64.97 -56.02l-129.69 0 0 -19.74 18.41 0c-14.12,-9.5 -21.16,-23.24 -21.16,-41.19 0,-7.84 1.41,-15 4.21,-21.54 2.79,-6.54 6.49,-11.45 11.04,-14.7 4.54,-3.25 9.95,-5.54 16.2,-6.83 4.08,-0.8 11.2,-1.21 21.36,-1.21l79.63 0 0 21.99 -78.79 0c-8.96,0 -15.66,0.84 -20.08,2.55 -4.41,1.71 -7.95,4.74 -10.62,9.08 -2.62,4.33 -3.95,9.45 -3.95,15.29 0,9.33 2.96,17.37 8.91,24.16 5.91,6.79 17.2,10.16 33.78,10.16l70.76 0 0 21.99zm10.74 -134.93l3 -21.24c6.58,-0.88 11.37,-3.37 14.41,-7.46 4.04,-5.45 6.08,-12.91 6.08,-22.36 0,-10.17 -2.04,-18.03 -6.08,-23.57 -4.04,-5.54 -9.75,-9.29 -17.04,-11.24 -4.46,-1.13 -13.82,-1.67 -28.11,-1.58 11.32,9.62 16.99,21.57 16.99,35.9 0,17.83 -6.42,31.65 -19.28,41.4 -12.83,9.78 -28.24,14.65 -46.19,14.65 -12.37,0 -23.78,-2.25 -34.23,-6.7 -10.46,-4.46 -18.49,-10.96 -24.2,-19.45 -5.71,-8.5 -8.53,-18.49 -8.53,-29.99 0,-15.28 6.24,-27.9 18.74,-37.81l-16 0 0 -20.24 111.98 0c20.2,0 34.49,2.04 42.89,6.16 8.42,4.08 15.08,10.62 19.95,19.5 4.88,8.91 7.33,19.86 7.33,32.85 0,15.45 -3.46,27.91 -10.41,37.4 -6.92,9.54 -17.37,14.12 -31.32,13.79zm-77.8 -18c16.95,0 29.32,-3.37 37.11,-10.12 7.79,-6.78 11.7,-15.24 11.7,-25.4 0,-10.12 -3.87,-18.57 -11.62,-25.45 -7.75,-6.83 -19.91,-10.24 -36.48,-10.24 -15.82,0 -27.78,3.54 -35.82,10.58 -8.04,7.03 -12.03,15.54 -12.03,25.45 0,9.78 3.95,18.07 11.87,24.94 7.91,6.83 19.66,10.24 35.27,10.24z"/>
  <path class="fil3" d="M5748.56 3476.8l1487.11 0.01 0 1352.68 -1533.77 0 0 -1352.68 46.66 -0.01zm1393.78 93.33l-1347.12 0 0 1166.03 1347.12 0 0 -1166.03z"/>
  <path class="fil4" d="M6112.45 3947.27l0 -170.57 33.55 0 0 75.56 67.6 -75.56 44.96 0 -62.5 66.43 65.74 104.14 -43.27 0 -45.58 -80.09 -26.95 28.51 0 51.58 -33.55 0zm189.98 -85.53l-28.68 -5.24c3.23,-12.07 8.83,-21 16.73,-26.8 7.91,-5.8 19.67,-8.7 35.25,-8.7 14.15,0 24.72,1.71 31.66,5.17 6.9,3.45 11.8,7.82 14.62,13.14 2.81,5.32 4.24,15.05 4.24,29.26l-0.46 38.12c0,10.84 0.5,18.86 1.5,24.02 1,5.17 2.9,10.68 5.67,16.56l-31.46 0c-0.81,-2.14 -1.85,-5.32 -3.04,-9.53 -0.51,-1.94 -0.89,-3.21 -1.12,-3.81 -5.4,5.48 -11.18,9.57 -17.35,12.31 -6.17,2.74 -12.73,4.13 -19.71,4.13 -12.29,0 -22.01,-3.46 -29.11,-10.36 -7.09,-6.87 -10.65,-15.6 -10.65,-26.16 0,-6.95 1.62,-13.19 4.86,-18.66 3.24,-5.44 7.75,-9.65 13.61,-12.55 5.82,-2.9 14.23,-5.44 25.21,-7.62 14.81,-2.86 25.1,-5.56 30.82,-8.03l0 -3.29c0,-6.35 -1.51,-10.88 -4.52,-13.61 -3.04,-2.71 -8.75,-4.05 -17.12,-4.05 -5.67,0 -10.06,1.15 -13.22,3.5 -3.2,2.3 -5.74,6.39 -7.71,12.22zm42.57 26.44c-4.05,1.4 -10.49,3.06 -19.32,5.01 -8.8,1.94 -14.58,3.85 -17.28,5.67 -4.13,3.06 -6.2,6.87 -6.2,11.51 0,4.6 1.65,8.54 4.97,11.88 3.31,3.33 7.52,5 12.65,5 5.71,0 11.18,-1.95 16.39,-5.8 3.82,-2.98 6.37,-6.56 7.55,-10.83 0.81,-2.79 1.24,-8.1 1.24,-15.92l0 -6.52zm171.7 59.08l-31.7 0 0 -63.01c0,-13.34 -0.69,-21.96 -2.04,-25.85 -1.38,-3.94 -3.58,-6.95 -6.67,-9.13 -3.08,-2.19 -6.78,-3.26 -11.1,-3.26 -5.56,0 -10.53,1.55 -14.92,4.65 -4.44,3.1 -7.44,7.22 -9.07,12.31 -1.65,5.12 -2.46,14.57 -2.46,28.39l0 55.9 -31.7 0 0 -123.64 29.38 0 0 18.14c10.53,-13.86 23.75,-20.77 39.76,-20.77 7.02,0 13.45,1.32 19.28,3.89 5.86,2.63 10.25,5.92 13.22,9.93 3.01,4.05 5.09,8.62 6.25,13.74 1.19,5.12 1.78,12.43 1.78,21.96l0 76.75zm86.95 -123.64l0 25.97 -21.75 0 0 50.07c0,10.16 0.2,16.08 0.61,17.75 0.43,1.67 1.35,3.06 2.86,4.17 1.46,1.07 3.24,1.63 5.36,1.63 2.96,0 7.2,-1.03 12.8,-3.14l2.66 25.41c-7.36,3.26 -15.69,4.88 -25.02,4.88 -5.71,0 -10.83,-0.99 -15.43,-2.97 -4.58,-1.99 -7.95,-4.57 -10.06,-7.71 -2.16,-3.18 -3.62,-7.42 -4.47,-12.82 -0.65,-3.81 -1,-11.52 -1,-23.15l0 -54.12 -14.58 0 0 -25.97 14.58 0 0 -24.54 31.7 -19.29 0 43.84 21.75 0zm14.8 60.31c0,-10.88 2.58,-21.4 7.79,-31.57 5.21,-10.2 12.57,-17.95 22.09,-23.3 9.52,-5.36 20.13,-8.07 31.89,-8.07 18.17,0 33.01,6.08 44.61,18.23 11.62,12.19 17.4,27.52 17.4,46.09 0,18.74 -5.86,34.27 -17.55,46.58 -11.72,12.31 -26.44,18.46 -44.23,18.46 -10.99,0 -21.47,-2.58 -31.46,-7.7 -9.95,-5.12 -17.54,-12.63 -22.75,-22.56 -5.21,-9.89 -7.79,-21.95 -7.79,-36.17zm32.62 1.74c0,12.27 2.82,21.68 8.45,28.19 5.67,6.55 12.61,9.81 20.9,9.81 8.25,0 15.19,-3.26 20.79,-9.81 5.58,-6.51 8.4,-16 8.4,-28.43 0,-12.11 -2.82,-21.44 -8.4,-27.95 -5.59,-6.56 -12.54,-9.81 -20.79,-9.81 -8.29,0 -15.23,3.26 -20.9,9.81 -5.63,6.51 -8.45,15.92 -8.45,28.19zm146.42 61.58l-31.7 0 0 -123.64 29.39 0 0 17.55c5.05,-8.3 9.6,-13.74 13.64,-16.32 4.05,-2.58 8.64,-3.86 13.77,-3.86 7.25,0 14.23,2.07 20.94,6.16l-9.84 28.51c-5.36,-3.57 -10.33,-5.36 -14.92,-5.36 -4.47,0 -8.26,1.27 -11.34,3.77 -3.09,2.54 -5.52,7.07 -7.29,13.66 -1.78,6.59 -2.66,20.41 -2.66,41.42l0 38.11zm-929.59 266.15l0 -170.57 33.55 0 0 75.56 67.59 -75.56 44.96 0 -62.51 66.43 65.75 104.14 -43.27 0 -45.57 -80.09 -26.95 28.51 0 51.58 -33.55 0zm235.8 -39.07l31.7 5.48c-4.05,11.95 -10.49,21.04 -19.24,27.32 -8.79,6.23 -19.78,9.37 -32.93,9.37 -20.86,0 -36.32,-7.03 -46.31,-21.08 -7.9,-11.28 -11.88,-25.49 -11.88,-42.68 0,-20.49 5.2,-36.57 15.58,-48.16 10.37,-11.63 23.52,-17.43 39.4,-17.43 17.82,0 31.89,6.08 42.23,18.23 10.29,12.15 15.23,30.77 14.76,55.86l-79.36 0c0.23,9.69 2.78,17.23 7.68,22.64 4.85,5.4 10.95,8.09 18.2,8.09 4.97,0 9.14,-1.38 12.49,-4.16 3.4,-2.79 5.94,-7.27 7.68,-13.47zm1.85 -33.11c-0.23,-9.49 -2.58,-16.72 -7.09,-21.64 -4.51,-4.96 -9.99,-7.43 -16.47,-7.43 -6.9,0 -12.61,2.62 -17.12,7.82 -4.51,5.2 -6.71,12.31 -6.63,21.24l47.31 0zm161.98 -14.77l-31.23 5.72c-1.04,-6.39 -3.43,-11.2 -7.17,-14.45 -3.75,-3.21 -8.56,-4.84 -14.5,-4.84 -7.9,0 -14.23,2.82 -18.93,8.45 -4.7,5.64 -7.05,15.05 -7.05,28.27 0,14.69 2.39,25.05 7.17,31.13 4.78,6.07 11.18,9.09 19.2,9.09 6.02,0 10.96,-1.79 14.77,-5.32 3.86,-3.53 6.56,-9.6 8.14,-18.26l31.24 5.48c-3.24,14.76 -9.45,25.92 -18.63,33.47 -9.17,7.54 -21.47,11.31 -36.94,11.31 -17.51,0 -31.5,-5.72 -41.91,-17.12 -10.45,-11.43 -15.66,-27.23 -15.66,-47.44 0,-20.45 5.24,-36.34 15.7,-47.73 10.45,-11.4 24.6,-17.08 42.45,-17.08 14.58,0 26.19,3.26 34.82,9.73 8.59,6.47 14.76,16.32 18.54,29.58zm47.7 1.43l-28.69 -5.24c3.24,-12.07 8.83,-21 16.74,-26.8 7.9,-5.79 19.67,-8.7 35.24,-8.7 14.15,0 24.72,1.71 31.66,5.17 6.9,3.45 11.8,7.82 14.62,13.14 2.81,5.32 4.24,15.05 4.24,29.26l-0.47 38.12c0,10.84 0.5,18.86 1.5,24.02 1,5.17 2.9,10.68 5.67,16.56l-31.46 0c-0.81,-2.14 -1.85,-5.32 -3.04,-9.52 -0.51,-1.95 -0.89,-3.22 -1.12,-3.81 -5.4,5.48 -11.18,9.57 -17.35,12.31 -6.16,2.74 -12.73,4.13 -19.7,4.13 -12.3,0 -22.01,-3.46 -29.11,-10.36 -7.09,-6.87 -10.64,-15.6 -10.64,-26.16 0,-6.95 1.62,-13.19 4.86,-18.66 3.24,-5.44 7.75,-9.65 13.61,-12.54 5.82,-2.9 14.23,-5.44 25.22,-7.63 14.81,-2.86 25.1,-5.56 30.81,-8.03l0 -3.29c0,-6.35 -1.51,-10.88 -4.52,-13.61 -3.04,-2.71 -8.75,-4.05 -17.12,-4.05 -5.66,0 -10.06,1.15 -13.22,3.5 -3.2,2.3 -5.75,6.4 -7.71,12.22zm42.57 26.44c-4.05,1.4 -10.49,3.06 -19.32,5.01 -8.79,1.95 -14.58,3.85 -17.27,5.67 -4.13,3.06 -6.21,6.87 -6.21,11.51 0,4.6 1.66,8.54 4.97,11.88 3.31,3.33 7.52,5 12.65,5 5.71,0 11.18,-1.95 16.39,-5.8 3.81,-2.98 6.36,-6.55 7.55,-10.83 0.81,-2.79 1.24,-8.1 1.24,-15.92l0 -6.52zm60.19 -64.56l29.15 0 0 16.87c10.46,-12.98 22.91,-19.5 37.37,-19.5 7.67,0 14.34,1.63 19.97,4.89 5.67,3.26 10.3,8.18 13.88,14.76 5.29,-6.59 10.99,-11.51 17.08,-14.76 6.1,-3.26 12.61,-4.89 19.55,-4.89 8.79,0 16.23,1.83 22.37,5.52 6.09,3.69 10.64,9.1 13.65,16.24 2.2,5.24 3.27,13.78 3.27,25.58l0 78.93 -31.7 0 0 -70.56c0,-12.27 -1.08,-20.17 -3.28,-23.71 -2.93,-4.64 -7.47,-6.98 -13.57,-6.98 -4.43,0 -8.64,1.39 -12.57,4.17 -3.9,2.82 -6.75,6.91 -8.48,12.27 -1.73,5.41 -2.58,13.9 -2.58,25.53l0 59.28 -31.7 0 0 -67.66c0,-11.99 -0.58,-19.77 -1.7,-23.22 -1.12,-3.5 -2.86,-6.12 -5.25,-7.82 -2.35,-1.7 -5.59,-2.54 -9.64,-2.54 -4.9,0 -9.3,1.35 -13.19,4.05 -3.94,2.74 -6.72,6.63 -8.4,11.75 -1.7,5.12 -2.55,13.63 -2.55,25.45l0 60 -31.69 0 0 -123.64zm231.63 38.11l-28.69 -5.24c3.24,-12.07 8.83,-21 16.74,-26.8 7.91,-5.79 19.67,-8.7 35.24,-8.7 14.15,0 24.72,1.71 31.66,5.17 6.9,3.45 11.8,7.82 14.61,13.14 2.82,5.32 4.24,15.05 4.24,29.26l-0.46 38.12c0,10.84 0.5,18.86 1.5,24.02 1,5.17 2.9,10.68 5.67,16.56l-31.47 0c-0.81,-2.14 -1.85,-5.32 -3.04,-9.52 -0.51,-1.95 -0.89,-3.22 -1.12,-3.81 -5.4,5.48 -11.18,9.57 -17.35,12.31 -6.16,2.74 -12.73,4.13 -19.7,4.13 -12.3,0 -22.02,-3.46 -29.11,-10.36 -7.09,-6.87 -10.64,-15.6 -10.64,-26.16 0,-6.95 1.62,-13.19 4.85,-18.66 3.24,-5.44 7.76,-9.65 13.62,-12.54 5.82,-2.9 14.22,-5.44 25.21,-7.63 14.81,-2.86 25.1,-5.56 30.81,-8.03l0 -3.29c0,-6.35 -1.5,-10.88 -4.51,-13.61 -3.05,-2.71 -8.75,-4.05 -17.12,-4.05 -5.67,0 -10.06,1.15 -13.22,3.5 -3.2,2.3 -5.75,6.4 -7.71,12.22zm42.57 26.44c-4.05,1.4 -10.49,3.06 -19.32,5.01 -8.79,1.95 -14.58,3.85 -17.27,5.67 -4.13,3.06 -6.21,6.87 -6.21,11.51 0,4.6 1.66,8.54 4.98,11.88 3.31,3.33 7.52,5 12.64,5 5.71,0 11.18,-1.95 16.39,-5.8 3.82,-2.98 6.37,-6.55 7.55,-10.83 0.81,-2.79 1.24,-8.1 1.24,-15.92l0 -6.52zm117.33 -64.56l0 25.97 -21.74 0 0 50.07c0,10.16 0.2,16.08 0.61,17.75 0.43,1.67 1.35,3.06 2.86,4.17 1.46,1.07 3.24,1.63 5.36,1.63 2.96,0 7.2,-1.03 12.8,-3.14l2.66 25.41c-7.37,3.26 -15.69,4.88 -25.02,4.88 -5.71,0 -10.83,-0.99 -15.43,-2.97 -4.58,-1.99 -7.95,-4.57 -10.06,-7.71 -2.16,-3.18 -3.62,-7.42 -4.47,-12.82 -0.65,-3.81 -1,-11.52 -1,-23.15l0 -54.12 -14.58 0 0 -25.97 14.58 0 0 -24.53 31.7 -19.3 0 43.84 21.74 0zm45.81 38.11l-28.68 -5.24c3.23,-12.07 8.82,-21 16.73,-26.8 7.91,-5.79 19.67,-8.7 35.24,-8.7 14.15,0 24.72,1.71 31.66,5.17 6.9,3.45 11.8,7.82 14.61,13.14 2.82,5.32 4.24,15.05 4.24,29.26l-0.46 38.12c0,10.84 0.5,18.86 1.5,24.02 1,5.17 2.9,10.68 5.67,16.56l-31.47 0c-0.81,-2.14 -1.85,-5.32 -3.04,-9.52 -0.51,-1.95 -0.89,-3.22 -1.12,-3.81 -5.4,5.48 -11.18,9.57 -17.35,12.31 -6.16,2.74 -12.73,4.13 -19.7,4.13 -12.3,0 -22.02,-3.46 -29.11,-10.36 -7.09,-6.87 -10.64,-15.6 -10.64,-26.16 0,-6.95 1.62,-13.19 4.85,-18.66 3.24,-5.44 7.76,-9.65 13.62,-12.54 5.82,-2.9 14.22,-5.44 25.21,-7.63 14.81,-2.86 25.1,-5.56 30.81,-8.03l0 -3.29c0,-6.35 -1.5,-10.88 -4.51,-13.61 -3.05,-2.71 -8.75,-4.05 -17.12,-4.05 -5.67,0 -10.06,1.15 -13.22,3.5 -3.2,2.3 -5.75,6.4 -7.71,12.22zm42.57 26.44c-4.05,1.4 -10.49,3.06 -19.32,5.01 -8.79,1.95 -14.58,3.85 -17.27,5.67 -4.13,3.06 -6.21,6.87 -6.21,11.51 0,4.6 1.66,8.54 4.98,11.88 3.31,3.33 7.52,5 12.64,5 5.71,0 11.18,-1.95 16.39,-5.8 3.82,-2.98 6.37,-6.55 7.55,-10.83 0.81,-2.79 1.24,-8.1 1.24,-15.92l0 -6.52zm171.7 59.08l-31.7 0 0 -63.01c0,-13.34 -0.69,-21.96 -2.04,-25.85 -1.38,-3.94 -3.58,-6.95 -6.67,-9.13 -3.09,-2.19 -6.79,-3.26 -11.11,-3.26 -5.55,0 -10.52,1.55 -14.92,4.65 -4.44,3.1 -7.44,7.23 -9.07,12.31 -1.65,5.12 -2.46,14.57 -2.46,28.39l0 55.9 -31.7 0 0 -123.64 29.38 0 0 18.14c10.53,-13.86 23.76,-20.77 39.76,-20.77 7.02,0 13.45,1.32 19.28,3.89 5.85,2.63 10.25,5.92 13.22,9.93 3.01,4.05 5.09,8.62 6.25,13.74 1.19,5.12 1.77,12.43 1.77,21.96l0 76.75zm-1005.19 210.88l32.61 -3.34c1.96,11.24 5.9,19.45 11.88,24.74 5.98,5.28 14.04,7.9 24.19,7.9 10.71,0 18.81,-2.34 24.25,-7.03 5.44,-4.68 8.18,-10.16 8.18,-16.44 0,-4.05 -1.16,-7.47 -3.43,-10.33 -2.27,-2.82 -6.29,-5.28 -11.99,-7.35 -3.89,-1.43 -12.76,-3.89 -26.64,-7.46 -17.86,-4.6 -30.39,-10.25 -37.6,-16.95 -10.14,-9.41 -15.19,-20.89 -15.19,-34.43 0,-8.7 2.39,-16.88 7.13,-24.46 4.78,-7.58 11.64,-13.34 20.63,-17.31 8.99,-3.97 19.78,-5.96 32.5,-5.96 20.71,0 36.32,4.73 46.77,14.21 10.49,9.49 15.96,22.12 16.51,37.96l-33.55 1.19c-1.43,-8.81 -4.47,-15.13 -9.14,-18.98 -4.66,-3.86 -11.68,-5.8 -21.01,-5.8 -9.64,0 -17.2,2.07 -22.64,6.19 -3.51,2.66 -5.28,6.19 -5.28,10.64 0,4.05 1.66,7.5 4.98,10.37 4.2,3.69 14.42,7.5 30.66,11.47 16.24,3.93 28.23,8.06 35.98,12.27 7.79,4.25 13.88,10.01 18.28,17.35 4.4,7.34 6.59,16.39 6.59,27.15 0,9.77 -2.63,18.94 -7.9,27.48 -5.28,8.54 -12.73,14.89 -22.37,19.02 -9.64,4.17 -21.67,6.23 -36.05,6.23 -20.94,0 -37.02,-4.96 -48.24,-14.93 -11.22,-9.92 -17.89,-24.41 -20.08,-43.44zm232.28 16.2l31.7 5.48c-4.05,11.95 -10.49,21.04 -19.24,27.32 -8.79,6.23 -19.78,9.37 -32.93,9.37 -20.86,0 -36.32,-7.03 -46.31,-21.08 -7.9,-11.28 -11.87,-25.49 -11.87,-42.68 0,-20.49 5.2,-36.57 15.58,-48.16 10.37,-11.63 23.52,-17.43 39.4,-17.43 17.82,0 31.89,6.08 42.23,18.23 10.29,12.15 15.23,30.77 14.76,55.87l-79.36 0c0.23,9.68 2.78,17.23 7.68,22.63 4.85,5.4 10.95,8.09 18.2,8.09 4.97,0 9.14,-1.38 12.49,-4.16 3.4,-2.79 5.94,-7.27 7.68,-13.47zm1.85 -33.11c-0.23,-9.49 -2.58,-16.72 -7.1,-21.64 -4.51,-4.96 -9.99,-7.43 -16.46,-7.43 -6.9,0 -12.61,2.62 -17.12,7.82 -4.51,5.2 -6.71,12.31 -6.63,21.24l47.31 0zm161.98 -14.77l-31.23 5.72c-1.05,-6.39 -3.43,-11.2 -7.17,-14.45 -3.74,-3.21 -8.56,-4.84 -14.5,-4.84 -7.9,0 -14.23,2.82 -18.93,8.45 -4.7,5.64 -7.05,15.05 -7.05,28.27 0,14.69 2.39,25.05 7.16,31.13 4.79,6.07 11.19,9.09 19.2,9.09 6.02,0 10.96,-1.78 14.77,-5.32 3.86,-3.53 6.56,-9.6 8.14,-18.26l31.24 5.48c-3.24,14.76 -9.45,25.92 -18.63,33.47 -9.17,7.54 -21.47,11.31 -36.94,11.31 -17.51,0 -31.51,-5.72 -41.91,-17.12 -10.46,-11.43 -15.66,-27.23 -15.66,-47.44 0,-20.45 5.24,-36.34 15.7,-47.73 10.45,-11.4 24.6,-17.08 42.45,-17.08 14.58,0 26.19,3.26 34.82,9.73 8.59,6.47 14.76,16.32 18.54,29.58zm47.7 1.43l-28.69 -5.24c3.23,-12.07 8.83,-21 16.74,-26.8 7.9,-5.79 19.66,-8.7 35.24,-8.7 14.15,0 24.72,1.71 31.66,5.17 6.9,3.45 11.8,7.82 14.62,13.14 2.81,5.32 4.24,15.05 4.24,29.27l-0.47 38.11c0,10.84 0.5,18.86 1.5,24.03 1,5.16 2.9,10.68 5.67,16.55l-31.46 0c-0.81,-2.14 -1.85,-5.32 -3.04,-9.52 -0.51,-1.95 -0.89,-3.22 -1.12,-3.81 -5.4,5.48 -11.18,9.57 -17.35,12.31 -6.16,2.74 -12.73,4.13 -19.7,4.13 -12.3,0 -22.02,-3.45 -29.11,-10.36 -7.09,-6.87 -10.64,-15.6 -10.64,-26.16 0,-6.95 1.62,-13.19 4.85,-18.66 3.24,-5.44 7.75,-9.65 13.61,-12.54 5.82,-2.9 14.23,-5.44 25.22,-7.63 14.81,-2.86 25.1,-5.56 30.81,-8.02l0 -3.3c0,-6.35 -1.51,-10.88 -4.52,-13.61 -3.04,-2.7 -8.75,-4.05 -17.12,-4.05 -5.67,0 -10.06,1.16 -13.22,3.5 -3.2,2.3 -5.74,6.4 -7.71,12.22zm42.57 26.45c-4.05,1.39 -10.49,3.05 -19.32,5 -8.79,1.95 -14.58,3.85 -17.28,5.67 -4.12,3.06 -6.2,6.87 -6.2,11.51 0,4.61 1.65,8.54 4.97,11.88 3.31,3.34 7.52,5 12.65,5 5.71,0 11.18,-1.94 16.39,-5.8 3.81,-2.97 6.36,-6.55 7.55,-10.83 0.81,-2.79 1.24,-8.1 1.24,-15.92l0 -6.51zm171.7 59.08l-31.7 0 0 -63.01c0,-13.34 -0.69,-21.96 -2.04,-25.85 -1.38,-3.93 -3.58,-6.95 -6.67,-9.13 -3.08,-2.18 -6.78,-3.26 -11.1,-3.26 -5.56,0 -10.53,1.55 -14.92,4.65 -4.44,3.1 -7.44,7.23 -9.07,12.31 -1.66,5.12 -2.47,14.57 -2.47,28.39l0 55.9 -31.7 0 0 -123.64 29.38 0 0 18.14c10.53,-13.86 23.76,-20.77 39.76,-20.77 7.02,0 13.45,1.32 19.28,3.89 5.86,2.63 10.26,5.92 13.22,9.93 3.01,4.05 5.1,8.62 6.25,13.74 1.2,5.12 1.78,12.43 1.78,21.96l0 76.75zm29.11 7.87l36.32 4.52c0.61,4.41 2.01,7.43 4.16,9.09 3.05,2.34 7.79,3.53 14.26,3.53 8.3,0 14.5,-1.27 18.67,-3.85 2.77,-1.71 4.9,-4.44 6.32,-8.26 0.97,-2.7 1.47,-7.74 1.47,-15.01l0.15 -18.06c-9.56,13.45 -21.59,20.16 -36.09,20.16 -16.12,0 -28.92,-7.03 -38.33,-21.05 -7.41,-11.08 -11.11,-24.9 -11.11,-41.37 0,-20.72 4.86,-36.53 14.54,-47.44 9.68,-10.92 21.74,-16.41 36.17,-16.41 14.84,0 27.11,6.72 36.75,20.13l0 -17.51 29.61 0 0 110.86c0,14.57 -1.15,25.49 -3.5,32.68 -2.31,7.22 -5.59,12.87 -9.84,16.99 -4.2,4.09 -9.83,7.35 -16.88,9.65 -7.06,2.34 -15.97,3.5 -26.73,3.5 -20.36,0 -34.78,-3.61 -43.3,-10.8 -8.52,-7.23 -12.76,-16.32 -12.76,-27.4 0,-1.07 0.03,-2.42 0.11,-3.97zm28.45 -72.19c0,13.11 2.47,22.67 7.37,28.75 4.94,6.08 11.03,9.13 18.24,9.13 7.71,0 14.27,-3.13 19.59,-9.37 5.36,-6.23 8.01,-15.44 8.01,-27.67 0,-12.79 -2.54,-22.28 -7.67,-28.47 -5.09,-6.19 -11.56,-9.29 -19.4,-9.29 -7.59,0 -13.83,3.06 -18.77,9.13 -4.9,6.08 -7.37,15.33 -7.37,27.79z"/>
  <polygon class="fil5" points="5771.17,8186.42 7186.91,8186.42 7186.91,8918.98 5771.17,8918.98 "/>
  <path class="fil4" d="M5771.17 8180.29l1421.86 0 0 744.81 -1427.99 0 0 -744.81 6.12 0zm1409.62 12.24l-1403.5 0 0 720.32 1403.5 0 0 -720.32z"/>
  <path class="fil3" d="M5771.17 8181.74l1420.41 0 0 741.9 -1425.08 0 0 -741.9 4.66 0zm1411.08 9.34l-1406.41 0 0 723.24 1406.41 0 0 -723.24z"/>
  <polygon class="fil5" points="5771.17,8929.06 7186.91,8929.06 7186.91,9620.48 5771.17,9620.48 "/>
  <path class="fil4" d="M5771.17 8922.94l1421.86 0 0 703.66 -1427.99 0 0 -703.66 6.12 0zm1409.62 12.24l-1403.5 0 0 679.17 1403.5 0 0 -679.17z"/>
  <path class="fil3" d="M5771.17 8924.4l1420.41 0 0 700.75 -1425.08 0 0 -700.75 4.66 0zm1411.08 9.34l-1406.41 0 0 682.08 1406.41 0 0 -682.08z"/>
  <polygon class="fil5" points="5771.17,9636.94 7186.91,9636.94 7186.91,10328.35 5771.17,10328.35 "/>
  <path class="fil4" d="M5771.17 9630.82l1421.86 0 0 703.65 -1427.99 0 0 -703.65 6.12 0zm1409.62 12.24l-1403.5 0 0 679.17 1403.5 0 0 -679.17z"/>
  <path class="fil3" d="M5771.17 9632.27l1420.41 0.01 0 700.74 -1425.08 0 0 -700.74 4.66 -0.01zm1411.08 9.34l-1406.41 0 0 682.08 1406.41 0 0 -682.08z"/>
  <polygon class="fil5" points="5771.17,10337.81 7186.91,10337.81 7186.91,11029.23 5771.17,11029.23 "/>
  <path class="fil4" d="M5771.17 10331.69l1421.86 0 0 703.65 -1427.99 0 0 -703.65 6.12 0zm1409.62 12.24l-1403.5 0 0 679.17 1403.5 0 0 -679.17z"/>
  <path class="fil3" d="M5771.17 10333.15l1420.41 0 0 700.75 -1425.08 0 0 -700.75 4.66 0zm1411.08 9.33l-1406.41 0 0 682.08 1406.41 0 0 -682.08z"/>
  <polygon class="fil5" points="5771.17,11045.75 7186.91,11045.75 7186.91,11687.72 5771.17,11687.72 "/>
  <path class="fil4" d="M5771.17 11039.63l1421.86 0 0 654.22 -1427.99 0 0 -654.22 6.12 0zm1409.62 12.24l-1403.5 0 0 629.73 1403.5 0 0 -629.73z"/>
  <path class="fil3" d="M5771.17 11041.08l1420.41 0 0 651.3 -1425.08 0 0 -651.3 4.66 0zm1411.08 9.33l-1406.41 0 0 632.64 1406.41 0 0 -632.64z"/>
  <polygon class="fil5" points="5771.17,11705.47 7186.91,11705.47 7186.91,12392.56 5771.17,12392.56 "/>
  <path class="fil4" d="M5771.17 11699.35l1421.86 0 0 699.34 -1427.99 0 0 -699.34 6.12 0zm1409.62 12.24l-1403.5 0 0 674.85 1403.5 0 0 -674.85z"/>
  <path class="fil3" d="M5771.17 11700.8l1420.41 0 0 696.42 -1425.08 0 0 -696.42 4.66 0zm1411.08 9.33l-1406.41 0 0 677.77 1406.41 0 0 -677.77z"/>
  <polygon class="fil5" points="4676.57,11044.16 5762.8,11044.16 5762.8,12417.26 4676.57,12417.26 "/>
  <path class="fil4" d="M4676.57 11038.04l1092.36 0 0 1385.34 -1098.48 0 0 -1385.34 6.12 0zm1080.11 12.24l-1073.99 0 0 1360.85 1073.99 0 0 -1360.85z"/>
  <path class="fil3" d="M4676.57 11039.5l1090.9 0 0 1382.43 -1095.57 0 0 -1382.43 4.67 0zm1081.56 9.33l-1076.9 0 0 1363.77 1076.9 0 0 -1363.77z"/>
  <polygon class="fil5" points="3533.15,11044.16 4655.04,11044.16 4655.04,12417.26 3533.15,12417.26 "/>
  <path class="fil4" d="M3533.15 11038.04l1128.01 0 0 1385.34 -1134.13 0 0 -1385.34 6.12 0zm1115.77 12.24l-1109.65 0 0 1360.85 1109.65 0 0 -1360.85z"/>
  <path class="fil3" d="M3533.15 11039.5l1126.56 0 0 1382.43 -1131.22 0 0 -1382.43 4.66 0zm1117.23 9.33l-1112.56 0 0 1363.77 1112.56 0 0 -1363.77z"/>
  <polygon class="fil5" points="2389.03,11044.16 3510.92,11044.16 3510.92,12417.26 2389.03,12417.26 "/>
  <path class="fil4" d="M2389.03 11038.04l1128.01 0 0 1385.34 -1134.13 0 0 -1385.34 6.12 0zm1115.77 12.24l-1109.65 0 0 1360.85 1109.65 0 0 -1360.85z"/>
  <path class="fil3" d="M2389.03 11039.5l1126.56 0 0 1382.43 -1131.23 0 0 -1382.43 4.66 0zm1117.23 9.33l-1112.56 0 0 1363.77 1112.56 0 0 -1363.77z"/>
  <polygon class="fil5" points="5835.8,12915.92 7211.61,12915.92 7211.61,14053.86 5835.8,14053.86 "/>
  <path class="fil4" d="M5835.8 12909.8l1381.93 0 0 1150.17c-462.65,0.47 -925.4,0.47 -1388.06,0l0 -1150.17 6.12 0zm1369.69 12.24l-1363.57 0 0 1125.69 1363.57 0 0 -1125.69z"/>
  <path class="fil3" d="M5835.8 12911.26l1380.48 0 0 1147.26 -1385.15 0 0 -1147.26 4.66 0zm1371.15 9.33l-1366.48 0 0 1128.6 1366.48 0 0 -1128.6z"/>
  <polygon class="fil5" points="4687.53,12915.92 5820.16,12915.92 5820.16,14053.86 4687.53,14053.86 "/>
  <path class="fil4" d="M4687.53 12909.8l1138.75 0 0 1150.18 -1144.87 0 0 -1150.18 6.12 0zm1126.51 12.24l-1120.39 0 0 1125.69 1120.39 0 0 -1125.69z"/>
  <path class="fil3" d="M4687.53 12911.26l1137.29 0 0 1147.26 -1141.96 0 0 -1147.26 4.66 0zm1127.96 9.33l-1123.3 0 0 1128.6 1123.3 0 0 -1128.6z"/>
  <polygon class="fil5" points="3539.57,12915.92 4672.2,12915.92 4672.2,14053.86 3539.57,14053.86 "/>
  <path class="fil4" d="M3539.57 12909.8l1138.75 0 0 1150.18 -1144.87 0 0 -1150.18 6.12 0zm1126.51 12.24l-1120.39 0 0 1125.69 1120.39 0 0 -1125.69z"/>
  <path class="fil3" d="M3539.57 12911.26l1137.29 0 0 1147.26 -1141.96 0 0 -1147.26 4.66 0zm1127.96 9.33l-1123.3 0 0 1128.6 1123.3 0 0 -1128.6z"/>
  <polygon class="fil5" points="2390.52,12915.92 3523.15,12915.92 3523.15,14053.86 2390.52,14053.86 "/>
  <path class="fil4" d="M2390.52 12909.8l1138.75 0 0 1150.18 -1144.87 0 0 -1150.18 6.12 0zm1126.51 12.24l-1120.39 0 0 1125.69 1120.39 0 0 -1125.69z"/>
  <path class="fil3" d="M2390.52 12911.26l1137.3 0 0 1147.26 -1141.96 0 0 -1147.26 4.66 0zm1127.96 9.33l-1123.29 0 0 1128.6 1123.29 0 0 -1128.6z"/>
  <path class="fil4" d="M4477.41 12712.48l23.59 -3.24c0.65,15.22 3.47,25.63 8.51,31.27 5.04,5.59 12.08,8.42 21.01,8.42 6.57,0 12.26,-1.53 17.02,-4.54 4.77,-3.05 8.09,-7.17 9.9,-12.35 1.81,-5.18 2.68,-13.51 2.68,-24.9l0 -136.98 26.37 0 0 135.41c0,16.61 -1.98,29.47 -6.01,38.63 -4.02,9.11 -10.36,16.05 -19.1,20.86 -8.7,4.77 -18.92,7.17 -30.63,7.17 -17.45,0 -30.77,-5 -40.02,-15.03 -9.26,-10.05 -13.69,-24.94 -13.32,-44.74zm243.15 38.41c-9.07,7.72 -17.81,13.13 -26.19,16.33 -8.37,3.19 -17.35,4.76 -26.97,4.76 -15.82,0 -27.99,-3.84 -36.5,-11.56 -8.51,-7.68 -12.77,-17.53 -12.77,-29.52 0,-7.03 1.62,-13.46 4.81,-19.29 3.24,-5.83 7.45,-10.46 12.63,-13.97 5.23,-3.52 11.06,-6.2 17.58,-8.01 4.81,-1.25 12.08,-2.45 21.74,-3.65 19.71,-2.31 34.28,-5.14 43.58,-8.37 0.09,-3.33 0.14,-5.46 0.14,-6.34 0,-9.9 -2.31,-16.89 -6.94,-20.96 -6.24,-5.5 -15.54,-8.23 -27.85,-8.23 -11.52,0 -20.04,2.03 -25.49,6.06 -5.51,4.02 -9.53,11.15 -12.17,21.42l-23.87 -3.33c2.17,-10.22 5.73,-18.5 10.73,-24.8 5,-6.29 12.21,-11.1 21.65,-14.53 9.4,-3.37 20.36,-5.09 32.76,-5.09 12.3,0 22.35,1.43 30.07,4.35 7.68,2.91 13.37,6.53 16.98,10.92 3.61,4.39 6.15,9.95 7.63,16.66 0.79,4.16 1.21,11.66 1.21,22.43l0 32.38c0,22.62 0.51,36.92 1.52,42.98 0.97,6.06 3.01,11.84 5.97,17.4l-25.54 0c-2.45,-5.14 -4.02,-11.15 -4.71,-18.04zm-1.95 -54.13c-8.88,3.61 -22.2,6.66 -39.97,9.16 -10.09,1.44 -17.21,3.05 -21.38,4.86 -4.16,1.81 -7.35,4.44 -9.62,7.87 -2.26,3.46 -3.42,7.31 -3.42,11.56 0,6.43 2.45,11.84 7.4,16.15 4.95,4.3 12.16,6.48 21.65,6.48 9.39,0 17.76,-2.04 25.12,-6.16 7.31,-4.07 12.73,-9.67 16.15,-16.74 2.64,-5.51 3.93,-13.6 3.93,-24.29l0.14 -8.88zm61.67 72.17l0 -198.75 24.42 0 0 198.75 -24.42 0zm156.32 -18.04c-9.07,7.72 -17.81,13.13 -26.19,16.33 -8.37,3.19 -17.35,4.76 -26.97,4.76 -15.82,0 -27.99,-3.84 -36.5,-11.56 -8.51,-7.68 -12.77,-17.53 -12.77,-29.52 0,-7.03 1.62,-13.46 4.81,-19.29 3.24,-5.83 7.45,-10.46 12.63,-13.97 5.23,-3.52 11.06,-6.2 17.58,-8.01 4.81,-1.25 12.08,-2.45 21.74,-3.65 19.71,-2.31 34.28,-5.14 43.58,-8.37 0.09,-3.33 0.14,-5.46 0.14,-6.34 0,-9.9 -2.31,-16.89 -6.94,-20.96 -6.24,-5.5 -15.54,-8.23 -27.85,-8.23 -11.52,0 -20.04,2.03 -25.49,6.06 -5.51,4.02 -9.53,11.15 -12.17,21.42l-23.87 -3.33c2.17,-10.22 5.73,-18.5 10.73,-24.8 5,-6.29 12.21,-11.1 21.65,-14.53 9.4,-3.37 20.36,-5.09 32.76,-5.09 12.3,0 22.35,1.43 30.07,4.35 7.68,2.91 13.37,6.53 16.98,10.92 3.61,4.39 6.15,9.95 7.63,16.66 0.79,4.16 1.21,11.66 1.21,22.43l0 32.38c0,22.62 0.51,36.92 1.52,42.98 0.97,6.06 3.01,11.84 5.97,17.4l-25.54 0c-2.45,-5.14 -4.02,-11.15 -4.71,-18.04zm-1.95 -54.13c-8.88,3.61 -22.2,6.66 -39.97,9.16 -10.09,1.44 -17.21,3.05 -21.38,4.86 -4.16,1.81 -7.35,4.44 -9.62,7.87 -2.26,3.46 -3.42,7.31 -3.42,11.56 0,6.43 2.45,11.84 7.4,16.15 4.95,4.3 12.16,6.48 21.65,6.48 9.39,0 17.76,-2.04 25.12,-6.16 7.31,-4.07 12.73,-9.67 16.15,-16.74 2.64,-5.51 3.93,-13.6 3.93,-24.29l0.14 -8.88zm62.22 72.17l0 -144.07 21.93 0 0 20.45c10.55,-15.68 25.81,-23.5 45.75,-23.5 8.7,0 16.66,1.57 23.92,4.67 7.27,3.1 12.73,7.22 16.33,12.26 3.61,5.05 6.15,11.06 7.59,18 0.88,4.54 1.34,12.44 1.34,23.73l0 88.45 -24.42 0 0 -87.53c0,-9.95 -0.93,-17.4 -2.83,-22.3 -1.89,-4.9 -5.27,-8.83 -10.08,-11.8 -4.81,-2.91 -10.5,-4.4 -16.98,-4.4 -10.36,0 -19.29,3.29 -26.83,9.9 -7.54,6.57 -11.29,19.11 -11.29,37.52l0 78.6 -24.42 0z"/>
  <path class="fil6" d="M2576.78 2155.14l80.97 -8.04c4.88,27.09 14.64,46.9 29.48,59.63 14.83,12.73 34.84,19.05 60.01,19.05 26.61,0 46.71,-5.65 60.2,-16.94 13.49,-11.29 20.29,-24.5 20.29,-39.62 0,-9.76 -2.87,-17.99 -8.52,-24.88 -5.64,-6.79 -15.6,-12.73 -29.76,-17.71 -9.67,-3.44 -31.68,-9.38 -66.13,-17.98 -44.31,-11.11 -75.42,-24.69 -93.31,-40.87 -25.18,-22.68 -37.71,-50.34 -37.71,-82.98 0,-20.97 5.93,-40.68 17.71,-58.96 11.86,-18.28 28.9,-32.16 51.2,-41.74 22.31,-9.57 49.1,-14.35 80.69,-14.35 51.39,0 90.16,11.39 116.09,34.27 26.03,22.87 39.62,53.31 40.96,91.5l-83.26 2.87c-3.54,-21.25 -11.1,-36.47 -22.68,-45.75 -11.58,-9.29 -29,-13.98 -52.16,-13.98 -23.93,0 -42.68,4.98 -56.18,14.93 -8.71,6.41 -13.11,14.93 -13.11,25.65 0,9.76 4.11,18.09 12.35,24.98 10.43,8.91 35.79,18.09 76.09,27.66 40.29,9.48 70.05,19.43 89.29,29.57 19.34,10.24 34.46,24.12 45.37,41.83 10.91,17.7 16.36,39.53 16.36,65.46 0,23.54 -6.5,45.65 -19.62,66.23 -13.11,20.57 -31.58,35.89 -55.51,45.84 -23.92,10.05 -53.79,15.03 -89.49,15.03 -51.96,0 -91.88,-11.97 -119.73,-35.99 -27.85,-23.93 -44.41,-58.86 -49.86,-104.71zm401.97 133.23l0 -411.16 83.27 0 0 411.16 -83.27 0zm254.87 0l0 -341.68 -121.74 0 0 -69.48 326.17 0 0 69.48 -121.17 0 0 341.68 -83.26 0zm258.32 0l0 -411.16 304.36 0 0 69.48 -221.09 0 0 91.31 205.58 0 0 69.48 -205.58 0 0 111.41 229.12 0 0 69.48 -312.39 0zm381.87 0l0 -411.16 124.71 0 73.7 280.43 72.83 -280.43 125 0 0 411.16 -76.95 0 -0.29 -323.68 -81.07 323.68 -80.01 0 -80.68 -323.68 -0.29 323.68 -76.95 0zm849.89 0l-89.67 0 -35.51 -93.6 -164.9 0 -34.17 93.6 -88.05 0 159.64 -411.16 87.95 0 164.71 411.16zm-152.17 -163.09l-57.14 -152.17 -55.51 152.17 112.65 0zm196.48 163.09l0 -411.16 133.13 0c50.44,0 83.27,2.01 98.58,6.12 23.54,6.23 43.25,19.63 59.14,40.3 15.89,20.67 23.83,47.37 23.83,80.11 0,25.26 -4.6,46.41 -13.69,63.64 -9.19,17.23 -20.77,30.72 -34.84,40.58 -14.07,9.76 -28.42,16.27 -42.97,19.43 -19.81,3.92 -48.43,5.93 -85.95,5.93l-53.97 0 0 155.05 -83.27 0zm83.27 -341.68l0 117.15 45.27 0c32.64,0 54.36,-2.2 65.37,-6.51 11.01,-4.31 19.62,-11.01 25.84,-20.29 6.22,-9.19 9.38,-19.81 9.38,-32.06 0,-15.02 -4.4,-27.37 -13.11,-37.13 -8.8,-9.76 -19.81,-15.89 -33.3,-18.38 -9.86,-1.82 -29.67,-2.78 -59.54,-2.78l-39.91 0zm448.96 -69.48l164.43 0c32.64,0 56.85,1.34 72.83,4.02 16.08,2.78 30.34,8.42 42.97,16.94 12.63,8.61 23.16,20 31.59,34.26 8.42,14.26 12.63,30.34 12.63,48.05 0,19.14 -5.17,36.84 -15.51,52.83 -10.34,16.08 -24.41,28.05 -42.11,36.09 24.98,7.37 44.12,19.81 57.61,37.42 13.4,17.61 20.1,38.29 20.1,62.12 0,18.76 -4.31,36.94 -13.02,54.65 -8.71,17.7 -20.57,31.87 -35.7,42.49 -15.03,10.53 -33.59,17.04 -55.7,19.52 -13.78,1.44 -47.18,2.39 -100.11,2.78l-140.02 0 0 -411.16zm83.27 68.33l0 94.75 54.36 0c32.25,0 52.36,-0.48 60.2,-1.43 14.16,-1.63 25.36,-6.51 33.5,-14.65 8.14,-8.13 12.15,-18.76 12.15,-31.96 0,-12.73 -3.54,-22.97 -10.52,-30.92 -6.98,-7.94 -17.42,-12.73 -31.2,-14.35 -8.23,-0.96 -31.87,-1.44 -70.82,-1.44l-47.66 0zm0 163.09l0 110.25 76.95 0c29.87,0 48.91,-0.86 56.95,-2.49 12.35,-2.3 22.39,-7.76 30.15,-16.47 7.76,-8.8 11.68,-20.38 11.68,-35.03 0,-12.44 -2.97,-22.88 -9,-31.49 -5.94,-8.61 -14.64,-14.93 -25.94,-18.85 -11.29,-3.92 -35.89,-5.93 -73.7,-5.93l-67.09 0zm333.73 179.74l0 -407.72 83.26 0 0 338.23 206.16 0 0 69.48 -289.42 0zm331.25 -203.1c0,-41.92 6.32,-77.14 18.85,-105.66 9.28,-20.95 22.11,-39.81 38.28,-56.47 16.17,-16.65 33.88,-29 53.12,-37.13 25.65,-10.82 55.22,-16.28 88.72,-16.28 60.68,0 109.11,18.85 145.57,56.47 36.37,37.71 54.55,90.06 54.55,157.15 0,66.52 -18.09,118.58 -54.17,156.1 -36.09,37.62 -84.42,56.38 -144.81,56.38 -61.16,0 -109.87,-18.67 -145.96,-56.09 -36.08,-37.32 -54.17,-88.82 -54.17,-154.47zm85.56 -2.77c0,46.61 10.82,81.93 32.36,106.04 21.53,24.03 48.9,36.09 82.02,36.09 33.2,0 60.39,-11.96 81.73,-35.79 21.25,-23.93 31.87,-59.72 31.87,-107.49 0,-47.18 -10.33,-82.41 -31.1,-105.56 -20.67,-23.26 -48.14,-34.84 -82.5,-34.84 -34.27,0 -61.92,11.77 -82.88,35.22 -20.97,23.54 -31.49,58.96 -31.49,106.33zm378.33 205.87l0 -411.16 80.59 0 169.21 275.54 0 -275.54 76.95 0 0 411.16 -83.17 0 -166.63 -270.28 0 270.28 -76.95 0zm414.71 -411.16l151.41 0c34.16,0 60.2,2.58 78.1,7.85 24.02,7.08 44.69,19.72 61.83,37.9 17.23,18.09 30.24,40.3 39.24,66.61 8.9,26.22 13.4,58.67 13.4,97.15 0,33.88 -4.21,62.98 -12.63,87.48 -10.24,29.95 -24.88,54.17 -43.93,72.64 -14.35,14.07 -33.79,24.98 -58.2,32.82 -18.28,5.84 -42.68,8.71 -73.31,8.71l-155.91 0 0 -411.16zm83.26 69.48l0 272.19 61.73 0c23.07,0 39.72,-1.34 49.96,-3.92 13.49,-3.35 24.6,-9.09 33.4,-17.13 8.9,-8.04 16.07,-21.24 21.63,-39.62 5.64,-18.38 8.42,-43.55 8.42,-75.33 0,-31.77 -2.78,-56.08 -8.42,-73.11 -5.56,-17.04 -13.4,-30.25 -23.45,-39.82 -10.05,-9.48 -22.78,-15.98 -38.28,-19.33 -11.48,-2.58 -34.17,-3.92 -67.86,-3.92l-37.14 0zm314.21 138.58c0,-41.92 6.32,-77.14 18.85,-105.66 9.28,-20.95 22.11,-39.81 38.28,-56.47 16.17,-16.65 33.88,-29 53.12,-37.13 25.65,-10.82 55.22,-16.28 88.72,-16.28 60.68,0 109.11,18.85 145.57,56.47 36.37,37.71 54.55,90.06 54.55,157.15 0,66.52 -18.09,118.58 -54.17,156.1 -36.09,37.62 -84.42,56.38 -144.81,56.38 -61.16,0 -109.87,-18.67 -145.96,-56.09 -36.08,-37.32 -54.17,-88.82 -54.17,-154.47zm85.56 -2.77c0,46.61 10.82,81.93 32.36,106.04 21.53,24.03 48.9,36.09 82.02,36.09 33.2,0 60.39,-11.96 81.73,-35.79 21.25,-23.93 31.87,-59.72 31.87,-107.49 0,-47.18 -10.33,-82.41 -31.1,-105.56 -20.67,-23.26 -48.14,-34.84 -82.5,-34.84 -34.27,0 -61.92,11.77 -82.88,35.22 -20.97,23.54 -31.49,58.96 -31.49,106.33z"/>
  <path class="fil4" d="M3779.77 2528.62l19.66 -2.78c0.54,13.06 2.9,22 7.1,26.84 4.2,4.8 10.06,7.22 17.5,7.22 5.48,0 10.22,-1.31 14.19,-3.89 3.97,-2.61 6.75,-6.15 8.26,-10.6 1.49,-4.44 2.23,-11.59 2.23,-21.36l0 -117.57 21.98 0 0 116.22c0,14.25 -1.66,25.29 -5.01,33.15 -3.35,7.83 -8.64,13.78 -15.93,17.91 -7.25,4.09 -15.77,6.16 -25.53,6.16 -14.53,0 -25.64,-4.29 -33.35,-12.91 -7.71,-8.61 -11.42,-21.4 -11.1,-38.39zm123.77 48.44l0 -170.57 20.36 0 0 170.57 -20.36 0zm57.65 0l0 -23.82 23.13 0 0 23.82 -23.13 0zm125.78 0l0 -170.57 73.42 0c14.76,0 25.99,1.55 33.66,4.61 7.67,3.05 13.8,8.45 18.39,16.2 4.59,7.74 6.87,16.32 6.87,25.69 0,12.11 -3.82,22.32 -11.42,30.62 -7.59,8.29 -19.32,13.53 -35.2,15.8 5.82,2.86 10.22,5.72 13.22,8.5 6.4,6.04 12.46,13.62 18.13,22.71l28.65 46.46 -27.37 0 -21.9 -35.5c-6.37,-10.28 -11.64,-18.1 -15.77,-23.54 -4.16,-5.44 -7.87,-9.21 -11.15,-11.39 -3.23,-2.15 -6.59,-3.65 -9.98,-4.53 -2.47,-0.51 -6.51,-0.8 -12.19,-0.8l-25.37 0 0 75.76 -21.98 0zm21.98 -95.29l47.04 0c10.03,0 17.81,-1.07 23.44,-3.21 5.63,-2.11 9.92,-5.52 12.81,-10.25 2.93,-4.68 4.4,-9.76 4.4,-15.29 0,-8.06 -2.81,-14.73 -8.48,-19.93 -5.67,-5.2 -14.61,-7.78 -26.84,-7.78l-52.36 0 0 56.46zm220.52 79.81c-7.56,6.63 -14.85,11.28 -21.83,14.01 -6.98,2.74 -14.46,4.1 -22.48,4.1 -13.19,0 -23.33,-3.3 -30.42,-9.93 -7.09,-6.59 -10.64,-15.05 -10.64,-25.33 0,-6.04 1.35,-11.56 4,-16.56 2.7,-5 6.21,-8.97 10.53,-11.99 4.36,-3.02 9.22,-5.32 14.65,-6.87 4.01,-1.08 10.06,-2.11 18.13,-3.14 16.42,-1.98 28.57,-4.41 36.32,-7.19 0.07,-2.86 0.12,-4.68 0.12,-5.44 0,-8.5 -1.93,-14.49 -5.79,-17.98 -5.2,-4.73 -12.96,-7.07 -23.21,-7.07 -9.6,0 -16.69,1.75 -21.24,5.2 -4.59,3.45 -7.95,9.56 -10.14,18.38l-19.89 -2.85c1.81,-8.78 4.77,-15.89 8.94,-21.28 4.16,-5.4 10.18,-9.53 18.05,-12.47 7.82,-2.9 16.97,-4.36 27.3,-4.36 10.25,0 18.63,1.23 25.06,3.73 6.4,2.5 11.14,5.6 14.15,9.37 3.01,3.78 5.13,8.54 6.36,14.29 0.66,3.57 1,10.01 1,19.26l0 27.8c0,19.42 0.42,31.68 1.27,36.89 0.81,5.2 2.5,10.16 4.98,14.92l-21.28 0c-2.04,-4.4 -3.35,-9.57 -3.94,-15.48zm-1.62 -46.46c-7.41,3.1 -18.51,5.72 -33.32,7.87 -8.41,1.23 -14.35,2.62 -17.82,4.17 -3.47,1.55 -6.13,3.81 -8.02,6.75 -1.89,2.97 -2.85,6.27 -2.85,9.92 0,5.52 2.04,10.16 6.17,13.86 4.13,3.69 10.14,5.56 18.05,5.56 7.83,0 14.81,-1.74 20.94,-5.28 6.1,-3.49 10.61,-8.29 13.46,-14.37 2.2,-4.72 3.28,-11.67 3.28,-20.84l0.12 -7.63zm50.93 109.47l-2.31 -19.38c4.47,1.23 8.33,1.87 11.64,1.87 4.55,0 8.18,-0.8 10.88,-2.34 2.74,-1.55 4.98,-3.73 6.71,-6.52 1.27,-2.1 3.36,-7.3 6.21,-15.64 0.39,-1.15 0.97,-2.86 1.81,-5.12l-45.57 -124.04 21.75 0 25.06 71.39c3.28,9.01 6.17,18.54 8.75,28.54 2.35,-9.41 5.12,-18.7 8.37,-27.83l25.61 -72.1 20.32 0 -45.38 125.78c-4.9,13.54 -8.72,22.83 -11.45,27.96 -3.62,6.87 -7.79,11.91 -12.46,15.13 -4.7,3.22 -10.29,4.81 -16.77,4.81 -3.94,0 -8.33,-0.83 -13.15,-2.5zm195.04 -63.01c-7.56,6.63 -14.85,11.28 -21.82,14.01 -6.98,2.74 -14.46,4.1 -22.48,4.1 -13.19,0 -23.33,-3.3 -30.43,-9.93 -7.09,-6.59 -10.64,-15.05 -10.64,-25.33 0,-6.04 1.35,-11.56 4,-16.56 2.7,-5 6.21,-8.97 10.53,-11.99 4.36,-3.02 9.22,-5.32 14.65,-6.87 4.01,-1.08 10.06,-2.11 18.13,-3.14 16.42,-1.98 28.57,-4.41 36.32,-7.19 0.07,-2.86 0.12,-4.68 0.12,-5.44 0,-8.5 -1.93,-14.49 -5.79,-17.98 -5.2,-4.73 -12.96,-7.07 -23.21,-7.07 -9.6,0 -16.7,1.75 -21.25,5.2 -4.59,3.45 -7.95,9.56 -10.15,18.38l-19.89 -2.85c1.81,-8.78 4.77,-15.89 8.94,-21.28 4.16,-5.4 10.18,-9.53 18.05,-12.47 7.82,-2.9 16.97,-4.36 27.3,-4.36 10.25,0 18.63,1.23 25.06,3.73 6.4,2.5 11.14,5.6 14.15,9.37 3.01,3.78 5.13,8.54 6.36,14.29 0.66,3.57 1,10.01 1,19.26l0 27.8c0,19.42 0.42,31.68 1.27,36.89 0.81,5.2 2.5,10.16 4.98,14.92l-21.28 0c-2.04,-4.4 -3.35,-9.57 -3.94,-15.48zm-1.62 -46.46c-7.41,3.1 -18.51,5.72 -33.32,7.87 -8.4,1.23 -14.35,2.62 -17.82,4.17 -3.46,1.55 -6.13,3.81 -8.02,6.75 -1.89,2.97 -2.85,6.27 -2.85,9.92 0,5.52 2.04,10.16 6.16,13.86 4.13,3.69 10.14,5.56 18.05,5.56 7.83,0 14.81,-1.74 20.94,-5.28 6.1,-3.49 10.61,-8.29 13.46,-14.37 2.2,-4.72 3.28,-11.67 3.28,-20.84l0.12 -7.63zm111.51 7.15l20.59 -1.9c0.97,8.58 3.24,15.6 6.83,21.12 3.59,5.48 9.15,9.93 16.66,13.34 7.52,3.37 16,5.08 25.41,5.08 8.36,0 15.73,-1.27 22.13,-3.85 6.4,-2.58 11.14,-6.12 14.26,-10.6 3.12,-4.48 4.71,-9.37 4.71,-14.61 0,-5.32 -1.51,-9.97 -4.51,-13.98 -3.01,-3.97 -7.99,-7.31 -14.93,-10.05 -4.43,-1.74 -14.27,-4.53 -29.5,-8.29 -15.23,-3.77 -25.88,-7.31 -31.97,-10.65 -7.9,-4.28 -13.77,-9.61 -17.62,-15.92 -3.9,-6.31 -5.83,-13.42 -5.83,-21.24 0,-8.66 2.39,-16.72 7.13,-24.18 4.74,-7.5 11.65,-13.19 20.79,-17.07 9.1,-3.89 19.24,-5.84 30.39,-5.84 12.26,0 23.1,2.03 32.46,6.12 9.38,4.05 16.59,10.05 21.64,17.98 5.04,7.9 7.75,16.88 8.14,26.88l-21.06 1.67c-1.12,-10.76 -4.93,-18.9 -11.45,-24.38 -6.52,-5.52 -16.16,-8.25 -28.89,-8.25 -13.27,0 -22.94,2.5 -28.99,7.5 -6.06,5.01 -9.1,11.04 -9.1,18.11 0,6.12 2.15,11.16 6.43,15.13 4.24,3.93 15.23,8.02 33.05,12.15 17.81,4.17 30.04,7.78 36.67,10.88 9.6,4.57 16.74,10.33 21.33,17.35 4.58,6.98 6.86,15.05 6.86,24.18 0,9.09 -2.5,17.59 -7.55,25.61 -5.05,8.02 -12.26,14.25 -21.71,18.7 -9.45,4.44 -20.05,6.67 -31.89,6.67 -14.96,0 -27.49,-2.26 -37.6,-6.75 -10.14,-4.49 -18.05,-11.24 -23.79,-20.29 -5.78,-9.01 -8.79,-19.22 -9.1,-30.61zm240.85 14.77l21.06 2.86c-3.28,12.59 -9.41,22.4 -18.36,29.35 -8.95,6.95 -20.36,10.44 -34.28,10.44 -17.51,0 -31.38,-5.56 -41.64,-16.68 -10.26,-11.08 -15.38,-26.68 -15.38,-46.73 0,-20.73 5.16,-36.85 15.54,-48.28 10.38,-11.48 23.82,-17.19 40.37,-17.19 16.01,0 29.08,5.59 39.22,16.83 10.14,11.24 15.23,27.04 15.23,47.4 0,1.24 -0.04,3.1 -0.12,5.56l-89.42 0c0.77,13.54 4.47,23.94 11.18,31.13 6.67,7.19 15.04,10.8 25.02,10.8 7.44,0 13.8,-2.02 19.05,-6.07 5.28,-4.05 9.45,-10.52 12.53,-19.42zm-66.63 -33.59l66.86 0c-0.89,-10.4 -3.47,-18.19 -7.68,-23.39 -6.44,-8.06 -14.84,-12.11 -25.14,-12.11 -9.33,0 -17.15,3.21 -23.52,9.65 -6.33,6.43 -9.83,15.05 -10.53,25.85zm191.83 28.35l19.9 2.86c-2.2,14.09 -7.75,25.09 -16.74,33.07 -8.99,7.98 -20.05,11.96 -33.12,11.96 -16.39,0 -29.57,-5.52 -39.53,-16.56 -9.98,-11.04 -14.96,-26.84 -14.96,-47.4 0,-13.34 2.16,-24.98 6.44,-34.98 4.28,-9.97 10.8,-17.48 19.59,-22.43 8.75,-5.01 18.28,-7.5 28.61,-7.5 13,0 23.68,3.37 31.93,10.17 8.29,6.79 13.61,16.43 15.93,28.9l-19.67 3.1c-1.89,-8.31 -5.2,-14.54 -10.03,-18.74 -4.77,-4.17 -10.56,-6.27 -17.34,-6.27 -10.26,0 -18.59,3.78 -25.03,11.31 -6.4,7.58 -9.6,19.5 -9.6,35.85 0,16.6 3.09,28.63 9.25,36.13 6.21,7.51 14.28,11.28 24.18,11.28 8.02,0 14.7,-2.5 20.02,-7.54 5.36,-5 8.75,-12.74 10.17,-23.19zm115.68 29.78c-7.56,6.63 -14.84,11.28 -21.82,14.01 -6.98,2.74 -14.46,4.1 -22.48,4.1 -13.19,0 -23.33,-3.3 -30.43,-9.93 -7.09,-6.59 -10.64,-15.05 -10.64,-25.33 0,-6.04 1.35,-11.56 4.01,-16.56 2.7,-5 6.21,-8.97 10.53,-11.99 4.35,-3.02 9.21,-5.32 14.65,-6.87 4,-1.08 10.06,-2.11 18.12,-3.14 16.43,-1.98 28.57,-4.41 36.32,-7.19 0.08,-2.86 0.12,-4.68 0.12,-5.44 0,-8.5 -1.93,-14.49 -5.79,-17.98 -5.2,-4.73 -12.95,-7.07 -23.21,-7.07 -9.6,0 -16.69,1.75 -21.24,5.2 -4.59,3.45 -7.95,9.56 -10.14,18.38l-19.89 -2.85c1.81,-8.78 4.78,-15.89 8.94,-21.28 4.17,-5.4 10.18,-9.53 18.05,-12.47 7.82,-2.9 16.96,-4.36 27.3,-4.36 10.26,0 18.63,1.23 25.06,3.73 6.4,2.5 11.15,5.6 14.15,9.37 3.01,3.78 5.13,8.54 6.37,14.29 0.65,3.57 1,10.01 1,19.26l0 27.8c0,19.42 0.42,31.68 1.27,36.89 0.81,5.2 2.51,10.16 4.98,14.92l-21.28 0c-2.04,-4.4 -3.35,-9.57 -3.94,-15.48zm-1.62 -46.46c-7.41,3.1 -18.51,5.72 -33.32,7.87 -8.4,1.23 -14.34,2.62 -17.81,4.17 -3.47,1.55 -6.13,3.81 -8.03,6.75 -1.89,2.97 -2.85,6.27 -2.85,9.92 0,5.52 2.04,10.16 6.16,13.86 4.13,3.69 10.14,5.56 18.05,5.56 7.83,0 14.81,-1.74 20.94,-5.28 6.09,-3.49 10.6,-8.29 13.45,-14.37 2.2,-4.72 3.27,-11.67 3.27,-20.84l0.12 -7.63zm51.86 61.94l0 -123.64 18.28 0 0 17.55c8.79,-13.46 21.51,-20.17 38.14,-20.17 7.25,0 13.88,1.35 19.94,4.01 6.05,2.66 10.6,6.19 13.61,10.52 3.01,4.33 5.13,9.49 6.33,15.44 0.72,3.89 1.11,10.68 1.11,20.37l0 75.92 -20.36 0 0 -75.12c0,-8.55 -0.77,-14.94 -2.35,-19.15 -1.59,-4.2 -4.4,-7.58 -8.4,-10.12 -4.02,-2.5 -8.75,-3.78 -14.15,-3.78 -8.64,0 -16.08,2.83 -22.37,8.5 -6.29,5.64 -9.41,16.4 -9.41,32.2l0 67.46 -20.36 0zm124.93 10.25l19.67 2.86c0.8,6.27 3.12,10.84 6.9,13.74 5.04,3.85 11.95,5.8 20.7,5.8 9.41,0 16.7,-1.95 21.83,-5.8 5.12,-3.85 8.59,-9.29 10.41,-16.24 1.04,-4.25 1.54,-13.18 1.46,-26.8 -8.9,10.8 -19.97,16.2 -33.23,16.2 -16.5,0 -29.31,-6.11 -38.33,-18.38 -9.06,-12.22 -13.57,-26.92 -13.57,-44.03 0,-11.8 2.08,-22.67 6.21,-32.64 4.12,-9.97 10.14,-17.63 18.01,-23.07 7.87,-5.44 17.12,-8.14 27.76,-8.14 14.15,0 25.84,5.96 35.02,17.86l0 -15.24 18.73 0 0 106.77c0,19.26 -1.89,32.87 -5.7,40.9 -3.78,8.01 -9.84,14.37 -18.05,19.01 -8.26,4.65 -18.39,6.99 -30.43,6.99 -14.31,0 -25.83,-3.29 -34.63,-9.92 -8.83,-6.59 -13.07,-16.56 -12.76,-29.86zm16.66 -74.17c0,16.16 3.12,27.96 9.37,35.38 6.29,7.43 14.12,11.16 23.52,11.16 9.37,0 17.2,-3.69 23.56,-11.08 6.32,-7.38 9.48,-18.98 9.48,-34.78 0,-15.09 -3.27,-26.49 -9.79,-34.15 -6.52,-7.66 -14.38,-11.47 -23.56,-11.47 -9.06,0 -16.73,3.77 -23.1,11.31 -6.32,7.55 -9.48,18.74 -9.48,33.63zm182.12 63.93l0 -170.57 32.85 0 39.18 120.74c3.62,11.24 6.24,19.65 7.9,25.25 1.89,-6.19 4.85,-15.32 8.87,-27.36l39.87 -118.64 29.34 0 0 170.57 -21.05 0 0 -142.7 -48.35 142.7 -19.75 0 -47.81 -145.32 0 145.32 -21.05 0zm269.07 -15.48c-7.56,6.63 -14.85,11.28 -21.83,14.01 -6.98,2.74 -14.46,4.1 -22.48,4.1 -13.19,0 -23.33,-3.3 -30.43,-9.93 -7.09,-6.59 -10.64,-15.05 -10.64,-25.33 0,-6.04 1.35,-11.56 4.01,-16.56 2.7,-5 6.21,-8.97 10.53,-11.99 4.36,-3.02 9.21,-5.32 14.65,-6.87 4.01,-1.08 10.06,-2.11 18.12,-3.14 16.43,-1.98 28.57,-4.41 36.32,-7.19 0.07,-2.86 0.12,-4.68 0.12,-5.44 0,-8.5 -1.93,-14.49 -5.78,-17.98 -5.2,-4.73 -12.96,-7.07 -23.21,-7.07 -9.6,0 -16.69,1.75 -21.25,5.2 -4.59,3.45 -7.95,9.56 -10.14,18.38l-19.89 -2.85c1.81,-8.78 4.78,-15.89 8.95,-21.28 4.16,-5.4 10.17,-9.53 18.05,-12.47 7.82,-2.9 16.96,-4.36 27.3,-4.36 10.26,0 18.63,1.23 25.07,3.73 6.4,2.5 11.14,5.6 14.15,9.37 3.01,3.78 5.13,8.54 6.36,14.29 0.65,3.57 1,10.01 1,19.26l0 27.8c0,19.42 0.42,31.68 1.27,36.89 0.81,5.2 2.5,10.16 4.97,14.92l-21.28 0c-2.04,-4.4 -3.35,-9.57 -3.93,-15.48zm-1.62 -46.46c-7.4,3.1 -18.5,5.72 -33.32,7.87 -8.4,1.23 -14.34,2.62 -17.81,4.17 -3.47,1.55 -6.13,3.81 -8.03,6.75 -1.89,2.97 -2.85,6.27 -2.85,9.92 0,5.52 2.04,10.16 6.16,13.86 4.13,3.69 10.15,5.56 18.05,5.56 7.82,0 14.81,-1.74 20.94,-5.28 6.1,-3.49 10.61,-8.29 13.46,-14.37 2.2,-4.72 3.27,-11.67 3.27,-20.84l0.12 -7.63zm48.12 72.19l19.67 2.86c0.81,6.27 3.12,10.84 6.9,13.74 5.05,3.85 11.95,5.8 20.7,5.8 9.41,0 16.7,-1.95 21.83,-5.8 5.13,-3.85 8.6,-9.29 10.41,-16.24 1.04,-4.25 1.54,-13.18 1.47,-26.8 -8.91,10.8 -19.97,16.2 -33.24,16.2 -16.5,0 -29.31,-6.11 -38.33,-18.38 -9.05,-12.22 -13.57,-26.92 -13.57,-44.03 0,-11.8 2.08,-22.67 6.21,-32.64 4.13,-9.97 10.14,-17.63 18.01,-23.07 7.87,-5.44 17.12,-8.14 27.77,-8.14 14.15,0 25.83,5.96 35.01,17.86l0 -15.24 18.74 0 0 106.77c0,19.26 -1.89,32.87 -5.71,40.9 -3.78,8.01 -9.84,14.37 -18.05,19.01 -8.26,4.65 -18.39,6.99 -30.43,6.99 -14.31,0 -25.84,-3.29 -34.63,-9.92 -8.83,-6.59 -13.07,-16.56 -12.76,-29.86zm16.66 -74.17c0,16.16 3.12,27.96 9.37,35.38 6.29,7.43 14.12,11.16 23.52,11.16 9.37,0 17.2,-3.69 23.56,-11.08 6.32,-7.38 9.48,-18.98 9.48,-34.78 0,-15.09 -3.28,-26.49 -9.79,-34.15 -6.52,-7.66 -14.38,-11.47 -23.56,-11.47 -9.07,0 -16.74,3.77 -23.1,11.31 -6.32,7.55 -9.49,18.74 -9.49,33.63zm197.65 23.9l21.06 2.86c-3.28,12.59 -9.41,22.4 -18.36,29.35 -8.94,6.95 -20.35,10.44 -34.28,10.44 -17.51,0 -31.38,-5.56 -41.64,-16.68 -10.26,-11.08 -15.38,-26.68 -15.38,-46.73 0,-20.73 5.17,-36.85 15.54,-48.28 10.38,-11.48 23.83,-17.19 40.37,-17.19 16.01,0 29.08,5.59 39.22,16.83 10.14,11.24 15.23,27.04 15.23,47.4 0,1.24 -0.04,3.1 -0.12,5.56l-89.42 0c0.77,13.54 4.47,23.94 11.18,31.13 6.67,7.19 15.04,10.8 25.02,10.8 7.44,0 13.8,-2.02 19.05,-6.07 5.28,-4.05 9.45,-10.52 12.53,-19.42zm-66.63 -33.59l66.86 0c-0.89,-10.4 -3.47,-18.19 -7.67,-23.39 -6.44,-8.06 -14.85,-12.11 -25.14,-12.11 -9.34,0 -17.16,3.21 -23.52,9.65 -6.33,6.43 -9.83,15.05 -10.53,25.85zm112.95 73.61l0 -170.57 20.35 0 0 170.57 -20.35 0zm130.29 -15.48c-7.56,6.63 -14.85,11.28 -21.83,14.01 -6.98,2.74 -14.46,4.1 -22.48,4.1 -13.19,0 -23.33,-3.3 -30.43,-9.93 -7.09,-6.59 -10.64,-15.05 -10.64,-25.33 0,-6.04 1.35,-11.56 4.01,-16.56 2.7,-5 6.21,-8.97 10.53,-11.99 4.36,-3.02 9.22,-5.32 14.65,-6.87 4,-1.08 10.06,-2.11 18.12,-3.14 16.43,-1.98 28.57,-4.41 36.32,-7.19 0.08,-2.86 0.12,-4.68 0.12,-5.44 0,-8.5 -1.93,-14.49 -5.78,-17.98 -5.2,-4.73 -12.96,-7.07 -23.21,-7.07 -9.6,0 -16.69,1.75 -21.24,5.2 -4.6,3.45 -7.95,9.56 -10.15,18.38l-19.89 -2.85c1.81,-8.78 4.77,-15.89 8.94,-21.28 4.16,-5.4 10.17,-9.53 18.05,-12.47 7.82,-2.9 16.97,-4.36 27.3,-4.36 10.26,0 18.63,1.23 25.07,3.73 6.4,2.5 11.14,5.6 14.15,9.37 3.01,3.78 5.13,8.54 6.36,14.29 0.65,3.57 1,10.01 1,19.26l0 27.8c0,19.42 0.42,31.68 1.27,36.89 0.81,5.2 2.5,10.16 4.97,14.92l-21.28 0c-2.04,-4.4 -3.35,-9.57 -3.93,-15.48zm-1.62 -46.46c-7.4,3.1 -18.5,5.72 -33.32,7.87 -8.4,1.23 -14.34,2.62 -17.81,4.17 -3.47,1.55 -6.13,3.81 -8.02,6.75 -1.89,2.97 -2.85,6.27 -2.85,9.92 0,5.52 2.04,10.16 6.17,13.86 4.13,3.69 10.14,5.56 18.04,5.56 7.83,0 14.81,-1.74 20.94,-5.28 6.1,-3.49 10.61,-8.29 13.45,-14.37 2.2,-4.72 3.28,-11.67 3.28,-20.84l0.12 -7.63zm51.86 61.94l0 -123.64 18.28 0 0 17.55c8.79,-13.46 21.51,-20.17 38.13,-20.17 7.25,0 13.88,1.35 19.94,4.01 6.05,2.66 10.6,6.19 13.61,10.52 3.01,4.33 5.14,9.49 6.33,15.44 0.73,3.89 1.11,10.68 1.11,20.37l0 75.92 -20.35 0 0 -75.12c0,-8.55 -0.77,-14.94 -2.36,-19.15 -1.58,-4.2 -4.4,-7.58 -8.4,-10.12 -4.01,-2.5 -8.75,-3.78 -14.15,-3.78 -8.64,0 -16.08,2.83 -22.37,8.5 -6.29,5.64 -9.41,16.4 -9.41,32.2l0 67.46 -20.36 0zm124.94 10.25l19.67 2.86c0.81,6.27 3.12,10.84 6.9,13.74 5.05,3.85 11.95,5.8 20.71,5.8 9.4,0 16.69,-1.95 21.82,-5.8 5.13,-3.85 8.59,-9.29 10.41,-16.24 1.04,-4.25 1.54,-13.18 1.46,-26.8 -8.91,10.8 -19.97,16.2 -33.24,16.2 -16.5,0 -29.3,-6.11 -38.33,-18.38 -9.05,-12.22 -13.57,-26.92 -13.57,-44.03 0,-11.8 2.09,-22.67 6.21,-32.64 4.13,-9.97 10.14,-17.63 18.01,-23.07 7.87,-5.44 17.12,-8.14 27.77,-8.14 14.15,0 25.83,5.96 35.01,17.86l0 -15.24 18.74 0 0 106.77c0,19.26 -1.89,32.87 -5.71,40.9 -3.78,8.01 -9.84,14.37 -18.05,19.01 -8.26,4.65 -18.39,6.99 -30.43,6.99 -14.31,0 -25.83,-3.29 -34.63,-9.92 -8.83,-6.59 -13.07,-16.56 -12.76,-29.86zm16.66 -74.17c0,16.16 3.12,27.96 9.37,35.38 6.29,7.43 14.12,11.16 23.53,11.16 9.37,0 17.19,-3.69 23.56,-11.08 6.32,-7.38 9.48,-18.98 9.48,-34.78 0,-15.09 -3.28,-26.49 -9.8,-34.15 -6.51,-7.66 -14.38,-11.47 -23.56,-11.47 -9.07,0 -16.74,3.77 -23.1,11.31 -6.32,7.55 -9.49,18.74 -9.49,33.63z"/>
  <path class="fil3" d="M6505.6 8625.01l-17.7 0 0 -112.72c-4.26,4.09 -9.86,8.15 -16.76,12.2 -6.91,4.06 -13.15,7.11 -18.65,9.12l0 -17.1c9.89,-4.63 18.54,-10.26 25.95,-16.9 7.41,-6.6 12.67,-13.01 15.76,-19.24l11.4 0 0 144.64z"/>
  <path class="fil3" d="M6531.95 9330.2l0 16.9 -95.35 0c-0.13,-4.26 0.57,-8.35 2.08,-12.3 2.44,-6.47 6.37,-12.87 11.77,-19.15 5.4,-6.27 13.11,-13.51 23.13,-21.72 15.59,-12.84 26.19,-23 31.72,-30.51 5.56,-7.51 8.35,-14.62 8.35,-21.32 0,-7.01 -2.52,-12.91 -7.55,-17.74 -5.03,-4.79 -11.6,-7.2 -19.68,-7.2 -8.55,0 -15.39,2.55 -20.52,7.64 -5.13,5.06 -7.71,12.11 -7.78,21.12l-18.1 -1.81c1.24,-13.55 5.93,-23.87 14.05,-30.98 8.15,-7.11 19.04,-10.66 32.76,-10.66 13.81,0 24.77,3.82 32.82,11.5 8.08,7.68 12.1,17.2 12.1,28.53 0,5.77 -1.17,11.43 -3.55,17 -2.35,5.6 -6.27,11.47 -11.73,17.64 -5.5,6.13 -14.59,14.62 -27.26,25.35 -10.63,8.92 -17.47,14.95 -20.49,18.14 -3.02,3.18 -5.5,6.37 -7.47,9.59l70.71 0z"/>
  <path class="fil3" d="M6439.21 10016.74l17.7 -2.41c2.04,10.06 5.47,17.3 10.33,21.72 4.86,4.43 10.83,6.64 17.91,6.64 8.38,0 15.46,-2.88 21.16,-8.65 5.7,-5.77 8.55,-12.9 8.55,-21.42 0,-8.11 -2.65,-14.82 -7.98,-20.11 -5.3,-5.26 -12.03,-7.91 -20.25,-7.91 -3.35,0 -7.51,0.67 -12.51,1.98l1.98 -15.49c1.18,0.13 2.15,0.2 2.85,0.2 7.58,0 14.35,-1.98 20.41,-5.9 6.04,-3.92 9.05,-9.96 9.05,-18.11 0,-6.47 -2.21,-11.83 -6.6,-16.09 -4.39,-4.25 -10.06,-6.37 -17,-6.37 -6.9,0 -12.64,2.18 -17.23,6.54 -4.59,4.36 -7.54,10.9 -8.85,19.61l-17.7 -3.22c2.18,-11.87 7.08,-21.09 14.75,-27.63 7.65,-6.54 17.2,-9.79 28.6,-9.79 7.85,0 15.09,1.67 21.69,5.06 6.64,3.35 11.7,7.95 15.19,13.74 3.52,5.83 5.26,12 5.26,18.54 0,6.2 -1.68,11.84 -5,16.93 -3.35,5.1 -8.32,9.15 -14.86,12.17 8.52,1.95 15.13,6.04 19.85,12.24 4.7,6.17 7.04,13.95 7.04,23.24 0,12.57 -4.59,23.27 -13.75,32.02 -9.18,8.75 -20.78,13.11 -34.8,13.11 -12.64,0 -23.13,-3.79 -31.48,-11.33 -8.38,-7.54 -13.14,-17.3 -14.32,-29.3z"/>
  <path class="fil3" d="M6495.74 10754.64l0 -34.4 -62.57 0 0 -16.29 65.79 -93.35 14.48 0 0 93.35 19.51 0 0 16.29 -19.51 0 0 34.4 -17.7 0zm0 -50.69l0 -64.81 -45.16 64.81 45.16 0z"/>
  <path class="fil3" d="M6439.21 11400.93l18.51 -1.41c1.37,9.02 4.56,15.79 9.52,20.35 4.96,4.53 11.03,6.81 18.17,6.81 8.61,0 15.82,-3.22 21.69,-9.62 5.83,-6.43 8.75,-14.95 8.75,-25.54 0,-10.09 -2.79,-18.04 -8.38,-23.87 -5.6,-5.83 -13.01,-8.75 -22.23,-8.75 -5.73,0 -10.86,1.31 -15.42,3.92 -4.53,2.61 -8.08,6.01 -10.69,10.16l-16.7 -2.42 13.88 -74.03 71.41 0 0 16.9 -57.3 0 -7.68 38.86c8.62,-6.07 17.67,-9.08 27.12,-9.08 12.54,0 23.13,4.36 31.75,13.08 8.62,8.72 12.94,19.92 12.94,33.59 0,13.04 -3.79,24.31 -11.36,33.8 -9.22,11.67 -21.83,17.5 -37.79,17.5 -13.08,0 -23.74,-3.69 -32.02,-11.03 -8.28,-7.34 -13.01,-17.07 -14.18,-29.2z"/>
  <path class="fil3" d="M6531.15 12010.09l-17.5 1.41c-1.58,-6.94 -3.83,-12 -6.74,-15.16 -4.8,-5.06 -10.73,-7.57 -17.77,-7.57 -5.67,0 -10.69,1.57 -15.02,4.73 -5.56,4.06 -9.92,9.96 -13.18,17.73 -3.21,7.82 -4.89,18.91 -5.03,33.29 4.25,-6.47 9.49,-11.3 15.66,-14.42 6.17,-3.15 12.6,-4.73 19.38,-4.73 11.8,0 21.86,4.36 30.17,13.04 8.28,8.69 12.44,19.88 12.44,33.66 0,9.05 -1.95,17.44 -5.83,25.21 -3.92,7.78 -9.26,13.71 -16.09,17.84 -6.81,4.13 -14.55,6.2 -23.2,6.2 -14.72,0 -26.76,-5.43 -36.08,-16.26 -9.29,-10.83 -13.94,-28.7 -13.94,-53.58 0,-27.83 5.16,-48.08 15.46,-60.72 8.99,-10.99 21.09,-16.49 36.34,-16.49 11.33,0 20.65,3.18 27.9,9.52 7.24,6.34 11.6,15.09 13.04,26.29zm-72.42 62.16c0,6.1 1.31,11.94 3.89,17.5 2.58,5.56 6.21,9.79 10.8,12.71 4.63,2.91 9.52,4.39 14.72,4.39 7.55,0 13.98,-3.02 19.31,-9.05 5.33,-6.04 8.01,-14.21 8.01,-24.57 0,-9.96 -2.64,-17.81 -7.91,-23.54 -5.26,-5.74 -11.97,-8.62 -20.12,-8.62 -7.98,0 -14.78,2.88 -20.35,8.62 -5.56,5.73 -8.35,13.24 -8.35,22.56z"/>
  <path class="fil3" d="M6440.22 13430.84l0 -16.9 93.14 0 0 13.68c-9.15,9.75 -18.27,22.73 -27.26,38.93 -9.02,16.19 -15.96,32.85 -20.89,49.99 -3.52,12.03 -5.8,25.28 -6.77,39.63l-18.11 0c0.2,-11.33 2.41,-25.04 6.67,-41.11 4.25,-16.09 10.33,-31.58 18.27,-46.5 7.95,-14.92 16.39,-27.49 25.35,-37.72l-70.41 0z"/>
  <path class="fil3" d="M5233.52 13478.09c-7.34,-2.68 -12.78,-6.54 -16.33,-11.5 -3.52,-5 -5.3,-10.96 -5.3,-17.91 0,-10.49 3.76,-19.28 11.27,-26.42 7.54,-7.14 17.53,-10.72 30.04,-10.72 12.54,0 22.67,3.65 30.31,10.96 7.64,7.31 11.47,16.19 11.47,26.68 0,6.67 -1.74,12.51 -5.23,17.43 -3.48,4.96 -8.78,8.79 -15.92,11.47 8.81,2.88 15.49,7.51 20.08,13.94 4.59,6.4 6.9,14.05 6.9,22.97 0,12.3 -4.36,22.63 -13.04,31.01 -8.72,8.39 -20.15,12.57 -34.33,12.57 -14.18,0 -25.62,-4.19 -34.33,-12.6 -8.69,-8.42 -13.04,-18.91 -13.04,-31.48 0,-9.35 2.38,-17.2 7.14,-23.51 4.76,-6.34 11.53,-10.63 20.32,-12.9zm-3.52 -30.04c0,6.84 2.18,12.41 6.51,16.73 4.36,4.33 10.06,6.51 17.13,6.51 6.87,0 12.44,-2.15 16.77,-6.44 4.33,-4.29 6.47,-9.56 6.47,-15.79 0,-6.5 -2.21,-11.97 -6.67,-16.39 -4.43,-4.43 -10.02,-6.64 -16.76,-6.64 -6.81,0 -12.41,2.18 -16.83,6.5 -4.39,4.33 -6.6,9.49 -6.6,15.52zm-5.83 66.59c0,5.06 1.18,9.92 3.52,14.65 2.35,4.7 5.9,8.35 10.66,10.93 4.73,2.58 9.82,3.89 15.22,3.89 8.51,0 15.49,-2.71 20.95,-8.15 5.47,-5.43 8.18,-12.33 8.18,-20.72 0,-8.51 -2.82,-15.55 -8.42,-21.12 -5.63,-5.56 -12.74,-8.35 -21.29,-8.35 -8.38,0 -15.25,2.75 -20.68,8.25 -5.43,5.5 -8.15,12.37 -8.15,20.62z"/>
  <path class="fil3" d="M4061.32 13522.78l16.9 -1.41c1.44,7.98 4.19,13.74 8.25,17.33 4.06,3.59 9.26,5.4 15.63,5.4 5.43,0 10.19,-1.24 14.31,-3.75 4.13,-2.49 7.48,-5.8 10.06,-9.99 2.58,-4.16 4.76,-9.79 6.54,-16.86 1.78,-7.08 2.64,-14.29 2.64,-21.63 0,-0.77 -0.03,-1.98 -0.1,-3.56 -3.52,5.63 -8.35,10.23 -14.45,13.71 -6.1,3.52 -12.74,5.26 -19.85,5.26 -11.91,0 -21.96,-4.32 -30.21,-12.97 -8.21,-8.62 -12.34,-20.02 -12.34,-34.17 0,-14.62 4.29,-26.35 12.91,-35.27 8.58,-8.88 19.34,-13.34 32.32,-13.34 9.32,0 17.87,2.51 25.65,7.57 7.74,5.03 13.61,12.21 17.64,21.56 4.02,9.32 6.04,22.83 6.04,40.51 0,18.41 -1.98,33.06 -5.97,43.95 -3.99,10.93 -9.96,19.22 -17.84,24.91 -7.88,5.7 -17.1,8.55 -27.69,8.55 -11.26,0 -20.45,-3.12 -27.6,-9.38 -7.11,-6.27 -11.4,-15.09 -12.84,-26.42zm72.22 -63.53c0,-10.13 -2.68,-18.17 -8.04,-24.11 -5.33,-5.93 -11.84,-8.91 -19.48,-8.91 -7.91,0 -14.75,3.18 -20.52,9.59 -5.8,6.4 -8.69,14.72 -8.69,24.91 0,9.15 2.75,16.6 8.21,22.29 5.5,5.73 12.33,8.58 20.48,8.58 8.18,0 14.89,-2.85 20.15,-8.58 5.26,-5.7 7.88,-13.64 7.88,-23.77z"/>
  <path class="fil3" d="M2975.95 13556.17l-17.7 0 0 -112.72c-4.26,4.09 -9.86,8.15 -16.76,12.2 -6.91,4.06 -13.15,7.11 -18.65,9.12l0 -17.1c9.89,-4.63 18.54,-10.26 25.95,-16.9 7.41,-6.6 12.67,-13.01 15.76,-19.24l11.4 0 0 144.64z"/>
  <path id="1" class="fil3" d="M3021.44 13485.09c0,-17 1.74,-30.74 5.23,-41.14 3.52,-10.42 8.72,-18.44 15.62,-24.04 6.87,-5.6 15.55,-8.38 26.02,-8.38 7.71,0 14.48,1.54 20.35,4.66 5.83,3.12 10.66,7.61 14.42,13.48 3.76,5.83 6.71,12.97 8.85,21.39 2.18,8.42 3.25,19.78 3.25,34.03 0,16.9 -1.74,30.58 -5.2,40.98 -3.45,10.42 -8.65,18.44 -15.55,24.07 -6.87,5.63 -15.59,8.45 -26.12,8.45 -13.85,0 -24.74,-4.93 -32.65,-14.82 -9.49,-12.07 -14.22,-31.62 -14.22,-58.67zm18.11 0.07c0,23.71 2.75,39.46 8.28,47.24 5.53,7.81 12.37,11.7 20.48,11.7 8.12,0 14.95,-3.92 20.49,-11.73 5.53,-7.84 8.28,-23.57 8.28,-47.21 0,-23.7 -2.75,-39.46 -8.28,-47.24 -5.5,-7.81 -12.41,-11.7 -20.69,-11.7 -8.11,0 -14.62,3.45 -19.48,10.32 -6.07,8.75 -9.08,24.98 -9.08,48.62z"/>
  <path class="fil3" d="M2975.95 11801.82l-17.7 0 0 -112.72c-4.26,4.09 -9.86,8.15 -16.76,12.2 -6.91,4.06 -13.15,7.11 -18.65,9.12l0 -17.1c9.89,-4.63 18.54,-10.26 25.95,-16.9 7.41,-6.6 12.67,-13.01 15.76,-19.24l11.4 0 0 144.64z"/>
  <path id="1" class="fil3" d="M3072.91 11801.82l-17.7 0 0 -112.72c-4.26,4.09 -9.86,8.15 -16.76,12.2 -6.91,4.06 -13.15,7.11 -18.65,9.12l0 -17.1c9.89,-4.63 18.54,-10.26 25.95,-16.9 7.41,-6.6 12.67,-13.01 15.76,-19.24l11.4 0 0 144.64z"/>
  <path class="fil3" d="M4072.17 11801.82l-17.7 0 0 -112.72c-4.26,4.09 -9.86,8.15 -16.76,12.2 -6.91,4.06 -13.15,7.11 -18.65,9.12l0 -17.1c9.89,-4.63 18.54,-10.26 25.95,-16.9 7.41,-6.6 12.67,-13.01 15.76,-19.24l11.4 0 0 144.64z"/>
  <path id="1" class="fil3" d="M4210.4 11784.93l0 16.9 -95.35 0c-0.13,-4.26 0.57,-8.35 2.08,-12.3 2.44,-6.47 6.37,-12.87 11.77,-19.15 5.4,-6.27 13.11,-13.51 23.13,-21.72 15.59,-12.84 26.19,-23 31.72,-30.51 5.56,-7.51 8.35,-14.62 8.35,-21.32 0,-7.01 -2.52,-12.91 -7.55,-17.74 -5.03,-4.79 -11.6,-7.2 -19.68,-7.2 -8.55,0 -15.39,2.55 -20.52,7.64 -5.13,5.06 -7.71,12.11 -7.78,21.12l-18.1 -1.81c1.24,-13.55 5.93,-23.87 14.05,-30.98 8.15,-7.11 19.04,-10.66 32.76,-10.66 13.81,0 24.77,3.82 32.82,11.5 8.08,7.68 12.1,17.2 12.1,28.53 0,5.77 -1.17,11.43 -3.55,17 -2.35,5.6 -6.27,11.47 -11.73,17.64 -5.5,6.13 -14.59,14.62 -27.26,25.35 -10.63,8.92 -17.47,14.95 -20.49,18.14 -3.02,3.18 -5.5,6.37 -7.47,9.59l70.71 0z"/>
  <path class="fil3" d="M5177.13 11801.82l-17.7 0 0 -112.72c-4.26,4.09 -9.86,8.15 -16.76,12.2 -6.91,4.06 -13.15,7.11 -18.65,9.12l0 -17.1c9.89,-4.63 18.54,-10.26 25.95,-16.9 7.41,-6.6 12.67,-13.01 15.76,-19.24l11.4 0 0 144.64z"/>
  <path id="1" class="fil3" d="M5222.62 11763.6l17.7 -2.41c2.04,10.06 5.47,17.3 10.33,21.72 4.86,4.43 10.83,6.64 17.91,6.64 8.38,0 15.46,-2.88 21.16,-8.65 5.7,-5.77 8.55,-12.9 8.55,-21.42 0,-8.11 -2.65,-14.82 -7.98,-20.11 -5.3,-5.26 -12.03,-7.91 -20.25,-7.91 -3.35,0 -7.51,0.67 -12.51,1.98l1.98 -15.49c1.18,0.13 2.15,0.2 2.85,0.2 7.58,0 14.35,-1.98 20.41,-5.9 6.04,-3.92 9.05,-9.96 9.05,-18.11 0,-6.47 -2.21,-11.83 -6.6,-16.09 -4.39,-4.25 -10.06,-6.37 -17,-6.37 -6.9,0 -12.64,2.18 -17.23,6.54 -4.59,4.36 -7.54,10.9 -8.85,19.61l-17.7 -3.22c2.18,-11.87 7.08,-21.09 14.75,-27.63 7.65,-6.54 17.2,-9.79 28.6,-9.79 7.85,0 15.09,1.67 21.69,5.06 6.64,3.35 11.7,7.95 15.19,13.74 3.52,5.83 5.26,12 5.26,18.54 0,6.2 -1.68,11.84 -5,16.93 -3.35,5.1 -8.32,9.15 -14.86,12.17 8.52,1.95 15.13,6.04 19.85,12.24 4.7,6.17 7.04,13.95 7.04,23.24 0,12.57 -4.59,23.27 -13.75,32.02 -9.18,8.75 -20.78,13.11 -34.8,13.11 -12.64,0 -23.13,-3.79 -31.48,-11.33 -8.38,-7.54 -13.14,-17.3 -14.32,-29.3z"/>
 </g>
</svg>
