<?xml version="1.0" encoding="UTF-8"?>
<!DOCTYPE svg PUBLIC "-//W3C//DTD SVG 1.1//EN" "http://www.w3.org/Graphics/SVG/1.1/DTD/svg11.dtd">
<!-- Creator: CorelDRAW 2019 (64-Bit) -->
<svg xmlns="http://www.w3.org/2000/svg" xml:space="preserve" width="208.905mm" height="240.837mm" version="1.1" style="shape-rendering:geometricPrecision; text-rendering:geometricPrecision; image-rendering:optimizeQuality; fill-rule:evenodd; clip-rule:evenodd"
viewBox="0 0 15943.4 18380.37"
 xmlns:xlink="http://www.w3.org/1999/xlink">
 <defs>
  <style type="text/css">
   <![CDATA[
    .fil0 {fill:none}
    .fil2 {fill:#FEFEFE}
    .fil3 {fill:#332C2B}
    .fil4 {fill:#757475}
    .fil1 {fill:#373435;fill-rule:nonzero}
    .fil5 {fill:#A43234;fill-rule:nonzero}
   ]]>
  </style>
 </defs>
 <g id="Layer_x0020_1">
  <metadata id="CorelCorpID_0Corel-Layer"/>
  <g id="_2362917778832">
   <polygon class="fil0" points="-0,0 15943.4,0 15943.4,18380.37 -0,18380.37 "/>
   <g>
    <path class="fil1" d="M1427.15 14786l3116.21 355.54 -5.59 49 -3116.21 -355.53 5.59 -49.01zm9680.58 -10329.31l2933.17 10504.04 480.94 1709.68 -47.46 13.32 -480.91 -1709.69 -2933.2 -10504.22 47.47 -13.13zm3000.82 12242.58l-153.99 -560.99 -2.25 24.78 -2948.91 -271.89 4.45 -49.01 2939.83 271.05 -1303.06 -4746.87 -1861.44 -6587.96 47.46 -13.32c1123.1,3974.95 2232.09,7938.54 3325.38,11921.28l-47.47 12.93zm-10226.45 -7533.53l209.14 -575.15 46.32 16.8 -209.14 575.15 -46.32 -16.8zm1597.54 6101.37l2098.18 273.33 2522.6 207.5 -3.85 49.21c-1619.64,-133.24 -3018.02,-272.08 -4623.29,-481.21l6.36 -48.83zm-4048.05 -687.74l648.34 54.9 -4.05 49.21 -648.34 -54.9 4.05 -49.21z"/>
    <polygon class="fil2" points="5115.4,8852.57 4576.9,14907.17 2075.88,14683.48 3290.64,10991.08 3374.3,10729.65 3882.1,9165.75 4691.88,9046.03 "/>
    <polygon class="fil2" points="8299.54,9202.77 8194.96,8700.82 5873.49,9830.18 5727.09,12026.18 5476.13,14995.98 9951.76,15456.1 8592.35,10269.39 "/>
    <polygon class="fil3" points="8696.87,7006.77 10432.74,13824.79 10892.86,15560.67 13590.78,15832.55 12816.95,13176.45 11520.28,8449.85 10892.86,6023.81 10453.66,6044.72 "/>
    <polygon class="fil4" points="3949.28,17129.22 4537.77,15190.54 4576.9,14907.17 5115.4,8852.57 8696.87,7006.77 10892.86,15560.67 11003.4,15891.18 10683.63,17756.64 9679.76,17756.64 10096.57,15797.15 9951.76,15456.1 8194.96,8700.82 5873.49,9830.18 5476.13,14995.98 5473.28,15315.94 4994.98,17212.87 "/>
    <path class="fil1" d="M5186.24 14137.78l-2.97 -34.61c22.22,0.18 37.59,-3.16 46.18,-10.09 8.53,-6.94 13.16,-16.97 13.82,-29.98 0.49,-9.57 -1.32,-17.97 -5.35,-25.14 -4.09,-7.17 -9.85,-12.32 -17.27,-15.33 -7.41,-3.01 -19.48,-4.91 -36.05,-5.75l-199.56 -10.11 1.95 -38.42 197.27 10.01c24.19,1.23 42.78,5.07 55.83,11.61 12.99,6.54 22.62,16.29 28.99,29.38 6.3,13.02 9.05,28.09 8.19,45.14 -1.29,25.41 -9.56,44.46 -24.86,57.19 -15.31,12.74 -37.34,18.11 -66.15,16.1zm73.9 -351.39c10.58,13.78 17.82,26.92 21.85,39.35 4.04,12.43 5.66,25.62 4.95,39.65 -1.17,23.05 -7.66,40.49 -19.54,52.32 -11.82,11.83 -26.49,17.3 -43.94,16.42 -10.25,-0.51 -19.49,-3.35 -27.76,-8.43 -8.25,-5.14 -14.68,-11.62 -19.42,-19.43 -4.74,-7.87 -8.21,-16.56 -10.36,-26.19 -1.47,-7.11 -2.67,-17.77 -3.72,-31.95 -1.92,-28.89 -4.95,-50.32 -8.98,-64.11 -4.85,-0.38 -7.94,-0.6 -9.23,-0.66 -14.42,-0.73 -24.77,2.11 -31.05,8.56 -8.48,8.69 -13.14,22.04 -14.05,39.96 -0.85,16.78 1.49,29.34 6.95,37.59 5.45,8.32 15.54,14.7 30.3,19.31l-6.62 34.53c-14.73,-3.92 -26.53,-9.72 -35.33,-17.47 -8.79,-7.75 -15.27,-18.61 -19.56,-32.61 -4.23,-13.93 -5.91,-30.03 -5,-48.1 0.91,-17.92 3.74,-32.44 8.56,-43.48 4.82,-10.97 10.49,-19 17.16,-23.93 6.67,-4.93 14.94,-8.23 24.82,-9.89 6.13,-0.83 17.07,-0.89 32.78,-0.09l47.18 2.39c32.95,1.67 53.82,1.99 62.72,0.95 8.91,-0.98 17.48,-3.51 25.78,-7.42l-1.89 37.21c-7.66,3.19 -16.54,5.04 -26.63,5.55zm-79 -1.17c4.6,13.2 8.07,32.84 10.39,58.9 1.34,14.8 3.17,25.3 5.49,31.5 2.33,6.2 5.92,11.05 10.75,14.6 4.88,3.56 10.39,5.53 16.6,5.84 9.36,0.47 17.43,-2.69 24.06,-9.59 6.63,-6.9 10.33,-17.25 11.04,-31.07 0.69,-13.68 -1.66,-26.02 -7.11,-37.05 -5.4,-10.95 -13.15,-19.25 -23.21,-24.76 -7.83,-4.25 -19.52,-6.73 -35.09,-7.53l-12.93 -0.85zm109.69 -84.52l-289.54 -14.68 1.8 -35.58 289.54 14.68 -1.8 35.58zm-14.74 -229.06c10.58,13.78 17.81,26.92 21.85,39.35 4.04,12.44 5.66,25.62 4.95,39.65 -1.17,23.05 -7.65,40.49 -19.54,52.32 -11.81,11.84 -26.49,17.31 -43.94,16.42 -10.25,-0.52 -19.5,-3.35 -27.76,-8.43 -8.25,-5.15 -14.68,-11.62 -19.42,-19.43 -4.74,-7.88 -8.22,-16.56 -10.36,-26.2 -1.47,-7.11 -2.68,-17.77 -3.72,-31.95 -1.92,-28.89 -4.95,-50.32 -8.98,-64.11 -4.84,-0.37 -7.94,-0.6 -9.22,-0.67 -14.42,-0.73 -24.77,2.13 -31.05,8.56 -8.48,8.69 -13.14,22.04 -14.05,39.97 -0.85,16.77 1.49,29.33 6.95,37.58 5.45,8.32 15.54,14.71 30.31,19.31l-6.62 34.53c-14.73,-3.92 -26.54,-9.72 -35.33,-17.47 -8.8,-7.74 -15.27,-18.61 -19.56,-32.61 -4.23,-13.93 -5.92,-30.03 -5,-48.1 0.91,-17.92 3.74,-32.44 8.56,-43.48 4.82,-10.97 10.49,-19 17.16,-23.93 6.67,-4.92 14.94,-8.23 24.83,-9.88 6.12,-0.84 17.07,-0.89 32.77,-0.1l47.19 2.4c32.95,1.66 53.81,1.98 62.71,0.95 8.91,-0.97 17.48,-3.51 25.79,-7.41l-1.89 37.21c-7.66,3.19 -16.54,5.04 -26.63,5.54zm-79 -1.17c4.59,13.2 8.06,32.84 10.39,58.91 1.34,14.8 3.17,25.29 5.49,31.49 2.33,6.2 5.93,11.05 10.75,14.6 4.89,3.56 10.4,5.53 16.6,5.84 9.36,0.48 17.43,-2.69 24.07,-9.59 6.63,-6.89 10.33,-17.25 11.04,-31.07 0.69,-13.68 -1.66,-26.02 -7.11,-37.05 -5.39,-10.94 -13.15,-19.25 -23.2,-24.76 -7.83,-4.24 -19.52,-6.73 -35.09,-7.52l-12.93 -0.86zm109.72 -85.32l-209.86 -10.64 1.62 -31.95 29.79 1.51c-22.07,-16.52 -32.34,-39.35 -30.86,-68.4 0.65,-12.66 3.53,-24.14 8.58,-34.49 5.05,-10.36 11.45,-18 19.06,-22.89 7.61,-4.88 16.56,-8.14 26.77,-9.73 6.67,-0.94 18.23,-1.03 34.68,-0.2l128.86 6.53 -1.8 35.59 -127.51 -6.46c-14.49,-0.73 -25.41,0.06 -32.69,2.47 -7.28,2.4 -13.26,7.03 -17.93,13.82 -4.6,6.79 -7.18,14.97 -7.65,24.41 -0.76,15.1 3.36,28.34 12.44,39.82 9.01,11.48 27,17.86 53.82,19.22l114.51 5.81 -1.81 35.59z"/>
    <path class="fil1" d="M10181.02 14678.18l-11.23 -32.88c21.61,-5.19 35.72,-12.13 42.39,-20.93 6.6,-8.78 8.67,-19.64 6.17,-32.42 -1.84,-9.41 -5.62,-17.13 -11.26,-23.11 -5.7,-5.96 -12.52,-9.58 -20.46,-10.72 -7.91,-1.13 -20.08,-0.06 -36.37,3.13l-196.1 38.34 -7.39 -37.75 193.86 -37.9c23.78,-4.65 42.75,-5.4 56.98,-2.21 14.18,3.22 25.88,10.35 35.22,21.51 9.25,11.12 15.55,25.08 18.84,41.84 4.88,24.96 1.46,45.44 -10.33,61.5 -11.78,16.05 -31.86,26.58 -60.31,31.6zm-13.08 -358.85c13.59,10.82 23.79,21.83 30.7,32.92 6.91,11.1 11.68,23.5 14.37,37.28 4.43,22.65 2.34,41.14 -6.33,55.48 -8.62,14.34 -21.53,23.19 -38.69,26.54 -10.07,1.97 -19.72,1.45 -28.96,-1.49 -9.26,-3.01 -17.05,-7.73 -23.54,-14.17 -6.49,-6.49 -11.97,-14.09 -16.38,-22.92 -3.14,-6.55 -6.88,-16.61 -11.32,-30.11 -8.82,-27.57 -16.94,-47.64 -24.18,-60.05 -4.8,0.8 -7.86,1.34 -9.12,1.58 -14.16,2.77 -23.52,8.04 -28.05,15.8 -6.14,10.48 -7.44,24.56 -3.99,42.17 3.22,16.49 8.52,28.11 15.81,34.79 7.3,6.76 18.62,10.52 34.06,11.42l1.92 35.11c-15.25,-0.25 -28.09,-3.04 -38.5,-8.43 -10.4,-5.4 -19.32,-14.38 -26.86,-26.93 -7.46,-12.5 -12.98,-27.72 -16.45,-45.47 -3.44,-17.61 -4.2,-32.39 -2.19,-44.26 2.02,-11.81 5.6,-20.96 10.88,-27.36 5.29,-6.4 12.52,-11.59 21.71,-15.59 5.75,-2.29 16.36,-4.98 31.79,-8l46.36 -9.07c32.38,-6.33 52.71,-11.06 61.09,-14.21 8.41,-3.09 16.12,-7.62 23.23,-13.42l7.15 36.56c-6.66,4.94 -14.84,8.88 -24.51,11.8zm-76.94 17.93c7.65,11.71 15.75,29.92 24.31,54.66 4.87,14.04 9.18,23.78 12.93,29.24 3.75,5.45 8.42,9.29 13.95,11.57 5.6,2.27 11.42,2.85 17.52,1.66 9.2,-1.8 16.27,-6.82 21.04,-15.11 4.77,-8.3 5.87,-19.23 3.21,-32.82 -2.63,-13.44 -7.89,-24.86 -15.84,-34.24 -7.88,-9.32 -17.41,-15.5 -28.5,-18.42 -8.62,-2.24 -20.57,-1.82 -35.87,1.17l-12.75 2.29zm86.06 -108.49l-284.52 55.63 -6.84 -34.97 284.52 -55.62 6.84 34.96zm-69.58 -218.73c13.6,10.81 23.79,21.82 30.7,32.91 6.91,11.1 11.68,23.51 14.37,37.28 4.43,22.65 2.34,41.14 -6.34,55.49 -8.61,14.34 -21.53,23.19 -38.67,26.54 -10.07,1.96 -19.74,1.45 -28.97,-1.5 -9.25,-3 -17.05,-7.73 -23.54,-14.16 -6.49,-6.49 -11.97,-14.09 -16.38,-22.93 -3.14,-6.54 -6.88,-16.6 -11.32,-30.11 -8.83,-27.57 -16.95,-47.64 -24.18,-60.04 -4.79,0.8 -7.86,1.33 -9.12,1.57 -14.16,2.77 -23.52,8.04 -28.05,15.8 -6.13,10.48 -7.44,24.57 -4,42.17 3.23,16.49 8.52,28.11 15.81,34.79 7.3,6.76 18.63,10.52 34.07,11.42l1.92 35.11c-15.24,-0.25 -28.1,-3.04 -38.5,-8.43 -10.4,-5.39 -19.32,-14.37 -26.86,-26.93 -7.46,-12.49 -12.99,-27.72 -16.45,-45.47 -3.44,-17.61 -4.2,-32.38 -2.19,-44.26 2.02,-11.81 5.6,-20.96 10.88,-27.36 5.29,-6.39 12.52,-11.59 21.71,-15.58 5.74,-2.3 16.35,-4.99 31.78,-8l46.36 -9.07c32.38,-6.33 52.71,-11.07 61.09,-14.21 8.41,-3.09 16.12,-7.62 23.24,-13.42l7.14 36.56c-6.66,4.95 -14.84,8.88 -24.51,11.81zm-76.94 17.93c7.65,11.7 15.75,29.92 24.3,54.65 4.88,14.04 9.19,23.78 12.94,29.24 3.75,5.46 8.42,9.29 13.95,11.58 5.6,2.27 11.42,2.85 17.52,1.66 9.2,-1.79 16.26,-6.82 21.05,-15.1 4.77,-8.3 5.85,-19.24 3.21,-32.82 -2.63,-13.44 -7.88,-24.86 -15.84,-34.24 -7.88,-9.33 -17.41,-15.51 -28.5,-18.42 -8.62,-2.24 -20.57,-1.82 -35.87,1.17l-12.75 2.29zm85.9 -109.28l-206.23 40.32 -6.14 -31.39 29.27 -5.73c-25.41,-10.71 -40.88,-30.37 -46.46,-58.92 -2.43,-12.45 -2.4,-24.28 0,-35.54 2.4,-11.26 6.77,-20.24 12.98,-26.81 6.2,-6.58 14.1,-11.91 23.64,-15.9 6.24,-2.53 17.44,-5.4 33.6,-8.56l126.63 -24.76 6.84 34.98 -125.31 24.49c-14.23,2.79 -24.64,6.2 -31.13,10.29 -6.49,4.08 -11.17,10.02 -14.07,17.74 -2.82,7.7 -3.35,16.26 -1.54,25.54 2.9,14.84 10.1,26.7 21.68,35.64 11.52,8.96 30.51,10.81 56.87,5.66l112.53 -22 6.83 34.97z"/>
    <polygon class="fil3" points="2075.88,14683.48 4576.9,14907.17 4774.44,12686.28 2795.13,12497.26 "/>
    <polygon class="fil3" points="2795.13,12497.26 3882.1,9165.75 4691.88,9046.03 5115.4,8852.57 4774.44,12686.28 "/>
    <polygon class="fil3" points="5476.13,14995.98 7545.65,15208.74 7587.85,11565.98 5765.88,11444.51 "/>
    <polygon class="fil3" points="7587.85,11565.98 8970,11680.94 9951.76,15456.1 7545.65,15208.74 "/>
    <polygon class="fil3" points="5765.88,11444.51 8970,11680.94 8194.96,8700.82 5873.49,9830.18 "/>
    <polygon class="fil3" points="8696.87,7006.77 9249.99,9179.21 11547.46,8548.94 10892.86,6023.81 10453.66,6044.72 "/>
    <polygon class="fil3" points="9249.99,9179.21 9850.51,11500.43 12181.72,10860.9 11547.46,8548.94 "/>
    <polygon class="fil3" points="9850.51,11500.43 10432.74,13824.79 12816.95,13176.45 12181.72,10860.9 "/>
   </g>
   <path class="fil5" d="M3710.79 2221.58l102.85 -10.21c6.2,34.4 18.61,59.57 37.45,75.75 18.84,16.16 44.25,24.19 76.23,24.19 33.8,0 59.33,-7.17 76.47,-21.52 17.14,-14.35 25.77,-31.12 25.77,-50.33 0,-12.4 -3.65,-22.86 -10.82,-31.61 -7.17,-8.63 -19.81,-16.17 -37.81,-22.49 -12.28,-4.37 -40.24,-11.91 -84.01,-22.86 -56.29,-14.1 -95.8,-31.37 -118.53,-51.91 -31.98,-28.81 -47.91,-63.95 -47.91,-105.4 0,-26.63 7.54,-51.68 22.49,-74.89 15.07,-23.22 36.72,-40.85 65.05,-53.01 28.32,-12.16 62.37,-18.24 102.49,-18.24 65.28,0 114.52,14.47 147.47,43.52 33.07,29.06 50.33,67.73 52.03,116.23l-105.77 3.65c-4.5,-26.99 -14.1,-46.33 -28.81,-58.12 -14.71,-11.79 -36.84,-17.75 -66.26,-17.75 -30.4,0 -54.22,6.33 -71.37,18.97 -11.07,8.15 -16.66,18.97 -16.66,32.59 0,12.39 5.23,22.97 15.68,31.73 13.26,11.31 45.47,22.98 96.66,35.14 51.18,12.04 89,24.68 113.43,37.57 24.55,13 43.76,30.63 57.62,53.13 13.86,22.49 20.79,50.21 20.79,83.16 0,29.91 -8.27,57.99 -24.92,84.13 -16.66,26.14 -40.12,45.59 -70.52,58.24 -30.39,12.76 -68.32,19.09 -113.67,19.09 -66.02,0 -116.71,-15.2 -152.1,-45.71 -35.38,-30.4 -56.41,-74.77 -63.34,-133.01z"/>
   <polygon id="1" class="fil5" points="4221.42,2390.81 4221.42,1868.52 4327.19,1868.52 4327.19,2390.81 "/>
   <polygon id="2" class="fil5" points="4545.18,2390.81 4545.18,1956.78 4390.54,1956.78 4390.54,1868.52 4804.87,1868.52 4804.87,1956.78 4650.95,1956.78 4650.95,2390.81 "/>
   <polygon id="3" class="fil5" points="4873.32,2390.81 4873.32,1868.52 5259.93,1868.52 5259.93,1956.78 4979.09,1956.78 4979.09,2072.77 5240.24,2072.77 5240.24,2161.03 4979.09,2161.03 4979.09,2302.55 5270.14,2302.55 5270.14,2390.81 "/>
   <polygon id="4" class="fil5" points="5358.41,2390.81 5358.41,1868.52 5516.83,1868.52 5610.44,2224.74 5702.96,1868.52 5861.74,1868.52 5861.74,2390.81 5763.99,2390.81 5763.63,1979.64 5660.66,2390.81 5559.02,2390.81 5456.53,1979.64 5456.16,2390.81 "/>
   <path id="5" class="fil5" d="M6438.02 2390.81l-113.91 0 -45.1 -118.9 -209.48 0 -43.4 118.9 -111.85 0 202.79 -522.29 111.72 0 209.24 522.29zm-193.31 -207.17l-72.58 -193.31 -70.52 193.31 143.1 0z"/>
   <path id="6" class="fil5" d="M6494.3 2390.81l0 -522.29 169.11 0c64.07,0 105.78,2.56 125.22,7.78 29.91,7.9 54.96,24.92 75.14,51.18 20.19,26.26 30.28,60.18 30.28,101.76 0,32.09 -5.84,58.96 -17.39,80.84 -11.68,21.89 -26.38,39.03 -44.26,51.55 -17.87,12.4 -36.11,20.67 -54.58,24.67 -25.17,4.99 -61.52,7.54 -109.18,7.54l-68.56 0 0 196.96 -105.78 0zm105.78 -434.03l0 148.81 57.51 0c41.46,0 69.05,-2.8 83.03,-8.27 13.98,-5.47 24.93,-13.98 32.82,-25.78 7.91,-11.67 11.91,-25.16 11.91,-40.72 0,-19.09 -5.59,-34.77 -16.65,-47.17 -11.19,-12.4 -25.17,-20.19 -42.31,-23.35 -12.52,-2.3 -37.69,-3.53 -75.62,-3.53l-50.7 0z"/>
   <path id="7" class="fil5" d="M7170.39 2390.81l0 -522.29 169.11 0c64.07,0 105.78,2.56 125.22,7.78 29.91,7.9 54.96,24.92 75.14,51.18 20.19,26.26 30.28,60.18 30.28,101.76 0,32.09 -5.84,58.96 -17.39,80.84 -11.68,21.89 -26.38,39.03 -44.26,51.55 -17.87,12.4 -36.11,20.67 -54.58,24.67 -25.17,4.99 -61.52,7.54 -109.18,7.54l-68.56 0 0 196.96 -105.78 0zm105.78 -434.03l0 148.81 57.51 0c41.46,0 69.05,-2.8 83.03,-8.27 13.98,-5.47 24.93,-13.98 32.82,-25.78 7.91,-11.67 11.91,-25.16 11.91,-40.72 0,-19.09 -5.59,-34.77 -16.65,-47.17 -11.19,-12.4 -25.17,-20.19 -42.31,-23.35 -12.52,-2.3 -37.69,-3.53 -75.62,-3.53l-50.7 0z"/>
   <path id="8" class="fil5" d="M7656.95 2390.81l0 -522.29 222.13 0c55.8,0 96.41,4.74 121.7,14.1 25.41,9.36 45.59,26.02 60.79,49.97 15.2,24.07 22.86,51.43 22.86,82.31 0,39.27 -11.43,71.61 -34.4,97.14 -22.98,25.53 -57.26,41.58 -102.98,48.26 22.74,13.26 41.46,27.84 56.17,43.77 14.83,15.93 34.77,44.26 59.81,84.87l63.71 101.88 -126.08 0 -75.62 -114.04c-27.11,-40.49 -45.71,-66.02 -55.8,-76.6 -9.97,-10.45 -20.54,-17.74 -31.73,-21.64 -11.31,-3.89 -29.06,-5.84 -53.38,-5.84l-21.39 0 0 218.11 -105.78 0zm105.78 -301.27l78.05 0c50.58,0 82.07,-2.19 94.7,-6.44 12.52,-4.26 22.5,-11.68 29.54,-22.13 7.17,-10.46 10.7,-23.58 10.7,-39.27 0,-17.63 -4.74,-31.73 -14.1,-42.67 -9.36,-10.82 -22.61,-17.63 -39.63,-20.43 -8.63,-1.21 -34.28,-1.82 -76.96,-1.82l-82.3 0 0 132.76z"/>
   <path id="9" class="fil5" d="M8161.86 2132.83c0,-53.25 8.02,-97.99 23.95,-134.22 11.79,-26.62 28.09,-50.58 48.63,-71.73 20.54,-21.15 43.04,-36.83 67.48,-47.16 32.58,-13.74 70.14,-20.67 112.7,-20.67 77.08,0 138.59,23.96 184.92,71.73 46.2,47.91 69.3,114.41 69.3,199.63 0,84.49 -22.98,150.63 -68.82,198.29 -45.83,47.78 -107.23,71.61 -183.94,71.61 -77.68,0 -139.57,-23.71 -185.41,-71.25 -45.83,-47.41 -68.81,-112.82 -68.81,-196.22zm108.69 -3.53c0,59.21 13.74,104.07 41.09,134.71 27.35,30.51 62.12,45.84 104.19,45.84 42.19,0 76.72,-15.2 103.82,-45.47 26.99,-30.4 40.49,-75.87 40.49,-136.53 0,-59.94 -13.13,-104.68 -39.51,-134.1 -26.26,-29.54 -61.15,-44.26 -104.8,-44.26 -43.52,0 -78.66,14.96 -105.28,44.75 -26.63,29.91 -40,74.89 -40,135.07z"/>
   <polygon id="10" class="fil5" points="8751.14,2390.81 8751.14,1868.52 8853.51,1868.52 9068.46,2218.54 9068.46,1868.52 9166.2,1868.52 9166.2,2390.81 9060.56,2390.81 8848.89,2047.48 8848.89,2390.81 "/>
   <path id="11" class="fil5" d="M9256.05 2132.83c0,-53.25 8.02,-97.99 23.95,-134.22 11.79,-26.62 28.09,-50.58 48.63,-71.73 20.54,-21.15 43.04,-36.83 67.48,-47.16 32.58,-13.74 70.14,-20.67 112.7,-20.67 77.08,0 138.59,23.96 184.92,71.73 46.2,47.91 69.3,114.41 69.3,199.63 0,84.49 -22.98,150.63 -68.82,198.29 -45.83,47.78 -107.23,71.61 -183.94,71.61 -77.68,0 -139.57,-23.71 -185.41,-71.25 -45.83,-47.41 -68.81,-112.82 -68.81,-196.22zm108.69 -3.53c0,59.21 13.74,104.07 41.09,134.71 27.35,30.51 62.12,45.84 104.19,45.84 42.19,0 76.72,-15.2 103.82,-45.47 26.99,-30.4 40.49,-75.87 40.49,-136.53 0,-59.94 -13.13,-104.68 -39.51,-134.1 -26.26,-29.54 -61.15,-44.26 -104.8,-44.26 -43.52,0 -78.66,14.96 -105.28,44.75 -26.63,29.91 -40,74.89 -40,135.07z"/>
   <path id="12" class="fil5" d="M10088.24 2198.96l0 -88.26 226.86 0 0 208.38c-22.01,21.52 -53.98,40.36 -95.92,56.78 -41.82,16.29 -84.26,24.44 -127.29,24.44 -54.59,0 -102.13,-11.43 -142.73,-34.41 -40.49,-22.97 -71,-55.93 -91.43,-98.6 -20.42,-42.68 -30.63,-89.24 -30.63,-139.45 0,-54.47 11.42,-102.85 34.16,-145.29 22.86,-42.3 56.17,-74.88 100.06,-97.5 33.56,-17.39 75.14,-26.02 124.98,-26.02 64.8,0 115.5,13.62 151.97,40.85 36.35,27.35 59.81,64.92 70.27,113.07l-105.04 19.7c-7.3,-25.66 -21.16,-45.96 -41.46,-60.91 -20.18,-14.84 -45.46,-22.25 -75.86,-22.25 -45.96,0 -82.55,14.59 -109.66,43.89 -27.11,29.3 -40.73,72.71 -40.73,130.21 0,62.13 13.74,108.69 41.22,139.69 27.6,31 63.58,46.57 108.2,46.57 22,0 44.13,-4.38 66.26,-13.01 22.25,-8.63 41.21,-19.21 57.14,-31.61l0 -66.26 -120.36 0z"/>
   <path id="13" class="fil5" d="M10883.23 2390.81l-113.91 0 -45.1 -118.9 -209.48 0 -43.4 118.9 -111.85 0 202.79 -522.29 111.72 0 209.24 522.29zm-193.31 -207.17l-72.58 -193.31 -70.52 193.31 143.1 0z"/>
   <polygon id="14" class="fil5" points="11002.86,2390.81 11002.86,1956.78 10848.21,1956.78 10848.21,1868.52 11262.55,1868.52 11262.55,1956.78 11108.63,1956.78 11108.63,2390.81 "/>
   <polygon id="15" class="fil5" points="11330.99,2390.81 11330.99,1868.52 11717.61,1868.52 11717.61,1956.78 11436.77,1956.78 11436.77,2072.77 11697.92,2072.77 11697.92,2161.03 11436.77,2161.03 11436.77,2302.55 11727.82,2302.55 11727.82,2390.81 "/>
   <polygon id="16" class="fil5" points="11817.55,2390.81 11817.55,1868.52 11919.92,1868.52 12134.86,2218.54 12134.86,1868.52 12232.61,1868.52 12232.61,2390.81 12126.97,2390.81 11915.3,2047.48 11915.3,2390.81 "/>
   <polygon id="17" class="fil5" points="5570.81,3205.74 5570.81,2683.45 5676.58,2683.45 5676.58,2914.81 5889.7,2683.45 6031.46,2683.45 5834.38,2886.85 6041.67,3205.74 5905.26,3205.74 5761.56,2960.52 5676.58,3047.82 5676.58,3205.74 "/>
   <path id="18" class="fil5" d="M6566.64 3205.74l-113.91 0 -45.1 -118.9 -209.48 0 -43.4 118.9 -111.85 0 202.79 -522.29 111.72 0 209.24 522.29zm-193.31 -207.17l-72.58 -193.31 -70.52 193.31 143.1 0z"/>
   <polygon id="19" class="fil5" points="6625.84,3205.74 6625.84,2687.82 6731.61,2687.82 6731.61,3117.48 6993.49,3117.48 6993.49,3205.74 "/>
   <polygon id="20" class="fil5" points="7064.86,3205.74 7064.86,2683.45 7170.63,2683.45 7170.63,3205.74 "/>
   <polygon id="21" class="fil5" points="7271.17,3205.74 7271.17,2683.45 7373.55,2683.45 7588.49,3033.47 7588.49,2683.45 7686.24,2683.45 7686.24,3205.74 7580.59,3205.74 7368.92,2862.41 7368.92,3205.74 "/>
   <polygon id="22" class="fil5" points="7797.96,3205.74 7797.96,2683.45 8184.58,2683.45 8184.58,2771.71 7903.74,2771.71 7903.74,2887.7 8164.89,2887.7 8164.89,2975.96 7903.74,2975.96 7903.74,3117.48 8194.79,3117.48 8194.79,3205.74 "/>
   <path id="23" class="fil5" d="M8527.43 3013.89l0 -88.26 226.86 0 0 208.38c-22.01,21.52 -53.98,40.36 -95.92,56.78 -41.82,16.29 -84.26,24.44 -127.29,24.44 -54.59,0 -102.13,-11.43 -142.73,-34.41 -40.49,-22.97 -71,-55.93 -91.43,-98.6 -20.42,-42.68 -30.63,-89.24 -30.63,-139.45 0,-54.47 11.42,-102.85 34.16,-145.29 22.86,-42.3 56.17,-74.88 100.06,-97.5 33.56,-17.39 75.14,-26.02 124.98,-26.02 64.8,0 115.5,13.62 151.97,40.85 36.35,27.35 59.81,64.92 70.27,113.07l-105.04 19.7c-7.3,-25.66 -21.16,-45.96 -41.46,-60.91 -20.18,-14.84 -45.46,-22.25 -75.86,-22.25 -45.96,0 -82.55,14.59 -109.66,43.89 -27.11,29.3 -40.73,72.71 -40.73,130.21 0,62.13 13.74,108.69 41.22,139.69 27.6,31 63.58,46.57 108.2,46.57 22,0 44.13,-4.38 66.26,-13.01 22.25,-8.63 41.21,-19.21 57.14,-31.61l0 -66.26 -120.36 0z"/>
   <path id="24" class="fil5" d="M8830.04 2947.76c0,-53.25 8.02,-97.99 23.95,-134.22 11.79,-26.62 28.09,-50.58 48.63,-71.73 20.54,-21.15 43.04,-36.83 67.48,-47.16 32.58,-13.74 70.14,-20.67 112.7,-20.67 77.08,0 138.59,23.96 184.92,71.73 46.2,47.91 69.3,114.41 69.3,199.63 0,84.49 -22.98,150.63 -68.82,198.29 -45.83,47.78 -107.23,71.61 -183.94,71.61 -77.68,0 -139.57,-23.71 -185.41,-71.25 -45.83,-47.41 -68.81,-112.82 -68.81,-196.22zm108.69 -3.53c0,59.21 13.74,104.07 41.09,134.71 27.35,30.51 62.12,45.84 104.19,45.84 42.19,0 76.72,-15.2 103.82,-45.47 26.99,-30.4 40.49,-75.87 40.49,-136.53 0,-59.94 -13.13,-104.68 -39.51,-134.1 -26.26,-29.54 -61.15,-44.26 -104.8,-44.26 -43.52,0 -78.66,14.96 -105.28,44.75 -26.63,29.91 -40,74.89 -40,135.07z"/>
   <path id="25" class="fil5" d="M9419.32 3205.74l0 -522.29 222.13 0c55.8,0 96.41,4.74 121.7,14.1 25.41,9.36 45.59,26.02 60.79,49.97 15.2,24.07 22.86,51.43 22.86,82.31 0,39.27 -11.43,71.61 -34.4,97.14 -22.98,25.53 -57.26,41.58 -102.98,48.26 22.74,13.26 41.46,27.84 56.17,43.77 14.83,15.93 34.77,44.26 59.81,84.87l63.71 101.88 -126.08 0 -75.62 -114.04c-27.11,-40.49 -45.71,-66.02 -55.8,-76.6 -9.97,-10.45 -20.54,-17.74 -31.73,-21.64 -11.31,-3.89 -29.06,-5.84 -53.38,-5.84l-21.39 0 0 218.11 -105.78 0zm105.78 -301.27l78.05 0c50.58,0 82.07,-2.19 94.7,-6.44 12.52,-4.26 22.5,-11.68 29.54,-22.13 7.17,-10.46 10.7,-23.58 10.7,-39.27 0,-17.63 -4.74,-31.73 -14.1,-42.67 -9.36,-10.82 -22.61,-17.63 -39.63,-20.43 -8.63,-1.21 -34.28,-1.82 -76.96,-1.82l-82.3 0 0 132.76z"/>
   <path id="26" class="fil5" d="M9924.22 2947.76c0,-53.25 8.02,-97.99 23.95,-134.22 11.79,-26.62 28.09,-50.58 48.63,-71.73 20.54,-21.15 43.04,-36.83 67.48,-47.16 32.58,-13.74 70.14,-20.67 112.7,-20.67 77.08,0 138.59,23.96 184.92,71.73 46.2,47.91 69.3,114.41 69.3,199.63 0,84.49 -22.98,150.63 -68.82,198.29 -45.83,47.78 -107.23,71.61 -183.94,71.61 -77.68,0 -139.57,-23.71 -185.41,-71.25 -45.83,-47.41 -68.81,-112.82 -68.81,-196.22zm108.69 -3.53c0,59.21 13.74,104.07 41.09,134.71 27.35,30.51 62.12,45.84 104.19,45.84 42.19,0 76.72,-15.2 103.82,-45.47 26.99,-30.4 40.49,-75.87 40.49,-136.53 0,-59.94 -13.13,-104.68 -39.51,-134.1 -26.26,-29.54 -61.15,-44.26 -104.8,-44.26 -43.52,0 -78.66,14.96 -105.28,44.75 -26.63,29.91 -40,74.89 -40,135.07z"/>
  </g>
 </g>
</svg>
