<?xml version="1.0" encoding="UTF-8"?>
<!DOCTYPE svg PUBLIC "-//W3C//DTD SVG 1.1//EN" "http://www.w3.org/Graphics/SVG/1.1/DTD/svg11.dtd">
<!-- Creator: CorelDRAW 2019 (64-Bit) -->
<svg xmlns="http://www.w3.org/2000/svg" xml:space="preserve" width="277.962mm" height="388.384mm" version="1.1" style="shape-rendering:geometricPrecision; text-rendering:geometricPrecision; image-rendering:optimizeQuality; fill-rule:evenodd; clip-rule:evenodd"
viewBox="0 0 23467.21 32789.71"
 xmlns:xlink="http://www.w3.org/1999/xlink">
 <defs>
  <style type="text/css">
   <![CDATA[
    .fil0 {fill:none}
    .fil2 {fill:#FEFEFE}
    .fil4 {fill:#332C2B}
    .fil3 {fill:#757475}
    .fil1 {fill:#373435;fill-rule:nonzero}
    .fil5 {fill:#A43234;fill-rule:nonzero}
   ]]>
  </style>
 </defs>
 <g id="Layer_x0020_1">
  <metadata id="CorelCorpID_0Corel-Layer"/>
  <g id="_2363094555568">
   <polygon class="fil0" points="0.01,0 23467.21,0 23467.21,32789.71 0.01,32789.71 "/>
   <path class="fil1" d="M2612.55 6029.22l1768.4 1134.28 903.91 528c564.48,494.26 1129.19,983.62 1688.7,1483.2l1222.36 687.02 2001.27 1098.94 2625.17 1392.96c1858.5,654.9 2741.61,977.74 4468.43,1841.15l932.15 448.15c245.87,233.36 491.12,467.41 736.86,700.91l158.55 246.64 1602.05 640.82c295.07,138.64 589.55,288.92 882.86,432.39l230.44 398.62 -36.44 21.11 -224.11 -387.67 -868.73 -425.5 -1614.27 -645.71 -163.11 -253.73 -728.49 -692.96c-839.4,-403.56 -1664.22,-814.3 -2497.98,-1231.18l-1017.24 -392.61 -1877.75 -661.66c-1971.98,-1038.5 -3914.5,-2090.7 -5856.16,-3182.88l-502.14 -448.34 -1186.61 -1034.91c-921.75,-538.43 -1767.36,-1082.02 -2670.9,-1661.57l22.76 -35.46z"/>
   <polygon class="fil2" points="5995.49,25945.1 6291.06,30216.19 6076.61,30314.47 5263.52,31288.4 4611.26,30645.07 4012.61,30403.82 4227.05,29617.53 4209.18,29009.94 4164.5,27910.93 4092.94,24515.58 4013.52,23466.45 3780.22,19538.74 3672.75,17949.49 3333.47,16080.87 3277.06,15496.19 2917.67,14365.31 2837.25,14231.29 2752.37,13952.07 2564.67,13949.83 2535.64,13721.98 2555.71,13033.99 2394.87,12256.63 2385.94,11738.39 2264.9,10438.32 2233.62,9138.27 2233.62,7351.26 2662.84,6261.14 4896.62,7690.75 4976.94,8986.34 5191.38,13060.74 5316.48,14186.56 5566.62,18564.72 "/>
   <path class="fil3" d="M11222.02 28009.06l1876.32 1518.97 -98.01 455.75 -2287.39 -1840.63 -750.55 53.61 -696.94 553.98 -1215.18 1197.3 -303.79 285.92 -536.1 1179.44 -89.36 89.69 -303.79 0 875.64 -1626.52 -393.15 -250.18 -428.88 303.79 -178.7 160.83 -407.8 28.22 -288.86 -4174.11 -366.41 -6305.59 -213.54 -3719.13 -331.38 -4896.84 -97.79 -1858.09 -89.75 -1474.71 385.4 185.07 491.56 439.37 844.38 777.37 225.92 224.33 1447.48 786.29 2055.08 1125.82 786.29 402.09 1429.63 795.22 822.02 339.53 1429.62 500.37 786.28 339.54 71.47 2180.15 6143.75 3395.33 0 1268.79 -1050.76 -428.89 -1268.78 -303.79 196.57 -446.76 -3431.07 -1894.24 -911.38 1679.8 -500.37 53.61 -732.68 285.93 -500.36 553.98 -1018.61 1322.39 -393.2 589.71 -571.84 1554.7 -1090.08 3198.76 -214.44 482.49 232.31 0 446.76 -1090.08 1054.34 -3127.28 375.27 -1018.6 178.7 -250.18 1376 518.23 -142.96 375.27 -1179.43 -393.15 -1804.89 4950.04 -125.09 518.23 482.5 428.88zm2364.53 -14238.38l-868.4 -310.4 -696.94 -348.47 -553.97 -259.12 -250.19 -134.03 -136.28 -71.49 -110.43 -7.62 -166.56 152.81 2.24 234.55 131.78 1945.61 205.45 3055.78 35.74 1447.49 102.75 1174.96 35.72 232.31 116.16 44.68 151.9 -4.47 799.69 -1049.88 647.47 -831.01 1822.76 -964.99 -125.14 -1778.09 -44.68 -723.74 -89.42 -1367.09 -125.09 -142.96 -884.57 -294.86zm-6801.05 9730.53l178.7 3145.15 51.37 482.49 68.84 74.67 87.63 6.45 435.49 -9.64 1665.96 -105.22 835.87 -2325.12 464.62 -1393.87 0 -196.57 -155.55 -84.86 -1720.81 120.59 -1751.28 125.09 -120.65 42.47 -40.18 118.36zm3075.73 -10994.65l259.12 4807.05 250.18 3788.47 30.7 647.43 32.35 311.03 -143.38 140.62 -53.61 8.93 -1831.7 116.16 -1501.09 89.35 -125.09 -62.54 -44.67 -116.16 -80.42 -1045.4 -26.81 -625.45 -26.81 -419.95 -402.15 -6665.59 -142.96 -2573.3 -26.83 -375.28 80.42 -125.09 518.24 -44.67 134.03 0 1161.56 598.65 1769.15 991.79 142.97 107.22 26.81 446.76z"/>
   <path class="fil1" d="M7718.95 10327.62l28.46 11.94c-9.24,17.28 -12.88,30.66 -10.99,40.21 1.95,9.54 7.89,17.27 17.82,23.13 7.36,4.33 14.65,6.39 21.99,6.12 7.28,-0.22 13.66,-2.63 19.06,-7.18 5.41,-4.62 11.89,-13.25 19.35,-25.87l89.76 -152.09 29.19 17.25 -88.82 150.41c-10.9,18.49 -21.53,31.48 -32,38.99 -10.48,7.51 -22.09,11.08 -34.93,10.65 -12.83,-0.42 -25.74,-4.49 -38.79,-12.13 -19.38,-11.5 -30.97,-25.77 -34.68,-43 -3.71,-17.23 1.16,-36.71 14.56,-58.43z"/>
   <path id="1" class="fil1" d="M7963.22 10530.39c-15.03,2.63 -28.28,2.93 -39.62,1 -11.36,-1.98 -22.36,-6.11 -33,-12.39 -17.59,-10.37 -28.57,-22.62 -32.92,-36.8 -4.36,-14.12 -2.63,-27.92 5.25,-41.26 4.62,-7.84 10.62,-13.9 18.01,-18.29 7.37,-4.38 15.12,-6.8 23.24,-7.32 8.05,-0.51 16.29,0.35 24.71,2.64 6.15,1.71 15.01,5.12 26.49,10.15 23.43,10.28 41.36,16.72 53.85,19.16 2.3,-3.65 3.73,-5.98 4.33,-6.95 6.51,-11.06 8.56,-20.32 6.09,-27.89 -3.28,-10.18 -11.79,-19.34 -25.43,-27.4 -12.74,-7.52 -23.5,-10.82 -32.2,-9.95 -8.71,0.87 -17.82,6.1 -27.46,15.75l-24.37 -19.3c9.08,-9.88 18.48,-16.72 28.14,-20.41 9.59,-3.75 20.74,-4.39 33.41,-1.99 12.66,2.39 25.88,7.65 39.64,15.77 13.64,8.05 23.77,16.24 30.43,24.45 6.65,8.27 10.51,16.01 11.68,23.23 1.1,7.28 0.3,15.04 -2.47,23.46 -1.82,5.14 -6.26,13.69 -13.37,25.78l-21.33 36.15c-14.87,25.18 -23.7,41.45 -26.53,48.81 -2.78,7.35 -4.3,15.12 -4.44,23.23l-28.36 -16.71c0.51,-7.29 2.62,-14.93 6.23,-22.95zm33.51 -61.85c-12.24,-1.8 -28.97,-7.1 -50.32,-15.9 -12.13,-4.96 -21.04,-7.78 -26.83,-8.54 -5.86,-0.7 -11.1,0.16 -15.92,2.51 -4.77,2.41 -8.58,5.95 -11.36,10.67 -4.27,7.24 -5.07,14.83 -2.47,22.87 2.61,8.1 9.2,15.24 19.74,21.46 10.47,6.16 21.11,9.34 31.9,9.59 10.87,0.19 20.52,-2.53 29.03,-8.18 6.49,-4.39 13.31,-12.59 20.37,-24.55l5.86 -9.94z"/>
   <polygon id="2" class="fil1" points="8017.81,10590.06 8148.1,10369.28 8175.2,10385.27 8044.91,10606.06 "/>
   <path id="3" class="fil1" d="M8202.73 10672.9c-15.03,2.63 -28.28,2.93 -39.62,1 -11.35,-1.98 -22.35,-6.1 -32.99,-12.39 -17.59,-10.37 -28.57,-22.62 -32.93,-36.8 -4.36,-14.12 -2.63,-27.92 5.25,-41.26 4.63,-7.84 10.63,-13.9 18.01,-18.29 7.38,-4.38 15.13,-6.8 23.24,-7.32 8.05,-0.51 16.29,0.35 24.72,2.64 6.15,1.71 15,5.12 26.48,10.15 23.44,10.28 41.37,16.72 53.85,19.16 2.31,-3.65 3.74,-5.98 4.33,-6.94 6.52,-11.07 8.57,-20.33 6.09,-27.89 -3.27,-10.19 -11.79,-19.34 -25.42,-27.4 -12.75,-7.52 -23.5,-10.82 -32.21,-9.95 -8.71,0.87 -17.81,6.1 -27.45,15.75l-24.37 -19.3c9.08,-9.88 18.48,-16.72 28.14,-20.41 9.6,-3.74 20.75,-4.39 33.41,-1.99 12.67,2.39 25.88,7.65 39.65,15.77 13.63,8.05 23.77,16.24 30.43,24.45 6.64,8.27 10.5,16.01 11.67,23.23 1.11,7.28 0.3,15.04 -2.47,23.46 -1.83,5.14 -6.26,13.69 -13.37,25.78l-21.33 36.14c-14.87,25.18 -23.69,41.45 -26.53,48.81 -2.77,7.35 -4.29,15.12 -4.43,23.23l-28.37 -16.71c0.51,-7.29 2.63,-14.93 6.23,-22.95zm33.52 -61.85c-12.25,-1.8 -28.97,-7.1 -50.33,-15.9 -12.13,-4.96 -21.04,-7.78 -26.83,-8.54 -5.85,-0.7 -11.09,0.16 -15.92,2.51 -4.76,2.41 -8.57,5.95 -11.36,10.67 -4.26,7.24 -5.07,14.83 -2.47,22.88 2.6,8.1 9.19,15.23 19.73,21.45 10.47,6.16 21.11,9.34 31.9,9.59 10.87,0.19 20.52,-2.53 29.03,-8.18 6.49,-4.39 13.32,-12.59 20.37,-24.55l5.87 -9.94z"/>
   <path id="4" class="fil1" d="M8257.92 10732.93l94.39 -159.93 24.41 14.39 -13.45 22.74c22.09,-10.65 44.24,-9.38 66.43,3.71 9.63,5.69 17.48,12.64 23.55,20.84 6,8.27 9.38,16.37 10.07,24.37 0.69,8 -0.41,16.3 -3.35,24.96 -2.01,5.61 -6.69,14.71 -14.09,27.28l-58.01 98.3 -27.1 -16 57.42 -97.28c6.51,-11.01 10.29,-19.92 11.46,-26.6 1.11,-6.69 -0.05,-13.31 -3.49,-19.74 -3.49,-6.43 -8.82,-11.79 -16,-16.05 -11.55,-6.8 -23.67,-9.03 -36.37,-6.64 -12.77,2.38 -25.13,13.83 -37.21,34.29l-51.55 87.36 -27.1 -16z"/>
   <polygon id="5" class="fil1" points="8516.84,10886.95 8647.12,10666.23 8676.32,10683.47 8561.37,10878.16 8670.09,10942.33 8654.74,10968.36 "/>
   <path id="6" class="fil1" d="M8797.75 10798l18.43 -31.17 27.09 15.99 -18.42 31.18 -27.1 -16zm-111.92 189.54l94.39 -159.93 27.09 15.99 -94.38 159.94 -27.1 -16z"/>
   <path id="7" class="fil1" d="M8754.06 11028.16l94.39 -159.93 24.42 14.4 -13.45 22.74c22.09,-10.66 44.24,-9.38 66.43,3.71 9.63,5.7 17.48,12.65 23.55,20.85 6,8.27 9.38,16.37 10.07,24.37 0.68,8 -0.41,16.29 -3.36,24.96 -2,5.61 -6.68,14.72 -14.09,27.28l-58 98.31 -27.1 -16.01 57.42 -97.28c6.51,-11.01 10.29,-19.92 11.46,-26.61 1.11,-6.69 -0.06,-13.31 -3.5,-19.74 -3.48,-6.43 -8.81,-11.78 -15.99,-16.04 -11.55,-6.81 -23.67,-9.03 -36.37,-6.65 -12.77,2.39 -25.13,13.84 -37.22,34.29l-51.54 87.36 -27.11 -16z"/>
   <polygon id="8" class="fil1" points="8925.33,11130.06 9055.68,10909.35 9082.78,10925.34 9008.43,11051.23 9111.02,11023.99 9146.08,11044.73 9049.92,11067.93 9057.86,11208.27 9024.41,11188.54 9019.8,11075.59 8989.88,11082.7 8952.44,11146.06 "/>
   <path id="9" class="fil1" d="M9183.83 11283.41l13.86 -23.51c-23.11,10.72 -45.31,9.79 -66.73,-2.88 -9.4,-5.57 -17.18,-12.58 -23.18,-20.97 -6.07,-8.45 -9.45,-16.61 -10.2,-24.42 -0.75,-7.82 0.41,-16.12 3.48,-25.02 2.06,-5.97 6.5,-14.71 13.31,-26.25l58.47 -99.09 27.11 16 -52.38 88.67c-8.36,14.18 -13.44,24.05 -15.21,29.61 -2.53,8.13 -2.2,15.88 0.94,23.15 3.14,7.33 8.77,13.4 16.84,18.19 8.14,4.8 17.05,7.28 26.59,7.29 9.61,0.03 18.02,-2.63 25.21,-8.1 7.19,-5.39 14.8,-14.92 22.85,-28.61l50.6 -85.62 27.1 15.99 -94.44 159.88 -24.23 -14.28z"/>
   <path id="10" class="fil1" d="M9250.21 11323.39l94.39 -159.93 24.42 14.4 -13.45 22.74c22.09,-10.66 44.23,-9.38 66.43,3.71 9.64,5.7 17.48,12.65 23.55,20.85 6,8.27 9.38,16.37 10.07,24.37 0.68,8 -0.41,16.29 -3.36,24.96 -2,5.61 -6.68,14.72 -14.09,27.28l-58 98.31 -27.1 -16.01 57.41 -97.28c6.52,-11.01 10.29,-19.92 11.47,-26.61 1.1,-6.69 -0.06,-13.31 -3.5,-19.74 -3.48,-6.43 -8.81,-11.78 -16,-16.04 -11.54,-6.81 -23.67,-9.03 -36.37,-6.65 -12.77,2.39 -25.13,13.84 -37.21,34.29l-51.54 87.36 -27.11 -16z"/>
   <path id="11" class="fil1" d="M9408.57 11435.49l24.02 19.48c-3.66,8.78 -4.11,16.55 -1.27,23.22 3.74,8.99 11.41,16.89 23.08,23.77 12.55,7.4 23.73,10.65 33.52,9.64 9.78,-0.99 18.54,-5.27 26.26,-12.88 4.69,-4.74 12.17,-15.93 22.53,-33.64 -20.08,6.95 -39.01,5.24 -56.66,-5.19 -21.96,-12.98 -34.33,-31 -37,-53.97 -2.67,-22.96 2.55,-45.54 15.64,-67.68 9.01,-15.25 20.06,-27.71 33.2,-37.38 13.15,-9.61 27.02,-14.86 41.65,-15.69 14.62,-0.84 29.02,2.91 43.19,11.27 18.85,11.14 29.9,27.98 33.16,50.46l11.38 -19.32 25.01 14.81 -81.59 138.21c-14.69,24.89 -27.7,41 -38.88,48.45 -11.19,7.39 -24.07,10.84 -38.63,10.37 -14.5,-0.48 -29.86,-5.42 -45.89,-14.91 -19.09,-11.25 -31.91,-24.63 -38.61,-40.17 -6.69,-15.49 -4.74,-31.79 5.88,-48.85zm79.14 -82.81c-12.39,21.01 -17.27,38.74 -14.63,53.29 2.63,14.61 10.25,25.56 22.76,32.97 12.5,7.35 25.76,8.73 39.82,4.13 14.12,-4.59 27.2,-17.19 39.28,-37.65 11.56,-19.57 15.96,-36.89 13.09,-51.98 -2.81,-15.03 -10.31,-26.21 -22.58,-33.44 -12.02,-7.11 -25.16,-8.25 -39.4,-3.41 -14.18,4.77 -26.97,16.83 -38.34,36.09z"/>
   <path id="12" class="fil1" d="M9708.46 11568.88c-15.03,2.63 -28.27,2.93 -39.62,1 -11.35,-1.98 -22.35,-6.1 -32.99,-12.39 -17.59,-10.37 -28.57,-22.62 -32.93,-36.8 -4.36,-14.12 -2.63,-27.92 5.25,-41.26 4.63,-7.84 10.63,-13.9 18.02,-18.29 7.37,-4.38 15.12,-6.8 23.23,-7.32 8.05,-0.51 16.29,0.35 24.72,2.64 6.15,1.71 15,5.12 26.48,10.15 23.44,10.28 41.37,16.72 53.85,19.16 2.31,-3.65 3.74,-5.98 4.33,-6.94 6.52,-11.07 8.57,-20.33 6.09,-27.89 -3.27,-10.19 -11.79,-19.34 -25.42,-27.4 -12.74,-7.53 -23.5,-10.82 -32.21,-9.95 -8.71,0.87 -17.81,6.1 -27.45,15.75l-24.37 -19.3c9.08,-9.88 18.48,-16.72 28.14,-20.41 9.59,-3.74 20.74,-4.39 33.41,-1.99 12.66,2.39 25.88,7.65 39.64,15.77 13.64,8.05 23.77,16.24 30.43,24.45 6.65,8.27 10.5,16.01 11.67,23.23 1.11,7.28 0.3,15.04 -2.47,23.46 -1.83,5.14 -6.26,13.69 -13.37,25.78l-21.33 36.14c-14.87,25.18 -23.69,41.45 -26.53,48.81 -2.77,7.35 -4.29,15.12 -4.43,23.23l-28.37 -16.71c0.51,-7.29 2.63,-14.93 6.23,-22.95zm33.52 -61.85c-12.24,-1.8 -28.97,-7.09 -50.33,-15.9 -12.12,-4.96 -21.04,-7.78 -26.82,-8.54 -5.86,-0.69 -11.1,0.16 -15.93,2.51 -4.76,2.41 -8.57,5.95 -11.35,10.67 -4.27,7.24 -5.07,14.83 -2.47,22.88 2.61,8.1 9.19,15.23 19.73,21.45 10.47,6.16 21.11,9.34 31.9,9.6 10.87,0.19 20.52,-2.54 29.03,-8.19 6.49,-4.38 13.31,-12.59 20.36,-24.55l5.87 -9.94z"/>
   <path id="13" class="fil1" d="M9763.65 11628.91l94.39 -159.93 24.41 14.39 -13.45 22.74c22.09,-10.65 44.24,-9.38 66.43,3.71 9.64,5.69 17.48,12.64 23.55,20.85 6.01,8.27 9.38,16.36 10.07,24.36 0.69,8 -0.41,16.3 -3.35,24.96 -2.01,5.61 -6.69,14.71 -14.09,27.28l-58 98.3 -27.11 -16 57.42 -97.28c6.51,-11.01 10.29,-19.92 11.46,-26.6 1.11,-6.69 -0.05,-13.31 -3.49,-19.74 -3.48,-6.43 -8.81,-11.79 -16,-16.04 -11.55,-6.81 -23.67,-9.04 -36.37,-6.65 -12.77,2.38 -25.13,13.83 -37.21,34.29l-51.55 87.36 -27.1 -16z"/>
   <path class="fil1" d="M10525.96 15467.68l6.53 30.17c-19.47,2.36 -32.5,7.01 -39.22,14.07 -6.71,7.07 -9.62,16.36 -8.73,27.82 0.68,8.48 3.2,15.65 7.53,21.52 4.39,5.88 9.98,9.73 16.83,11.49 6.85,1.82 17.59,2.18 32.28,1.06l175.95 -13.63 2.57 33.8 -174.04 13.45c-21.38,1.63 -38.14,0.35 -50.23,-3.89 -12.16,-4.3 -21.71,-11.8 -28.71,-22.52 -7.05,-10.72 -11.1,-23.64 -12.28,-38.73 -1.73,-22.45 3.38,-40.09 15.37,-52.99 11.94,-12.88 30.66,-20.07 56.14,-21.61z"/>
   <path id="1" class="fil1" d="M10501.38 15783.95c-10.75,-10.86 -18.63,-21.52 -23.48,-31.92 -4.9,-10.48 -7.83,-21.83 -8.78,-34.13 -1.57,-20.35 2.15,-36.33 11.29,-48.05 9.07,-11.65 21.33,-18.09 36.79,-19.27 9.08,-0.73 17.48,0.69 25.28,4.25 7.81,3.56 14.23,8.48 19.27,14.83 5.11,6.29 9.06,13.6 12.07,21.73 2.05,6.03 4.34,15.24 6.85,27.54 4.95,25.09 9.98,43.44 15.11,55.1 4.31,-0.22 7.05,-0.39 8.18,-0.5 12.77,-0.95 21.57,-4.61 26.32,-10.97 6.48,-8.56 9.12,-20.73 7.88,-36.49 -1.11,-14.81 -4.58,-25.45 -10.27,-32.1 -5.7,-6.65 -15.23,-11.12 -28.65,-13.45l1.83 -31.03c13.36,1.79 24.26,5.56 32.82,11.33 8.57,5.77 15.51,14.51 20.82,26.24 5.26,11.78 8.54,25.58 9.76,41.52 1.23,15.77 0.34,28.77 -2.57,38.9 -2.98,10.19 -7.07,17.81 -12.35,22.85 -5.28,5.11 -12.16,8.89 -20.59,11.41 -5.26,1.47 -14.87,2.73 -28.78,3.8l-41.85 3.25c-29.14,2.24 -47.53,4.3 -55.18,6.23 -7.58,1.93 -14.76,5.18 -21.59,9.68l-2.52 -32.77c6.28,-3.73 13.69,-6.43 22.36,-8zm69.8 -8.07c-5.5,-11.01 -10.78,-27.74 -15.8,-50.27 -2.85,-12.78 -5.62,-21.69 -8.34,-26.9 -2.78,-5.15 -6.46,-8.98 -11.16,-11.57 -4.69,-2.52 -9.77,-3.63 -15.21,-3.17 -8.41,0.61 -15.12,4.34 -20.23,11.11 -5.04,6.72 -7.12,16.2 -6.16,28.44 0.89,12.06 4.36,22.58 10.4,31.56 5.99,9.05 13.77,15.41 23.3,19.1 7.33,2.85 17.89,3.67 31.74,2.61l11.47 -0.9z"/>
   <polygon id="2" class="fil1" points="10485.51,15862.73 10740.93,15843.06 10743.33,15874.4 10487.99,15894.12 "/>
   <path id="3" class="fil1" d="M10524.28 16061.71c-10.75,-10.85 -18.63,-21.52 -23.48,-31.92 -4.91,-10.48 -7.83,-21.83 -8.78,-34.12 -1.57,-20.36 2.15,-36.34 11.29,-48.05 9.07,-11.65 21.33,-18.09 36.79,-19.27 9.08,-0.73 17.48,0.68 25.28,4.24 7.81,3.56 14.23,8.48 19.27,14.84 5.11,6.29 9.06,13.59 12.07,21.72 2.05,6.03 4.34,15.24 6.84,27.54 4.96,25.09 9.99,43.45 15.12,55.1 4.3,-0.22 7.05,-0.38 8.18,-0.49 12.77,-0.95 21.57,-4.61 26.32,-10.98 6.48,-8.56 9.12,-20.73 7.88,-36.48 -1.11,-14.81 -4.58,-25.45 -10.28,-32.11 -5.69,-6.64 -15.22,-11.11 -28.64,-13.45l1.83 -31.03c13.36,1.8 24.26,5.56 32.82,11.33 8.57,5.77 15.51,14.51 20.82,26.24 5.26,11.79 8.53,25.58 9.76,41.53 1.23,15.76 0.34,28.76 -2.57,38.9 -2.98,10.19 -7.07,17.81 -12.35,22.86 -5.28,5.1 -12.16,8.89 -20.59,11.41 -5.26,1.46 -14.87,2.73 -28.78,3.79l-41.86 3.25c-29.13,2.25 -47.52,4.3 -55.17,6.24 -7.58,1.92 -14.77,5.17 -21.59,9.68l-2.52 -32.78c6.29,-3.73 13.69,-6.43 22.36,-8zm69.8 -8.06c-5.5,-11.01 -10.78,-27.75 -15.8,-50.28 -2.85,-12.78 -5.62,-21.69 -8.34,-26.89 -2.78,-5.15 -6.46,-8.99 -11.16,-11.57 -4.69,-2.53 -9.77,-3.64 -15.21,-3.18 -8.41,0.62 -15.12,4.34 -20.23,11.12 -5.05,6.72 -7.12,16.2 -6.17,28.43 0.89,12.06 4.37,22.58 10.41,31.57 5.99,9.04 13.77,15.41 23.3,19.09 7.33,2.85 17.89,3.68 31.74,2.61l11.47 -0.89z"/>
   <path id="4" class="fil1" d="M10508.48 16141.21l185.02 -14.29 2.19 28.24 -26.27 2.02c21.37,12.05 33.03,30.9 34.99,56.51 0.9,11.16 -0.35,21.6 -3.61,31.25 -3.28,9.65 -8.03,17.03 -14.13,22.19 -6.17,5.16 -13.66,9.01 -22.44,11.52 -5.74,1.65 -15.83,3.02 -30.34,4.15l-113.79 8.74 -2.41 -31.34 112.53 -8.69c12.78,-1.01 22.28,-2.94 28.38,-5.88 6.17,-2.9 10.84,-7.65 14.17,-14.13 3.31,-6.49 4.6,-13.94 3.98,-22.31 -1.06,-13.37 -6.14,-24.56 -15.41,-33.62 -9.2,-9.05 -25.66,-12.66 -49.36,-10.81l-101.02 7.78 -2.47 -31.34z"/>
   <polygon id="5" class="fil1" points="10533.25,16441.47 10788.65,16421.73 10791.23,16455.52 10565.97,16472.9 10575.72,16598.7 10545.57,16601.05 "/>
   <path id="6" class="fil1" d="M10768.73 16620.57l36.06 -2.8 2.47 31.34 -36.06 2.8 -2.47 -31.34zm-219.29 16.93l185.02 -14.29 2.41 31.34 -185.02 14.29 -2.41 -31.34z"/>
   <path id="7" class="fil1" d="M10555.92 16716.6l185.02 -14.29 2.19 28.24 -26.27 2.02c21.36,12.04 33.03,30.89 34.99,56.51 0.9,11.15 -0.35,21.6 -3.61,31.25 -3.28,9.66 -8.03,17.03 -14.13,22.2 -6.17,5.16 -13.66,9 -22.44,11.52 -5.74,1.64 -15.83,3.02 -30.34,4.15l-113.79 8.74 -2.41 -31.34 112.53 -8.69c12.78,-1.01 22.28,-2.94 28.38,-5.89 6.17,-2.9 10.84,-7.64 14.16,-14.12 3.32,-6.49 4.61,-13.95 3.99,-22.31 -1.07,-13.37 -6.15,-24.56 -15.42,-33.62 -9.19,-9.05 -25.65,-12.66 -49.35,-10.81l-101.02 7.78 -2.47 -31.34z"/>
   <polygon id="8" class="fil1" points="10572.35,16915.26 10827.69,16895.53 10830.16,16926.86 10684.49,16938.14 10765.49,17006.52 10768.63,17047.12 10694.53,16981.7 10584.17,17068.58 10581.13,17029.89 10671.06,16961.41 10648.07,16940.95 10574.75,16946.59 "/>
   <path id="9" class="fil1" d="M10596.36 17214.77l27.23 -2.13c-22.02,-12.77 -33.98,-31.51 -35.94,-56.29 -0.84,-10.92 0.46,-21.24 3.91,-31.07 3.45,-9.78 8.21,-17.21 14.13,-22.25 6,-5.1 13.54,-8.94 22.57,-11.47 6.03,-1.76 15.76,-3.14 29.08,-4.21l114.63 -8.79 2.47 31.34 -102.63 7.9c-16.36,1.29 -27.35,2.74 -32.97,4.49 -8.07,2.59 -14.24,7.27 -18.46,14.05 -4.21,6.73 -5.99,14.83 -5.25,24.2 0.73,9.44 3.85,18.04 9.3,25.95 5.45,7.84 12.47,13.19 21.05,15.98 8.59,2.79 20.75,3.56 36.51,2.32l99.17 -7.62 2.41 31.35 -185.02 14.29 -2.19 -28.06z"/>
   <path id="10" class="fil1" d="M10603.37 17291.98l185.02 -14.28 2.18 28.24 -26.27 2.01c21.37,12.05 33.03,30.9 34.99,56.51 0.89,11.16 -0.35,21.6 -3.62,31.25 -3.27,9.66 -8.02,17.03 -14.12,22.19 -6.18,5.17 -13.66,9.01 -22.44,11.52 -5.75,1.65 -15.83,3.03 -30.34,4.15l-113.8 8.75 -2.41 -31.35 112.54 -8.68c12.77,-1.01 22.27,-2.94 28.38,-5.89 6.16,-2.9 10.84,-7.65 14.16,-14.12 3.31,-6.49 4.6,-13.95 3.99,-22.31 -1.07,-13.37 -6.15,-24.56 -15.42,-33.63 -9.2,-9.05 -25.65,-12.66 -49.36,-10.81l-101.02 7.79 -2.47 -31.35z"/>
   <path id="11" class="fil1" d="M10604 17485.91l-2.18 30.84c-9.33,1.98 -15.91,6.08 -19.76,12.21 -5.18,8.2 -7.26,19.05 -6.26,32.55 1.13,14.5 4.89,25.5 11.3,32.93 6.41,7.43 14.98,12.19 25.65,14.15 6.51,1.11 19.99,0.88 40.41,-0.87 -17.19,-12.44 -26.59,-28.91 -28.16,-49.31 -1.97,-25.45 5.72,-45.82 22.98,-61.18 17.27,-15.37 38.73,-24.03 64.41,-25.99 17.61,-1.4 34.19,0.58 49.57,5.8 15.42,5.21 27.68,13.63 36.76,25.13 9.07,11.5 14.25,25.43 15.48,41.79 1.68,21.85 -5.76,40.56 -22.31,56.06l22.27 -1.69 2.25 28.9 -159.89 12.33c-28.84,2.25 -49.48,0.89 -61.93,-4.07 -12.51,-4.9 -22.74,-13.47 -30.66,-25.64 -7.94,-12.21 -12.64,-27.57 -14.1,-46.14 -1.68,-22.09 1.93,-40.27 10.77,-54.67 8.91,-14.34 23.39,-22.08 43.39,-23.12zm113.12 17.34c-24.24,1.9 -41.57,8.09 -52.01,18.59 -10.38,10.52 -15.04,23.02 -13.92,37.54 1.13,14.39 7.57,26.06 19.4,34.94 11.9,8.9 29.66,12.44 53.31,10.6 22.69,-1.74 39.37,-8.1 50.11,-19.03 10.68,-10.92 15.51,-23.49 14.39,-37.65 -1.07,-13.9 -7.64,-25.34 -19.71,-34.23 -12.07,-8.89 -29.25,-12.44 -51.58,-10.76z"/>
   <path id="12" class="fil1" d="M10668.27 17807.92c-10.75,-10.85 -18.63,-21.52 -23.47,-31.92 -4.91,-10.47 -7.83,-21.83 -8.79,-34.12 -1.57,-20.36 2.15,-36.34 11.29,-48.05 9.07,-11.65 21.33,-18.09 36.79,-19.27 9.08,-0.73 17.48,0.68 25.28,4.24 7.81,3.56 14.23,8.48 19.27,14.84 5.11,6.29 9.06,13.59 12.07,21.72 2.05,6.04 4.34,15.24 6.85,27.55 4.95,25.08 9.98,43.44 15.11,55.1 4.31,-0.22 7.05,-0.38 8.18,-0.49 12.77,-0.95 21.57,-4.61 26.32,-10.98 6.48,-8.56 9.12,-20.73 7.88,-36.48 -1.11,-14.81 -4.58,-25.45 -10.27,-32.11 -5.7,-6.64 -15.23,-11.11 -28.65,-13.45l1.83 -31.03c13.36,1.8 24.26,5.56 32.82,11.33 8.57,5.77 15.51,14.51 20.82,26.24 5.26,11.79 8.54,25.58 9.76,41.53 1.23,15.76 0.34,28.76 -2.57,38.9 -2.98,10.19 -7.07,17.81 -12.35,22.86 -5.28,5.1 -12.16,8.89 -20.59,11.41 -5.26,1.47 -14.87,2.73 -28.78,3.79l-41.85 3.25c-29.14,2.25 -47.53,4.3 -55.18,6.24 -7.58,1.92 -14.76,5.17 -21.59,9.68l-2.52 -32.78c6.28,-3.73 13.69,-6.43 22.36,-8zm69.8 -8.06c-5.5,-11.01 -10.78,-27.75 -15.8,-50.28 -2.85,-12.78 -5.62,-21.69 -8.34,-26.89 -2.78,-5.15 -6.46,-8.99 -11.16,-11.57 -4.69,-2.53 -9.77,-3.64 -15.21,-3.18 -8.41,0.62 -15.12,4.34 -20.23,11.12 -5.04,6.72 -7.12,16.2 -6.16,28.43 0.89,12.06 4.36,22.58 10.4,31.57 5.99,9.04 13.77,15.41 23.3,19.09 7.33,2.85 17.89,3.68 31.74,2.62l11.47 -0.9z"/>
   <path id="13" class="fil1" d="M10652.47 17887.42l185.02 -14.29 2.19 28.24 -26.27 2.02c21.37,12.05 33.03,30.9 34.99,56.51 0.9,11.16 -0.35,21.6 -3.61,31.25 -3.27,9.65 -8.03,17.03 -14.13,22.19 -6.17,5.16 -13.66,9.01 -22.44,11.52 -5.74,1.65 -15.83,3.02 -30.33,4.15l-113.8 8.74 -2.41 -31.34 112.54 -8.69c12.77,-1.01 22.27,-2.94 28.38,-5.88 6.16,-2.9 10.84,-7.65 14.16,-14.13 3.31,-6.49 4.6,-13.94 3.98,-22.31 -1.06,-13.37 -6.14,-24.56 -15.41,-33.62 -9.2,-9.05 -25.66,-12.66 -49.36,-10.81l-101.02 7.78 -2.47 -31.34z"/>
   <path class="fil1" d="M6024.76 17908.72l6.53 30.17c-19.47,2.36 -32.5,7.01 -39.22,14.07 -6.71,7.07 -9.62,16.36 -8.73,27.82 0.68,8.48 3.2,15.65 7.53,21.52 4.39,5.88 9.98,9.73 16.83,11.49 6.85,1.82 17.59,2.18 32.28,1.06l175.95 -13.63 2.57 33.8 -174.04 13.45c-21.38,1.63 -38.14,0.35 -50.23,-3.89 -12.16,-4.3 -21.71,-11.8 -28.71,-22.52 -7.05,-10.72 -11.1,-23.64 -12.28,-38.73 -1.73,-22.45 3.38,-40.09 15.37,-52.99 11.94,-12.88 30.66,-20.07 56.14,-21.61z"/>
   <path id="1" class="fil1" d="M6000.18 18224.99c-10.75,-10.86 -18.63,-21.52 -23.48,-31.92 -4.9,-10.48 -7.83,-21.83 -8.78,-34.13 -1.57,-20.35 2.15,-36.33 11.29,-48.05 9.07,-11.65 21.33,-18.09 36.79,-19.27 9.08,-0.73 17.48,0.69 25.28,4.25 7.81,3.56 14.23,8.48 19.27,14.83 5.11,6.29 9.06,13.6 12.07,21.73 2.05,6.03 4.34,15.24 6.85,27.54 4.95,25.09 9.98,43.44 15.11,55.1 4.31,-0.22 7.05,-0.39 8.18,-0.5 12.77,-0.95 21.57,-4.61 26.32,-10.97 6.48,-8.56 9.12,-20.73 7.88,-36.49 -1.11,-14.81 -4.58,-25.45 -10.27,-32.1 -5.7,-6.65 -15.23,-11.12 -28.65,-13.45l1.83 -31.03c13.36,1.79 24.26,5.56 32.82,11.33 8.57,5.77 15.51,14.51 20.82,26.24 5.26,11.78 8.54,25.58 9.76,41.52 1.23,15.77 0.34,28.77 -2.57,38.9 -2.98,10.19 -7.07,17.81 -12.35,22.85 -5.28,5.11 -12.16,8.89 -20.59,11.41 -5.26,1.47 -14.87,2.73 -28.78,3.8l-41.85 3.25c-29.14,2.24 -47.53,4.3 -55.18,6.23 -7.58,1.93 -14.76,5.18 -21.59,9.68l-2.52 -32.77c6.28,-3.73 13.69,-6.43 22.36,-8zm69.8 -8.07c-5.5,-11.01 -10.78,-27.74 -15.8,-50.27 -2.85,-12.78 -5.62,-21.69 -8.34,-26.9 -2.78,-5.15 -6.46,-8.98 -11.16,-11.57 -4.69,-2.52 -9.77,-3.63 -15.21,-3.17 -8.41,0.61 -15.12,4.34 -20.23,11.11 -5.04,6.72 -7.12,16.2 -6.16,28.44 0.89,12.06 4.36,22.58 10.4,31.56 5.99,9.05 13.77,15.41 23.3,19.1 7.33,2.85 17.89,3.67 31.74,2.61l11.47 -0.9z"/>
   <polygon id="2" class="fil1" points="5984.31,18303.77 6239.73,18284.1 6242.13,18315.44 5986.79,18335.16 "/>
   <path id="3" class="fil1" d="M6023.08 18502.75c-10.75,-10.85 -18.63,-21.52 -23.48,-31.92 -4.91,-10.48 -7.83,-21.83 -8.78,-34.12 -1.57,-20.36 2.15,-36.34 11.29,-48.05 9.07,-11.65 21.33,-18.09 36.79,-19.27 9.08,-0.73 17.48,0.68 25.28,4.24 7.81,3.56 14.23,8.48 19.27,14.84 5.11,6.29 9.06,13.59 12.07,21.72 2.05,6.03 4.34,15.24 6.84,27.54 4.96,25.09 9.99,43.45 15.12,55.1 4.3,-0.22 7.05,-0.38 8.18,-0.49 12.77,-0.95 21.57,-4.61 26.32,-10.98 6.48,-8.56 9.12,-20.73 7.88,-36.48 -1.11,-14.81 -4.58,-25.45 -10.28,-32.11 -5.69,-6.64 -15.22,-11.11 -28.64,-13.45l1.83 -31.03c13.36,1.8 24.26,5.56 32.82,11.33 8.57,5.77 15.51,14.51 20.82,26.24 5.26,11.79 8.53,25.58 9.76,41.53 1.23,15.76 0.34,28.76 -2.57,38.9 -2.98,10.19 -7.07,17.81 -12.35,22.86 -5.28,5.1 -12.16,8.89 -20.59,11.41 -5.26,1.46 -14.87,2.73 -28.78,3.79l-41.86 3.25c-29.13,2.25 -47.52,4.3 -55.17,6.24 -7.58,1.92 -14.77,5.17 -21.59,9.68l-2.52 -32.78c6.29,-3.73 13.69,-6.43 22.36,-8zm69.8 -8.06c-5.5,-11.01 -10.78,-27.75 -15.8,-50.28 -2.85,-12.78 -5.62,-21.69 -8.34,-26.89 -2.78,-5.15 -6.46,-8.99 -11.16,-11.57 -4.69,-2.53 -9.77,-3.64 -15.21,-3.18 -8.41,0.62 -15.12,4.34 -20.23,11.12 -5.05,6.72 -7.12,16.2 -6.17,28.43 0.89,12.06 4.37,22.58 10.41,31.57 5.99,9.04 13.77,15.41 23.3,19.09 7.33,2.85 17.89,3.68 31.74,2.61l11.47 -0.89z"/>
   <path id="4" class="fil1" d="M6007.28 18582.25l185.02 -14.29 2.19 28.24 -26.27 2.02c21.37,12.05 33.03,30.9 34.99,56.51 0.9,11.16 -0.35,21.6 -3.61,31.25 -3.28,9.65 -8.03,17.03 -14.13,22.19 -6.17,5.16 -13.66,9.01 -22.44,11.52 -5.74,1.65 -15.83,3.02 -30.34,4.15l-113.79 8.74 -2.41 -31.34 112.53 -8.69c12.78,-1.01 22.28,-2.94 28.38,-5.88 6.17,-2.9 10.84,-7.65 14.17,-14.13 3.31,-6.49 4.6,-13.94 3.98,-22.31 -1.06,-13.37 -6.14,-24.56 -15.41,-33.62 -9.2,-9.05 -25.66,-12.66 -49.36,-10.81l-101.02 7.78 -2.47 -31.34z"/>
   <polygon id="5" class="fil1" points="6032.05,18882.51 6287.45,18862.77 6290.03,18896.56 6064.77,18913.94 6074.52,19039.74 6044.37,19042.09 "/>
   <path id="6" class="fil1" d="M6267.53 19061.61l36.06 -2.8 2.47 31.34 -36.06 2.8 -2.47 -31.34zm-219.29 16.93l185.02 -14.29 2.41 31.34 -185.02 14.29 -2.41 -31.34z"/>
   <path id="7" class="fil1" d="M6054.72 19157.64l185.02 -14.29 2.19 28.24 -26.27 2.02c21.36,12.04 33.03,30.89 34.99,56.51 0.9,11.15 -0.35,21.6 -3.61,31.25 -3.28,9.66 -8.03,17.03 -14.13,22.2 -6.17,5.16 -13.66,9 -22.44,11.52 -5.74,1.64 -15.83,3.02 -30.34,4.15l-113.79 8.74 -2.41 -31.34 112.53 -8.69c12.78,-1.01 22.28,-2.94 28.38,-5.89 6.17,-2.9 10.84,-7.64 14.16,-14.12 3.32,-6.49 4.61,-13.95 3.99,-22.31 -1.07,-13.37 -6.15,-24.56 -15.42,-33.62 -9.19,-9.05 -25.65,-12.66 -49.35,-10.81l-101.02 7.78 -2.47 -31.34z"/>
   <polygon id="8" class="fil1" points="6071.14,19356.3 6326.49,19336.57 6328.96,19367.9 6183.29,19379.18 6264.29,19447.56 6267.43,19488.16 6193.33,19422.74 6082.97,19509.62 6079.93,19470.93 6169.86,19402.45 6146.87,19381.99 6073.55,19387.64 "/>
   <path id="9" class="fil1" d="M6095.15 19655.81l27.23 -2.13c-22.02,-12.77 -33.98,-31.51 -35.94,-56.29 -0.84,-10.92 0.46,-21.24 3.91,-31.07 3.45,-9.78 8.21,-17.21 14.13,-22.25 6,-5.1 13.54,-8.94 22.57,-11.47 6.03,-1.76 15.76,-3.14 29.08,-4.21l114.63 -8.79 2.47 31.34 -102.63 7.9c-16.36,1.29 -27.35,2.74 -32.97,4.49 -8.07,2.59 -14.24,7.27 -18.46,14.05 -4.21,6.73 -5.99,14.83 -5.25,24.2 0.73,9.44 3.85,18.04 9.3,25.95 5.45,7.84 12.47,13.19 21.05,15.98 8.59,2.79 20.75,3.56 36.51,2.32l99.17 -7.62 2.41 31.35 -185.02 14.29 -2.19 -28.06z"/>
   <path id="10" class="fil1" d="M6102.17 19733.02l185.02 -14.28 2.18 28.24 -26.27 2.01c21.37,12.05 33.03,30.9 34.99,56.51 0.89,11.16 -0.35,21.6 -3.62,31.25 -3.27,9.66 -8.02,17.03 -14.12,22.19 -6.18,5.17 -13.66,9.01 -22.44,11.52 -5.75,1.65 -15.83,3.03 -30.34,4.15l-113.8 8.75 -2.41 -31.35 112.54 -8.68c12.77,-1.01 22.27,-2.94 28.38,-5.89 6.16,-2.9 10.84,-7.65 14.16,-14.12 3.31,-6.49 4.6,-13.95 3.99,-22.31 -1.07,-13.37 -6.15,-24.56 -15.42,-33.63 -9.2,-9.05 -25.65,-12.66 -49.36,-10.81l-101.02 7.79 -2.47 -31.35z"/>
   <path id="11" class="fil1" d="M6102.79 19926.95l-2.18 30.84c-9.33,1.98 -15.91,6.08 -19.76,12.21 -5.18,8.2 -7.26,19.05 -6.26,32.55 1.13,14.5 4.89,25.5 11.3,32.93 6.41,7.43 14.98,12.19 25.65,14.15 6.51,1.11 19.99,0.88 40.41,-0.87 -17.19,-12.44 -26.59,-28.91 -28.16,-49.31 -1.97,-25.45 5.72,-45.82 22.98,-61.18 17.27,-15.37 38.73,-24.03 64.41,-25.99 17.61,-1.4 34.19,0.58 49.57,5.8 15.42,5.21 27.68,13.63 36.76,25.13 9.07,11.5 14.25,25.43 15.48,41.79 1.68,21.85 -5.76,40.56 -22.31,56.06l22.27 -1.69 2.25 28.9 -159.89 12.33c-28.84,2.25 -49.48,0.89 -61.93,-4.07 -12.51,-4.9 -22.74,-13.47 -30.66,-25.64 -7.94,-12.21 -12.64,-27.57 -14.1,-46.14 -1.68,-22.09 1.93,-40.27 10.77,-54.67 8.91,-14.34 23.39,-22.08 43.39,-23.12zm113.12 17.34c-24.24,1.9 -41.57,8.09 -52.01,18.59 -10.38,10.52 -15.04,23.02 -13.92,37.54 1.13,14.39 7.57,26.06 19.4,34.94 11.9,8.9 29.66,12.44 53.31,10.6 22.69,-1.74 39.37,-8.1 50.11,-19.03 10.68,-10.92 15.51,-23.49 14.39,-37.65 -1.07,-13.9 -7.64,-25.34 -19.71,-34.23 -12.07,-8.89 -29.25,-12.44 -51.58,-10.76z"/>
   <path id="12" class="fil1" d="M6167.07 20248.97c-10.75,-10.85 -18.63,-21.52 -23.47,-31.92 -4.91,-10.47 -7.83,-21.83 -8.79,-34.12 -1.57,-20.36 2.15,-36.34 11.29,-48.05 9.07,-11.65 21.33,-18.09 36.79,-19.27 9.08,-0.73 17.48,0.68 25.28,4.24 7.81,3.56 14.23,8.48 19.27,14.84 5.11,6.29 9.06,13.59 12.07,21.72 2.05,6.04 4.34,15.24 6.85,27.55 4.95,25.08 9.98,43.44 15.11,55.1 4.31,-0.22 7.05,-0.38 8.18,-0.49 12.77,-0.95 21.57,-4.61 26.32,-10.98 6.48,-8.56 9.12,-20.73 7.88,-36.48 -1.11,-14.81 -4.58,-25.45 -10.27,-32.11 -5.7,-6.64 -15.23,-11.11 -28.65,-13.45l1.83 -31.03c13.36,1.8 24.26,5.56 32.82,11.33 8.57,5.77 15.51,14.51 20.82,26.24 5.26,11.79 8.54,25.58 9.76,41.53 1.23,15.76 0.34,28.76 -2.57,38.9 -2.98,10.19 -7.07,17.81 -12.35,22.86 -5.28,5.1 -12.16,8.89 -20.59,11.41 -5.26,1.47 -14.87,2.73 -28.78,3.79l-41.85 3.25c-29.14,2.25 -47.53,4.3 -55.18,6.24 -7.58,1.92 -14.76,5.17 -21.59,9.68l-2.52 -32.78c6.28,-3.73 13.69,-6.43 22.36,-8zm69.8 -8.06c-5.5,-11.01 -10.78,-27.75 -15.8,-50.28 -2.85,-12.78 -5.62,-21.69 -8.34,-26.89 -2.78,-5.15 -6.46,-8.99 -11.16,-11.57 -4.69,-2.53 -9.77,-3.64 -15.21,-3.18 -8.41,0.62 -15.12,4.34 -20.23,11.12 -5.04,6.72 -7.12,16.2 -6.16,28.43 0.89,12.06 4.36,22.58 10.4,31.57 5.99,9.04 13.77,15.41 23.3,19.09 7.33,2.85 17.89,3.68 31.74,2.62l11.47 -0.9z"/>
   <path id="13" class="fil1" d="M6151.26 20328.46l185.02 -14.29 2.19 28.24 -26.27 2.02c21.37,12.05 33.03,30.9 34.99,56.51 0.9,11.16 -0.35,21.6 -3.61,31.25 -3.27,9.65 -8.03,17.03 -14.13,22.19 -6.17,5.16 -13.66,9.01 -22.44,11.52 -5.74,1.65 -15.83,3.02 -30.33,4.15l-113.8 8.74 -2.41 -31.34 112.54 -8.69c12.77,-1.01 22.27,-2.94 28.38,-5.88 6.16,-2.9 10.84,-7.65 14.16,-14.13 3.31,-6.49 4.6,-13.94 3.98,-22.31 -1.06,-13.37 -6.14,-24.56 -15.41,-33.62 -9.2,-9.05 -25.66,-12.66 -49.36,-10.81l-101.02 7.78 -2.47 -31.34z"/>
   <path class="fil1" d="M11061.69 23432.16l10.14 -29.1c17.84,8.15 31.43,10.94 40.82,8.39 9.39,-2.55 16.66,-8.93 21.94,-19.22 3.82,-7.61 5.43,-15 4.71,-22.28 -0.66,-7.29 -3.47,-13.46 -8.38,-18.57 -4.91,-5.12 -13.87,-10.98 -26.95,-17.65l-157.2 -80.01 15.35 -30.2 155.48 79.17c19.13,9.71 32.72,19.54 40.88,29.46 8.09,9.97 12.36,21.35 12.78,34.18 0.44,12.77 -2.83,25.94 -9.68,39.42 -10.2,20.03 -23.78,32.45 -40.71,37.21 -16.94,4.75 -36.66,1.2 -59.17,-10.81z"/>
   <path id="1" class="fil1" d="M11246.8 23174.76c3.57,14.89 4.71,28.03 3.43,39.48 -1.22,11.45 -4.67,22.7 -10.24,33.69 -9.29,18.13 -20.78,29.85 -34.67,35.1 -13.83,5.2 -27.61,4.31 -41.45,-2.67 -8.09,-4.12 -14.55,-9.72 -19.38,-16.86 -4.77,-7.08 -7.69,-14.63 -8.7,-22.63 -1,-8.06 -0.64,-16.29 1.04,-24.82 1.37,-6.26 4.19,-15.3 8.52,-27.08 8.8,-23.98 14.08,-42.26 15.73,-54.83 -3.74,-2.07 -6.18,-3.39 -7.18,-3.94 -11.48,-5.76 -20.84,-7.21 -28.2,-4.29 -10,3.92 -18.55,12.92 -25.71,27.06 -6.73,13.2 -9.39,24.1 -7.96,32.71 1.42,8.61 7.25,17.43 17.45,26.4l-17.7 25.51c-10.44,-8.43 -17.82,-17.39 -22.17,-26.74 -4.28,-9.4 -5.62,-20.46 -4.02,-33.27 1.6,-12.76 6,-26.26 13.22,-40.47 7.22,-14.09 14.71,-24.7 22.52,-31.86 7.82,-7.1 15.25,-11.46 22.42,-13.07 7.12,-1.61 14.99,-1.25 23.51,0.97 5.23,1.54 14.1,5.42 26.52,11.74l37.39 19.05c26.03,13.22 42.79,21.06 50.28,23.34 7.56,2.32 15.37,3.34 23.49,3.06l-14.92 29.24c-7.28,-0.06 -15.02,-1.61 -23.23,-4.79zm-63.74 -29.46c-1.06,12.28 -5.25,29.32 -12.71,51.1 -4.22,12.37 -6.5,21.49 -6.85,27.33 -0.35,5.79 0.8,11.05 3.5,15.67 2.65,4.62 6.44,8.17 11.31,10.66 7.5,3.82 15.13,4.12 22.97,1.02 7.9,-3.1 14.59,-10.15 20.11,-21.02 5.51,-10.81 8.05,-21.6 7.61,-32.4 -0.45,-10.81 -3.77,-20.27 -9.98,-28.38 -4.78,-6.25 -13.38,-12.52 -25.75,-18.77l-10.22 -5.22z"/>
   <polygon id="2" class="fil1" points="11300.75,23115.39 11072.53,22999.22 11086.78,22971.24 11315,23087.34 "/>
   <path id="3" class="fil1" d="M11371.02 22925.28c3.57,14.89 4.72,28.03 3.44,39.48 -1.22,11.45 -4.67,22.7 -10.25,33.69 -9.28,18.13 -20.78,29.85 -34.66,35.1 -13.84,5.2 -27.62,4.31 -41.45,-2.67 -8.09,-4.12 -14.56,-9.73 -19.39,-16.87 -4.77,-7.08 -7.69,-14.62 -8.7,-22.63 -1,-8.06 -0.63,-16.29 1.05,-24.83 1.37,-6.25 4.18,-15.3 8.51,-27.08 8.8,-23.98 14.08,-42.26 15.74,-54.84 -3.75,-2.06 -6.18,-3.39 -7.19,-3.93 -11.47,-5.76 -20.83,-7.22 -28.19,-4.29 -10,3.92 -18.56,12.92 -25.71,27.06 -6.74,13.2 -9.39,24.1 -7.97,32.71 1.43,8.6 7.25,17.43 17.45,26.4l-17.7 25.51c-10.44,-8.43 -17.82,-17.39 -22.16,-26.74 -4.28,-9.41 -5.62,-20.46 -4.02,-33.27 1.6,-12.76 6,-26.27 13.22,-40.47 7.22,-14.09 14.71,-24.7 22.52,-31.86 7.81,-7.1 15.25,-11.47 22.42,-13.07 7.11,-1.61 14.99,-1.25 23.51,0.97 5.23,1.54 14.09,5.42 26.51,11.74l37.39 19.05c26.03,13.22 42.79,21.06 50.29,23.34 7.56,2.32 15.37,3.34 23.49,3.06l-14.92 29.24c-7.28,-0.06 -15.02,-1.61 -23.23,-4.79zm-63.74 -29.46c-1.05,12.28 -5.25,29.32 -12.71,51.09 -4.22,12.38 -6.51,21.49 -6.86,27.34 -0.34,5.79 0.81,11.05 3.51,15.67 2.65,4.62 6.44,8.16 11.31,10.65 7.49,3.82 15.13,4.13 22.97,1.03 7.89,-3.1 14.58,-10.15 20.1,-21.02 5.52,-10.81 8.06,-21.6 7.61,-32.4 -0.45,-10.81 -3.77,-20.27 -9.97,-28.38 -4.79,-6.25 -13.38,-12.52 -25.75,-18.78l-10.22 -5.21z"/>
   <path id="4" class="fil1" d="M11425.27 22865.25l-165.28 -84.08 12.8 -25.26 23.54 12.01c-12,-21.41 -12.18,-43.55 -0.46,-66.49 5.02,-9.99 11.48,-18.24 19.36,-24.79 7.81,-6.5 15.72,-10.38 23.61,-11.57 7.94,-1.18 16.3,-0.57 25.17,1.82 5.72,1.6 15.06,5.67 28.01,12.29l101.63 51.73 -14.25 28.05 -100.56 -51.19c-11.41,-5.83 -20.52,-9.06 -27.26,-9.78 -6.74,-0.71 -13.25,0.85 -19.43,4.74 -6.23,3.82 -11.24,9.46 -15,16.94 -6.06,11.95 -7.53,24.16 -4.36,36.67 3.17,12.56 15.32,24.19 36.48,34.98l90.28 45.92 -14.26 28z"/>
   <polygon id="5" class="fil1" points="11559.6,22595.59 11331.38,22479.5 11346.79,22449.3 11548.03,22551.69 11605.23,22439.31 11632.15,22453.01 "/>
   <path id="6" class="fil1" d="M11451.28 22319.8l-32.22 -16.45 14.26 -27.99 32.21 16.38 -14.25 28.05zm196 99.72l-165.34 -84.14 14.25 -27.99 165.34 84.07 -14.25 28.05z"/>
   <path id="7" class="fil1" d="M11682.62 22348.43l-165.29 -84.08 12.81 -25.26 23.54 12.01c-12.01,-21.41 -12.18,-43.55 -0.47,-66.49 5.03,-9.99 11.48,-18.23 19.36,-24.79 7.82,-6.5 15.72,-10.38 23.61,-11.57 7.95,-1.19 16.3,-0.58 25.18,1.82 5.72,1.6 15.05,5.67 28.01,12.29l101.62 51.74 -14.25 28.05 -100.56 -51.2c-11.41,-5.83 -20.52,-9.06 -27.25,-9.78 -6.74,-0.71 -13.26,0.85 -19.43,4.74 -6.24,3.82 -11.24,9.46 -15,16.94 -6.06,11.95 -7.54,24.17 -4.36,36.67 3.17,12.55 15.31,24.18 36.47,34.97l90.29 45.92 -14.26 28z"/>
   <polygon id="8" class="fil1" points="11771.51,22170.03 11543.29,22053.86 11557.54,22025.87 11687.64,22092.11 11654.15,21991.58 11672.65,21955.26 11701.78,22049.68 11841.21,22033.04 11823.62,22067.57 11711.26,22079.24 11720.22,22108.67 11785.77,22141.98 "/>
   <path id="9" class="fil1" d="M11906.33 21901.53l-24.25 -12.31c12.12,22.36 12.52,44.62 1.3,66.74 -4.97,9.74 -11.49,17.86 -19.48,24.42 -8.05,6.56 -15.96,10.44 -23.73,11.68 -7.71,1.18 -16.12,0.58 -25.17,-1.94 -6.08,-1.66 -15.05,-5.56 -27.01,-11.62l-102.39 -52.11 14.25 -28 91.64 46.65c14.68,7.46 24.8,11.9 30.45,13.32 8.27,1.98 15.98,1.21 23.05,-2.37 7.13,-3.59 12.79,-9.57 17.1,-17.95 4.31,-8.44 6.12,-17.37 5.59,-26.98 -0.57,-9.56 -3.78,-17.76 -9.63,-24.55 -5.86,-6.86 -15.82,-13.85 -29.96,-21.08l-88.56 -45.07 14.25 -28 165.29 84.14 -12.74 25.02z"/>
   <path id="10" class="fil1" d="M11939.96 21831.61l-165.28 -84.08 12.8 -25.26 23.54 12.01c-12.01,-21.41 -12.18,-43.55 -0.46,-66.49 5.02,-9.99 11.48,-18.23 19.36,-24.79 7.81,-6.5 15.72,-10.38 23.61,-11.57 7.94,-1.19 16.29,-0.58 25.17,1.82 5.72,1.6 15.05,5.67 28.01,12.29l101.63 51.74 -14.26 28.05 -100.55 -51.2c-11.42,-5.83 -20.52,-9.06 -27.26,-9.78 -6.74,-0.71 -13.25,0.85 -19.43,4.74 -6.24,3.82 -11.24,9.46 -15,16.94 -6.06,11.95 -7.54,24.17 -4.36,36.67 3.17,12.55 15.31,24.18 36.47,34.97l90.29 45.92 -14.26 28z"/>
   <path id="11" class="fil1" d="M12039.85 21665.48l17.86 -25.21c8.99,3.17 16.75,3.12 23.22,-0.11 8.76,-4.35 16.16,-12.52 22.29,-24.53 6.61,-13.02 9.09,-24.33 7.5,-34.02 -1.59,-9.67 -6.41,-18.19 -14.53,-25.42 -4.91,-4.34 -16.56,-11.11 -34.93,-20.34 8.2,19.59 7.68,38.56 -1.6,56.8 -11.58,22.7 -28.77,36.17 -51.48,40.28 -22.71,4.11 -45.53,0.29 -68.48,-11.36 -15.8,-8 -28.92,-18.31 -39.32,-30.76 -10.46,-12.5 -16.49,-26.04 -18.29,-40.56 -1.73,-14.57 1.13,-29.18 8.59,-43.79 9.89,-19.49 25.99,-31.6 48.16,-36.19l-19.91 -10.12 13.15 -25.86 142.88 72.73c25.73,13.1 42.65,25 50.73,35.7 8.1,10.68 12.34,23.3 12.77,37.81 0.47,14.57 -3.53,30.11 -11.96,46.76 -10.06,19.67 -22.6,33.36 -37.64,40.99 -15.04,7.63 -31.39,6.66 -49.03,-2.79zm-87.54 -73.76c21.69,11.04 39.74,14.83 54.03,11.25 14.35,-3.52 24.86,-11.79 31.48,-24.75 6.48,-12.89 7.07,-26.2 1.58,-39.98 -5.5,-13.7 -18.83,-25.99 -39.98,-36.78 -20.21,-10.31 -37.79,-13.57 -52.61,-9.8 -14.84,3.75 -25.46,11.96 -31.9,24.63 -6.36,12.42 -6.64,25.61 -0.97,39.44 5.67,13.9 18.46,25.88 38.38,36.01z"/>
   <path id="12" class="fil1" d="M12152.01 21356.82c3.57,14.89 4.72,28.03 3.44,39.48 -1.22,11.45 -4.67,22.7 -10.25,33.69 -9.28,18.13 -20.78,29.85 -34.66,35.1 -13.84,5.2 -27.62,4.31 -41.45,-2.67 -8.09,-4.12 -14.56,-9.73 -19.38,-16.87 -4.78,-7.08 -7.7,-14.62 -8.71,-22.63 -1,-8.06 -0.63,-16.29 1.05,-24.82 1.37,-6.26 4.18,-15.31 8.51,-27.08 8.81,-23.98 14.08,-42.26 15.74,-54.84 -3.75,-2.06 -6.18,-3.39 -7.19,-3.93 -11.47,-5.76 -20.83,-7.21 -28.19,-4.29 -10,3.92 -18.56,12.92 -25.71,27.06 -6.73,13.2 -9.39,24.1 -7.96,32.71 1.42,8.6 7.24,17.43 17.44,26.4l-17.7 25.51c-10.44,-8.43 -17.82,-17.39 -22.16,-26.74 -4.28,-9.41 -5.62,-20.46 -4.02,-33.27 1.6,-12.76 6,-26.27 13.22,-40.47 7.22,-14.09 14.71,-24.7 22.52,-31.86 7.81,-7.1 15.25,-11.47 22.42,-13.07 7.12,-1.61 14.99,-1.25 23.51,0.97 5.23,1.54 14.09,5.42 26.51,11.74l37.39 19.05c26.03,13.22 42.8,21.06 50.29,23.34 7.56,2.32 15.37,3.34 23.49,3.06l-14.92 29.24c-7.28,-0.06 -15.02,-1.61 -23.23,-4.79zm-63.74 -29.46c-1.05,12.28 -5.25,29.32 -12.71,51.09 -4.22,12.38 -6.51,21.49 -6.86,27.34 -0.34,5.79 0.81,11.05 3.51,15.67 2.65,4.62 6.44,8.16 11.31,10.65 7.49,3.82 15.13,4.13 22.97,1.03 7.9,-3.1 14.58,-10.15 20.1,-21.02 5.52,-10.81 8.06,-21.6 7.61,-32.4 -0.45,-10.81 -3.77,-20.27 -9.97,-28.38 -4.79,-6.25 -13.38,-12.52 -25.75,-18.78l-10.22 -5.21z"/>
   <path id="13" class="fil1" d="M12206.27 21296.79l-165.28 -84.08 12.8 -25.26 23.54 12.01c-12,-21.41 -12.18,-43.55 -0.46,-66.49 5.02,-9.99 11.48,-18.24 19.36,-24.79 7.81,-6.5 15.72,-10.38 23.61,-11.57 7.94,-1.18 16.3,-0.57 25.17,1.82 5.72,1.6 15.06,5.67 28.01,12.29l101.63 51.74 -14.25 28.05 -100.56 -51.19c-11.41,-5.83 -20.52,-9.06 -27.26,-9.78 -6.74,-0.71 -13.25,0.85 -19.43,4.74 -6.23,3.82 -11.24,9.46 -15,16.94 -6.06,11.95 -7.53,24.16 -4.36,36.67 3.17,12.56 15.32,24.19 36.48,34.98l90.28 45.92 -14.26 28z"/>
   <polygon class="fil2" points="6785.5,23501.2 6964.2,26646.36 7015.57,27128.85 7084.42,27203.52 7172.04,27209.97 7607.53,27200.32 9273.49,27095.1 10109.35,24769.98 10573.97,23376.11 10573.97,23179.54 10418.42,23094.68 8697.61,23215.28 6946.33,23340.37 6825.67,23382.85 "/>
   <polygon class="fil2" points="9861.23,12506.55 10120.35,17313.6 10370.53,21102.07 10401.22,21749.5 10433.57,22060.53 10290.19,22201.15 10236.58,22210.08 8404.89,22326.24 6903.79,22415.59 6778.7,22353.04 6734.03,22236.88 6653.61,21191.48 6626.81,20566.03 6600,20146.08 6197.86,13480.48 6054.9,10907.18 6028.07,10531.9 6108.49,10406.8 6626.73,10362.13 6760.75,10362.13 7922.31,10960.78 9691.45,11952.57 9834.42,12059.79 "/>
   <polygon class="fil2" points="13586.54,13770.68 12718.15,13460.28 12021.21,13111.81 11467.24,12852.69 11217.06,12718.66 11080.77,12647.17 10970.35,12639.56 10803.78,12792.37 10806.02,13026.92 10937.8,14972.53 11143.25,18028.31 11178.99,19475.8 11281.74,20650.76 11317.46,20883.08 11433.62,20927.76 11585.52,20923.29 12385.21,19873.41 13032.69,19042.4 14855.44,18077.41 14730.3,16299.33 14685.63,15575.59 14596.21,14208.49 14471.12,14065.54 "/>
   <polygon class="fil2" points="15350.08,19056.11 16261.46,17376.31 19692.53,19270.55 19495.96,19717.31 17222.95,19283.57 15435.94,19104.87 "/>
   <polygon class="fil2" points="15600.27,13605.73 15671.75,15785.87 21815.5,19181.21 21815.5,17362.51 21474.88,16856.56 21136.44,16665.57 19456.64,15897.16 18996.35,15696.01 18194.56,14871.86 17960.02,14744.53 "/>
   <path class="fil1" d="M12599.16 21598.76l1254.96 -1642.64c126.45,-126.45 253.06,-252.75 379.35,-379.36 289.11,-95.87 578.22,-192.17 867.01,-289 2213.04,194.6 3693.36,394.85 5834.17,1055.6l887.11 276.99 -12.53 40.24 -887.03 -276.99 -1445.83 -446.28 -2517.74 -446.4 -1853.54 -160.4 -848.51 282.84 -371.19 371.19 -1252.77 1639.78 -33.47 -25.56z"/>
   <polygon class="fil4" points="2233.62,7351.26 2662.84,6261.14 4896.62,7690.75 4976.94,8986.34 2233.62,9138.27 "/>
   <polygon class="fil4" points="2264.9,10438.32 5045.66,10291.97 4976.94,8986.34 2233.62,9138.27 "/>
   <polygon class="fil4" points="2385.94,11738.39 5120.02,11553.37 5045.66,10291.97 2264.9,10438.32 "/>
   <polygon class="fil4" points="2385.94,11738.39 2394.87,12256.63 2555.71,13033.99 5208.07,12854.49 5120.02,11553.37 "/>
   <polygon class="fil4" points="2555.71,13033.99 2535.64,13721.98 2564.67,13949.83 2752.37,13952.07 2837.25,14231.29 2877.46,14298.3 5294.7,14134.71 5208.07,12854.49 "/>
   <polygon class="fil4" points="2877.46,14298.3 3277.06,15496.19 3333.47,16080.87 5417.91,15961.77 5294.7,14134.71 "/>
   <polygon class="fil4" points="3333.47,16080.87 3672.75,17949.49 5525.94,17843.08 5417.91,15961.77 "/>
   <polygon class="fil4" points="3672.75,17949.49 3726.48,18744.12 3793.44,19761.18 5629.95,19654.45 5525.94,17843.08 "/>
   <polygon class="fil4" points="3793.44,19761.18 3903.79,21618.94 5737.91,21512.37 5629.95,19654.45 "/>
   <polygon class="fil4" points="3903.79,21618.94 4013.52,23466.45 5845.28,23360 5737.91,21512.37 "/>
   <polygon class="fil4" points="4013.52,23466.45 4109.86,25318.13 5952.84,25211.03 5845.28,23360 "/>
   <polygon class="fil4" points="4109.86,25318.13 4149.47,27197.86 4199.55,27198.7 6073.27,27069.03 5952.84,25211.03 "/>
   <polygon class="fil4" points="4149.47,27197.86 4209.18,29009.94 6198.06,28872.3 6073.27,27069.03 "/>
   <polygon class="fil4" points="4209.18,29009.94 6198.06,28872.3 6291.06,30216.19 6011.98,30391.89 5263.52,31288.4 4611.26,30645.07 4012.61,30403.82 4227.05,29617.53 "/>
   <polygon class="fil4" points="6108.49,10406.8 6760.75,10362.13 7922.31,10960.78 8041.45,13076.78 6181.18,13180.13 6028.07,10531.9 "/>
   <polygon class="fil4" points="7922.31,10960.78 9834.42,12059.79 9886.35,12972.66 8041.45,13076.78 "/>
   <polygon class="fil4" points="6181.18,13180.13 6292.26,15045.02 8157.6,14917.37 8041.45,13076.78 "/>
   <polygon class="fil4" points="8157.6,14917.37 9985.87,14818.81 9886.35,12972.66 8041.45,13076.78 "/>
   <polygon class="fil4" points="8157.6,14917.37 6292.26,15045.02 6404.31,16902.3 8264.81,16757.99 "/>
   <polygon class="fil4" points="8157.6,14917.37 9985.87,14818.81 10085.51,16667.29 8264.81,16757.99 "/>
   <polygon class="fil4" points="6404.31,16902.3 8264.81,16757.99 8363.08,18638.8 6512.78,18700.31 "/>
   <polygon class="fil4" points="8363.08,18638.8 10199.85,18517.5 10085.51,16667.29 8264.81,16757.99 "/>
   <polygon class="fil4" points="6512.78,18700.31 8363.08,18638.8 8479.2,20470.48 6626.81,20566.03 "/>
   <polygon class="fil4" points="8363.08,18638.8 10199.85,18517.5 10324.16,20399.88 8479.2,20470.48 "/>
   <polygon class="fil4" points="6626.81,20566.03 6734.03,22236.88 6841.25,22384.32 6903.79,22415.59 8603.89,22313.62 8479.2,20470.48 "/>
   <polygon class="fil4" points="8603.89,22313.62 10290.19,22201.15 10433.57,22060.53 10324.16,20399.88 8479.2,20470.48 "/>
   <polygon class="fil4" points="6946.33,23340.37 8489.58,23230.14 8568.49,25103.28 6881.97,25199.1 6785.5,23501.2 6825.67,23382.85 "/>
   <polygon class="fil4" points="8489.58,23230.14 10418.42,23094.68 10573.97,23179.54 10573.97,23325.19 10025.68,25002.74 8568.49,25103.28 "/>
   <polygon class="fil4" points="6881.97,25199.1 6982.07,26814.19 7015.57,27128.85 7084.42,27203.52 8347.07,27153.61 8231.67,25122.41 "/>
   <polygon class="fil4" points="8347.07,27153.61 9273.49,27095.1 10025.68,25002.74 8231.67,25122.41 "/>
   <polygon class="fil4" points="10930.62,14866.45 12794.71,14756.43 12718.15,13460.28 11080.77,12647.17 10970.35,12639.56 10803.78,12792.37 10850.69,13686.38 "/>
   <polygon class="fil4" points="12718.15,13460.28 14471.12,14065.54 14596.21,14208.49 14730.3,16299.33 14751.45,16337.93 12857.21,16409.41 12794.71,14756.43 "/>
   <polygon class="fil4" points="12794.71,14756.43 10930.62,14866.45 11040.53,16500.42 12857.21,16409.41 "/>
   <polygon class="fil4" points="12857.21,16409.41 12982.28,18089.2 11147.61,18204.99 11062.17,16499.33 "/>
   <polygon class="fil4" points="12857.21,16409.41 14751.45,16337.93 14855.44,18077.41 13032.69,19042.4 "/>
   <polygon class="fil4" points="11147.61,18204.99 11186.59,19562.68 11317.46,20883.08 11433.62,20927.76 11585.52,20923.29 13032.69,19042.4 12982.28,18089.2 "/>
   <polygon class="fil4" points="15350.08,19056.11 16261.46,17376.31 19692.53,19270.55 19495.96,19717.31 17222.95,19283.57 15435.94,19104.87 "/>
   <polygon class="fil4" points="15600.27,13605.73 15671.75,15785.87 17000.09,16519.97 17960.02,14744.53 "/>
   <polygon class="fil4" points="17960.02,14744.53 18194.56,14871.86 18996.35,15696.01 19456.64,15897.16 18618.23,17414.24 17000.09,16519.97 "/>
   <polygon class="fil4" points="19456.64,15897.16 21136.44,16665.57 20230.32,18305.16 18618.23,17414.24 "/>
   <polygon class="fil4" points="20230.32,18305.16 21815.5,19181.21 21815.5,17362.51 21474.88,16856.56 21136.44,16665.57 "/>
   <path class="fil1" d="M13123.26 24288.84l157.69 -276.01 42.68 6.57 74.27 311.72 -44.18 -6.8 -20.25 -94.13 -123.52 -19.02 -45.51 84.01 -41.17 -6.33zm102.95 -107.46l99.97 15.4 -18.08 -86.05c-5.42,-26.15 -9.24,-47.62 -11.6,-64.48 -6.97,18.5 -15.26,36.45 -24.88,53.97l-45.41 81.16zm203.31 154.6l45.16 -293.34 130.01 20.01c26.16,4.03 45.62,9.74 58.4,17.1 12.77,7.35 22.2,18.31 28.28,32.87 6.08,14.58 7.83,29.95 5.35,46.06 -3.21,20.83 -12.67,37.32 -28.32,49.53 -15.65,12.21 -37.81,18.01 -66.53,17.58 9.55,6.51 16.58,12.62 21.17,18.21 9.75,12.13 18.46,26.82 26.08,44.01l38.45 87.69 -48.49 -7.45 -29.39 -67.03c-8.55,-19.41 -15.84,-34.3 -21.7,-44.78 -5.94,-10.49 -11.48,-17.99 -16.72,-22.65 -5.17,-4.56 -10.71,-8.08 -16.48,-10.49 -4.23,-1.57 -11.33,-3.16 -21.38,-4.7l-44.93 -6.91 -20.05 130.29 -38.92 -5.99zm64.15 -157.89l83.3 12.83c17.75,2.73 31.83,3.01 42.36,0.85 10.54,-2.07 19.02,-6.78 25.4,-14.12 6.42,-7.26 10.36,-15.6 11.83,-25.09 2.13,-13.86 -1.09,-26.1 -9.75,-36.6 -8.65,-10.49 -23.81,-17.37 -45.46,-20.69l-92.73 -14.27 -14.94 97.08zm231.72 203.44l45.16 -293.33 211.81 32.61 -5.3 34.4 -172.88 -26.61 -13.88 90.12 161.84 24.92 -5.3 34.41 -161.84 -24.91 -15.39 99.97 179.87 27.69 -5.29 34.4 -218.79 -33.68zm240.28 36.99l157.69 -276.01 42.68 6.57 74.27 311.73 -44.18 -6.8 -20.25 -94.13 -123.52 -19.02 -45.51 84.01 -41.18 -6.35zm102.95 -107.45l99.97 15.39 -18.08 -86.04c-5.4,-26.14 -9.23,-47.63 -11.6,-64.49 -6.97,18.51 -15.26,36.46 -24.88,53.99l-45.4 81.15zm294.53 168.65l45.16 -293.34 130.02 20.01c26.16,4.04 45.62,9.74 58.39,17.1 12.77,7.35 22.2,18.31 28.28,32.88 6.08,14.56 7.83,29.93 5.35,46.05 -3.21,20.82 -12.67,37.32 -28.32,49.53 -15.65,12.2 -37.8,18.02 -66.53,17.57 9.56,6.52 16.59,12.62 21.17,18.23 9.75,12.12 18.46,26.82 26.08,43.99l38.45 87.7 -48.48 -7.46 -29.4 -67.02c-8.54,-19.42 -15.82,-34.31 -21.69,-44.79 -5.94,-10.49 -11.49,-17.99 -16.72,-22.63 -5.16,-4.57 -10.71,-8.08 -16.48,-10.5 -4.23,-1.57 -11.33,-3.14 -21.38,-4.7l-44.93 -6.91 -20.05 130.29 -38.92 -5.99zm64.15 -157.89l83.3 12.82c17.77,2.74 31.84,3.02 42.38,0.86 10.52,-2.08 19,-6.79 25.39,-14.12 6.42,-7.27 10.36,-15.61 11.82,-25.1 2.13,-13.86 -1.09,-26.1 -9.75,-36.58 -8.65,-10.5 -23.81,-17.37 -45.45,-20.7l-92.74 -14.28 -14.94 97.09zm468.21 -60.44l38.92 5.99 -26.08 169.41c-4.53,29.5 -11.5,52.4 -20.79,68.72 -9.35,16.24 -23.53,28.54 -42.55,36.73 -19.08,8.17 -42.65,10.13 -70.93,5.77 -27.37,-4.21 -49.12,-12.38 -65.07,-24.55 -16.02,-12.18 -26.35,-27.75 -31.03,-46.86 -4.69,-19.11 -4.66,-44.19 0.13,-75.27l26.07 -169.39 38.93 5.99 -26.08 169.33c-3.92,25.47 -4.42,44.68 -1.56,57.43 2.85,12.81 9.46,23.4 20.01,31.65 10.48,8.32 24.02,13.77 40.62,16.33 28.41,4.37 49.69,1 63.76,-10.03 14.08,-11.12 23.93,-35.05 29.59,-71.92l26.07 -169.33zm57.74 309.18l45.16 -293.34 58.19 8.96 37.4 218.32c3.44,20.32 5.86,35.51 7.31,45.59 4.99,-10.14 12.66,-25.04 22.96,-44.64l102.01 -193.15 51.96 8 -45.16 293.34 -37.28 -5.75 37.78 -245.4 -123.41 232.22 -34.95 -5.38 -46.2 -262.95 -38.48 249.92 -37.28 -5.74zm309.94 47.71l157.68 -276.01 42.67 6.57 74.28 311.73 -44.18 -6.8 -20.25 -94.13 -123.52 -19.02 -45.5 84.01 -41.17 -6.35zm102.94 -107.45l99.96 15.39 -18.08 -86.04c-5.41,-26.14 -9.24,-47.63 -11.6,-64.49 -6.97,18.51 -15.26,36.46 -24.88,53.99l-45.4 81.15zm204.13 154.73l45.15 -293.33 38.92 5.99 -18.61 120.85 151.59 23.34 18.61 -120.86 38.92 6 -45.16 293.33 -38.93 -5.99 21.26 -138.07 -151.58 -23.34 -21.26 138.07 -38.91 -5.99zm408.05 62.81l45.16 -293.33 110.75 17.05c19.46,3 34.19,6.24 44.23,9.67 14.04,4.62 25.42,11.05 34.15,19.24 8.73,8.27 15.13,18.9 19.21,31.9 4.09,12.99 4.96,26.76 2.74,41.31 -3.83,24.85 -15,44.73 -33.56,59.49 -18.5,14.84 -48.57,19.02 -90.1,12.62l-75.24 -11.57 -18.41 119.63 -38.92 -6zm62.64 -148.05l75.79 11.68c25.13,3.86 43.6,1.96 55.63,-5.77 11.95,-7.73 19.22,-20.03 21.85,-37.04 1.88,-12.22 0.42,-23.21 -4.44,-32.91 -4.88,-9.69 -12.17,-16.76 -21.84,-21.11 -6.3,-2.71 -18.26,-5.46 -35.8,-8.17l-75.05 -11.55 -16.14 104.88zm211.44 190.25l45.16 -293.35 211.82 32.61 -5.3 34.42 -172.9 -26.61 -13.88 90.12 161.84 24.92 -5.29 34.4 -161.84 -24.91 -15.39 99.96 179.87 27.68 -5.3 34.42 -218.78 -33.68zm272.05 41.88l45.15 -293.34 39.87 6.14 118.46 253.94 35.46 -230.24 37.28 5.73 -45.17 293.35 -39.87 -6.15 -118.46 -253.94 -35.45 230.25 -37.27 -5.74zm296.28 45.62l45.15 -293.34 101.07 15.55c22.8,3.51 40,7.55 51.59,12.21 16.2,6.47 29.46,15.71 39.77,27.66 13.49,15.49 22.47,33.93 26.98,55.45 4.58,21.55 4.81,45.4 0.79,71.56 -3.43,22.25 -9.06,41.61 -16.89,58.01 -7.83,16.4 -16.73,29.65 -26.59,39.66 -9.92,10 -20.17,17.51 -30.86,22.44 -10.63,5.01 -23.07,8.12 -37.23,9.37 -14.24,1.22 -30.19,0.46 -47.95,-2.29l-105.83 -16.29zm44.21 -28.42l62.55 9.62c19.32,2.97 34.75,3.53 46.3,1.6 11.55,-1.92 21.07,-5.63 28.64,-11.18 10.57,-7.82 19.66,-19.13 27.18,-33.92 7.51,-14.77 13.01,-33.22 16.43,-55.41 4.73,-30.72 3.31,-55.14 -4.19,-73.2 -7.49,-18.08 -18.01,-31.02 -31.57,-38.84 -9.73,-5.61 -26.17,-10.17 -49.25,-13.73l-61.52 -9.46 -34.56 224.51zm488.96 -189.79l38.92 5.99 -26.08 169.41c-4.55,29.5 -11.5,52.4 -20.79,68.72 -9.35,16.25 -23.54,28.54 -42.55,36.73 -19.1,8.17 -42.67,10.13 -70.94,5.77 -27.38,-4.21 -49.12,-12.38 -65.08,-24.55 -16.02,-12.18 -26.33,-27.75 -31.02,-46.86 -4.68,-19.1 -4.66,-44.19 0.13,-75.27l26.08 -169.39 38.92 5.99 -26.07 169.34c-3.93,25.46 -4.43,44.68 -1.56,57.43 2.85,12.81 9.46,23.39 20,31.65 10.47,8.32 24.03,13.78 40.61,16.32 28.43,4.38 49.7,1 63.77,-10.02 14.08,-11.12 23.92,-35.05 29.6,-71.92l26.07 -169.33zm58.56 309.3l45.16 -293.33 101.06 15.54c22.8,3.51 40,7.56 51.59,12.21 16.2,6.48 29.46,15.72 39.78,27.66 13.48,15.49 22.47,33.93 26.97,55.45 4.58,21.55 4.81,45.4 0.79,71.57 -3.43,22.25 -9.05,41.6 -16.89,58 -7.83,16.4 -16.72,29.66 -26.59,39.66 -9.93,10 -20.17,17.51 -30.85,22.44 -10.63,5.01 -23.07,8.12 -37.23,9.37 -14.25,1.22 -30.2,0.46 -47.95,-2.28l-105.84 -16.29zm44.21 -28.42l62.55 9.62c19.33,2.97 34.76,3.53 46.31,1.6 11.55,-1.92 21.06,-5.63 28.63,-11.18 10.58,-7.82 19.66,-19.13 27.19,-33.91 7.5,-14.78 13,-33.22 16.42,-55.42 4.73,-30.72 3.31,-55.13 -4.19,-73.2 -7.49,-18.08 -18,-31.01 -31.56,-38.84 -9.75,-5.62 -26.18,-10.18 -49.25,-13.74l-61.53 -9.46 -34.56 224.51zm488.96 -189.79l38.91 5.99 -26.07 169.41c-4.55,29.5 -11.5,52.41 -20.79,68.73 -9.35,16.24 -23.53,28.54 -42.55,36.72 -19.09,8.18 -42.67,10.13 -70.93,5.77 -27.39,-4.2 -49.12,-12.38 -65.08,-24.54 -16.01,-12.19 -26.33,-27.76 -31.02,-46.87 -4.68,-19.1 -4.65,-44.19 0.13,-75.26l26.08 -169.4 38.92 5.99 -26.07 169.34c-3.92,25.46 -4.43,44.68 -1.56,57.43 2.85,12.81 9.46,23.39 20,31.66 10.47,8.32 24.03,13.77 40.62,16.32 28.42,4.37 49.69,1 63.77,-10.03 14.07,-11.12 23.91,-35.05 29.59,-71.92l26.07 -169.33zm56.91 309.05l45.17 -293.33 38.92 5.99 -22.39 145.44 168.1 -123.01 52.58 8.09 -141.35 100 101.51 194.16 -51.21 -7.89 -81.62 -164.11 -55.15 39.04 -15.64 101.6 -38.93 -5.99z"/>
   <path class="fil1" d="M12257.18 8360.47l161.63 -282.9 43.74 6.73 76.13 319.51 -45.29 -6.97 -20.76 -96.48 -126.6 -19.49 -46.65 86.11 -42.2 -6.49zm105.52 -110.14l102.47 15.79 -18.52 -88.19c-5.55,-26.81 -9.46,-48.82 -11.9,-66.11 -7.14,18.96 -15.63,37.36 -25.5,55.32l-46.55 83.18zm208.39 158.46l46.29 -300.66 133.26 20.51c26.81,4.13 46.76,9.99 59.85,17.52 13.1,7.54 22.76,18.78 28.99,33.69 6.23,14.94 8.02,30.69 5.49,47.21 -3.28,21.35 -12.98,38.26 -29.03,50.77 -16.04,12.51 -38.74,18.46 -68.19,18.02 9.79,6.67 17,12.93 21.7,18.67 10,12.44 18.92,27.49 26.73,45.11l39.41 89.88 -49.69 -7.64 -30.13 -68.7c-8.75,-19.89 -16.23,-35.15 -22.23,-45.9 -6.09,-10.76 -11.78,-18.44 -17.14,-23.21 -5.29,-4.68 -10.98,-8.28 -16.89,-10.76 -4.34,-1.6 -11.61,-3.23 -21.91,-4.81l-46.05 -7.09 -20.56 133.54 -39.89 -6.15zm65.75 -161.83l85.38 13.15c18.2,2.79 32.64,3.09 43.43,0.88 10.8,-2.12 19.49,-6.95 26.04,-14.47 6.58,-7.44 10.61,-15.99 12.12,-25.72 2.18,-14.21 -1.11,-26.75 -10,-37.51 -8.86,-10.76 -24.4,-17.8 -46.59,-21.22l-95.06 -14.62 -15.31 99.51zm237.51 208.52l46.29 -300.67 217.1 33.42 -5.43 35.26 -177.21 -27.28 -14.23 92.38 165.88 25.54 -5.43 35.28 -165.88 -25.55 -15.78 102.48 184.37 28.38 -5.44 35.27 -224.25 -34.52zm246.3 37.91l161.62 -282.9 43.75 6.73 76.12 319.52 -45.28 -6.97 -20.76 -96.49 -126.61 -19.49 -46.65 86.11 -42.2 -6.51zm105.52 -110.13l102.47 15.78 -18.54 -88.19c-5.54,-26.79 -9.45,-48.82 -11.89,-66.1 -7.13,18.97 -15.64,37.36 -25.51,55.33l-46.54 83.18zm301.05 172.74l46.29 -300.67 113.52 17.48c19.94,3.06 35.05,6.39 45.34,9.91 14.39,4.72 26.05,11.31 35,19.71 8.94,8.47 15.5,19.38 19.69,32.7 4.19,13.32 5.08,27.44 2.79,42.33 -3.93,25.49 -15.37,45.86 -34.4,60.98 -18.96,15.21 -49.79,19.49 -92.35,12.95l-77.12 -11.87 -18.88 122.61 -39.89 -6.14zm64.2 -151.76l77.69 11.95c25.75,3.97 44.69,2.02 57.01,-5.9 12.25,-7.93 19.71,-20.53 22.4,-37.97 1.92,-12.54 0.43,-23.8 -4.55,-33.73 -5,-9.95 -12.48,-17.18 -22.39,-21.65 -6.45,-2.78 -18.71,-5.61 -36.68,-8.38l-76.93 -11.84 -16.55 107.5zm216.74 195l46.27 -300.67 217.11 33.42 -5.42 35.27 -177.22 -27.29 -14.23 92.39 165.88 25.53 -5.44 35.28 -165.87 -25.53 -15.78 102.46 184.36 28.38 -5.43 35.28 -224.24 -34.53zm280.08 43.12l46.29 -300.67 133.26 20.52c26.81,4.13 46.76,9.98 59.87,17.52 13.09,7.53 22.75,18.77 28.97,33.69 6.24,14.93 8.04,30.69 5.49,47.21 -3.28,21.33 -12.98,38.24 -29.02,50.77 -16.03,12.5 -38.73,18.46 -68.19,18.01 9.78,6.68 16.99,12.94 21.71,18.68 9.98,12.42 18.9,27.49 26.72,45.09l39.4 89.9 -49.69 -7.65 -30.11 -68.69c-8.76,-19.91 -16.23,-35.17 -22.25,-45.92 -6.07,-10.75 -11.77,-18.44 -17.14,-23.19 -5.29,-4.69 -10.98,-8.29 -16.89,-10.77 -4.33,-1.59 -11.61,-3.22 -21.91,-4.81l-46.05 -7.09 -20.55 133.54 -39.9 -6.14zm65.75 -161.84l85.4 13.15c18.2,2.8 32.62,3.1 43.43,0.89 10.79,-2.14 19.49,-6.97 26.02,-14.47 6.58,-7.45 10.62,-15.99 12.12,-25.73 2.19,-14.2 -1.12,-26.74 -9.99,-37.49 -8.88,-10.76 -24.42,-17.81 -46.6,-21.22l-95.05 -14.64 -15.33 99.52zm238.53 109.81l37.9 2.38c-0.58,15.38 1.65,28.42 6.64,39.14 5.03,10.66 13.9,20.05 26.63,28.17 12.72,8.05 27.67,13.43 44.73,16.06 15.2,2.34 28.92,2.15 41.23,-0.6 12.32,-2.76 21.89,-7.67 28.77,-14.7 6.89,-7.03 11.09,-15.2 12.51,-24.43 1.44,-9.39 -0.03,-18 -4.42,-25.91 -4.36,-7.84 -12.5,-15.1 -24.36,-21.87 -7.56,-4.33 -24.65,-11.97 -51.29,-22.88 -26.61,-10.9 -44.97,-20.11 -55.12,-27.68 -13.2,-9.77 -22.38,-20.79 -27.67,-32.99 -5.34,-12.22 -6.93,-25.28 -4.8,-39.07 2.35,-15.26 8.87,-28.8 19.5,-40.63 10.65,-11.9 24.72,-19.98 42.36,-24.3 17.58,-4.31 36.51,-4.91 56.73,-1.79 22.26,3.43 41.38,10.02 57.27,19.85 15.91,9.76 27.38,22.35 34.4,37.76 7.01,15.33 9.48,31.9 7.46,49.65l-38.66 -2.94c0.88,-19.29 -3.83,-34.71 -14.17,-46.17 -10.33,-11.56 -27.09,-19.08 -50.19,-22.63 -24.08,-3.71 -42.31,-2 -54.67,5.12 -12.34,7.13 -19.52,16.92 -21.44,29.36 -1.65,10.78 0.9,20.28 7.59,28.48 6.64,8.11 25.47,18.4 56.69,30.66 31.2,12.33 52.41,22.1 63.6,29.42 16.2,10.73 27.58,22.87 34,36.53 6.44,13.61 8.38,28.45 5.9,44.55 -2.47,16.03 -9.34,30.31 -20.67,43.02 -11.35,12.73 -26.12,21.71 -44.48,26.91 -18.35,5.21 -38.19,6.15 -59.7,2.85 -27.14,-4.19 -49.28,-11.67 -66.4,-22.4 -17.18,-10.75 -29.7,-24.86 -37.68,-42.42 -8.05,-17.49 -10.75,-36.32 -8.21,-56.49zm245.27 136.63l161.63 -282.9 43.74 6.73 76.13 319.51 -45.29 -6.97 -20.76 -96.48 -126.6 -19.49 -46.65 86.11 -42.2 -6.49zm105.52 -110.13l102.47 15.77 -18.52 -88.19c-5.56,-26.8 -9.46,-48.82 -11.9,-66.1 -7.14,18.96 -15.63,37.36 -25.5,55.32l-46.55 83.19zm243.81 163.9l-32.88 -312.85 41.29 6.35 14.74 204.1c1.71,21.39 2.89,42.58 3.48,63.44 12.84,-30.83 20.3,-48.6 22.4,-53.29l88.12 -194.42 47.93 7.38 19.69 158.86c4.74,39.42 7.12,76.12 7.07,109.98 6.91,-18.35 15.36,-39.32 25.37,-62.93l76.72 -186.07 39.97 6.15 -128.58 288 -38.72 -5.96 -27.79 -238.78c-2.36,-19.99 -3.77,-32.24 -4.29,-36.77 -5.55,13.19 -10.44,24.48 -14.6,33.79l-98.34 219.44 -41.56 -6.41zm295.9 45.56l161.63 -282.91 43.74 6.74 76.13 319.52 -45.29 -6.97 -20.76 -96.48 -126.6 -19.49 -46.65 86.11 -42.2 -6.5zm105.52 -110.13l102.47 15.77 -18.52 -88.19c-5.56,-26.79 -9.46,-48.82 -11.9,-66.1 -7.14,18.97 -15.64,37.36 -25.5,55.33l-46.55 83.18zm209.23 158.59l46.29 -300.67 39.88 6.14 -19.07 123.88 155.38 23.92 19.07 -123.87 39.89 6.13 -46.29 300.67 -39.88 -6.14 21.78 -141.51 -155.38 -23.93 -21.78 141.53 -39.89 -6.15zm268.61 41.34l161.62 -282.9 43.75 6.73 76.12 319.52 -45.28 -6.97 -20.76 -96.48 -126.61 -19.49 -46.65 86.11 -42.2 -6.51zm105.52 -110.13l102.47 15.78 -18.53 -88.19c-5.55,-26.79 -9.46,-48.82 -11.89,-66.09 -7.14,18.96 -15.64,37.34 -25.5,55.32l-46.55 83.18zm207.13 158.27l46.29 -300.67 40.87 6.29 121.41 260.28 36.33 -235.99 38.23 5.88 -46.29 300.67 -40.88 -6.3 -121.42 -260.29 -36.33 236.01 -38.21 -5.88z"/>
   <path class="fil5" d="M8193.17 2171.65l113.78 -11.3c6.86,38.06 20.58,65.9 41.43,83.79 20.84,17.88 48.95,26.76 84.32,26.76 37.39,0 65.63,-7.94 84.59,-23.81 18.96,-15.87 28.51,-34.43 28.51,-55.68 0,-13.72 -4.04,-25.29 -11.97,-34.97 -7.93,-9.55 -21.92,-17.89 -41.82,-24.88 -13.58,-4.84 -44.52,-13.18 -92.94,-25.29 -62.26,-15.6 -105.98,-34.7 -131.12,-57.43 -35.37,-31.87 -52.99,-70.74 -52.99,-116.6 0,-29.46 8.34,-57.16 24.88,-82.85 16.67,-25.69 40.62,-45.19 71.96,-58.64 31.33,-13.45 68.99,-20.18 113.38,-20.18 72.22,0 126.69,16.01 163.14,48.15 36.58,32.15 55.68,74.92 57.56,128.58l-117.01 4.04c-4.97,-29.86 -15.6,-51.25 -31.87,-64.29 -16.28,-13.04 -40.75,-19.64 -73.3,-19.64 -33.63,0 -59.98,7 -78.95,20.98 -12.24,9.02 -18.43,20.98 -18.43,36.05 0,13.71 5.78,25.41 17.35,35.1 14.66,12.51 50.3,25.42 106.93,38.87 56.62,13.31 98.45,27.3 125.48,41.56 27.16,14.39 48.41,33.89 63.74,58.77 15.33,24.88 23,55.54 23,91.99 0,33.09 -9.14,64.16 -27.57,93.07 -18.43,28.92 -44.38,50.44 -78.01,64.43 -33.62,14.12 -75.58,21.11 -125.74,21.11 -73.03,0 -129.11,-16.82 -168.25,-50.57 -39.14,-33.63 -62.41,-82.71 -70.07,-147.14z"/>
   <polygon id="1" class="fil5" points="8758.05,2358.86 8758.05,1781.08 8875.05,1781.08 8875.05,2358.86 "/>
   <polygon id="2" class="fil5" points="9116.2,2358.86 9116.2,1878.72 8945.13,1878.72 8945.13,1781.08 9403.48,1781.08 9403.48,1878.72 9233.21,1878.72 9233.21,2358.86 "/>
   <polygon id="3" class="fil5" points="9479.19,2358.86 9479.19,1781.08 9906.87,1781.08 9906.87,1878.72 9596.2,1878.72 9596.2,2007.03 9885.09,2007.03 9885.09,2104.67 9596.2,2104.67 9596.2,2261.22 9918.17,2261.22 9918.17,2358.86 "/>
   <polygon id="4" class="fil5" points="10015.82,2358.86 10015.82,1781.08 10191.06,1781.08 10294.62,2175.14 10396.97,1781.08 10572.62,1781.08 10572.62,2358.86 10464.48,2358.86 10464.08,1904.01 10350.17,2358.86 10237.73,2358.86 10124.36,1904.01 10123.95,2358.86 "/>
   <path id="5" class="fil5" d="M11210.11 2358.86l-126.01 0 -49.9 -131.54 -231.73 0 -48.01 131.54 -123.73 0 224.34 -577.78 123.59 0 231.46 577.78zm-213.84 -229.17l-80.29 -213.84 -78.01 213.84 158.3 0z"/>
   <path id="6" class="fil5" d="M11272.37 2358.86l0 -577.78 187.08 0c70.88,0 117.01,2.83 138.53,8.61 33.09,8.74 60.8,27.57 83.12,56.62 22.33,29.05 33.49,66.58 33.49,112.57 0,35.5 -6.46,65.23 -19.23,89.43 -12.92,24.21 -29.19,43.18 -48.96,57.03 -19.77,13.72 -39.94,22.86 -60.38,27.29 -27.84,5.52 -68.06,8.34 -120.78,8.34l-75.85 0 0 217.88 -117.01 0zm117.01 -480.14l0 164.62 63.61 0c45.86,0 76.39,-3.1 91.86,-9.14 15.47,-6.05 27.57,-15.47 36.31,-28.52 8.75,-12.91 13.18,-27.84 13.18,-45.05 0,-21.11 -6.19,-38.46 -18.42,-52.18 -12.38,-13.72 -27.84,-22.33 -46.81,-25.83 -13.85,-2.55 -41.69,-3.9 -83.65,-3.9l-56.08 0z"/>
   <polygon id="7" class="fil5" points="12150.21,2358.86 12150.21,1878.72 11979.13,1878.72 11979.13,1781.08 12437.48,1781.08 12437.48,1878.72 12267.21,1878.72 12267.21,2358.86 "/>
   <path id="8" class="fil5" d="M12513.2 1781.08l117.01 0 0 313.09c0,49.77 1.48,81.91 4.3,96.57 4.98,23.67 16.68,42.77 35.24,57.03 18.69,14.39 44.11,21.52 76.39,21.52 32.68,0 57.43,-6.73 74.11,-20.31 16.67,-13.58 26.63,-30.12 29.99,-49.9 3.37,-19.77 5.12,-52.45 5.12,-98.18l0 -319.82 117.01 0 0 303.82c0,69.4 -3.09,118.49 -9.41,147.14 -6.32,28.65 -17.89,52.85 -34.83,72.62 -16.81,19.77 -39.41,35.37 -67.65,47.08 -28.38,11.7 -65.23,17.62 -110.82,17.62 -55.01,0 -96.7,-6.32 -125.08,-19.11 -28.38,-12.77 -50.84,-29.31 -67.38,-49.76 -16.55,-20.44 -27.3,-41.69 -32.55,-64.15 -7.67,-33.09 -11.43,-82.05 -11.43,-146.73l0 -308.53z"/>
   <polygon id="9" class="fil5" points="13099.18,2358.86 13099.18,1785.92 13216.18,1785.92 13216.18,2261.22 13505.88,2261.22 13505.88,2358.86 "/>
   <path id="10" class="fil5" d="M13588.86 1781.08l117.01 0 0 313.09c0,49.77 1.48,81.91 4.3,96.57 4.98,23.67 16.68,42.77 35.24,57.03 18.69,14.39 44.11,21.52 76.39,21.52 32.68,0 57.43,-6.73 74.11,-20.31 16.67,-13.58 26.63,-30.12 29.99,-49.9 3.37,-19.77 5.12,-52.45 5.12,-98.18l0 -319.82 117.01 0 0 303.82c0,69.4 -3.09,118.49 -9.41,147.14 -6.32,28.65 -17.89,52.85 -34.83,72.62 -16.81,19.77 -39.41,35.37 -67.65,47.08 -28.38,11.7 -65.23,17.62 -110.82,17.62 -55.01,0 -96.7,-6.32 -125.08,-19.11 -28.38,-12.77 -50.84,-29.31 -67.38,-49.76 -16.55,-20.44 -27.3,-41.69 -32.55,-64.15 -7.67,-33.09 -11.43,-82.05 -11.43,-146.73l0 -308.53z"/>
   <polygon id="11" class="fil5" points="14171.61,2358.86 14171.61,1781.08 14284.86,1781.08 14522.63,2168.29 14522.63,1781.08 14630.77,1781.08 14630.77,2358.86 14513.9,2358.86 14279.74,1979.05 14279.74,2358.86 "/>
   <path id="12" class="fil5" d="M15023.08 2146.63l0 -97.64 250.96 0 0 230.52c-24.35,23.81 -59.71,44.65 -106.11,62.81 -46.27,18.02 -93.21,27.03 -140.81,27.03 -60.39,0 -112.98,-12.65 -157.89,-38.07 -44.79,-25.41 -78.54,-61.87 -101.14,-109.07 -22.59,-47.21 -33.89,-98.72 -33.89,-154.26 0,-60.25 12.64,-113.78 37.79,-160.72 25.29,-46.8 62.14,-82.84 110.69,-107.85 37.12,-19.24 83.12,-28.79 138.26,-28.79 71.69,0 127.77,15.07 168.12,45.19 40.21,30.26 66.16,71.82 77.73,125.08l-116.2 21.79c-8.07,-28.38 -23.4,-50.84 -45.87,-67.38 -22.32,-16.41 -50.29,-24.62 -83.92,-24.62 -50.84,0 -91.32,16.14 -121.31,48.55 -29.99,32.41 -45.06,80.43 -45.06,144.04 0,68.73 15.21,120.24 45.6,154.53 30.53,34.29 70.34,51.52 119.7,51.52 24.34,0 48.82,-4.85 73.3,-14.39 24.61,-9.55 45.59,-21.25 63.21,-34.97l0 -73.3 -133.15 0z"/>
   <path id="13" class="fil5" d="M10353.32 2682.58l231.06 0c45.87,0 79.89,1.88 102.35,5.65 22.6,3.9 42.64,11.84 60.39,23.81 17.75,12.1 32.55,28.11 44.38,48.15 11.84,20.03 17.75,42.64 17.75,67.52 0,26.9 -7.27,51.78 -21.79,74.24 -14.52,22.59 -34.29,39.41 -59.17,50.71 35.1,10.35 62,27.84 80.96,52.58 18.83,24.75 28.24,53.8 28.24,87.29 0,26.36 -6.05,51.91 -18.29,76.79 -12.24,24.88 -28.92,44.79 -50.17,59.71 -21.11,14.8 -47.21,23.94 -78.28,27.44 -19.37,2.02 -66.3,3.36 -140.68,3.9l-196.76 0 0 -577.78zm117.01 96.03l0 133.15 76.39 0c45.32,0 73.57,-0.68 84.59,-2.02 19.91,-2.29 35.64,-9.14 47.08,-20.57 11.43,-11.43 17.08,-26.37 17.08,-44.92 0,-17.89 -4.98,-32.28 -14.8,-43.44 -9.81,-11.17 -24.48,-17.89 -43.84,-20.18 -11.57,-1.34 -44.79,-2.02 -99.52,-2.02l-66.98 0zm0 229.17l0 154.94 108.13 0c41.96,0 68.72,-1.22 80.02,-3.5 17.35,-3.23 31.47,-10.9 42.36,-23.13 10.89,-12.38 16.4,-28.65 16.4,-49.23 0,-17.48 -4.16,-32.14 -12.64,-44.25 -8.34,-12.11 -20.57,-20.98 -36.45,-26.49 -15.87,-5.51 -50.44,-8.34 -103.56,-8.34l-94.28 0z"/>
   <path id="14" class="fil5" d="M10911.86 2974.97c0,-58.9 8.87,-108.4 26.49,-148.48 13.04,-29.45 31.07,-55.95 53.8,-79.35 22.73,-23.39 47.62,-40.74 74.65,-52.18 36.04,-15.21 77.6,-22.87 124.67,-22.87 85.27,0 153.32,26.5 204.56,79.35 51.1,52.99 76.66,126.56 76.66,220.84 0,93.47 -25.42,166.63 -76.13,219.36 -50.7,52.85 -118.62,79.22 -203.48,79.22 -85.94,0 -154.4,-26.23 -205.1,-78.82 -50.7,-52.45 -76.12,-124.81 -76.12,-217.07zm120.24 -3.9c0,65.5 15.2,115.12 45.45,149.02 30.26,33.75 68.72,50.71 115.26,50.71 46.67,0 84.86,-16.82 114.85,-50.3 29.86,-33.63 44.79,-83.93 44.79,-151.04 0,-66.31 -14.52,-115.8 -43.71,-148.34 -29.05,-32.68 -67.65,-48.96 -115.93,-48.96 -48.15,0 -87.02,16.55 -116.47,49.5 -29.46,33.09 -44.25,82.85 -44.25,149.42z"/>
   <polygon id="15" class="fil5" points="11693.66,3260.36 11693.66,2780.22 11522.59,2780.22 11522.59,2682.58 11980.94,2682.58 11980.94,2780.22 11810.67,2780.22 11810.67,3260.36 "/>
   <path id="16" class="fil5" d="M12017.93 2974.97c0,-58.9 8.87,-108.4 26.49,-148.48 13.04,-29.45 31.07,-55.95 53.8,-79.35 22.73,-23.39 47.62,-40.74 74.65,-52.18 36.04,-15.21 77.6,-22.87 124.67,-22.87 85.27,0 153.32,26.5 204.56,79.35 51.1,52.99 76.66,126.56 76.66,220.84 0,93.47 -25.42,166.63 -76.13,219.36 -50.7,52.85 -118.62,79.22 -203.48,79.22 -85.94,0 -154.4,-26.23 -205.1,-78.82 -50.7,-52.45 -76.12,-124.81 -76.12,-217.07zm120.24 -3.9c0,65.5 15.2,115.12 45.45,149.02 30.26,33.75 68.72,50.71 115.26,50.71 46.67,0 84.86,-16.82 114.85,-50.3 29.86,-33.63 44.79,-83.93 44.79,-151.04 0,-66.31 -14.52,-115.8 -43.71,-148.34 -29.05,-32.68 -67.65,-48.96 -115.93,-48.96 -48.15,0 -87.02,16.55 -116.47,49.5 -29.46,33.09 -44.25,82.85 -44.25,149.42z"/>
   <polygon id="17" class="fil5" points="12669.81,3260.36 12669.81,2682.58 12783.05,2682.58 13020.83,3069.79 13020.83,2682.58 13128.96,2682.58 13128.96,3260.36 13012.09,3260.36 12777.94,2880.55 12777.94,3260.36 "/>
  </g>
 </g>
</svg>
