<?xml version="1.0" encoding="UTF-8"?>
<!DOCTYPE svg PUBLIC "-//W3C//DTD SVG 1.1//EN" "http://www.w3.org/Graphics/SVG/1.1/DTD/svg11.dtd">
<!-- Creator: CorelDRAW 2019 (64-Bit) -->
<svg xmlns="http://www.w3.org/2000/svg" xml:space="preserve" width="254mm" height="197.664mm" version="1.1" style="shape-rendering:geometricPrecision; text-rendering:geometricPrecision; image-rendering:optimizeQuality; fill-rule:evenodd; clip-rule:evenodd"
viewBox="0 0 9310.56 7245.53"
 xmlns:xlink="http://www.w3.org/1999/xlink">
 <defs>
  <style type="text/css">
   <![CDATA[
    .str0 {stroke:#373435;stroke-width:7.33;stroke-miterlimit:22.9256}
    .fil0 {fill:none}
    .fil3 {fill:#332C2B}
    .fil1 {fill:#757475}
    .fil2 {fill:#373435;fill-rule:nonzero}
    .fil4 {fill:#A43234;fill-rule:nonzero}
   ]]>
  </style>
 </defs>
 <g id="Layer_x0020_1">
  <metadata id="CorelCorpID_0Corel-Layer"/>
  <g id="_1772084157936">
   <rect class="fil0" x="-0" y="-0" width="9310.56" height="7245.53"/>
   <rect class="fil1" x="724.78" y="1137.85" width="7860.99" height="310.49"/>
   <path class="fil2" d="M1463.54 1621.69c635.2,179.96 1207.99,381.12 1866.23,508.36l253.65 -540.07 12.44 5.82 -252.26 537.11 695.94 143.69 312.19 -691.39 12.54 5.65 -310.92 688.59 496.6 102.53 -569.71 1173.5 1333.19 584.36 1925.46 768.24 169.31 64.54 254.79 -573.94 12.54 5.55 -257.43 579.88 0.01 0.01 -635.86 1462.39 87.91 63.49 -119.53 224.13 -12.11 -6.46 113.89 -213.55 -87.16 -62.95 637.4 -1465.93c-49.02,-18.72 -97.94,-37.49 -146.77,-56.29l-68.33 135.91 -207.05 458.5c-1086.92,-485.26 -2174.02,-970.16 -3261.2,-1454.85l242.38 -506.15 -0.04 -0.02 568.24 -1170.48c-74.44,-15.37 -147.69,-30.16 -219.95,-44.56l-466.26 979.78 -1531.09 -490.92c-23.3,70.78 -46.81,141.47 -70.47,212.1l1417.75 466.28 -366.11 800.27 -12.49 -5.71 359.71 -786.3c-469.19,-154.31 -936.19,-306.23 -1402.32,-464.22 -84.06,250.64 -170.05,500.47 -255.5,750.82 534.69,199.8 1048.25,401.47 1578.79,614.24l74.22 -157.58 509.47 228.88 2244.29 1009.08 492.81 219.31 -313.15 640.97 38.88 121.51 -115.46 240.76 -12.39 -5.92 113.1 -235.82 -37.22 -116.31c-637.92,-337.21 -1276.91,-672.4 -1913.25,-1012.55l-109.63 252.24 -12.6 -5.49 110.07 -253.25c-106.38,-56.88 -212.68,-113.89 -318.89,-171.08l-178.02 -89.03 -97.76 233.07 -12.71 -5.33 97.94 -233.49 -236.8 -99.45 -0.05 -0.05 -474.57 -206.09 -80.6 171.12 -12.44 -5.87 238.88 -507.16 -887.74 -356.1c-393.45,-146.97 -783.41,-293.84 -1174.93,-445.29l-25.2 49.95 -12.28 -6.19 27.74 -54.98 244.72 -740.83 -278.34 -99.12 4.58 -12.98 278.07 99.04 347.49 -1051.93 -620.5 -182.79 3.87 -13.2zm2832.44 722.84c-607.43,-120.79 -1144.87,-214.51 -1708.58,-371.03 -161.88,-44.94 -325.52,-93.96 -494.11,-151.66l-347.63 1052.35 484.02 169.92 71.93 -218.71 279.06 -853.77 13.39 3.72 -277.22 847.75 1519.52 487.21 459.6 -965.79zm-2069.72 709.86c-161.72,-54.86 -323.34,-110.45 -484.92,-167.13l-242.72 734.77 471.63 182.48 256 -750.12zm4873.17 -1419.99l-1025.46 2357.22 1183.61 500.39 580.86 -1345.65 12.65 5.44 -586.27 1358.19c-402.93,-170.54 -805.94,-340.91 -1208.99,-511.12l1030.71 -2369.3 -119.51 -44.82 4.79 -12.87 894.8 335.55 -4.79 12.87 -762.41 -285.9zm-1723.6 -48.54l-770.52 1797.86 1188.56 505.26 1003.92 -2313.39 12.6 5.44 -1009.36 2325.94c-404.58,-172.04 -809.16,-344.08 -1213.79,-515.98l775.94 -1810.51 12.65 5.38zm1867.17 3338.13c-1112.32,-428.6 -2176.5,-878.04 -3268.76,-1356.13l-236.48 493.85 3235.82 1443.52c88.82,-196.67 173.03,-388.95 269.42,-581.24zm-3826.94 -158.4l474.09 205.88 0.01 -0.03 243.15 102.13c187.23,100.02 376.74,195.73 564.71,296.94l1861.08 983.83 304.99 -624.27 -479.79 -213.51 -2244.29 -1009.08 -497.18 -223.35 -226.77 481.46z"/>
   <polygon class="fil3 str0" points="2594.08,1975.35 2316.86,2823.1 2638.31,2926.17 2928.92,2061.97 "/>
   <polygon class="fil3 str0" points="2932.77,2061.12 3239.39,2133.02 2949.56,3025.97 2641.04,2924.65 "/>
   <polygon class="fil3 str0" points="3240.89,2133.34 3647,2217.29 3246.97,3121.33 2949.56,3025.97 "/>
   <polygon class="fil3 str0" points="3647,2217.29 4295.99,2344.52 4072.2,2814.76 3464.78,2629.1 "/>
   <polygon class="fil3 str0" points="3851.56,2747.32 3464.78,2629.1 3246.97,3121.33 3836.38,3310.31 4072.2,2814.76 "/>
   <polygon class="fil3 str0" points="2238.64,3058.58 2578.43,3172.74 2325.94,3938.8 1983.14,3809.4 "/>
   <polygon class="fil3 str0" points="2582.05,3173.94 2548.74,3281.85 2441.88,3606.09 2325.94,3938.8 2668.32,4080 2817.34,3637.02 2932.59,3290.07 "/>
   <polygon class="fil3 str0" points="2938.54,3292.03 2853.02,3529.6 2671.14,4071.61 3017.81,4207.2 3185.04,3695.37 3283.69,3405.49 "/>
   <polygon class="fil3 str0" points="3583.25,3648.95 3281.25,4309.1 3017.81,4207.2 3286.75,3406.49 3640.97,3522.8 3583.25,3648.95 "/>
   <polygon class="fil3 str0" points="3974.25,3567.86 3853.04,3820.99 3737.77,4061.71 4245.42,4288.18 4344.76,4094.16 4496.69,3795.18 "/>
   <polygon class="fil3 str0" points="4499.92,3796.57 4376.32,4039.45 4245.42,4288.18 4668.92,4477.11 4781.18,4268.02 4938.01,3984.75 "/>
   <polygon class="fil3 str0" points="4938.01,3984.75 4781.18,4268.02 4668.92,4477.11 5057.27,4650.35 5137.91,4499.61 5176.82,4437.61 5328.73,4150.38 "/>
   <polygon class="fil3 str0" points="5328.73,4150.38 5718.99,4313.49 5449.53,4825.34 5057.27,4650.35 "/>
   <polygon class="fil3 str0" points="5718.99,4313.49 6113.6,4475.8 5837.1,4998.24 5449.53,4825.34 "/>
   <polygon class="fil3 str0" points="6113.6,4475.8 6504.31,4633.7 6223.03,5170.4 5837.1,4998.24 "/>
   <polygon class="fil3 str0" points="6504.31,4633.7 6895.72,4788.91 6607.54,5341.94 6223.03,5170.4 "/>
   <polygon class="fil3 str0" points="7120.07,5197.49 6988.8,5504.98 6607.54,5341.94 6895.72,4788.91 7243.01,4923.99 "/>
   <polygon class="fil3 str0" points="3642.84,4284.13 3416.07,4765.59 3890.17,4971.44 4140.02,4507.49 "/>
   <polygon class="fil3 str0" points="4140.02,4507.49 4059.33,4657.32 4027.82,4715.83 3890.16,4971.47 4133.32,5073.57 4318.63,5171.2 4422.23,4972.62 4447.76,4930.06 4575.31,4703.21 "/>
   <polygon class="fil3 str0" points="4575.31,4703.21 4964.55,4878.22 4698.03,5370.51 4318.63,5171.2 "/>
   <polygon class="fil3 str0" points="4964.55,4878.22 5348.91,5051.03 5062.44,5563.15 4698.03,5370.51 "/>
   <polygon class="fil3 str0" points="5348.91,5051.03 5732.15,5223.34 5445.47,5765.64 5062.44,5563.15 "/>
   <polygon class="fil3 str0" points="5732.15,5223.34 6119.22,5397.38 5819.91,5963.57 5445.47,5765.64 "/>
   <polygon class="fil3 str0" points="6119.22,5397.38 6509.6,5557.28 6191.09,6159.8 5819.91,5963.57 "/>
   <polygon class="fil3 str0" points="6503.16,5569.46 6864.1,5730.07 6559.11,6354.34 6191.09,6159.8 "/>
   <path class="fil2" d="M5270.31 4895.94l8.93 1.97c-1.79,5.57 -2.16,9.69 -1.09,12.39 1.07,2.69 3.23,4.64 6.44,5.82 2.36,0.87 4.61,1.08 6.73,0.63 2.12,-0.47 3.87,-1.51 5.21,-3.13 1.34,-1.62 2.76,-4.5 4.27,-8.6l18.2 -49.32 9.49 3.5 -17.99 48.75c-2.21,5.98 -4.63,10.34 -7.3,13.11 -2.66,2.75 -5.86,4.4 -9.65,4.97 -3.76,0.56 -7.76,0.07 -11.98,-1.49 -6.28,-2.32 -10.41,-5.89 -12.41,-10.73 -2,-4.85 -1.62,-10.8 1.15,-17.88zm82.44 46.13c-4.29,1.58 -8.16,2.36 -11.6,2.4 -3.44,0.04 -6.88,-0.59 -10.34,-1.87 -5.7,-2.1 -9.57,-5.1 -11.61,-9.01 -2.05,-3.9 -2.27,-8.01 -0.67,-12.32 0.93,-2.53 2.37,-4.63 4.3,-6.3 1.94,-1.67 4.07,-2.77 6.4,-3.35 2.35,-0.57 4.8,-0.77 7.39,-0.55 1.9,0.19 4.67,0.72 8.31,1.57 7.4,1.79 13.03,2.71 16.8,2.78 0.48,-1.19 0.78,-1.95 0.89,-2.27 1.31,-3.56 1.41,-6.39 0.29,-8.47 -1.52,-2.81 -4.5,-5.03 -8.93,-6.66 -4.15,-1.53 -7.48,-1.93 -9.98,-1.21 -2.52,0.71 -4.91,2.75 -7.23,6.09l-8.15 -4.37c2.14,-3.39 4.52,-5.9 7.16,-7.5 2.63,-1.6 5.87,-2.38 9.72,-2.35 3.83,0.03 8.01,0.87 12.47,2.52 4.43,1.63 7.86,3.49 10.25,5.56 2.38,2.07 3.94,4.12 4.66,6.18 0.71,2.06 0.89,4.4 0.54,7.01 -0.27,1.6 -1.12,4.35 -2.55,8.24l-4.3 11.66c-3.01,8.14 -4.72,13.36 -5.16,15.67 -0.45,2.31 -0.49,4.67 -0.16,7.06l-9.19 -3.39c-0.2,-2.17 0.03,-4.55 0.7,-7.12zm6.49 -19.74c-3.68,0.12 -8.88,-0.55 -15.6,-2.02 -3.82,-0.82 -6.6,-1.19 -8.34,-1.09 -1.74,0.1 -3.24,0.62 -4.51,1.55 -1.28,0.95 -2.2,2.18 -2.77,3.71 -0.85,2.31 -0.69,4.59 0.52,6.8 1.21,2.21 3.52,3.95 6.94,5.21 3.38,1.25 6.67,1.63 9.86,1.12 3.17,-0.49 5.86,-1.79 8.04,-3.88 1.68,-1.63 3.23,-4.37 4.64,-8.22l1.23 -3.18zm12.61 34.17l26.41 -71.55 8.79 3.25 -26.41 71.55 -8.79 -3.25zm58.67 14.28c-4.29,1.58 -8.16,2.36 -11.6,2.4 -3.44,0.04 -6.88,-0.59 -10.34,-1.87 -5.7,-2.1 -9.57,-5.1 -11.61,-9.01 -2.05,-3.9 -2.27,-8.01 -0.67,-12.32 0.93,-2.53 2.37,-4.63 4.3,-6.3 1.94,-1.67 4.07,-2.77 6.4,-3.35 2.35,-0.57 4.8,-0.77 7.39,-0.55 1.9,0.19 4.67,0.72 8.31,1.57 7.4,1.79 13.03,2.71 16.8,2.78 0.48,-1.19 0.78,-1.95 0.89,-2.27 1.31,-3.56 1.41,-6.39 0.29,-8.47 -1.52,-2.81 -4.5,-5.03 -8.93,-6.66 -4.15,-1.53 -7.48,-1.93 -9.98,-1.21 -2.52,0.71 -4.91,2.75 -7.23,6.09l-8.15 -4.37c2.14,-3.39 4.52,-5.9 7.16,-7.5 2.63,-1.6 5.87,-2.38 9.72,-2.35 3.83,0.03 8.01,0.87 12.47,2.52 4.43,1.63 7.86,3.49 10.25,5.56 2.38,2.07 3.94,4.12 4.66,6.18 0.71,2.06 0.89,4.4 0.54,7.01 -0.27,1.6 -1.12,4.35 -2.55,8.24l-4.3 11.66c-3.01,8.14 -4.72,13.36 -5.16,15.67 -0.45,2.31 -0.49,4.67 -0.16,7.06l-9.19 -3.39c-0.2,-2.17 0.03,-4.55 0.7,-7.12zm6.49 -19.74c-3.68,0.12 -8.88,-0.55 -15.6,-2.02 -3.82,-0.82 -6.6,-1.19 -8.34,-1.09 -1.74,0.1 -3.24,0.62 -4.51,1.55 -1.28,0.95 -2.2,2.18 -2.77,3.71 -0.85,2.31 -0.69,4.59 0.52,6.8 1.21,2.21 3.52,3.95 6.94,5.21 3.38,1.25 6.67,1.63 9.86,1.12 3.17,-0.49 5.86,-1.79 8.04,-3.88 1.68,-1.63 3.23,-4.37 4.64,-8.22l1.23 -3.18zm12.81 34.25l19.14 -51.86 7.9 2.91 -2.72 7.36c5.88,-4.24 12.42,-5.03 19.59,-2.38 3.13,1.15 5.79,2.78 7.99,4.86 2.2,2.08 3.62,4.29 4.25,6.58 0.63,2.29 0.75,4.8 0.34,7.49 -0.29,1.75 -1.17,4.66 -2.67,8.72l-11.76 31.85 -8.79 -3.25 11.63 -31.51c1.32,-3.58 1.98,-6.39 1.95,-8.41 -0.03,-2.02 -0.72,-3.88 -2.06,-5.59 -1.34,-1.69 -3.2,-2.98 -5.53,-3.84 -3.73,-1.38 -7.38,-1.38 -10.97,-0 -3.59,1.36 -6.6,5.38 -9.05,12.01l-10.44 28.3 -8.79 -3.25z"/>
   <path class="fil2" d="M6874.01 5988.47l3.11 -8.6c5.29,2.49 9.33,3.39 12.14,2.68 2.8,-0.71 5.01,-2.6 6.61,-5.63 1.17,-2.23 1.67,-4.44 1.5,-6.59 -0.19,-2.16 -0.99,-4.03 -2.43,-5.57 -1.44,-1.54 -4.11,-3.32 -7.98,-5.35l-46.55 -24.43 4.7 -8.96 46.01 24.15c5.64,2.96 9.66,5.93 12.05,8.93 2.38,2.99 3.61,6.38 3.68,10.21 0.07,3.8 -0.94,7.71 -3.02,11.68 -3.11,5.93 -7.18,9.56 -12.25,10.92 -5.06,1.35 -10.92,0.21 -17.58,-3.45zm56.41 -75.78c1.01,4.46 1.29,8.4 0.88,11.81 -0.41,3.42 -1.48,6.74 -3.19,10.01 -2.82,5.38 -6.29,8.83 -10.44,10.34 -4.13,1.52 -8.24,1.21 -12.31,-0.92 -2.39,-1.25 -4.29,-2.95 -5.7,-5.08 -1.4,-2.14 -2.23,-4.39 -2.5,-6.78 -0.26,-2.4 -0.14,-4.86 0.41,-7.4 0.44,-1.86 1.32,-4.54 2.64,-8.04 2.73,-7.11 4.37,-12.57 4.93,-16.3 -1.11,-0.62 -1.83,-1.02 -2.13,-1.18 -3.36,-1.76 -6.15,-2.23 -8.36,-1.38 -2.98,1.14 -5.57,3.81 -7.76,7.99 -2.06,3.91 -2.88,7.17 -2.49,9.74 0.38,2.59 2.09,5.23 5.11,7.95l-5.39 7.52c-3.09,-2.56 -5.26,-5.25 -6.51,-8.07 -1.25,-2.82 -1.6,-6.13 -1.08,-9.95 0.53,-3.79 1.9,-7.83 4.11,-12.04 2.19,-4.18 4.47,-7.34 6.84,-9.44 2.36,-2.09 4.6,-3.38 6.74,-3.82 2.14,-0.44 4.48,-0.32 7.02,0.38 1.55,0.47 4.18,1.67 7.84,3.59l11 5.77c7.69,4.03 12.64,6.41 14.87,7.14 2.23,0.75 4.56,1.09 6.98,1.07l-4.55 8.68c-2.18,-0.08 -4.51,-0.62 -6.97,-1.62zm-18.74 -8.99c-0.36,3.66 -1.69,8.74 -4.01,15.22 -1.31,3.68 -2.03,6.39 -2.16,8.13 -0.13,1.74 0.19,3.29 0.96,4.67 0.77,1.39 1.87,2.46 3.32,3.23 2.18,1.14 4.46,1.28 6.81,0.36 2.35,-0.92 4.37,-2.98 6.06,-6.2 1.67,-3.19 2.47,-6.4 2.39,-9.63 -0.08,-3.21 -1.02,-6.05 -2.82,-8.47 -1.4,-1.88 -3.92,-3.76 -7.55,-5.67l-2.99 -1.63zm35.52 -8.09l-67.53 -35.44 4.35 -8.3 67.53 35.44 -4.35 8.3zm21.74 -56.34c1.01,4.46 1.29,8.4 0.88,11.81 -0.41,3.42 -1.47,6.74 -3.19,10.01 -2.82,5.38 -6.29,8.83 -10.44,10.34 -4.13,1.52 -8.24,1.21 -12.31,-0.92 -2.39,-1.25 -4.29,-2.95 -5.7,-5.08 -1.4,-2.14 -2.23,-4.39 -2.5,-6.78 -0.26,-2.4 -0.13,-4.86 0.41,-7.4 0.44,-1.86 1.32,-4.54 2.64,-8.04 2.73,-7.11 4.37,-12.57 4.93,-16.3 -1.12,-0.63 -1.83,-1.02 -2.13,-1.18 -3.36,-1.76 -6.15,-2.23 -8.36,-1.38 -2.98,1.14 -5.57,3.81 -7.76,7.99 -2.05,3.91 -2.88,7.17 -2.49,9.74 0.38,2.59 2.09,5.23 5.11,7.95l-5.39 7.52c-3.09,-2.56 -5.26,-5.25 -6.51,-8.07 -1.25,-2.82 -1.59,-6.13 -1.07,-9.95 0.52,-3.79 1.9,-7.83 4.11,-12.04 2.2,-4.18 4.47,-7.34 6.84,-9.44 2.36,-2.09 4.6,-3.38 6.74,-3.82 2.14,-0.44 4.48,-0.32 7.02,0.38 1.56,0.47 4.18,1.67 7.84,3.59l11 5.77c7.69,4.03 12.64,6.41 14.87,7.14 2.24,0.75 4.56,1.09 6.98,1.07l-4.55 8.68c-2.18,-0.08 -4.5,-0.62 -6.97,-1.62zm-18.74 -8.99c-0.36,3.66 -1.7,8.74 -4.02,15.22 -1.31,3.68 -2.03,6.39 -2.16,8.13 -0.13,1.74 0.2,3.29 0.96,4.67 0.77,1.39 1.87,2.47 3.32,3.23 2.18,1.14 4.46,1.28 6.81,0.36 2.35,-0.92 4.37,-2.98 6.06,-6.2 1.68,-3.19 2.47,-6.4 2.39,-9.63 -0.08,-3.21 -1.02,-6.05 -2.81,-8.47 -1.4,-1.88 -3.92,-3.76 -7.55,-5.67l-2.99 -1.63zm35.62 -8.27l-48.95 -25.69 3.91 -7.45 6.95 3.64c-3.45,-6.38 -3.38,-12.96 0.17,-19.74 1.55,-2.96 3.5,-5.38 5.85,-7.29 2.35,-1.92 4.72,-3.04 7.08,-3.36 2.36,-0.33 4.86,-0.12 7.47,0.63 1.7,0.51 4.47,1.76 8.3,3.78l30.06 15.77 -4.35 8.3 -29.74 -15.61c-3.38,-1.77 -6.08,-2.79 -8.08,-3.02 -2.01,-0.23 -3.94,0.22 -5.81,1.32 -1.85,1.11 -3.36,2.79 -4.52,4.99 -1.85,3.52 -2.32,7.14 -1.42,10.88 0.89,3.74 4.48,7.24 10.74,10.53l26.71 14.01 -4.35 8.3z"/>
   <path class="fil4" d="M3454.03 614.27l36.78 -3.65c2.22,12.3 6.65,21.3 13.39,27.08 6.74,5.78 15.83,8.65 27.26,8.65 12.09,0 21.22,-2.57 27.35,-7.7 6.13,-5.13 9.22,-11.13 9.22,-18 0,-4.44 -1.3,-8.17 -3.87,-11.3 -2.56,-3.09 -7.09,-5.78 -13.52,-8.05 -4.39,-1.56 -14.39,-4.26 -30.04,-8.17 -20.13,-5.04 -34.26,-11.22 -42.39,-18.57 -11.44,-10.3 -17.13,-22.87 -17.13,-37.69 0,-9.52 2.7,-18.48 8.05,-26.78 5.39,-8.31 13.13,-14.61 23.26,-18.96 10.13,-4.35 22.3,-6.52 36.65,-6.52 23.35,0 40.95,5.17 52.74,15.56 11.83,10.39 18,24.22 18.61,41.56l-37.82 1.3c-1.61,-9.65 -5.05,-16.56 -10.31,-20.78 -5.26,-4.22 -13.17,-6.35 -23.69,-6.35 -10.87,0 -19.39,2.26 -25.52,6.78 -3.96,2.91 -5.96,6.78 -5.96,11.65 0,4.43 1.87,8.21 5.61,11.35 4.74,4.04 16.26,8.21 34.57,12.56 18.3,4.3 31.82,8.83 40.56,13.43 8.78,4.65 15.65,10.96 20.61,19 4.95,8.05 7.43,17.96 7.43,29.74 0,10.7 -2.96,20.74 -8.91,30.09 -5.96,9.35 -14.35,16.3 -25.22,20.82 -10.87,4.57 -24.43,6.83 -40.65,6.83 -23.61,0 -41.74,-5.43 -54.39,-16.34 -12.65,-10.87 -20.18,-26.74 -22.65,-47.56zm182.6 60.52l0 -186.78 37.83 0 0 186.78 -37.83 0zm115.78 0l0 -155.21 -55.3 0 0 -31.56 148.17 0 0 31.56 -55.05 0 0 155.21 -37.82 0zm117.34 0l0 -186.78 138.26 0 0 31.56 -100.43 0 0 41.48 93.39 0 0 31.56 -93.39 0 0 50.61 104.08 0 0 31.56 -141.91 0zm173.47 0l0 -186.78 56.65 0 33.47 127.39 33.09 -127.39 56.78 0 0 186.78 -34.96 0 -0.13 -147.04 -36.82 147.04 -36.35 0 -36.65 -147.04 -0.13 147.04 -34.95 0zm386.08 0l-40.74 0 -16.13 -42.52 -74.91 0 -15.52 42.52 -40 0 72.52 -186.78 39.95 0 74.83 186.78zm-69.13 -74.08l-25.96 -69.13 -25.22 69.13 51.18 0zm89.26 74.08l0 -186.78 60.48 0c22.91,0 37.82,0.91 44.78,2.78 10.7,2.83 19.65,8.91 26.87,18.31 7.22,9.39 10.83,21.52 10.83,36.39 0,11.48 -2.09,21.08 -6.22,28.91 -4.18,7.82 -9.44,13.95 -15.83,18.43 -6.39,4.44 -12.91,7.39 -19.52,8.83 -9,1.79 -22,2.7 -39.04,2.7l-24.52 0 0 70.43 -37.83 0zm37.83 -155.21l0 53.21 20.56 0c14.82,0 24.69,-1 29.69,-2.95 5,-1.96 8.91,-5 11.74,-9.22 2.83,-4.18 4.26,-9 4.26,-14.57 0,-6.83 -2,-12.43 -5.96,-16.87 -4,-4.43 -9,-7.21 -15.13,-8.35 -4.48,-0.82 -13.47,-1.26 -27.04,-1.26l-18.13 0zm203.95 -31.56l74.69 0c14.83,0 25.83,0.61 33.09,1.83 7.3,1.26 13.78,3.83 19.52,7.7 5.74,3.91 10.52,9.09 14.35,15.56 3.82,6.48 5.74,13.78 5.74,21.82 0,8.69 -2.35,16.74 -7.04,24 -4.7,7.31 -11.09,12.74 -19.13,16.39 11.35,3.35 20.04,9 26.17,17 6.09,8 9.13,17.39 9.13,28.22 0,8.52 -1.96,16.78 -5.91,24.83 -3.96,8.04 -9.35,14.48 -16.22,19.3 -6.83,4.78 -15.26,7.74 -25.3,8.87 -6.26,0.65 -21.43,1.09 -45.48,1.26l-63.61 0 0 -186.78zm37.83 31.04l0 43.04 24.69 0c14.65,0 23.78,-0.22 27.35,-0.65 6.44,-0.74 11.52,-2.96 15.22,-6.65 3.7,-3.7 5.52,-8.52 5.52,-14.52 0,-5.78 -1.61,-10.44 -4.78,-14.04 -3.17,-3.61 -7.91,-5.78 -14.17,-6.52 -3.74,-0.44 -14.48,-0.65 -32.17,-0.65l-21.65 0zm0 74.08l0 50.08 34.96 0c13.56,0 22.21,-0.39 25.86,-1.13 5.61,-1.04 10.18,-3.52 13.7,-7.48 3.52,-4 5.3,-9.26 5.3,-15.91 0,-5.65 -1.35,-10.39 -4.09,-14.3 -2.69,-3.91 -6.65,-6.78 -11.78,-8.57 -5.13,-1.78 -16.3,-2.69 -33.48,-2.69l-30.48 0zm142.74 -10.61c0,-19.04 2.87,-35.05 8.56,-48 4.22,-9.52 10.04,-18.09 17.39,-25.65 7.35,-7.57 15.39,-13.17 24.13,-16.87 11.65,-4.91 25.08,-7.39 40.3,-7.39 27.57,0 49.56,8.56 66.13,25.65 16.52,17.13 24.78,40.91 24.78,71.39 0,30.22 -8.21,53.87 -24.61,70.91 -16.39,17.09 -38.34,25.6 -65.78,25.6 -27.78,0 -49.91,-8.47 -66.3,-25.48 -16.39,-16.96 -24.6,-40.35 -24.6,-70.17zm38.87 -1.26c0,21.18 4.91,37.22 14.7,48.17 9.78,10.91 22.22,16.39 37.26,16.39 15.09,0 27.44,-5.44 37.13,-16.26 9.65,-10.87 14.48,-27.13 14.48,-48.83 0,-21.43 -4.69,-37.43 -14.13,-47.95 -9.39,-10.57 -21.87,-15.83 -37.48,-15.83 -15.56,0 -28.13,5.35 -37.65,16 -9.52,10.7 -14.3,26.78 -14.3,48.3zm171.86 93.52l0 -186.78 36.6 0 76.87 125.17 0 -125.17 34.95 0 0 186.78 -37.78 0 -75.69 -122.78 0 122.78 -34.95 0zm188.38 -186.78l68.78 0c15.52,0 27.35,1.17 35.48,3.57 10.91,3.22 20.3,8.96 28.09,17.21 7.83,8.22 13.74,18.31 17.83,30.26 4.04,11.91 6.08,26.65 6.08,44.13 0,15.39 -1.91,28.61 -5.74,39.74 -4.65,13.61 -11.3,24.61 -19.96,33 -6.52,6.39 -15.35,11.34 -26.44,14.91 -8.3,2.65 -19.39,3.96 -33.3,3.96l-70.82 0 0 -186.78zm37.83 31.56l0 123.65 28.04 0c10.48,0 18.05,-0.61 22.69,-1.78 6.13,-1.52 11.18,-4.13 15.18,-7.78 4.04,-3.65 7.31,-9.65 9.82,-18 2.57,-8.35 3.83,-19.78 3.83,-34.21 0,-14.44 -1.26,-25.48 -3.83,-33.21 -2.52,-7.74 -6.08,-13.74 -10.65,-18.09 -4.57,-4.3 -10.35,-7.26 -17.39,-8.78 -5.22,-1.17 -15.52,-1.78 -30.82,-1.78l-16.87 0zm142.73 62.96c0,-19.04 2.87,-35.05 8.56,-48 4.22,-9.52 10.04,-18.09 17.39,-25.65 7.35,-7.57 15.39,-13.17 24.13,-16.87 11.65,-4.91 25.08,-7.39 40.3,-7.39 27.57,0 49.56,8.56 66.13,25.65 16.52,17.13 24.78,40.91 24.78,71.39 0,30.22 -8.22,53.87 -24.61,70.91 -16.39,17.09 -38.34,25.6 -65.78,25.6 -27.78,0 -49.91,-8.47 -66.3,-25.48 -16.39,-16.96 -24.61,-40.35 -24.61,-70.17zm38.87 -1.26c0,21.18 4.91,37.22 14.7,48.17 9.78,10.91 22.21,16.39 37.26,16.39 15.09,0 27.44,-5.44 37.13,-16.26 9.65,-10.87 14.48,-27.13 14.48,-48.83 0,-21.43 -4.7,-37.43 -14.13,-47.95 -9.39,-10.57 -21.87,-15.83 -37.48,-15.83 -15.56,0 -28.13,5.35 -37.65,16 -9.52,10.7 -14.3,26.78 -14.3,48.3zm197.51 93.52l-43.91 -186.78 38.87 0 27.78 128.3 34.08 -128.3 44.96 0 32.61 130.47 28.44 -130.47 37.95 0 -45 186.78 -40.39 0 -36.82 -139.65 -37.09 139.65 -41.48 0zm212.74 -92.26c0,-19.04 2.87,-35.05 8.56,-48 4.22,-9.52 10.04,-18.09 17.39,-25.65 7.35,-7.57 15.39,-13.17 24.13,-16.87 11.66,-4.91 25.09,-7.39 40.31,-7.39 27.57,0 49.56,8.56 66.13,25.65 16.52,17.13 24.78,40.91 24.78,71.39 0,30.22 -8.22,53.87 -24.61,70.91 -16.39,17.09 -38.35,25.6 -65.78,25.6 -27.78,0 -49.91,-8.47 -66.3,-25.48 -16.39,-16.96 -24.61,-40.35 -24.61,-70.17zm38.87 -1.26c0,21.18 4.91,37.22 14.7,48.17 9.78,10.91 22.21,16.39 37.26,16.39 15.09,0 27.43,-5.44 37.13,-16.26 9.65,-10.87 14.48,-27.13 14.48,-48.83 0,-21.43 -4.7,-37.43 -14.13,-47.95 -9.39,-10.57 -21.87,-15.83 -37.48,-15.83 -15.56,0 -28.13,5.35 -37.65,16 -9.52,10.7 -14.3,26.78 -14.3,48.3zm161.95 33l36.78 -3.65c2.21,12.3 6.65,21.3 13.39,27.08 6.74,5.78 15.82,8.65 27.26,8.65 12.09,0 21.22,-2.57 27.35,-7.7 6.13,-5.13 9.22,-11.13 9.22,-18 0,-4.44 -1.3,-8.17 -3.87,-11.3 -2.57,-3.09 -7.09,-5.78 -13.52,-8.05 -4.39,-1.56 -14.39,-4.26 -30.04,-8.17 -20.13,-5.04 -34.26,-11.22 -42.39,-18.57 -11.44,-10.3 -17.13,-22.87 -17.13,-37.69 0,-9.52 2.7,-18.48 8.05,-26.78 5.39,-8.31 13.13,-14.61 23.26,-18.96 10.13,-4.35 22.31,-6.52 36.65,-6.52 23.35,0 40.96,5.17 52.74,15.56 11.83,10.39 18,24.22 18.61,41.56l-37.83 1.3c-1.61,-9.65 -5.04,-16.56 -10.3,-20.78 -5.26,-4.22 -13.17,-6.35 -23.69,-6.35 -10.87,0 -19.39,2.26 -25.52,6.78 -3.96,2.91 -5.95,6.78 -5.95,11.65 0,4.43 1.87,8.21 5.61,11.35 4.74,4.04 16.26,8.21 34.56,12.56 18.3,4.3 31.82,8.83 40.56,13.43 8.78,4.65 15.65,10.96 20.61,19 4.96,8.05 7.43,17.96 7.43,29.74 0,10.7 -2.95,20.74 -8.91,30.09 -5.96,9.35 -14.35,16.3 -25.22,20.82 -10.87,4.57 -24.43,6.83 -40.65,6.83 -23.61,0 -41.74,-5.43 -54.39,-16.34 -12.65,-10.87 -20.17,-26.74 -22.65,-47.56zm176.08 -31.74c0,-19.04 2.87,-35.05 8.56,-48 4.22,-9.52 10.04,-18.09 17.39,-25.65 7.35,-7.57 15.39,-13.17 24.13,-16.87 11.65,-4.91 25.09,-7.39 40.3,-7.39 27.57,0 49.56,8.56 66.13,25.65 16.52,17.13 24.78,40.91 24.78,71.39 0,30.22 -8.21,53.87 -24.61,70.91 -16.39,17.09 -38.35,25.6 -65.78,25.6 -27.79,0 -49.91,-8.47 -66.3,-25.48 -16.39,-16.96 -24.61,-40.35 -24.61,-70.17zm38.87 -1.26c0,21.18 4.92,37.22 14.7,48.17 9.78,10.91 22.22,16.39 37.26,16.39 15.09,0 27.44,-5.44 37.13,-16.26 9.65,-10.87 14.48,-27.13 14.48,-48.83 0,-21.43 -4.7,-37.43 -14.13,-47.95 -9.39,-10.57 -21.87,-15.83 -37.48,-15.83 -15.56,0 -28.13,5.35 -37.65,16 -9.52,10.7 -14.3,26.78 -14.3,48.3z"/>
  </g>
 </g>
</svg>
