<?xml version="1.0" encoding="UTF-8"?>
<!DOCTYPE svg PUBLIC "-//W3C//DTD SVG 1.1//EN" "http://www.w3.org/Graphics/SVG/1.1/DTD/svg11.dtd">
<!-- Creator: CorelDRAW 2019 (64-Bit) -->
<svg xmlns="http://www.w3.org/2000/svg" xml:space="preserve" width="254mm" height="217.125mm" version="1.1" style="shape-rendering:geometricPrecision; text-rendering:geometricPrecision; image-rendering:optimizeQuality; fill-rule:evenodd; clip-rule:evenodd"
viewBox="0 0 27287.22 23325.81"
 xmlns:xlink="http://www.w3.org/1999/xlink">
 <defs>
  <style type="text/css">
   <![CDATA[
    .str0 {stroke:#373435;stroke-width:21.49;stroke-miterlimit:22.9256}
    .fil0 {fill:none}
    .fil1 {fill:#FEFEFE}
    .fil2 {fill:#332C2B}
    .fil3 {fill:#757475}
    .fil4 {fill:#373435;fill-rule:nonzero}
    .fil5 {fill:#A43234;fill-rule:nonzero}
   ]]>
  </style>
 </defs>
 <g id="Layer_x0020_1">
  <metadata id="CorelCorpID_0Corel-Layer"/>
  <g id="_2753108010864">
   <polygon class="fil0" points="-0,0 27287.22,0 27287.22,23325.81 -0,23325.81 "/>
   <polygon class="fil1 str0" points="9942.82,9559.06 11416.14,9720.12 11452.23,11698.52 16123.49,12143.9 16295.59,14954.93 11491.49,13850.9 9938.09,13491.08 "/>
   <polygon class="fil2" points="13865.34,11928.6 16123.49,12143.9 16295.59,14954.93 13893.54,14402.92 "/>
   <polygon class="fil1 str0" points="3111.37,8649.61 2409.61,11902.13 8872.01,12989.05 8872.01,9369.7 "/>
   <polygon class="fil2" points="8872.01,11179.38 8872.01,12989.05 6336.75,12562.65 6623.31,10843.54 "/>
   <polygon class="fil1 str0" points="3343.66,7597.79 4110.45,4402.74 11443.89,4990.17 11416.14,8640.01 "/>
   <polygon class="fil2" points="11443.89,4990.17 10191.98,4889.89 9620.68,8408.21 11416.14,8640.01 "/>
   <polygon class="fil3" points="8872.01,12989.05 8872.01,9369.7 3111.37,8649.61 3343.66,7597.79 11416.14,8640.01 11416.14,9720.12 9909.66,9521.16 9938.09,13491.08 13292.15,14268 16295.59,14954.93 16309.82,15108.91 16257.68,15172.91 16811.95,16134.6 17228.77,16921.01 18867.91,17432.64 24107.46,17802.16 24098.02,18882.35 19985.98,18598.11 18564.76,18474.94 16347.64,17953.8 15182.19,15812.51 8606.73,14353.41 "/>
   <path class="fil4" d="M12484.07 14256.88l41.7 -166.21 -20.84 -5.22 -41.72 166.27c-32.93,-9.82 -64.01,-27.28 -93.82,-52.9l46.09 287.27 176.24 -231.48c-38.25,7.98 -73.93,8.91 -107.66,2.27z"/>
   <path class="fil4" d="M12244.03 14981.65l-41.7 166.21 20.84 5.22 41.72 -166.27c32.93,9.82 64.01,27.28 93.82,52.9l-46.09 -287.27 -176.24 231.48c38.25,-7.98 73.93,-8.91 107.66,-2.27z"/>
   <path class="fil4" d="M12132.83 14597.93l30.84 6.01c-1.8,15.33 0.35,27.81 6.41,37.48 6.07,9.61 14.95,16.06 26.61,19.26 14.06,3.87 27.27,1.85 39.72,-5.97 12.41,-7.89 20.99,-20.49 25.75,-37.77 4.52,-16.47 3.55,-30.69 -2.98,-42.72 -6.52,-12.03 -17.31,-20.12 -32.36,-24.26 -9.36,-2.57 -18.32,-2.73 -26.93,-0.52 -8.56,2.25 -15.88,6.18 -22.01,11.79l-26.17 -11.43 55.86 -114.61 116.56 32.04 -7.58 27.59 -93.52 -25.71 -29.96 59.98c16.79,-6.04 32.92,-6.9 48.34,-2.65 20.48,5.62 35.81,17.49 45.96,35.58 10.15,18.09 12.19,38.31 6.05,60.64 -5.84,21.28 -17.08,37.98 -33.71,50.06 -20.28,14.9 -43.48,18.77 -69.52,11.61 -21.35,-5.87 -37.1,-16.67 -47.31,-32.37 -10.23,-15.71 -13.58,-33.69 -10.06,-54.03zm173.53 114.08l46.84 -170.41 25.94 7.13 -6.63 24.08c7.6,-6.86 16.57,-11.63 26.81,-14.23 10.26,-2.65 21.02,-2.41 32.35,0.71 12.59,3.46 22.21,8.94 28.82,16.34 6.61,7.47 10.29,16.31 10.99,26.62 19.03,-16.14 39.32,-21.21 60.99,-15.26 16.97,4.66 28.77,12.91 35.28,24.76 6.56,11.87 7.21,27.53 1.87,46.96l-32.11 116.83 -28.9 -7.94 29.48 -107.26c3.16,-11.5 4.46,-20.08 4,-25.68 -0.46,-5.61 -2.74,-10.59 -6.86,-15.07 -4.06,-4.48 -9.44,-7.61 -16.06,-9.42 -12.04,-3.31 -23.1,-2.05 -33.22,3.7 -10.13,5.81 -17.58,17.48 -22.39,34.99l-27.18 98.89 -28.9 -7.94 30.4 -110.6c3.52,-12.81 3.81,-23.09 0.87,-30.78 -2.94,-7.69 -9.78,-13.05 -20.44,-15.99 -8.1,-2.22 -16.19,-2.15 -24.26,0.23 -8.07,2.37 -14.76,7.24 -20.15,14.65 -5.32,7.36 -10.11,18.81 -14.37,34.3l-24.27 88.33 -28.9 -7.95z"/>
   <polygon class="fil1 str0" points="16283.74,15140.91 19208.19,15327.36 18932.97,17437.24 17228.77,16921.01 "/>
   <polygon class="fil1 str0" points="24098.02,18882.35 24116.08,19960.46 19994.56,19685.69 20032.46,21277.45 18317.52,21135.33 18033.29,21069.01 16233.08,20642.64 16768.88,18052.81 18564.76,18474.94 20005.73,18599.47 "/>
   <polygon class="fil1 str0" points="16347.64,17953.8 15182.19,15812.51 11502.91,14996.08 8606.73,14353.41 8316.87,16371.8 "/>
   <polygon class="fil2" points="5049.09,4477.93 4528.08,7750.71 3343.66,7597.79 4110.45,4402.74 "/>
   <polygon class="fil2" points="5049.09,4477.93 4968.29,4985.56 4859.03,5671.9 4528.08,7750.71 5831.49,7918.99 6023.97,6428.1 6347.53,4581.95 "/>
   <polygon class="fil2" points="6347.53,4581.95 7603.92,4682.59 7047.14,8075.94 5831.49,7918.99 6014.96,6497.97 "/>
   <polygon class="fil2" points="7603.92,4682.59 8898.22,4786.26 8330.55,8241.64 7047.14,8075.94 "/>
   <polygon class="fil2" points="8898.22,4786.26 8712.33,5917.76 8330.55,8241.64 9620.68,8408.21 9681.2,7939.4 10191.98,4889.89 "/>
   <polygon class="fil2" points="3111.37,8649.61 4337.38,8802.87 3843.43,12143.29 2409.61,11902.13 "/>
   <polygon class="fil2" points="4337.38,8802.87 5649.27,8966.85 5080.06,12351.28 3843.43,12143.29 "/>
   <polygon class="fil2" points="5649.27,8966.85 6909.86,9124.43 6336.75,12562.65 5080.06,12351.28 "/>
   <polygon class="fil2" points="6909.86,9124.43 8872.01,9369.7 8872.01,11179.38 6623.31,10843.54 "/>
   <polygon class="fil2" points="9942.82,9559.06 9940.46,11525.08 11452.23,11698.52 11416.14,9720.12 "/>
   <polygon class="fil2" points="9940.46,11525.08 9938.09,13491.08 11491.49,13850.9 11452.23,11698.52 "/>
   <polygon class="fil2" points="11452.23,11698.52 11491.49,13850.9 13893.54,14402.92 13865.34,11928.6 "/>
   <polygon class="fil2" points="16283.74,15140.91 19208.19,15327.36 18932.97,17437.24 17228.77,16921.01 "/>
   <polygon class="fil2" points="24098.02,18882.35 24116.08,19960.46 19994.56,19685.69 19985.98,18598.11 "/>
   <polygon class="fil2" points="20005.73,18599.47 20032.46,21277.45 18317.52,21135.33 18033.29,21069.01 18564.76,18474.94 "/>
   <polygon class="fil2" points="18564.76,18474.94 16768.88,18052.81 16233.08,20642.64 18033.29,21069.01 "/>
   <polygon class="fil2" points="11502.91,14996.08 11486.81,16996.26 16347.64,17953.8 15182.19,15812.51 "/>
   <polygon class="fil2" points="8606.73,14353.41 8316.87,16371.8 11486.81,16996.26 11502.91,14996.08 "/>
   <path class="fil5" d="M9083.27 1794.49l142.05 -14.11c8.56,47.52 25.69,82.27 51.72,104.6 26.02,22.33 61.12,33.41 105.28,33.41 46.68,0 81.94,-9.91 105.61,-29.72 23.68,-19.82 35.59,-42.98 35.59,-69.52 0,-17.12 -5.04,-31.56 -14.94,-43.66 -9.91,-11.91 -27.36,-22.32 -52.22,-31.06 -16.95,-6.05 -55.57,-16.46 -116.02,-31.57 -77.74,-19.48 -132.31,-43.32 -163.71,-71.69 -44.15,-39.8 -66.16,-88.33 -66.16,-145.58 0,-36.77 10.41,-71.37 31.07,-103.43 20.82,-32.07 50.71,-56.42 89.83,-73.21 39.12,-16.79 86.14,-25.18 141.54,-25.18 90.18,0 158.18,19.98 203.68,60.11 45.67,40.14 69.52,93.53 71.87,160.52l-146.08 5.04c-6.21,-37.28 -19.48,-63.97 -39.79,-80.26 -20.33,-16.29 -50.88,-24.52 -91.52,-24.52 -41.97,0 -74.88,8.73 -98.56,26.19 -15.28,11.26 -23,26.2 -23,45 0,17.12 7.22,31.73 21.66,43.83 18.3,15.61 62.79,31.73 133.48,48.52 70.7,16.63 122.91,34.09 156.67,51.89 33.92,17.96 60.45,42.32 79.58,73.37 19.14,31.07 28.72,69.35 28.72,114.85 0,41.31 -11.42,80.09 -34.42,116.2 -23,36.1 -55.41,62.96 -97.39,80.42 -41.98,17.63 -94.37,26.36 -157,26.36 -91.18,0 -161.19,-20.99 -210.06,-63.14 -48.86,-41.97 -77.91,-103.26 -87.48,-183.68zm705.22 233.72l0 -721.34 146.08 0 0 721.34 -146.08 0zm447.15 0l0 -599.44 -213.58 0 0 -121.9 572.24 0 0 121.9 -212.57 0 0 599.44 -146.08 0zm453.19 0l0 -721.34 533.95 0 0 121.9 -387.87 0 0 160.19 360.66 0 0 121.9 -360.66 0 0 195.45 401.97 0 0 121.9 -548.05 0zm669.96 0l0 -721.34 218.79 0 129.29 491.98 127.78 -491.98 219.29 0 0 721.34 -135 0 -0.5 -567.88 -142.22 567.88 -140.38 0 -141.55 -567.88 -0.5 567.88 -135 0zm1491.04 0l-157.33 0 -62.3 -164.22 -289.31 0 -59.95 164.22 -154.47 0 280.07 -721.34 154.31 0 288.98 721.34zm-266.99 -286.12l-100.23 -266.97 -97.4 266.97 197.63 0zm344.72 286.12l0 -721.34 233.56 0c88.48,0 146.07,3.52 172.94,10.74 41.31,10.91 75.9,34.42 103.77,70.69 27.88,36.27 41.81,83.12 41.81,140.54 0,44.34 -8.06,81.44 -24.01,111.66 -16.11,30.22 -36.44,53.9 -61.12,71.19 -24.69,17.12 -49.87,28.54 -75.39,34.09 -34.75,6.89 -84.96,10.41 -150.78,10.41l-94.7 0 0 272.01 -146.08 0zm146.08 -599.44l0 205.52 79.41 0c57.26,0 95.38,-3.87 114.68,-11.42 19.32,-7.55 34.43,-19.31 45.35,-35.6 10.9,-16.11 16.45,-34.75 16.45,-56.24 0,-26.36 -7.72,-48.03 -23,-65.16 -15.45,-17.12 -34.75,-27.87 -58.43,-32.24 -17.3,-3.19 -52.05,-4.87 -104.44,-4.87l-70.01 0zm1123.15 334.47l0 -121.9 313.32 0 0 287.79c-30.39,29.73 -74.56,55.76 -132.48,78.42 -57.77,22.5 -116.36,33.74 -175.8,33.74 -75.39,0 -141.04,-15.78 -197.12,-47.52 -55.92,-31.73 -98.06,-77.24 -126.27,-136.18 -28.21,-58.94 -42.32,-123.24 -42.32,-192.59 0,-75.22 15.79,-142.05 47.18,-200.65 31.57,-58.44 77.58,-103.43 138.19,-134.66 46.35,-24.01 103.78,-35.94 172.62,-35.94 89.49,0 159.51,18.8 209.89,56.41 50.2,37.78 82.61,89.67 97.05,156.16l-145.07 27.2c-10.08,-35.43 -29.22,-63.47 -57.26,-84.12 -27.87,-20.49 -62.79,-30.74 -104.78,-30.74 -63.47,0 -114,20.15 -151.45,60.62 -37.44,40.46 -56.25,100.4 -56.25,179.83 0,85.8 18.97,150.11 56.93,192.92 38.12,42.82 87.81,64.32 149.44,64.32 30.39,0 60.96,-6.05 91.51,-17.97 30.74,-11.91 56.93,-26.52 78.92,-43.65l0 -91.52 -166.23 0zm448.16 264.97l0 -721.34 306.77 0c77.07,0 133.16,6.55 168.07,19.48 35.1,12.92 62.98,35.94 83.96,69.01 20.99,33.24 31.57,71.02 31.57,113.67 0,54.23 -15.78,98.9 -47.52,134.16 -31.75,35.26 -79.09,57.43 -142.23,66.66 31.4,18.31 57.26,38.45 77.58,60.45 20.49,21.99 48.02,61.12 82.61,117.2l87.99 140.71 -174.12 0 -104.44 -157.5c-37.44,-55.91 -63.14,-91.18 -77.07,-105.78 -13.76,-14.44 -28.37,-24.52 -43.82,-29.89 -15.62,-5.38 -40.14,-8.07 -73.72,-8.07l-29.54 0 0 301.23 -146.08 0zm146.08 -416.08l107.8 0c69.85,0 113.34,-3.03 130.8,-8.91 17.3,-5.88 31.07,-16.11 40.8,-30.55 9.92,-14.44 14.78,-32.57 14.78,-54.24 0,-24.34 -6.55,-43.82 -19.48,-58.94 -12.93,-14.94 -31.23,-24.34 -54.75,-28.2 -11.91,-1.69 -47.34,-2.52 -106.28,-2.52l-113.67 0 0 183.36zm1231.28 416.08l-157.33 0 -62.3 -164.22 -289.31 0 -59.95 164.22 -154.47 0 280.07 -721.34 154.31 0 288.98 721.34zm-266.99 -286.12l-100.23 -266.97 -97.4 266.97 197.63 0zm344.72 -435.22l288.47 0c57.25,0 99.74,2.35 127.78,7.05 28.21,4.88 53.22,14.78 75.38,29.73 22.17,15.12 40.64,35.09 55.41,60.11 14.78,25.02 22.16,53.23 22.16,84.29 0,33.58 -9.07,64.65 -27.2,92.69 -18.13,28.21 -42.81,49.19 -73.88,63.3 43.83,12.93 77.41,34.76 101.08,65.66 23.52,30.89 35.27,67.15 35.27,108.97 0,32.92 -7.56,64.81 -22.84,95.88 -15.28,31.06 -36.1,55.91 -62.63,74.55 -26.36,18.48 -58.94,29.89 -97.72,34.26 -24.18,2.51 -82.79,4.19 -175.64,4.87l-245.65 0 0 -721.34zm146.08 119.89l0 166.23 95.37 0c56.58,0 91.85,-0.84 105.61,-2.52 24.86,-2.85 44.5,-11.41 58.77,-25.69 14.27,-14.27 21.32,-32.91 21.32,-56.08 0,-22.33 -6.22,-40.3 -18.48,-54.24 -12.26,-13.93 -30.55,-22.32 -54.74,-25.18 -14.44,-1.68 -55.92,-2.51 -124.25,-2.51l-83.61 0zm0 286.11l0 193.44 135 0c52.38,0 85.8,-1.51 99.91,-4.37 21.66,-4.03 39.29,-13.6 52.89,-28.88 13.6,-15.45 20.49,-35.76 20.49,-61.45 0,-21.83 -5.21,-40.14 -15.79,-55.24 -10.41,-15.12 -25.69,-26.2 -45.5,-33.08 -19.81,-6.89 -62.96,-10.42 -129.29,-10.42l-117.7 0zm1231.28 315.34l-157.33 0 -62.3 -164.22 -289.31 0 -59.95 164.22 -154.47 0 280.07 -721.34 154.31 0 288.98 721.34zm-266.99 -286.12l-100.23 -266.97 -97.4 266.97 197.63 0zm680.2 21.15l0 -121.9 313.32 0 0 287.79c-30.39,29.73 -74.56,55.76 -132.48,78.42 -57.77,22.5 -116.36,33.74 -175.8,33.74 -75.39,0 -141.04,-15.78 -197.12,-47.52 -55.92,-31.73 -98.06,-77.24 -126.27,-136.18 -28.21,-58.94 -42.32,-123.24 -42.32,-192.59 0,-75.22 15.79,-142.05 47.18,-200.65 31.57,-58.44 77.58,-103.43 138.19,-134.66 46.35,-24.01 103.78,-35.94 172.62,-35.94 89.49,0 159.51,18.8 209.89,56.41 50.2,37.78 82.61,89.67 97.05,156.16l-145.07 27.2c-10.08,-35.43 -29.22,-63.47 -57.26,-84.12 -27.87,-20.49 -62.79,-30.74 -104.78,-30.74 -63.47,0 -114,20.15 -151.45,60.62 -37.44,40.46 -56.25,100.4 -56.25,179.83 0,85.8 18.97,150.11 56.93,192.92 38.12,42.82 87.81,64.32 149.44,64.32 30.39,0 60.96,-6.05 91.51,-17.97 30.74,-11.91 56.93,-26.52 78.92,-43.65l0 -91.52 -166.23 0z"/>
  </g>
 </g>
</svg>
