<?xml version="1.0" encoding="UTF-8"?>
<!DOCTYPE svg PUBLIC "-//W3C//DTD SVG 1.1//EN" "http://www.w3.org/Graphics/SVG/1.1/DTD/svg11.dtd">
<!-- Creator: CorelDRAW 2019 (64-Bit) -->
<svg xmlns="http://www.w3.org/2000/svg" xml:space="preserve" width="254mm" height="217.125mm" version="1.1" style="shape-rendering:geometricPrecision; text-rendering:geometricPrecision; image-rendering:optimizeQuality; fill-rule:evenodd; clip-rule:evenodd"
viewBox="0 0 18318.24 15658.89"
 xmlns:xlink="http://www.w3.org/1999/xlink">
 <defs>
  <style type="text/css">
   <![CDATA[
    .fil0 {fill:none}
    .fil2 {fill:#FEFEFE}
    .fil4 {fill:#332C2B}
    .fil1 {fill:#757475}
    .fil3 {fill:#373435;fill-rule:nonzero}
    .fil5 {fill:#A43234;fill-rule:nonzero}
   ]]>
  </style>
 </defs>
 <g id="Layer_x0020_1">
  <metadata id="CorelCorpID_0Corel-Layer"/>
  <g id="_2363002195696">
   <polygon class="fil0" points="-0,0 18318.24,0 18318.24,15658.89 -0,15658.89 "/>
   <g>
    <path class="fil1" d="M5494.94 13806.32l-2593.29 -6421.4 13727.83 61.75 82.33 3704.67 102.91 2531.52 144.09 1296.6 -3478.27 0 -7985.61 -1173.14zm-617.52 -5485.01l-20.58 1358.38 1358.38 3210.7 9492.76 1291.67 -161.12 -3115.55 -49.41 -2704.04 -10620.03 -41.16z"/>
    <polygon class="fil2" points="4877.42,8321.31 4856.84,9679.68 6215.22,12890.39 15707.98,14182.06 15546.86,11066.51 15497.45,8362.47 "/>
    <polygon class="fil2" points="1597.35,4500.73 2901.65,7384.92 16629.48,7446.67 16621.8,4583.05 15386.91,4583.05 13863.9,4644.8 12361.45,4644.8 10817.84,4541.89 9294.81,4562.48 7751.21,4500.73 "/>
    <path class="fil3" d="M5784.04 14964.23l-300.83 -1154.87 23.45 -6.09 300.83 1154.87 -23.45 6.09zm10825.66 -10381.32l9.98 -797.69 24.21 0.29 -9.98 797.69 -24.21 -0.3zm-15023.84 -78.23l-226.43 -658.64 22.98 -7.88 226.43 658.64 -22.98 7.88zm1237.79 2844.97l-1034.22 -1008.5 16.9 -17.38 1034.22 1008.49 -16.9 17.39zm-1228.1 -773.64l958.71 979.33c871.87,2098.24 1733.14,4212.69 2625.47,6301.14l236.9 1081.55 -23.74 5.13 -236.46 -1079.51 -2622.8 -6294.73 -955.37 -975.92 17.29 -17z"/>
    <polygon class="fil4" points="1608.84,4496.8 4674.27,4500.73 4787.13,7393.41 2901.65,7384.92 "/>
    <polygon class="fil4" points="4674.27,4500.73 6248.23,4500.73 6317.62,7400.3 4787.13,7393.41 "/>
    <polygon class="fil4" points="6248.23,4500.73 7823.61,4503.63 7863.89,7407.25 6317.62,7400.3 "/>
    <polygon class="fil4" points="7823.61,4503.63 9351.38,4560.42 9364.42,7414 7863.89,7407.25 "/>
    <polygon class="fil4" points="9351.38,4560.42 10869.02,4545.3 10856.09,7420.71 9364.42,7414 "/>
    <polygon class="fil4" points="10869.02,4545.3 12417.48,4644.8 12404.97,7427.67 10856.09,7420.71 "/>
    <polygon class="fil4" points="12417.48,4644.8 13894.76,4644.8 13900.24,7434.39 12404.97,7427.67 "/>
    <polygon class="fil4" points="13894.76,4644.8 15413.93,4583.05 15406.25,7441.17 13920.81,7434.35 "/>
    <polygon class="fil4" points="15413.93,4583.05 16633.91,4583.2 16629.48,7446.67 15406.25,7441.17 "/>
    <polygon class="fil4" points="4877.42,8321.31 4879.59,9733.46 5445.01,11069.9 7356.83,11062.15 7367.42,8330.96 "/>
    <polygon class="fil4" points="7367.42,8330.96 9013.65,8337.33 9013.57,11041.54 7356.83,11062.15 "/>
    <polygon class="fil4" points="9013.65,8337.33 10629.22,8343.59 10659.8,11046.64 9013.57,11041.54 "/>
    <polygon class="fil4" points="10629.22,8343.59 12250.02,8349.87 12280.6,11052.38 10659.8,11046.64 "/>
    <polygon class="fil4" points="12250.02,8349.87 13886.29,8356.21 13927.36,11033.75 12280.6,11052.38 "/>
    <polygon class="fil4" points="13886.29,8356.21 15497.45,8362.47 15546.86,11066.51 13927.36,11033.75 "/>
    <polygon class="fil4" points="5445.01,11069.9 6215.22,12890.39 8543.38,13207.17 8577.45,11046.96 "/>
    <polygon class="fil4" points="8577.45,11046.96 10563.71,11046.34 10564.94,13482.25 8543.38,13207.17 "/>
    <polygon class="fil4" points="10564.41,12406.15 10563.71,11046.34 12416.06,11050.84 12441.69,12725.19 12446.22,13738.23 10564.94,13482.25 "/>
    <polygon class="fil4" points="12416.06,11050.84 14042.56,11036.07 14101.78,13963.51 12446.22,13738.23 "/>
    <polygon class="fil4" points="14042.56,11036.07 15546.86,11066.51 15707.98,14182.06 14101.78,13963.51 "/>
   </g>
   <path class="fil5" d="M5801.55 1667.11l97.19 -9.65c5.86,32.51 17.58,56.3 35.39,71.58 17.81,15.27 41.81,22.86 72.03,22.86 31.94,0 56.07,-6.78 72.26,-20.34 16.2,-13.56 24.35,-29.41 24.35,-47.56 0,-11.72 -3.45,-21.6 -10.23,-29.87 -6.77,-8.16 -18.72,-15.28 -35.73,-21.25 -11.6,-4.13 -38.03,-11.26 -79.39,-21.6 -53.19,-13.33 -90.53,-29.64 -112.01,-49.06 -30.22,-27.22 -45.27,-60.43 -45.27,-99.6 0,-25.16 7.13,-48.83 21.25,-70.77 14.24,-21.95 34.7,-38.61 61.47,-50.09 26.76,-11.49 58.94,-17.24 96.85,-17.24 61.69,0 108.22,13.67 139.36,41.13 31.25,27.46 47.56,64 49.17,109.84l-99.95 3.45c-4.25,-25.51 -13.33,-43.78 -27.22,-54.92 -13.9,-11.14 -34.81,-16.77 -62.61,-16.77 -28.73,0 -51.24,5.98 -67.44,17.92 -10.46,7.7 -15.74,17.92 -15.74,30.79 0,11.71 4.94,21.71 14.82,29.98 12.53,10.69 42.97,21.72 91.34,33.2 48.36,11.37 84.1,23.32 107.19,35.5 23.2,12.29 41.35,28.95 54.45,50.2 13.1,21.25 19.65,47.45 19.65,78.58 0,28.26 -7.81,54.8 -23.55,79.5 -15.74,24.7 -37.91,43.08 -66.64,55.03 -28.72,12.06 -64.56,18.04 -107.41,18.04 -62.38,0 -110.29,-14.37 -143.73,-43.2 -33.43,-28.73 -53.31,-70.66 -59.86,-125.69z"/>
   <polygon id="1" class="fil5" points="6284.08,1827.04 6284.08,1333.48 6384.03,1333.48 6384.03,1827.04 "/>
   <polygon id="2" class="fil5" points="6590.02,1827.04 6590.02,1416.89 6443.89,1416.89 6443.89,1333.48 6835.42,1333.48 6835.42,1416.89 6689.97,1416.89 6689.97,1827.04 "/>
   <polygon id="3" class="fil5" points="6900.1,1827.04 6900.1,1333.48 7265.44,1333.48 7265.44,1416.89 7000.06,1416.89 7000.06,1526.49 7246.83,1526.49 7246.83,1609.9 7000.06,1609.9 7000.06,1743.63 7275.09,1743.63 7275.09,1827.04 "/>
   <polygon id="4" class="fil5" points="7358.5,1827.04 7358.5,1333.48 7508.2,1333.48 7596.66,1670.1 7684.09,1333.48 7834.14,1333.48 7834.14,1827.04 7741.77,1827.04 7741.42,1438.49 7644.12,1827.04 7548.07,1827.04 7451.22,1438.49 7450.87,1827.04 "/>
   <path id="5" class="fil5" d="M8378.7 1827.04l-107.64 0 -42.62 -112.36 -197.95 0 -41.01 112.36 -105.7 0 191.63 -493.55 105.58 0 197.72 493.55zm-182.67 -195.77l-68.59 -182.67 -66.64 182.67 135.22 0z"/>
   <path id="6" class="fil5" d="M8431.89 1827.04l0 -493.55 159.81 0c60.54,0 99.96,2.42 118.33,7.36 28.26,7.46 51.93,23.55 71,48.36 19.08,24.82 28.61,56.87 28.61,96.16 0,30.33 -5.52,55.72 -16.43,76.4 -11.03,20.68 -24.93,36.88 -41.82,48.72 -16.89,11.72 -34.12,19.53 -51.58,23.32 -23.78,4.72 -58.14,7.13 -103.17,7.13l-64.79 0 0 186.12 -99.96 0zm99.96 -410.15l0 140.62 54.34 0c39.18,0 65.25,-2.65 78.47,-7.81 13.21,-5.17 23.55,-13.21 31.02,-24.36 7.47,-11.03 11.26,-23.78 11.26,-38.48 0,-18.04 -5.29,-32.86 -15.74,-44.58 -10.57,-11.72 -23.78,-19.08 -39.98,-22.06 -11.83,-2.18 -35.61,-3.33 -71.46,-3.33l-47.91 0z"/>
   <polygon id="7" class="fil5" points="9072.16,1827.04 9072.16,1333.48 9172.11,1333.48 9172.11,1552.11 9373.5,1333.48 9507.46,1333.48 9321.23,1525.69 9517.11,1827.04 9388.21,1827.04 9252.42,1595.31 9172.11,1677.8 9172.11,1827.04 "/>
   <path id="8" class="fil5" d="M10013.19 1827.04l-107.64 0 -42.62 -112.36 -197.95 0 -41.01 112.36 -105.7 0 191.63 -493.55 105.58 0 197.72 493.55zm-182.67 -195.77l-68.59 -182.67 -66.64 182.67 135.22 0z"/>
   <polygon id="9" class="fil5" points="10069.14,1827.04 10069.14,1337.61 10169.09,1337.61 10169.09,1743.63 10416.56,1743.63 10416.56,1827.04 "/>
   <polygon id="10" class="fil5" points="10484,1827.04 10484,1333.48 10583.95,1333.48 10583.95,1827.04 "/>
   <path id="11" class="fil5" d="M10856.12 1333.48l99.95 0 0 312.72c0,40.9 -3.56,72.38 -10.8,94.44 -9.66,28.72 -27.12,51.81 -52.51,69.27 -25.27,17.35 -58.7,26.09 -100.3,26.09 -48.71,0 -86.16,-13.56 -112.35,-40.79 -26.31,-27.22 -39.52,-67.21 -39.75,-119.83l94.43 -11.03c1.15,28.15 5.17,48.02 12.3,59.63 10.69,17.69 26.89,26.54 48.71,26.54 21.95,0 37.57,-6.32 46.65,-19.08 9.08,-12.64 13.67,-38.94 13.67,-78.93l0 -319.04z"/>
   <path id="12" class="fil5" d="M11041.66 1583.24c0,-50.32 7.58,-92.6 22.63,-126.84 11.14,-25.16 26.54,-47.79 45.95,-67.78 19.41,-19.98 40.68,-34.8 63.77,-44.57 30.79,-12.99 66.28,-19.54 106.5,-19.54 72.84,0 130.97,22.64 174.74,67.78 43.65,45.27 65.48,108.11 65.48,188.65 0,79.84 -21.72,142.34 -65.03,187.38 -43.31,45.15 -101.33,67.67 -173.82,67.67 -73.41,0 -131.89,-22.41 -175.21,-67.33 -43.31,-44.8 -65.02,-106.61 -65.02,-185.43zm102.71 -3.33c0,55.95 12.98,98.34 38.83,127.3 25.85,28.83 58.7,43.31 98.46,43.31 39.87,0 72.49,-14.37 98.11,-42.97 25.51,-28.73 38.26,-71.69 38.26,-129.02 0,-56.64 -12.4,-98.92 -37.34,-126.72 -24.82,-27.92 -57.79,-41.82 -99.03,-41.82 -41.13,0 -74.33,14.14 -99.49,42.28 -25.16,28.26 -37.8,70.77 -37.8,127.64z"/>
   <path id="13" class="fil5" d="M11572.32 1667.11l97.19 -9.65c5.86,32.51 17.58,56.3 35.39,71.58 17.81,15.27 41.81,22.86 72.03,22.86 31.94,0 56.07,-6.78 72.26,-20.34 16.2,-13.56 24.35,-29.41 24.35,-47.56 0,-11.72 -3.45,-21.6 -10.23,-29.87 -6.77,-8.16 -18.72,-15.28 -35.73,-21.25 -11.6,-4.13 -38.03,-11.26 -79.39,-21.6 -53.19,-13.33 -90.53,-29.64 -112.01,-49.06 -30.22,-27.22 -45.27,-60.43 -45.27,-99.6 0,-25.16 7.13,-48.83 21.25,-70.77 14.24,-21.95 34.7,-38.61 61.47,-50.09 26.76,-11.49 58.94,-17.24 96.85,-17.24 61.69,0 108.22,13.67 139.36,41.13 31.25,27.46 47.56,64 49.17,109.84l-99.95 3.45c-4.25,-25.51 -13.33,-43.78 -27.22,-54.92 -13.9,-11.14 -34.81,-16.77 -62.61,-16.77 -28.73,0 -51.24,5.98 -67.44,17.92 -10.46,7.7 -15.74,17.92 -15.74,30.79 0,11.71 4.94,21.71 14.82,29.98 12.53,10.69 42.97,21.72 91.34,33.2 48.36,11.37 84.1,23.32 107.19,35.5 23.2,12.29 41.35,28.95 54.45,50.2 13.1,21.25 19.65,47.45 19.65,78.58 0,28.26 -7.81,54.8 -23.55,79.5 -15.74,24.7 -37.91,43.08 -66.64,55.03 -28.72,12.06 -64.56,18.04 -107.41,18.04 -62.38,0 -110.29,-14.37 -143.73,-43.2 -33.43,-28.73 -53.31,-70.66 -59.86,-125.69z"/>
   <path id="14" class="fil5" d="M12037.62 1583.24c0,-50.32 7.58,-92.6 22.63,-126.84 11.14,-25.16 26.54,-47.79 45.95,-67.78 19.41,-19.98 40.68,-34.8 63.77,-44.57 30.79,-12.99 66.28,-19.54 106.5,-19.54 72.84,0 130.97,22.64 174.74,67.78 43.65,45.27 65.48,108.11 65.48,188.65 0,79.84 -21.72,142.34 -65.03,187.38 -43.31,45.15 -101.33,67.67 -173.82,67.67 -73.41,0 -131.89,-22.41 -175.21,-67.33 -43.31,-44.8 -65.02,-106.61 -65.02,-185.43zm102.71 -3.33c0,55.95 12.98,98.34 38.83,127.3 25.85,28.83 58.7,43.31 98.46,43.31 39.87,0 72.49,-14.37 98.11,-42.97 25.51,-28.73 38.26,-71.69 38.26,-129.02 0,-56.64 -12.4,-98.92 -37.34,-126.72 -24.82,-27.92 -57.79,-41.82 -99.03,-41.82 -41.13,0 -74.33,14.14 -99.49,42.28 -25.16,28.26 -37.8,70.77 -37.8,127.64z"/>
   <path id="15" class="fil5" d="M7710.34 2437.2l97.19 -9.65c5.86,32.51 17.58,56.3 35.39,71.58 17.81,15.27 41.81,22.86 72.03,22.86 31.94,0 56.07,-6.78 72.26,-20.34 16.2,-13.56 24.35,-29.41 24.35,-47.56 0,-11.72 -3.45,-21.6 -10.23,-29.87 -6.77,-8.16 -18.72,-15.28 -35.73,-21.25 -11.6,-4.13 -38.03,-11.26 -79.39,-21.6 -53.19,-13.33 -90.53,-29.64 -112.01,-49.06 -30.22,-27.22 -45.27,-60.43 -45.27,-99.6 0,-25.16 7.13,-48.83 21.25,-70.77 14.24,-21.95 34.7,-38.61 61.47,-50.09 26.76,-11.49 58.94,-17.24 96.85,-17.24 61.69,0 108.22,13.67 139.36,41.13 31.25,27.46 47.56,64 49.17,109.84l-99.95 3.45c-4.25,-25.51 -13.33,-43.78 -27.22,-54.92 -13.9,-11.14 -34.81,-16.77 -62.61,-16.77 -28.73,0 -51.24,5.98 -67.44,17.92 -10.46,7.7 -15.74,17.92 -15.74,30.79 0,11.71 4.94,21.71 14.82,29.98 12.53,10.69 42.97,21.72 91.34,33.2 48.36,11.37 84.1,23.32 107.19,35.5 23.2,12.29 41.35,28.95 54.45,50.2 13.1,21.25 19.65,47.45 19.65,78.58 0,28.26 -7.81,54.8 -23.55,79.5 -15.74,24.7 -37.91,43.08 -66.64,55.03 -28.72,12.06 -64.56,18.04 -107.41,18.04 -62.38,0 -110.29,-14.37 -143.73,-43.2 -33.43,-28.73 -53.31,-70.66 -59.86,-125.69z"/>
   <polygon id="16" class="fil5" points="8196.31,2597.12 8196.31,2103.57 8561.65,2103.57 8561.65,2186.97 8296.27,2186.97 8296.27,2296.58 8543.04,2296.58 8543.04,2379.99 8296.27,2379.99 8296.27,2513.72 8571.3,2513.72 8571.3,2597.12 "/>
   <path id="17" class="fil5" d="M8971.81 2415.15l96.5 29.64c-14.82,54.34 -39.52,94.66 -73.99,121.09 -34.47,26.31 -78.13,39.52 -131.08,39.52 -65.61,0 -119.49,-22.4 -161.76,-67.21 -42.17,-44.81 -63.31,-106.04 -63.31,-183.82 0,-82.15 21.25,-146.03 63.65,-191.52 42.39,-45.49 98.23,-68.25 167.39,-68.25 60.43,0 109.48,17.93 147.17,53.66 22.52,21.14 39.3,51.47 50.56,91.1l-98.57 23.44c-5.86,-25.5 -18.04,-45.72 -36.54,-60.54 -18.61,-14.82 -41.13,-22.18 -67.55,-22.18 -36.65,0 -66.41,13.1 -89.15,39.41 -22.86,26.19 -34.23,68.7 -34.23,127.52 0,62.27 11.26,106.73 33.66,133.15 22.52,26.54 51.7,39.75 87.66,39.75 26.54,0 49.4,-8.39 68.48,-25.28 19.07,-16.88 32.86,-43.31 41.13,-79.5z"/>
   <path id="18" class="fil5" d="M9598.51 2597.12l-107.64 0 -42.62 -112.36 -197.95 0 -41.01 112.36 -105.7 0 191.63 -493.55 105.58 0 197.72 493.55zm-182.67 -195.77l-68.59 -182.67 -66.64 182.67 135.22 0z"/>
   <polygon id="19" class="fil5" points="9651.7,2597.12 9651.7,2103.57 9748.44,2103.57 9951.55,2434.33 9951.55,2103.57 10043.92,2103.57 10043.92,2597.12 9944.09,2597.12 9744.07,2272.68 9744.07,2597.12 "/>
   <path id="20" class="fil5" d="M10379.04 2415.83l0 -83.41 214.38 0 0 196.91c-20.8,20.34 -51.01,38.14 -90.65,53.66 -39.52,15.39 -79.62,23.09 -120.29,23.09 -51.59,0 -96.51,-10.8 -134.88,-32.52 -38.26,-21.71 -67.09,-52.85 -86.4,-93.17 -19.3,-40.33 -28.95,-84.33 -28.95,-131.78 0,-51.47 10.8,-97.19 32.28,-137.29 21.6,-39.98 53.08,-70.76 94.56,-92.13 31.71,-16.44 71,-24.59 118.1,-24.59 61.24,0 109.14,12.87 143.61,38.61 34.35,25.85 56.52,61.35 66.4,106.84l-99.26 18.61c-6.89,-24.25 -19.99,-43.43 -39.18,-57.56 -19.07,-14.02 -42.96,-21.03 -71.69,-21.03 -43.43,0 -78.01,13.79 -103.63,41.48 -25.62,27.69 -38.49,68.71 -38.49,123.04 0,58.71 12.99,102.71 38.95,132.01 26.08,29.29 60.08,44.01 102.25,44.01 20.79,0 41.7,-4.14 62.61,-12.3 21.02,-8.16 38.94,-18.15 54,-29.87l0 -62.61 -113.74 0z"/>
  </g>
 </g>
</svg>
